<svg width="445" height="241" viewBox="0 0 445 241" fill="none" xmlns="http://www.w3.org/2000/svg">
<rect width="445" height="240.324" fill="white"/>
<path d="M92.4148 17H91.3068L94.5114 8.27273H95.6023L98.8068 17H97.6989L95.0909 9.65341H95.0227L92.4148 17ZM92.8239 13.5909H97.2898V14.5284H92.8239V13.5909ZM100.78 10.4545L102.348 13.1307L103.916 10.4545H105.075L102.962 13.7273L105.075 17H103.916L102.348 14.4602L100.78 17H99.6207L101.7 13.7273L99.6207 10.4545H100.78ZM106.51 17V10.4545H107.516V17H106.51ZM107.022 9.36364C106.826 9.36364 106.657 9.29688 106.515 9.16335C106.375 9.02983 106.306 8.86932 106.306 8.68182C106.306 8.49432 106.375 8.33381 106.515 8.20028C106.657 8.06676 106.826 8 107.022 8C107.218 8 107.385 8.06676 107.525 8.20028C107.667 8.33381 107.738 8.49432 107.738 8.68182C107.738 8.86932 107.667 9.02983 107.525 9.16335C107.385 9.29688 107.218 9.36364 107.022 9.36364ZM113.994 11.9205L113.091 12.1761C113.034 12.0256 112.95 11.8793 112.839 11.7372C112.732 11.5923 112.584 11.473 112.396 11.3793C112.209 11.2855 111.969 11.2386 111.676 11.2386C111.276 11.2386 110.942 11.331 110.675 11.5156C110.411 11.6974 110.278 11.929 110.278 12.2102C110.278 12.4602 110.369 12.6577 110.551 12.8026C110.733 12.9474 111.017 13.0682 111.403 13.1648L112.375 13.4034C112.96 13.5455 113.396 13.7628 113.683 14.0554C113.97 14.3452 114.114 14.7187 114.114 15.1761C114.114 15.5511 114.006 15.8864 113.79 16.1818C113.577 16.4773 113.278 16.7102 112.895 16.8807C112.511 17.0511 112.065 17.1364 111.557 17.1364C110.889 17.1364 110.337 16.9915 109.899 16.7017C109.462 16.4119 109.185 15.9886 109.068 15.4318L110.023 15.1932C110.114 15.5455 110.286 15.8097 110.538 15.9858C110.794 16.1619 111.128 16.25 111.54 16.25C112.009 16.25 112.381 16.1506 112.656 15.9517C112.935 15.75 113.074 15.5085 113.074 15.2273C113.074 15 112.994 14.8097 112.835 14.6562C112.676 14.5 112.432 14.3835 112.102 14.3068L111.011 14.0511C110.412 13.9091 109.972 13.6889 109.69 13.3906C109.412 13.0895 109.273 12.7131 109.273 12.2614C109.273 11.892 109.376 11.5653 109.584 11.2812C109.794 10.9972 110.08 10.7741 110.44 10.6122C110.804 10.4503 111.216 10.3693 111.676 10.3693C112.324 10.3693 112.832 10.5114 113.202 10.7955C113.574 11.0795 113.838 11.4545 113.994 11.9205ZM122.054 8.27273V17H120.997V9.38068H120.946L118.815 10.7955V9.72159L120.997 8.27273H122.054ZM125.314 15.8835C125.103 15.8835 124.923 15.8082 124.772 15.6577C124.622 15.5071 124.547 15.3267 124.547 15.1165C124.547 14.9062 124.622 14.7259 124.772 14.5753C124.923 14.4247 125.103 14.3494 125.314 14.3494C125.524 14.3494 125.704 14.4247 125.855 14.5753C126.005 14.7259 126.081 14.9062 126.081 15.1165C126.081 15.2557 126.045 15.3835 125.974 15.5C125.906 15.6165 125.814 15.7102 125.697 15.7812C125.583 15.8494 125.456 15.8835 125.314 15.8835ZM125.314 11.4688C125.103 11.4688 124.923 11.3935 124.772 11.2429C124.622 11.0923 124.547 10.9119 124.547 10.7017C124.547 10.4915 124.622 10.3111 124.772 10.1605C124.923 10.0099 125.103 9.93466 125.314 9.93466C125.524 9.93466 125.704 10.0099 125.855 10.1605C126.005 10.3111 126.081 10.4915 126.081 10.7017C126.081 10.8409 126.045 10.9688 125.974 11.0852C125.906 11.2017 125.814 11.2955 125.697 11.3665C125.583 11.4347 125.456 11.4688 125.314 11.4688ZM135.897 11.9205L134.993 12.1761C134.936 12.0256 134.853 11.8793 134.742 11.7372C134.634 11.5923 134.486 11.473 134.299 11.3793C134.111 11.2855 133.871 11.2386 133.578 11.2386C133.178 11.2386 132.844 11.331 132.577 11.5156C132.313 11.6974 132.181 11.929 132.181 12.2102C132.181 12.4602 132.272 12.6577 132.453 12.8026C132.635 12.9474 132.919 13.0682 133.306 13.1648L134.277 13.4034C134.863 13.5455 135.299 13.7628 135.586 14.0554C135.873 14.3452 136.016 14.7187 136.016 15.1761C136.016 15.5511 135.908 15.8864 135.692 16.1818C135.479 16.4773 135.181 16.7102 134.797 16.8807C134.414 17.0511 133.968 17.1364 133.459 17.1364C132.792 17.1364 132.239 16.9915 131.801 16.7017C131.364 16.4119 131.087 15.9886 130.971 15.4318L131.925 15.1932C132.016 15.5455 132.188 15.8097 132.441 15.9858C132.696 16.1619 133.03 16.25 133.442 16.25C133.911 16.25 134.283 16.1506 134.559 15.9517C134.837 15.75 134.976 15.5085 134.976 15.2273C134.976 15 134.897 14.8097 134.738 14.6562C134.578 14.5 134.334 14.3835 134.005 14.3068L132.914 14.0511C132.314 13.9091 131.874 13.6889 131.593 13.3906C131.314 13.0895 131.175 12.7131 131.175 12.2614C131.175 11.892 131.279 11.5653 131.486 11.2812C131.696 10.9972 131.982 10.7741 132.343 10.6122C132.706 10.4503 133.118 10.3693 133.578 10.3693C134.226 10.3693 134.735 10.5114 135.104 10.7955C135.476 11.0795 135.74 11.4545 135.897 11.9205ZM139.456 17.1534C139.041 17.1534 138.665 17.0753 138.327 16.919C137.989 16.7599 137.72 16.5312 137.521 16.233C137.322 15.9318 137.223 15.5682 137.223 15.142C137.223 14.767 137.297 14.4631 137.445 14.2301C137.592 13.9943 137.79 13.8097 138.037 13.6761C138.284 13.5426 138.557 13.4432 138.855 13.3778C139.156 13.3097 139.459 13.2557 139.763 13.2159C140.161 13.1648 140.483 13.1264 140.73 13.1009C140.98 13.0724 141.162 13.0256 141.276 12.9602C141.392 12.8949 141.45 12.7812 141.45 12.6193V12.5852C141.45 12.1648 141.335 11.8381 141.105 11.6051C140.878 11.3722 140.533 11.2557 140.07 11.2557C139.589 11.2557 139.213 11.3608 138.94 11.571C138.668 11.7812 138.476 12.0057 138.365 12.2443L137.411 11.9034C137.581 11.5057 137.808 11.196 138.092 10.9744C138.379 10.75 138.692 10.5937 139.03 10.5057C139.371 10.4148 139.706 10.3693 140.036 10.3693C140.246 10.3693 140.487 10.3949 140.76 10.446C141.036 10.4943 141.301 10.5952 141.557 10.7486C141.815 10.902 142.03 11.1335 142.2 11.4432C142.371 11.7528 142.456 12.1676 142.456 12.6875V17H141.45V16.1136H141.399C141.331 16.2557 141.217 16.4077 141.058 16.5696C140.899 16.7315 140.688 16.8693 140.423 16.983C140.159 17.0966 139.837 17.1534 139.456 17.1534ZM139.609 16.25C140.007 16.25 140.342 16.1719 140.615 16.0156C140.891 15.8594 141.098 15.6577 141.237 15.4105C141.379 15.1634 141.45 14.9034 141.45 14.6307V13.7102C141.408 13.7614 141.314 13.8082 141.169 13.8509C141.027 13.8906 140.862 13.9261 140.675 13.9574C140.49 13.9858 140.31 14.0114 140.134 14.0341C139.96 14.054 139.82 14.071 139.712 14.0852C139.45 14.1193 139.206 14.1747 138.979 14.2514C138.754 14.3253 138.572 14.4375 138.433 14.5881C138.297 14.7358 138.229 14.9375 138.229 15.1932C138.229 15.5426 138.358 15.8068 138.616 15.9858C138.878 16.1619 139.209 16.25 139.609 16.25ZM144.292 17V10.4545H145.263V11.4773H145.348C145.485 11.1278 145.705 10.8565 146.009 10.6634C146.313 10.4673 146.678 10.3693 147.104 10.3693C147.536 10.3693 147.895 10.4673 148.182 10.6634C148.472 10.8565 148.698 11.1278 148.86 11.4773H148.928C149.096 11.1392 149.347 10.8707 149.682 10.6719C150.017 10.4702 150.419 10.3693 150.888 10.3693C151.473 10.3693 151.952 10.5526 152.324 10.919C152.696 11.2827 152.882 11.8494 152.882 12.6193V17H151.877V12.6193C151.877 12.1364 151.745 11.7912 151.48 11.5838C151.216 11.3764 150.905 11.2727 150.547 11.2727C150.087 11.2727 149.73 11.4119 149.478 11.6903C149.225 11.9659 149.098 12.3153 149.098 12.7386V17H148.076V12.517C148.076 12.1449 147.955 11.8452 147.713 11.6179C147.472 11.3878 147.161 11.2727 146.78 11.2727C146.519 11.2727 146.275 11.3423 146.047 11.4815C145.823 11.6207 145.641 11.8139 145.502 12.0611C145.365 12.3054 145.297 12.5881 145.297 12.9091V17H144.292ZM154.721 19.4545V10.4545H155.693V11.4943H155.812C155.886 11.3807 155.988 11.2358 156.119 11.0597C156.252 10.8807 156.443 10.7216 156.69 10.5824C156.94 10.4403 157.278 10.3693 157.704 10.3693C158.255 10.3693 158.741 10.5071 159.162 10.7827C159.582 11.0582 159.91 11.4489 160.146 11.9545C160.382 12.4602 160.5 13.0568 160.5 13.7443C160.5 14.4375 160.382 15.0384 160.146 15.5469C159.91 16.0526 159.583 16.4446 159.166 16.723C158.748 16.9986 158.267 17.1364 157.721 17.1364C157.301 17.1364 156.964 17.0668 156.711 16.9276C156.458 16.7855 156.264 16.625 156.127 16.446C155.991 16.2642 155.886 16.1136 155.812 15.9943H155.727V19.4545H154.721ZM155.71 13.7273C155.71 14.2216 155.782 14.6577 155.927 15.0355C156.072 15.4105 156.284 15.7045 156.562 15.9176C156.841 16.1278 157.181 16.233 157.585 16.233C158.005 16.233 158.356 16.1222 158.637 15.9006C158.922 15.6761 159.135 15.375 159.277 14.9972C159.422 14.6165 159.494 14.1932 159.494 13.7273C159.494 13.267 159.423 12.8523 159.281 12.483C159.142 12.1108 158.93 11.8168 158.646 11.6009C158.365 11.3821 158.011 11.2727 157.585 11.2727C157.176 11.2727 156.832 11.3764 156.554 11.5838C156.275 11.7884 156.065 12.0753 155.923 12.4446C155.781 12.8111 155.71 13.2386 155.71 13.7273ZM163.039 8.27273V17H162.034V8.27273H163.039ZM167.626 17.1364C166.995 17.1364 166.451 16.9972 165.994 16.7188C165.539 16.4375 165.188 16.0455 164.941 15.5426C164.697 15.0369 164.575 14.4489 164.575 13.7784C164.575 13.108 164.697 12.517 164.941 12.0057C165.188 11.4915 165.532 11.0909 165.972 10.804C166.415 10.5142 166.933 10.3693 167.523 10.3693C167.864 10.3693 168.201 10.4261 168.533 10.5398C168.866 10.6534 169.168 10.8381 169.441 11.0938C169.714 11.3466 169.931 11.6818 170.093 12.0994C170.255 12.517 170.336 13.0312 170.336 13.642V14.0682H165.29V13.1989H169.313C169.313 12.8295 169.239 12.5 169.092 12.2102C168.947 11.9205 168.739 11.6918 168.469 11.5241C168.202 11.3565 167.887 11.2727 167.523 11.2727C167.123 11.2727 166.776 11.3722 166.484 11.571C166.194 11.767 165.971 12.0227 165.815 12.3381C165.658 12.6534 165.58 12.9915 165.58 13.3523V13.9318C165.58 14.4261 165.665 14.8452 165.836 15.1889C166.009 15.5298 166.249 15.7898 166.556 15.9688C166.863 16.1449 167.219 16.233 167.626 16.233C167.89 16.233 168.129 16.196 168.342 16.1222C168.558 16.0455 168.744 15.9318 168.9 15.7812C169.056 15.6278 169.177 15.4375 169.262 15.2102L170.234 15.483C170.131 15.8125 169.96 16.1023 169.718 16.3523C169.477 16.5994 169.178 16.7926 168.823 16.9318C168.468 17.0682 168.069 17.1364 167.626 17.1364ZM176.502 11.9205L175.599 12.1761C175.542 12.0256 175.458 11.8793 175.347 11.7372C175.239 11.5923 175.092 11.473 174.904 11.3793C174.717 11.2855 174.477 11.2386 174.184 11.2386C173.783 11.2386 173.45 11.331 173.183 11.5156C172.918 11.6974 172.786 11.929 172.786 12.2102C172.786 12.4602 172.877 12.6577 173.059 12.8026C173.241 12.9474 173.525 13.0682 173.911 13.1648L174.883 13.4034C175.468 13.5455 175.904 13.7628 176.191 14.0554C176.478 14.3452 176.621 14.7187 176.621 15.1761C176.621 15.5511 176.513 15.8864 176.298 16.1818C176.085 16.4773 175.786 16.7102 175.403 16.8807C175.019 17.0511 174.573 17.1364 174.065 17.1364C173.397 17.1364 172.844 16.9915 172.407 16.7017C171.969 16.4119 171.692 15.9886 171.576 15.4318L172.531 15.1932C172.621 15.5455 172.793 15.8097 173.046 15.9858C173.302 16.1619 173.636 16.25 174.048 16.25C174.516 16.25 174.888 16.1506 175.164 15.9517C175.442 15.75 175.582 15.5085 175.582 15.2273C175.582 15 175.502 14.8097 175.343 14.6562C175.184 14.5 174.94 14.3835 174.61 14.3068L173.519 14.0511C172.92 13.9091 172.479 13.6889 172.198 13.3906C171.92 13.0895 171.781 12.7131 171.781 12.2614C171.781 11.892 171.884 11.5653 172.092 11.2812C172.302 10.9972 172.587 10.7741 172.948 10.6122C173.312 10.4503 173.724 10.3693 174.184 10.3693C174.832 10.3693 175.34 10.5114 175.71 10.7955C176.082 11.0795 176.346 11.4545 176.502 11.9205Z" fill="black"/>
<path d="M305.107 17H302.414V8.27273H305.227C306.073 8.27273 306.798 8.44744 307.4 8.79688C308.002 9.14347 308.464 9.64205 308.785 10.2926C309.106 10.9403 309.267 11.7159 309.267 12.6193C309.267 13.5284 309.105 14.3111 308.781 14.9673C308.457 15.6207 307.985 16.1236 307.366 16.4759C306.747 16.8253 305.994 17 305.107 17ZM303.471 16.0625H305.039C305.761 16.0625 306.359 15.9233 306.833 15.6449C307.308 15.3665 307.661 14.9702 307.894 14.456C308.127 13.9418 308.244 13.3295 308.244 12.6193C308.244 11.9148 308.129 11.3082 307.899 10.7997C307.669 10.2884 307.325 9.89631 306.867 9.62358C306.41 9.34801 305.84 9.21023 305.159 9.21023H303.471V16.0625ZM312.829 17.1534C312.414 17.1534 312.038 17.0753 311.7 16.919C311.362 16.7599 311.093 16.5312 310.894 16.233C310.695 15.9318 310.596 15.5682 310.596 15.142C310.596 14.767 310.67 14.4631 310.818 14.2301C310.965 13.9943 311.163 13.8097 311.41 13.6761C311.657 13.5426 311.93 13.4432 312.228 13.3778C312.529 13.3097 312.832 13.2557 313.136 13.2159C313.534 13.1648 313.856 13.1264 314.103 13.1009C314.353 13.0724 314.535 13.0256 314.649 12.9602C314.765 12.8949 314.823 12.7812 314.823 12.6193V12.5852C314.823 12.1648 314.708 11.8381 314.478 11.6051C314.251 11.3722 313.906 11.2557 313.443 11.2557C312.963 11.2557 312.586 11.3608 312.313 11.571C312.041 11.7812 311.849 12.0057 311.738 12.2443L310.784 11.9034C310.954 11.5057 311.181 11.196 311.465 10.9744C311.752 10.75 312.065 10.5937 312.403 10.5057C312.744 10.4148 313.079 10.3693 313.409 10.3693C313.619 10.3693 313.86 10.3949 314.133 10.446C314.409 10.4943 314.674 10.5952 314.93 10.7486C315.188 10.902 315.403 11.1335 315.573 11.4432C315.744 11.7528 315.829 12.1676 315.829 12.6875V17H314.823V16.1136H314.772C314.704 16.2557 314.59 16.4077 314.431 16.5696C314.272 16.7315 314.061 16.8693 313.796 16.983C313.532 17.0966 313.21 17.1534 312.829 17.1534ZM312.982 16.25C313.38 16.25 313.715 16.1719 313.988 16.0156C314.264 15.8594 314.471 15.6577 314.61 15.4105C314.752 15.1634 314.823 14.9034 314.823 14.6307V13.7102C314.781 13.7614 314.687 13.8082 314.542 13.8509C314.4 13.8906 314.235 13.9261 314.048 13.9574C313.863 13.9858 313.683 14.0114 313.507 14.0341C313.333 14.054 313.193 14.071 313.085 14.0852C312.823 14.1193 312.579 14.1747 312.352 14.2514C312.127 14.3253 311.945 14.4375 311.806 14.5881C311.67 14.7358 311.602 14.9375 311.602 15.1932C311.602 15.5426 311.731 15.8068 311.99 15.9858C312.251 16.1619 312.582 16.25 312.982 16.25ZM320.511 10.4545V11.3068H317.119V10.4545H320.511ZM318.108 8.88636H319.113V15.125C319.113 15.4091 319.155 15.6222 319.237 15.7642C319.322 15.9034 319.43 15.9972 319.561 16.0455C319.694 16.0909 319.835 16.1136 319.983 16.1136C320.094 16.1136 320.184 16.108 320.256 16.0966C320.327 16.0824 320.383 16.071 320.426 16.0625L320.631 16.9659C320.562 16.9915 320.467 17.017 320.345 17.0426C320.223 17.071 320.068 17.0852 319.881 17.0852C319.596 17.0852 319.318 17.0241 319.045 16.902C318.775 16.7798 318.551 16.5938 318.372 16.3438C318.196 16.0938 318.108 15.7784 318.108 15.3977V8.88636ZM323.95 17.1534C323.535 17.1534 323.159 17.0753 322.821 16.919C322.483 16.7599 322.214 16.5312 322.015 16.233C321.817 15.9318 321.717 15.5682 321.717 15.142C321.717 14.767 321.791 14.4631 321.939 14.2301C322.086 13.9943 322.284 13.8097 322.531 13.6761C322.778 13.5426 323.051 13.4432 323.349 13.3778C323.65 13.3097 323.953 13.2557 324.257 13.2159C324.655 13.1648 324.977 13.1264 325.224 13.1009C325.474 13.0724 325.656 13.0256 325.77 12.9602C325.886 12.8949 325.944 12.7812 325.944 12.6193V12.5852C325.944 12.1648 325.829 11.8381 325.599 11.6051C325.372 11.3722 325.027 11.2557 324.564 11.2557C324.084 11.2557 323.707 11.3608 323.434 11.571C323.162 11.7812 322.97 12.0057 322.859 12.2443L321.905 11.9034C322.075 11.5057 322.302 11.196 322.586 10.9744C322.873 10.75 323.186 10.5937 323.524 10.5057C323.865 10.4148 324.2 10.3693 324.53 10.3693C324.74 10.3693 324.981 10.3949 325.254 10.446C325.53 10.4943 325.795 10.5952 326.051 10.7486C326.309 10.902 326.524 11.1335 326.694 11.4432C326.865 11.7528 326.95 12.1676 326.95 12.6875V17H325.944V16.1136H325.893C325.825 16.2557 325.711 16.4077 325.552 16.5696C325.393 16.7315 325.182 16.8693 324.917 16.983C324.653 17.0966 324.331 17.1534 323.95 17.1534ZM324.104 16.25C324.501 16.25 324.836 16.1719 325.109 16.0156C325.385 15.8594 325.592 15.6577 325.731 15.4105C325.873 15.1634 325.944 14.9034 325.944 14.6307V13.7102C325.902 13.7614 325.808 13.8082 325.663 13.8509C325.521 13.8906 325.356 13.9261 325.169 13.9574C324.984 13.9858 324.804 14.0114 324.628 14.0341C324.454 14.054 324.314 14.071 324.206 14.0852C323.944 14.1193 323.7 14.1747 323.473 14.2514C323.248 14.3253 323.067 14.4375 322.927 14.5881C322.791 14.7358 322.723 14.9375 322.723 15.1932C322.723 15.5426 322.852 15.8068 323.111 15.9858C323.372 16.1619 323.703 16.25 324.104 16.25ZM333.422 11.9205L332.519 12.1761C332.462 12.0256 332.378 11.8793 332.267 11.7372C332.159 11.5923 332.012 11.473 331.824 11.3793C331.637 11.2855 331.396 11.2386 331.104 11.2386C330.703 11.2386 330.369 11.331 330.102 11.5156C329.838 11.6974 329.706 11.929 329.706 12.2102C329.706 12.4602 329.797 12.6577 329.979 12.8026C330.161 12.9474 330.445 13.0682 330.831 13.1648L331.803 13.4034C332.388 13.5455 332.824 13.7628 333.111 14.0554C333.398 14.3452 333.541 14.7187 333.541 15.1761C333.541 15.5511 333.433 15.8864 333.218 16.1818C333.004 16.4773 332.706 16.7102 332.323 16.8807C331.939 17.0511 331.493 17.1364 330.985 17.1364C330.317 17.1364 329.764 16.9915 329.327 16.7017C328.889 16.4119 328.612 15.9886 328.496 15.4318L329.45 15.1932C329.541 15.5455 329.713 15.8097 329.966 15.9858C330.222 16.1619 330.556 16.25 330.968 16.25C331.436 16.25 331.808 16.1506 332.084 15.9517C332.362 15.75 332.502 15.5085 332.502 15.2273C332.502 15 332.422 14.8097 332.263 14.6562C332.104 14.5 331.86 14.3835 331.53 14.3068L330.439 14.0511C329.84 13.9091 329.399 13.6889 329.118 13.3906C328.84 13.0895 328.7 12.7131 328.7 12.2614C328.7 11.892 328.804 11.5653 329.012 11.2812C329.222 10.9972 329.507 10.7741 329.868 10.6122C330.232 10.4503 330.644 10.3693 331.104 10.3693C331.752 10.3693 332.26 10.5114 332.629 10.7955C333.002 11.0795 333.266 11.4545 333.422 11.9205ZM337.8 17.1364C337.169 17.1364 336.625 16.9972 336.167 16.7188C335.713 16.4375 335.362 16.0455 335.115 15.5426C334.871 15.0369 334.748 14.4489 334.748 13.7784C334.748 13.108 334.871 12.517 335.115 12.0057C335.362 11.4915 335.706 11.0909 336.146 10.804C336.589 10.5142 337.106 10.3693 337.697 10.3693C338.038 10.3693 338.375 10.4261 338.707 10.5398C339.04 10.6534 339.342 10.8381 339.615 11.0938C339.888 11.3466 340.105 11.6818 340.267 12.0994C340.429 12.517 340.51 13.0312 340.51 13.642V14.0682H335.464V13.1989H339.487C339.487 12.8295 339.413 12.5 339.265 12.2102C339.121 11.9205 338.913 11.6918 338.643 11.5241C338.376 11.3565 338.061 11.2727 337.697 11.2727C337.297 11.2727 336.95 11.3722 336.657 11.571C336.368 11.767 336.145 12.0227 335.988 12.3381C335.832 12.6534 335.754 12.9915 335.754 13.3523V13.9318C335.754 14.4261 335.839 14.8452 336.01 15.1889C336.183 15.5298 336.423 15.7898 336.73 15.9688C337.037 16.1449 337.393 16.233 337.8 16.233C338.064 16.233 338.302 16.196 338.515 16.1222C338.731 16.0455 338.917 15.9318 339.074 15.7812C339.23 15.6278 339.351 15.4375 339.436 15.2102L340.407 15.483C340.305 15.8125 340.133 16.1023 339.892 16.3523C339.65 16.5994 339.352 16.7926 338.997 16.9318C338.642 17.0682 338.243 17.1364 337.8 17.1364ZM344.886 10.4545V11.3068H341.494V10.4545H344.886ZM342.483 8.88636H343.488V15.125C343.488 15.4091 343.53 15.6222 343.612 15.7642C343.697 15.9034 343.805 15.9972 343.936 16.0455C344.069 16.0909 344.21 16.1136 344.358 16.1136C344.469 16.1136 344.559 16.108 344.631 16.0966C344.702 16.0824 344.758 16.071 344.801 16.0625L345.006 16.9659C344.937 16.9915 344.842 17.017 344.72 17.0426C344.598 17.071 344.443 17.0852 344.256 17.0852C343.971 17.0852 343.693 17.0241 343.42 16.902C343.15 16.7798 342.926 16.5938 342.747 16.3438C342.571 16.0938 342.483 15.7784 342.483 15.3977V8.88636ZM347.132 17.0682C346.922 17.0682 346.741 16.9929 346.591 16.8423C346.44 16.6918 346.365 16.5114 346.365 16.3011C346.365 16.0909 346.44 15.9105 346.591 15.7599C346.741 15.6094 346.922 15.5341 347.132 15.5341C347.342 15.5341 347.523 15.6094 347.673 15.7599C347.824 15.9105 347.899 16.0909 347.899 16.3011C347.899 16.4403 347.863 16.5682 347.792 16.6847C347.724 16.8011 347.632 16.8949 347.515 16.9659C347.402 17.0341 347.274 17.0682 347.132 17.0682ZM349.704 17V10.4545H350.675V11.4432H350.743C350.863 11.1193 351.079 10.8565 351.391 10.6548C351.704 10.4531 352.056 10.3523 352.448 10.3523C352.522 10.3523 352.614 10.3537 352.725 10.3565C352.836 10.3594 352.92 10.3636 352.976 10.3693V11.392C352.942 11.3835 352.864 11.3707 352.742 11.3537C352.623 11.3338 352.496 11.3239 352.363 11.3239C352.045 11.3239 351.76 11.3906 351.51 11.5241C351.263 11.6548 351.067 11.8366 350.922 12.0696C350.78 12.2997 350.709 12.5625 350.709 12.858V17H349.704ZM356.714 17.1364C356.083 17.1364 355.539 16.9972 355.081 16.7188C354.627 16.4375 354.276 16.0455 354.029 15.5426C353.785 15.0369 353.662 14.4489 353.662 13.7784C353.662 13.108 353.785 12.517 354.029 12.0057C354.276 11.4915 354.62 11.0909 355.06 10.804C355.503 10.5142 356.02 10.3693 356.611 10.3693C356.952 10.3693 357.289 10.4261 357.621 10.5398C357.954 10.6534 358.256 10.8381 358.529 11.0938C358.802 11.3466 359.019 11.6818 359.181 12.0994C359.343 12.517 359.424 13.0312 359.424 13.642V14.0682H354.378V13.1989H358.401C358.401 12.8295 358.327 12.5 358.18 12.2102C358.035 11.9205 357.827 11.6918 357.557 11.5241C357.29 11.3565 356.975 11.2727 356.611 11.2727C356.211 11.2727 355.864 11.3722 355.572 11.571C355.282 11.767 355.059 12.0227 354.903 12.3381C354.746 12.6534 354.668 12.9915 354.668 13.3523V13.9318C354.668 14.4261 354.753 14.8452 354.924 15.1889C355.097 15.5298 355.337 15.7898 355.644 15.9688C355.951 16.1449 356.307 16.233 356.714 16.233C356.978 16.233 357.216 16.196 357.43 16.1222C357.645 16.0455 357.831 15.9318 357.988 15.7812C358.144 15.6278 358.265 15.4375 358.35 15.2102L359.322 15.483C359.219 15.8125 359.047 16.1023 358.806 16.3523C358.564 16.5994 358.266 16.7926 357.911 16.9318C357.556 17.0682 357.157 17.1364 356.714 17.1364ZM363.596 19.5909C363.11 19.5909 362.692 19.5284 362.343 19.4034C361.993 19.2812 361.702 19.1193 361.469 18.9176C361.239 18.7188 361.056 18.5057 360.92 18.2784L361.721 17.7159C361.812 17.8352 361.927 17.9716 362.066 18.125C362.205 18.2812 362.395 18.4162 362.637 18.5298C362.881 18.6463 363.201 18.7045 363.596 18.7045C364.124 18.7045 364.56 18.5767 364.904 18.321C365.248 18.0653 365.42 17.6648 365.42 17.1193V15.7898H365.334C365.26 15.9091 365.155 16.0568 365.019 16.233C364.885 16.4062 364.692 16.5611 364.439 16.6974C364.189 16.831 363.851 16.8977 363.425 16.8977C362.897 16.8977 362.422 16.7727 362.002 16.5227C361.584 16.2727 361.253 15.9091 361.009 15.4318C360.768 14.9545 360.647 14.375 360.647 13.6932C360.647 13.0227 360.765 12.4389 361.001 11.9418C361.236 11.4418 361.564 11.0554 361.985 10.7827C362.405 10.5071 362.891 10.3693 363.442 10.3693C363.868 10.3693 364.206 10.4403 364.456 10.5824C364.709 10.7216 364.903 10.8807 365.036 11.0597C365.172 11.2358 365.278 11.3807 365.351 11.4943H365.454V10.4545H366.425V17.1875C366.425 17.75 366.297 18.2074 366.042 18.5597C365.789 18.9148 365.448 19.1747 365.019 19.3395C364.593 19.5071 364.118 19.5909 363.596 19.5909ZM363.562 15.9943C363.965 15.9943 364.306 15.902 364.584 15.7173C364.863 15.5327 365.074 15.267 365.219 14.9205C365.364 14.5739 365.437 14.1591 365.437 13.6761C365.437 13.2045 365.366 12.7884 365.224 12.4276C365.081 12.0668 364.871 11.7841 364.593 11.5795C364.314 11.375 363.971 11.2727 363.562 11.2727C363.135 11.2727 362.78 11.3807 362.496 11.5966C362.215 11.8125 362.003 12.1023 361.861 12.4659C361.722 12.8295 361.653 13.233 361.653 13.6761C361.653 14.1307 361.724 14.5327 361.866 14.8821C362.01 15.2287 362.224 15.5014 362.505 15.7003C362.789 15.8963 363.141 15.9943 363.562 15.9943ZM368.266 17V10.4545H369.272V17H368.266ZM368.778 9.36364C368.581 9.36364 368.412 9.29688 368.27 9.16335C368.131 9.02983 368.062 8.86932 368.062 8.68182C368.062 8.49432 368.131 8.33381 368.27 8.20028C368.412 8.06676 368.581 8 368.778 8C368.974 8 369.141 8.06676 369.28 8.20028C369.422 8.33381 369.493 8.49432 369.493 8.68182C369.493 8.86932 369.422 9.02983 369.28 9.16335C369.141 9.29688 368.974 9.36364 368.778 9.36364ZM373.773 17.1364C373.182 17.1364 372.664 16.9957 372.218 16.7145C371.774 16.4332 371.428 16.0398 371.178 15.5341C370.931 15.0284 370.807 14.4375 370.807 13.7614C370.807 13.0795 370.931 12.4844 371.178 11.9759C371.428 11.4673 371.774 11.0724 372.218 10.7912C372.664 10.5099 373.182 10.3693 373.773 10.3693C374.364 10.3693 374.881 10.5099 375.324 10.7912C375.77 11.0724 376.117 11.4673 376.364 11.9759C376.614 12.4844 376.739 13.0795 376.739 13.7614C376.739 14.4375 376.614 15.0284 376.364 15.5341C376.117 16.0398 375.77 16.4332 375.324 16.7145C374.881 16.9957 374.364 17.1364 373.773 17.1364ZM373.773 16.233C374.222 16.233 374.591 16.1179 374.881 15.8878C375.171 15.6577 375.385 15.3551 375.524 14.9801C375.664 14.6051 375.733 14.1989 375.733 13.7614C375.733 13.3239 375.664 12.9162 375.524 12.5384C375.385 12.1605 375.171 11.8551 374.881 11.6222C374.591 11.3892 374.222 11.2727 373.773 11.2727C373.324 11.2727 372.955 11.3892 372.665 11.6222C372.375 11.8551 372.161 12.1605 372.021 12.5384C371.882 12.9162 371.813 13.3239 371.813 13.7614C371.813 14.1989 371.882 14.6051 372.021 14.9801C372.161 15.3551 372.375 15.6577 372.665 15.8878C372.955 16.1179 373.324 16.233 373.773 16.233ZM379.28 13.0625V17H378.274V10.4545H379.246V11.4773H379.331C379.484 11.1449 379.717 10.8778 380.03 10.6761C380.342 10.4716 380.746 10.3693 381.24 10.3693C381.683 10.3693 382.071 10.4602 382.403 10.642C382.736 10.821 382.994 11.0938 383.179 11.4602C383.363 11.8239 383.456 12.2841 383.456 12.8409V17H382.45V12.9091C382.45 12.3949 382.317 11.9943 382.05 11.7074C381.782 11.4176 381.416 11.2727 380.95 11.2727C380.629 11.2727 380.342 11.3423 380.089 11.4815C379.839 11.6207 379.642 11.8239 379.497 12.0909C379.352 12.358 379.28 12.6818 379.28 13.0625ZM389.93 11.9205L389.026 12.1761C388.97 12.0256 388.886 11.8793 388.775 11.7372C388.667 11.5923 388.519 11.473 388.332 11.3793C388.144 11.2855 387.904 11.2386 387.612 11.2386C387.211 11.2386 386.877 11.331 386.61 11.5156C386.346 11.6974 386.214 11.929 386.214 12.2102C386.214 12.4602 386.305 12.6577 386.487 12.8026C386.669 12.9474 386.953 13.0682 387.339 13.1648L388.311 13.4034C388.896 13.5455 389.332 13.7628 389.619 14.0554C389.906 14.3452 390.049 14.7187 390.049 15.1761C390.049 15.5511 389.941 15.8864 389.725 16.1818C389.512 16.4773 389.214 16.7102 388.83 16.8807C388.447 17.0511 388.001 17.1364 387.492 17.1364C386.825 17.1364 386.272 16.9915 385.835 16.7017C385.397 16.4119 385.12 15.9886 385.004 15.4318L385.958 15.1932C386.049 15.5455 386.221 15.8097 386.474 15.9858C386.73 16.1619 387.063 16.25 387.475 16.25C387.944 16.25 388.316 16.1506 388.592 15.9517C388.87 15.75 389.009 15.5085 389.009 15.2273C389.009 15 388.93 14.8097 388.771 14.6562C388.612 14.5 388.367 14.3835 388.038 14.3068L386.947 14.0511C386.347 13.9091 385.907 13.6889 385.626 13.3906C385.347 13.0895 385.208 12.7131 385.208 12.2614C385.208 11.892 385.312 11.5653 385.519 11.2812C385.73 10.9972 386.015 10.7741 386.376 10.6122C386.74 10.4503 387.151 10.3693 387.612 10.3693C388.259 10.3693 388.768 10.5114 389.137 10.7955C389.509 11.0795 389.774 11.4545 389.93 11.9205Z" fill="black"/>
<path d="M17 155.585V156.693L8.27273 153.489V152.398L17 149.193V150.301L9.65341 152.909V152.977L17 155.585ZM13.5909 155.176V150.71H14.5284V155.176H13.5909ZM10.4545 147.22L13.1307 145.652L10.4545 144.084V142.925L13.7273 145.038L17 142.925V144.084L14.4602 145.652L17 147.22V148.379L13.7273 146.3L10.4545 148.379V147.22ZM17 141.49H10.4545V140.484H17V141.49ZM9.36364 140.978C9.36364 141.174 9.29688 141.343 9.16335 141.485C9.02983 141.625 8.86932 141.694 8.68182 141.694C8.49432 141.694 8.33381 141.625 8.20028 141.485C8.06676 141.343 8 141.174 8 140.978C8 140.782 8.06676 140.615 8.20028 140.475C8.33381 140.333 8.49432 140.262 8.68182 140.262C8.86932 140.262 9.02983 140.333 9.16335 140.475C9.29688 140.615 9.36364 140.782 9.36364 140.978ZM11.9205 134.006L12.1761 134.909C12.0256 134.966 11.8793 135.05 11.7372 135.161C11.5923 135.268 11.473 135.416 11.3793 135.604C11.2855 135.791 11.2386 136.031 11.2386 136.324C11.2386 136.724 11.331 137.058 11.5156 137.325C11.6974 137.589 11.929 137.722 12.2102 137.722C12.4602 137.722 12.6577 137.631 12.8026 137.449C12.9474 137.267 13.0682 136.983 13.1648 136.597L13.4034 135.625C13.5455 135.04 13.7628 134.604 14.0554 134.317C14.3452 134.03 14.7187 133.886 15.1761 133.886C15.5511 133.886 15.8864 133.994 16.1818 134.21C16.4773 134.423 16.7102 134.722 16.8807 135.105C17.0511 135.489 17.1364 135.935 17.1364 136.443C17.1364 137.111 16.9915 137.663 16.7017 138.101C16.4119 138.538 15.9886 138.815 15.4318 138.932L15.1932 137.977C15.5455 137.886 15.8097 137.714 15.9858 137.462C16.1619 137.206 16.25 136.872 16.25 136.46C16.25 135.991 16.1506 135.619 15.9517 135.344C15.75 135.065 15.5085 134.926 15.2273 134.926C15 134.926 14.8097 135.006 14.6563 135.165C14.5 135.324 14.3835 135.568 14.3068 135.898L14.0511 136.989C13.9091 137.588 13.6889 138.028 13.3906 138.31C13.0895 138.588 12.7131 138.727 12.2614 138.727C11.892 138.727 11.5653 138.624 11.2812 138.416C10.9972 138.206 10.7741 137.92 10.6122 137.56C10.4503 137.196 10.3693 136.784 10.3693 136.324C10.3693 135.676 10.5114 135.168 10.7955 134.798C11.0795 134.426 11.4545 134.162 11.9205 134.006ZM17.1193 126.168C17.1193 126.81 16.9446 127.357 16.5952 127.809C16.2429 128.26 15.733 128.605 15.0653 128.844C14.3949 129.083 13.5852 129.202 12.6364 129.202C11.6932 129.202 10.8878 129.083 10.2202 128.844C9.54972 128.603 9.03835 128.256 8.68608 127.804C8.33097 127.35 8.15341 126.804 8.15341 126.168C8.15341 125.532 8.33097 124.988 8.68608 124.536C9.03835 124.081 9.54972 123.735 10.2202 123.496C10.8878 123.255 11.6932 123.134 12.6364 123.134C13.5852 123.134 14.3949 123.253 15.0653 123.492C15.733 123.73 16.2429 124.076 16.5952 124.527C16.9446 124.979 17.1193 125.526 17.1193 126.168ZM16.1818 126.168C16.1818 125.532 15.875 125.037 15.2614 124.685C14.6477 124.333 13.7727 124.157 12.6364 124.157C11.8807 124.157 11.2372 124.238 10.706 124.4C10.1747 124.559 9.76989 124.789 9.49148 125.09C9.21307 125.388 9.07386 125.748 9.07386 126.168C9.07386 126.799 9.38494 127.292 10.0071 127.647C10.6264 128.002 11.5028 128.179 12.6364 128.179C13.392 128.179 14.0341 128.1 14.5625 127.941C15.0909 127.782 15.4929 127.553 15.7685 127.255C16.044 126.953 16.1818 126.591 16.1818 126.168ZM15.8835 120.765C15.8835 120.975 15.8082 121.155 15.6577 121.306C15.5071 121.456 15.3267 121.532 15.1165 121.532C14.9062 121.532 14.7259 121.456 14.5753 121.306C14.4247 121.155 14.3494 120.975 14.3494 120.765C14.3494 120.554 14.4247 120.374 14.5753 120.223C14.7259 120.073 14.9062 119.998 15.1165 119.998C15.2557 119.998 15.3835 120.033 15.5 120.104C15.6165 120.172 15.7102 120.265 15.7813 120.381C15.8494 120.495 15.8835 120.623 15.8835 120.765ZM11.4688 120.765C11.4688 120.975 11.3935 121.155 11.2429 121.306C11.0923 121.456 10.9119 121.532 10.7017 121.532C10.4915 121.532 10.3111 121.456 10.1605 121.306C10.0099 121.155 9.93466 120.975 9.93466 120.765C9.93466 120.554 10.0099 120.374 10.1605 120.223C10.3111 120.073 10.4915 119.998 10.7017 119.998C10.8409 119.998 10.9688 120.033 11.0852 120.104C11.2017 120.172 11.2955 120.265 11.3665 120.381C11.4347 120.495 11.4688 120.623 11.4688 120.765ZM17 114.818H10.4545V113.846H11.4432V113.778C11.1193 113.659 10.8565 113.443 10.6548 113.13C10.4531 112.818 10.3523 112.466 10.3523 112.074C10.3523 112 10.3537 111.907 10.3565 111.797C10.3594 111.686 10.3636 111.602 10.3693 111.545H11.392C11.3835 111.579 11.3707 111.657 11.3537 111.779C11.3338 111.899 11.3239 112.025 11.3239 112.159C11.3239 112.477 11.3906 112.761 11.5241 113.011C11.6548 113.258 11.8366 113.454 12.0696 113.599C12.2997 113.741 12.5625 113.812 12.858 113.812H17V114.818ZM17.1364 107.808C17.1364 108.439 16.9972 108.983 16.7188 109.44C16.4375 109.895 16.0455 110.245 15.5426 110.493C15.0369 110.737 14.4489 110.859 13.7784 110.859C13.108 110.859 12.517 110.737 12.0057 110.493C11.4915 110.245 11.0909 109.902 10.804 109.461C10.5142 109.018 10.3693 108.501 10.3693 107.91C10.3693 107.569 10.4261 107.233 10.5398 106.9C10.6534 106.568 10.8381 106.265 11.0938 105.993C11.3466 105.72 11.6818 105.502 12.0994 105.341C12.517 105.179 13.0312 105.098 13.642 105.098H14.0682V110.143H13.1989V106.12C12.8295 106.12 12.5 106.194 12.2102 106.342C11.9205 106.487 11.6918 106.694 11.5241 106.964C11.3565 107.231 11.2727 107.547 11.2727 107.91C11.2727 108.311 11.3722 108.657 11.571 108.95C11.767 109.24 12.0227 109.463 12.3381 109.619C12.6534 109.775 12.9915 109.853 13.3523 109.853H13.9318C14.4261 109.853 14.8452 109.768 15.1889 109.598C15.5298 109.424 15.7898 109.184 15.9688 108.877C16.1449 108.571 16.233 108.214 16.233 107.808C16.233 107.544 16.196 107.305 16.1222 107.092C16.0455 106.876 15.9318 106.69 15.7813 106.534C15.6278 106.377 15.4375 106.257 15.2102 106.172L15.483 105.2C15.8125 105.302 16.1023 105.474 16.3523 105.716C16.5994 105.957 16.7926 106.255 16.9318 106.61C17.0682 106.966 17.1364 107.365 17.1364 107.808ZM19.5909 100.926C19.5909 101.412 19.5284 101.829 19.4034 102.179C19.2813 102.528 19.1193 102.819 18.9176 103.052C18.7188 103.282 18.5057 103.466 18.2784 103.602L17.7159 102.801C17.8352 102.71 17.9716 102.595 18.125 102.456C18.2813 102.316 18.4162 102.126 18.5298 101.885C18.6463 101.64 18.7045 101.321 18.7045 100.926C18.7045 100.397 18.5767 99.9613 18.321 99.6175C18.0653 99.2738 17.6648 99.1019 17.1193 99.1019H15.7898V99.1871C15.9091 99.261 16.0568 99.3661 16.233 99.5025C16.4063 99.636 16.5611 99.8292 16.6974 100.082C16.831 100.332 16.8977 100.67 16.8977 101.096C16.8977 101.625 16.7727 102.099 16.5227 102.52C16.2727 102.937 15.9091 103.268 15.4318 103.512C14.9545 103.754 14.375 103.875 13.6932 103.875C13.0227 103.875 12.4389 103.757 11.9418 103.521C11.4418 103.285 11.0554 102.957 10.7827 102.537C10.5071 102.116 10.3693 101.63 10.3693 101.079C10.3693 100.653 10.4403 100.315 10.5824 100.065C10.7216 99.8121 10.8807 99.619 11.0597 99.4854C11.2358 99.3491 11.3807 99.244 11.4943 99.1701V99.0678H10.4545V98.0962H17.1875C17.75 98.0962 18.2074 98.2241 18.5597 98.4798C18.9148 98.7326 19.1747 99.0735 19.3395 99.5025C19.5071 99.9286 19.5909 100.403 19.5909 100.926ZM15.9943 100.96C15.9943 100.556 15.902 100.216 15.7173 99.9371C15.5327 99.6587 15.267 99.4471 14.9205 99.3022C14.5739 99.1573 14.1591 99.0849 13.6761 99.0849C13.2045 99.0849 12.7884 99.1559 12.4276 99.2979C12.0668 99.44 11.7841 99.6502 11.5795 99.9286C11.375 100.207 11.2727 100.551 11.2727 100.96C11.2727 101.386 11.3807 101.741 11.5966 102.025C11.8125 102.306 12.1023 102.518 12.4659 102.66C12.8295 102.799 13.233 102.869 13.6761 102.869C14.1307 102.869 14.5327 102.798 14.8821 102.656C15.2287 102.511 15.5014 102.298 15.7003 102.017C15.8963 101.733 15.9943 101.38 15.9943 100.96ZM17 96.2553H10.4545V95.2496H17V96.2553ZM9.36364 95.744C9.36364 95.94 9.29688 96.109 9.16335 96.2511C9.02983 96.3903 8.86932 96.4599 8.68182 96.4599C8.49432 96.4599 8.33381 96.3903 8.20028 96.2511C8.06676 96.109 8 95.94 8 95.744C8 95.5479 8.06676 95.3803 8.20028 95.2411C8.33381 95.0991 8.49432 95.0281 8.68182 95.0281C8.86932 95.0281 9.02983 95.0991 9.16335 95.2411C9.29688 95.3803 9.36364 95.5479 9.36364 95.744ZM17.1364 90.7486C17.1364 91.3395 16.9957 91.858 16.7145 92.304C16.4332 92.7472 16.0398 93.0938 15.5341 93.3438C15.0284 93.5909 14.4375 93.7145 13.7614 93.7145C13.0795 93.7145 12.4844 93.5909 11.9759 93.3438C11.4673 93.0938 11.0724 92.7472 10.7912 92.304C10.5099 91.858 10.3693 91.3395 10.3693 90.7486C10.3693 90.1577 10.5099 89.6406 10.7912 89.1974C11.0724 88.7514 11.4673 88.4048 11.9759 88.1577C12.4844 87.9077 13.0795 87.7827 13.7614 87.7827C14.4375 87.7827 15.0284 87.9077 15.5341 88.1577C16.0398 88.4048 16.4332 88.7514 16.7145 89.1974C16.9957 89.6406 17.1364 90.1577 17.1364 90.7486ZM16.233 90.7486C16.233 90.2997 16.1179 89.9304 15.8878 89.6406C15.6577 89.3509 15.3551 89.1364 14.9801 88.9972C14.6051 88.858 14.1989 88.7884 13.7614 88.7884C13.3239 88.7884 12.9162 88.858 12.5384 88.9972C12.1605 89.1364 11.8551 89.3509 11.6222 89.6406C11.3892 89.9304 11.2727 90.2997 11.2727 90.7486C11.2727 91.1974 11.3892 91.5668 11.6222 91.8565C11.8551 92.1463 12.1605 92.3608 12.5384 92.5C12.9162 92.6392 13.3239 92.7088 13.7614 92.7088C14.1989 92.7088 14.6051 92.6392 14.9801 92.5C15.3551 92.3608 15.6577 92.1463 15.8878 91.8565C16.1179 91.5668 16.233 91.1974 16.233 90.7486ZM13.0625 85.2418H17V86.2475H10.4545V85.2759H11.4773V85.1907C11.1449 85.0373 10.8778 84.8043 10.6761 84.4918C10.4716 84.1793 10.3693 83.7759 10.3693 83.2816C10.3693 82.8384 10.4602 82.4506 10.642 82.1183C10.821 81.7859 11.0938 81.5273 11.4602 81.3427C11.8239 81.158 12.2841 81.0657 12.8409 81.0657H17V82.0714H12.9091C12.3949 82.0714 11.9943 82.2049 11.7074 82.4719C11.4176 82.739 11.2727 83.1055 11.2727 83.5714C11.2727 83.8924 11.3423 84.1793 11.4815 84.4322C11.6207 84.6822 11.8239 84.8796 12.0909 85.0245C12.358 85.1694 12.6818 85.2418 13.0625 85.2418ZM11.9205 74.5916L12.1761 75.495C12.0256 75.5518 11.8793 75.6357 11.7372 75.7464C11.5923 75.8544 11.473 76.0021 11.3793 76.1896C11.2855 76.3771 11.2386 76.6172 11.2386 76.9098C11.2386 77.3104 11.331 77.6442 11.5156 77.9112C11.6974 78.1754 11.929 78.3075 12.2102 78.3075C12.4602 78.3075 12.6577 78.2166 12.8026 78.0348C12.9474 77.853 13.0682 77.5689 13.1648 77.1825L13.4034 76.2109C13.5455 75.6257 13.7628 75.1896 14.0554 74.9027C14.3452 74.6158 14.7187 74.4723 15.1761 74.4723C15.5511 74.4723 15.8864 74.5803 16.1818 74.7962C16.4773 75.0092 16.7102 75.3075 16.8807 75.6911C17.0511 76.0746 17.1364 76.5206 17.1364 77.0291C17.1364 77.6967 16.9915 78.2493 16.7017 78.6868C16.4119 79.1243 15.9886 79.4013 15.4318 79.5178L15.1932 78.5632C15.5455 78.4723 15.8097 78.3004 15.9858 78.0476C16.1619 77.7919 16.25 77.4581 16.25 77.0462C16.25 76.5774 16.1506 76.2053 15.9517 75.9297C15.75 75.6513 15.5085 75.5121 15.2273 75.5121C15 75.5121 14.8097 75.5916 14.6563 75.7507C14.5 75.9098 14.3835 76.1541 14.3068 76.4837L14.0511 77.5746C13.9091 78.174 13.6889 78.6143 13.3906 78.8956C13.0895 79.174 12.7131 79.3132 12.2614 79.3132C11.892 79.3132 11.5653 79.2095 11.2813 79.0021C10.9972 78.7919 10.7741 78.5064 10.6122 78.1456C10.4503 77.782 10.3693 77.37 10.3693 76.9098C10.3693 76.2621 10.5114 75.7536 10.7955 75.3842C11.0795 75.0121 11.4545 74.7479 11.9205 74.5916Z" fill="black"/>
<path d="M46 25H86V65H46V25Z" fill="#D9D9D9"/>
<path d="M70 47H110V87H70V47Z" fill="#D9D9D9"/>
<path d="M86 25L110 47V87L86 65V25Z" fill="#CDCDCD"/>
<path d="M46 65H86L110 87H70L46 65Z" fill="#9D9D9D"/>
<path d="M86 25H126V65H86V25Z" fill="#D9D9D9"/>
<path d="M110 47H150V87H110V47Z" fill="#D9D9D9"/>
<path d="M126 25L150 47V87L126 65V25Z" fill="#CDCDCD"/>
<path d="M86 65H126L150 87H110L86 65Z" fill="#9D9D9D"/>
<path d="M126 25H166V65H126V25Z" fill="#D9D9D9"/>
<path d="M150 47H190V87H150V47Z" fill="#D9D9D9"/>
<path d="M166 25L190 47V87L166 65V25Z" fill="#CDCDCD"/>
<path d="M126 65H166L190 87H150L126 65Z" fill="#9D9D9D"/>
<path d="M166 25H206V65H166V25Z" fill="#D9D9D9"/>
<path d="M190 47H230V87H190V47Z" fill="#D9D9D9"/>
<path d="M206 25L230 47V87L206 65V25Z" fill="#CDCDCD"/>
<path d="M166 65H206L230 87H190L166 65Z" fill="#9D9D9D"/>
<path d="M46 64H86V104H46V64Z" fill="#D9D9D9"/>
<path d="M70 86H110V126H70V86Z" fill="#D9D9D9"/>
<path d="M86 64L110 86V126L86 104V64Z" fill="#CDCDCD"/>
<path d="M46 104H86L110 126H70L46 104Z" fill="#9D9D9D"/>
<path d="M86 64H126V104H86V64Z" fill="#D9D9D9"/>
<path d="M110 86H150V126H110V86Z" fill="#D9D9D9"/>
<path d="M126 64L150 86V126L126 104V64Z" fill="#CDCDCD"/>
<path d="M86 104H126L150 126H110L86 104Z" fill="#9D9D9D"/>
<path d="M126 64H166V104H126V64Z" fill="#D9D9D9"/>
<path d="M150 86H190V126H150V86Z" fill="#D9D9D9"/>
<path d="M166 64L190 86V126L166 104V64Z" fill="#CDCDCD"/>
<path d="M126 104H166L190 126H150L126 104Z" fill="#9D9D9D"/>
<path d="M166 64H206V104H166V64Z" fill="#D9D9D9"/>
<path d="M190 86H230V126H190V86Z" fill="#D9D9D9"/>
<path d="M206 64L230 86V126L206 104V64Z" fill="#CDCDCD"/>
<path d="M166 104H206L230 126H190L166 104Z" fill="#9D9D9D"/>
<path d="M46 103H86V143H46V103Z" fill="#D9D9D9"/>
<path d="M70 125H110V165H70V125Z" fill="#D9D9D9"/>
<path d="M86 103L110 125V165L86 143V103Z" fill="#CDCDCD"/>
<path d="M46 143H86L110 165H70L46 143Z" fill="#9D9D9D"/>
<path d="M86 103H126V143H86V103Z" fill="#D9D9D9"/>
<path d="M110 125H150V165H110V125Z" fill="#D9D9D9"/>
<path d="M126 103L150 125V165L126 143V103Z" fill="#CDCDCD"/>
<path d="M86 143H126L150 165H110L86 143Z" fill="#9D9D9D"/>
<path d="M126 103H166V143H126V103Z" fill="#D9D9D9"/>
<path d="M150 125H190V165H150V125Z" fill="#D9D9D9"/>
<path d="M166 103L190 125V165L166 143V103Z" fill="#CDCDCD"/>
<path d="M126 143H166L190 165H150L126 143Z" fill="#9D9D9D"/>
<path d="M166 103H206V143H166V103Z" fill="#D9D9D9"/>
<path d="M190 125H230V165H190V125Z" fill="#D9D9D9"/>
<path d="M206 103L230 125V165L206 143V103Z" fill="#CDCDCD"/>
<path d="M166 143H206L230 165H190L166 143Z" fill="#9D9D9D"/>
<path d="M46 142H86V182H46V142Z" fill="#D9D9D9"/>
<path d="M70 164H110V204H70V164Z" fill="#D9D9D9"/>
<path d="M86 142L110 164V204L86 182V142Z" fill="#CDCDCD"/>
<path d="M46 182H86L110 204H70L46 182Z" fill="#9D9D9D"/>
<path d="M86 142H126V182H86V142Z" fill="#D9D9D9"/>
<path d="M110 164H150V204H110V164Z" fill="#D9D9D9"/>
<path d="M126 142L150 164V204L126 182V142Z" fill="#CDCDCD"/>
<path d="M86 182H126L150 204H110L86 182Z" fill="#9D9D9D"/>
<path d="M126 142H166V182H126V142Z" fill="#D9D9D9"/>
<path d="M150 164H190V204H150V164Z" fill="#D9D9D9"/>
<path d="M166 142L190 164V204L166 182V142Z" fill="#CDCDCD"/>
<path d="M126 182H166L190 204H150L126 182Z" fill="#9D9D9D"/>
<path d="M166 142H206V182H166V142Z" fill="#D9D9D9"/>
<path d="M190 164H230V204H190V164Z" fill="#D9D9D9"/>
<path d="M206 142L230 164V204L206 182V142Z" fill="#CDCDCD"/>
<path d="M166 182H206L230 204H190L166 182Z" fill="#9D9D9D"/>
<rect x="252.5" y="25.5" width="187" height="178" rx="9.5" stroke="black"/>
<path d="M260.58 42.1364C259.966 42.1364 259.438 41.9915 258.994 41.7017C258.551 41.4119 258.21 41.0128 257.972 40.5043C257.733 39.9957 257.614 39.4148 257.614 38.7614C257.614 38.0966 257.736 37.5099 257.98 37.0014C258.227 36.4901 258.571 36.0909 259.011 35.804C259.455 35.5142 259.972 35.3693 260.562 35.3693C261.023 35.3693 261.438 35.4545 261.807 35.625C262.176 35.7955 262.479 36.0341 262.714 36.3409C262.95 36.6477 263.097 37.0057 263.153 37.4148H262.148C262.071 37.1165 261.901 36.8523 261.636 36.6222C261.375 36.3892 261.023 36.2727 260.58 36.2727C260.188 36.2727 259.844 36.375 259.548 36.5795C259.256 36.7812 259.027 37.0668 258.862 37.4361C258.7 37.8026 258.619 38.233 258.619 38.7273C258.619 39.233 258.699 39.6733 258.858 40.0483C259.02 40.4233 259.247 40.7145 259.54 40.9219C259.835 41.1293 260.182 41.233 260.58 41.233C260.841 41.233 261.078 41.1875 261.291 41.0966C261.504 41.0057 261.685 40.875 261.832 40.7045C261.98 40.5341 262.085 40.3295 262.148 40.0909H263.153C263.097 40.4773 262.956 40.8253 262.732 41.1349C262.51 41.4418 262.216 41.6861 261.849 41.8679C261.486 42.0469 261.063 42.1364 260.58 42.1364ZM265.629 38.0625V42H264.624V33.2727H265.629V36.4773H265.714C265.868 36.1392 266.098 35.8707 266.405 35.6719C266.714 35.4702 267.126 35.3693 267.641 35.3693C268.087 35.3693 268.477 35.4588 268.812 35.6378C269.148 35.8139 269.408 36.0852 269.592 36.4517C269.78 36.8153 269.874 37.2784 269.874 37.8409V42H268.868V37.9091C268.868 37.3892 268.733 36.9872 268.463 36.7031C268.196 36.4162 267.825 36.2727 267.351 36.2727C267.021 36.2727 266.726 36.3423 266.464 36.4815C266.206 36.6207 266.001 36.8239 265.851 37.0909C265.703 37.358 265.629 37.6818 265.629 38.0625ZM271.713 42V35.4545H272.685V36.4432H272.753C272.873 36.1193 273.088 35.8565 273.401 35.6548C273.713 35.4531 274.066 35.3523 274.458 35.3523C274.532 35.3523 274.624 35.3537 274.735 35.3565C274.846 35.3594 274.929 35.3636 274.986 35.3693V36.392C274.952 36.3835 274.874 36.3707 274.752 36.3537C274.632 36.3338 274.506 36.3239 274.373 36.3239C274.054 36.3239 273.77 36.3906 273.52 36.5241C273.273 36.6548 273.077 36.8366 272.932 37.0696C272.79 37.2997 272.719 37.5625 272.719 37.858V42H271.713ZM278.638 42.1364C278.047 42.1364 277.529 41.9957 277.083 41.7145C276.64 41.4332 276.293 41.0398 276.043 40.5341C275.796 40.0284 275.672 39.4375 275.672 38.7614C275.672 38.0795 275.796 37.4844 276.043 36.9759C276.293 36.4673 276.64 36.0724 277.083 35.7912C277.529 35.5099 278.047 35.3693 278.638 35.3693C279.229 35.3693 279.746 35.5099 280.189 35.7912C280.635 36.0724 280.982 36.4673 281.229 36.9759C281.479 37.4844 281.604 38.0795 281.604 38.7614C281.604 39.4375 281.479 40.0284 281.229 40.5341C280.982 41.0398 280.635 41.4332 280.189 41.7145C279.746 41.9957 279.229 42.1364 278.638 42.1364ZM278.638 41.233C279.087 41.233 279.456 41.1179 279.746 40.8878C280.036 40.6577 280.25 40.3551 280.39 39.9801C280.529 39.6051 280.598 39.1989 280.598 38.7614C280.598 38.3239 280.529 37.9162 280.39 37.5384C280.25 37.1605 280.036 36.8551 279.746 36.6222C279.456 36.3892 279.087 36.2727 278.638 36.2727C278.189 36.2727 277.82 36.3892 277.53 36.6222C277.24 36.8551 277.026 37.1605 276.887 37.5384C276.748 37.9162 276.678 38.3239 276.678 38.7614C276.678 39.1989 276.748 39.6051 276.887 39.9801C277.026 40.3551 277.24 40.6577 277.53 40.8878C277.82 41.1179 278.189 41.233 278.638 41.233ZM283.139 42V35.4545H284.111V36.4773H284.196C284.332 36.1278 284.553 35.8565 284.857 35.6634C285.161 35.4673 285.526 35.3693 285.952 35.3693C286.384 35.3693 286.743 35.4673 287.03 35.6634C287.32 35.8565 287.545 36.1278 287.707 36.4773H287.776C287.943 36.1392 288.195 35.8707 288.53 35.6719C288.865 35.4702 289.267 35.3693 289.736 35.3693C290.321 35.3693 290.8 35.5526 291.172 35.919C291.544 36.2827 291.73 36.8494 291.73 37.6193V42H290.724V37.6193C290.724 37.1364 290.592 36.7912 290.328 36.5838C290.064 36.3764 289.753 36.2727 289.395 36.2727C288.935 36.2727 288.578 36.4119 288.325 36.6903C288.072 36.9659 287.946 37.3153 287.946 37.7386V42H286.923V37.517C286.923 37.1449 286.803 36.8452 286.561 36.6179C286.32 36.3878 286.009 36.2727 285.628 36.2727C285.366 36.2727 285.122 36.3423 284.895 36.4815C284.67 36.6207 284.489 36.8139 284.349 37.0611C284.213 37.3054 284.145 37.5881 284.145 37.9091V42H283.139Z" fill="black"/>
<path d="M274.699 68.8693C274.114 68.8693 273.597 68.7656 273.148 68.5582C272.702 68.348 272.354 68.0597 272.104 67.6932C271.854 67.3239 271.73 66.9034 271.733 66.4318C271.73 66.0625 271.803 65.7216 271.95 65.4091C272.098 65.0937 272.3 64.831 272.555 64.6207C272.814 64.4077 273.102 64.2727 273.42 64.2159V64.1648C273.003 64.0568 272.67 63.8224 272.423 63.4616C272.176 63.098 272.054 62.6847 272.057 62.2216C272.054 61.7784 272.166 61.3821 272.393 61.0327C272.621 60.6832 272.933 60.4077 273.331 60.206C273.732 60.0043 274.188 59.9034 274.699 59.9034C275.205 59.9034 275.656 60.0043 276.054 60.206C276.452 60.4077 276.764 60.6832 276.991 61.0327C277.222 61.3821 277.338 61.7784 277.341 62.2216C277.338 62.6847 277.212 63.098 276.962 63.4616C276.714 63.8224 276.386 64.0568 275.977 64.1648V64.2159C276.293 64.2727 276.577 64.4077 276.83 64.6207C277.082 64.831 277.284 65.0937 277.435 65.4091C277.585 65.7216 277.662 66.0625 277.665 66.4318C277.662 66.9034 277.534 67.3239 277.281 67.6932C277.031 68.0597 276.683 68.348 276.237 68.5582C275.794 68.7656 275.281 68.8693 274.699 68.8693ZM274.699 67.9318C275.094 67.9318 275.435 67.8679 275.722 67.7401C276.009 67.6122 276.23 67.4318 276.386 67.1989C276.543 66.9659 276.622 66.6932 276.625 66.3807C276.622 66.0511 276.537 65.7599 276.369 65.5071C276.202 65.2543 275.973 65.0554 275.683 64.9105C275.396 64.7656 275.068 64.6932 274.699 64.6932C274.327 64.6932 273.994 64.7656 273.702 64.9105C273.412 65.0554 273.183 65.2543 273.016 65.5071C272.851 65.7599 272.77 66.0511 272.773 66.3807C272.77 66.6932 272.845 66.9659 272.999 67.1989C273.155 67.4318 273.378 67.6122 273.668 67.7401C273.957 67.8679 274.301 67.9318 274.699 67.9318ZM274.699 63.7898C275.011 63.7898 275.288 63.7273 275.53 63.6023C275.774 63.4773 275.966 63.3026 276.105 63.0781C276.244 62.8537 276.315 62.5909 276.318 62.2898C276.315 61.9943 276.246 61.7372 276.109 61.5185C275.973 61.2969 275.784 61.1264 275.543 61.0071C275.301 60.8849 275.02 60.8239 274.699 60.8239C274.372 60.8239 274.087 60.8849 273.842 61.0071C273.598 61.1264 273.409 61.2969 273.276 61.5185C273.142 61.7372 273.077 61.9943 273.08 62.2898C273.077 62.5909 273.143 62.8537 273.28 63.0781C273.419 63.3026 273.611 63.4773 273.855 63.6023C274.099 63.7273 274.381 63.7898 274.699 63.7898Z" fill="black"/>
<path d="M274.852 107.369C274.29 107.369 273.788 107.273 273.348 107.08C272.911 106.886 272.563 106.618 272.304 106.274C272.048 105.928 271.909 105.526 271.886 105.068H272.96C272.983 105.349 273.08 105.592 273.25 105.797C273.42 105.999 273.643 106.155 273.919 106.266C274.195 106.376 274.5 106.432 274.835 106.432C275.21 106.432 275.543 106.366 275.832 106.236C276.122 106.105 276.349 105.923 276.514 105.69C276.679 105.457 276.761 105.188 276.761 104.881C276.761 104.56 276.682 104.277 276.523 104.033C276.364 103.786 276.131 103.592 275.824 103.453C275.517 103.314 275.142 103.244 274.699 103.244H274V102.307H274.699C275.045 102.307 275.349 102.244 275.611 102.119C275.875 101.994 276.081 101.818 276.229 101.591C276.379 101.364 276.455 101.097 276.455 100.79C276.455 100.494 276.389 100.237 276.259 100.018C276.128 99.7997 275.943 99.6293 275.705 99.5071C275.469 99.3849 275.19 99.3239 274.869 99.3239C274.568 99.3239 274.284 99.3793 274.017 99.4901C273.753 99.598 273.537 99.7557 273.369 99.9631C273.202 100.168 273.111 100.415 273.097 100.705H272.074C272.091 100.247 272.229 99.8466 272.487 99.5028C272.746 99.1562 273.084 98.8864 273.501 98.6932C273.922 98.5 274.384 98.4034 274.886 98.4034C275.426 98.4034 275.889 98.5128 276.276 98.7315C276.662 98.9474 276.959 99.233 277.166 99.5881C277.374 99.9432 277.477 100.327 277.477 100.739C277.477 101.23 277.348 101.649 277.089 101.996C276.834 102.342 276.486 102.582 276.045 102.716V102.784C276.597 102.875 277.027 103.109 277.337 103.487C277.646 103.862 277.801 104.327 277.801 104.881C277.801 105.355 277.672 105.781 277.413 106.159C277.158 106.534 276.808 106.83 276.365 107.045C275.922 107.261 275.418 107.369 274.852 107.369Z" fill="black"/>
<path d="M274.801 145.869C274.443 145.864 274.085 145.795 273.727 145.665C273.369 145.534 273.043 145.314 272.747 145.004C272.452 144.692 272.214 144.27 272.036 143.739C271.857 143.205 271.767 142.534 271.767 141.727C271.767 140.955 271.839 140.27 271.984 139.673C272.129 139.074 272.339 138.57 272.615 138.161C272.891 137.749 273.223 137.436 273.612 137.223C274.004 137.01 274.446 136.903 274.938 136.903C275.426 136.903 275.861 137.001 276.241 137.197C276.625 137.391 276.938 137.661 277.179 138.007C277.42 138.354 277.577 138.753 277.648 139.205H276.608C276.511 138.812 276.324 138.487 276.045 138.229C275.767 137.97 275.398 137.841 274.938 137.841C274.261 137.841 273.729 138.135 273.339 138.723C272.953 139.311 272.759 140.136 272.756 141.199H272.824C272.983 140.957 273.172 140.751 273.391 140.581C273.612 140.408 273.857 140.274 274.124 140.18C274.391 140.087 274.673 140.04 274.972 140.04C275.472 140.04 275.929 140.165 276.344 140.415C276.759 140.662 277.091 141.004 277.341 141.442C277.591 141.876 277.716 142.375 277.716 142.938C277.716 143.477 277.595 143.972 277.354 144.42C277.112 144.866 276.773 145.222 276.335 145.486C275.901 145.747 275.389 145.875 274.801 145.869ZM274.801 144.932C275.159 144.932 275.48 144.842 275.764 144.663C276.051 144.484 276.277 144.244 276.442 143.943C276.609 143.642 276.693 143.307 276.693 142.938C276.693 142.577 276.612 142.249 276.45 141.953C276.291 141.655 276.071 141.418 275.79 141.241C275.511 141.065 275.193 140.977 274.835 140.977C274.565 140.977 274.314 141.031 274.081 141.139C273.848 141.244 273.643 141.389 273.467 141.574C273.294 141.759 273.158 141.97 273.058 142.209C272.959 142.445 272.909 142.693 272.909 142.955C272.909 143.301 272.99 143.625 273.152 143.926C273.317 144.227 273.541 144.47 273.825 144.655C274.112 144.839 274.438 144.932 274.801 144.932Z" fill="black"/>
<path d="M271.903 184.25V183.483L274.784 180.33C275.122 179.96 275.401 179.639 275.619 179.366C275.838 179.091 276 178.832 276.105 178.591C276.213 178.347 276.267 178.091 276.267 177.824C276.267 177.517 276.193 177.251 276.045 177.027C275.901 176.803 275.702 176.629 275.449 176.507C275.196 176.385 274.912 176.324 274.597 176.324C274.261 176.324 273.969 176.393 273.719 176.533C273.472 176.669 273.28 176.861 273.143 177.108C273.01 177.355 272.943 177.645 272.943 177.977H271.938C271.938 177.466 272.055 177.017 272.291 176.631C272.527 176.244 272.848 175.943 273.254 175.727C273.663 175.511 274.122 175.403 274.631 175.403C275.142 175.403 275.595 175.511 275.99 175.727C276.385 175.943 276.695 176.234 276.919 176.601C277.143 176.967 277.256 177.375 277.256 177.824C277.256 178.145 277.197 178.459 277.081 178.766C276.967 179.07 276.768 179.409 276.484 179.784C276.203 180.156 275.812 180.611 275.312 181.148L273.352 183.244V183.312H277.409V184.25H271.903Z" fill="black"/>
<path d="M306.58 42.1364C305.966 42.1364 305.438 41.9915 304.994 41.7017C304.551 41.4119 304.21 41.0128 303.972 40.5043C303.733 39.9957 303.614 39.4148 303.614 38.7614C303.614 38.0966 303.736 37.5099 303.98 37.0014C304.227 36.4901 304.571 36.0909 305.011 35.804C305.455 35.5142 305.972 35.3693 306.562 35.3693C307.023 35.3693 307.438 35.4545 307.807 35.625C308.176 35.7955 308.479 36.0341 308.714 36.3409C308.95 36.6477 309.097 37.0057 309.153 37.4148H308.148C308.071 37.1165 307.901 36.8523 307.636 36.6222C307.375 36.3892 307.023 36.2727 306.58 36.2727C306.188 36.2727 305.844 36.375 305.548 36.5795C305.256 36.7812 305.027 37.0668 304.862 37.4361C304.7 37.8026 304.619 38.233 304.619 38.7273C304.619 39.233 304.699 39.6733 304.858 40.0483C305.02 40.4233 305.247 40.7145 305.54 40.9219C305.835 41.1293 306.182 41.233 306.58 41.233C306.841 41.233 307.078 41.1875 307.291 41.0966C307.504 41.0057 307.685 40.875 307.832 40.7045C307.98 40.5341 308.085 40.3295 308.148 40.0909H309.153C309.097 40.4773 308.956 40.8253 308.732 41.1349C308.51 41.4418 308.216 41.6861 307.849 41.8679C307.486 42.0469 307.063 42.1364 306.58 42.1364ZM311.629 38.0625V42H310.624V33.2727H311.629V36.4773H311.714C311.868 36.1392 312.098 35.8707 312.405 35.6719C312.714 35.4702 313.126 35.3693 313.641 35.3693C314.087 35.3693 314.477 35.4588 314.812 35.6378C315.148 35.8139 315.408 36.0852 315.592 36.4517C315.78 36.8153 315.874 37.2784 315.874 37.8409V42H314.868V37.9091C314.868 37.3892 314.733 36.9872 314.463 36.7031C314.196 36.4162 313.825 36.2727 313.351 36.2727C313.021 36.2727 312.726 36.3423 312.464 36.4815C312.206 36.6207 312.001 36.8239 311.851 37.0909C311.703 37.358 311.629 37.6818 311.629 38.0625ZM317.713 42V35.4545H318.685V36.4432H318.753C318.873 36.1193 319.088 35.8565 319.401 35.6548C319.713 35.4531 320.066 35.3523 320.458 35.3523C320.532 35.3523 320.624 35.3537 320.735 35.3565C320.846 35.3594 320.929 35.3636 320.986 35.3693V36.392C320.952 36.3835 320.874 36.3707 320.752 36.3537C320.632 36.3338 320.506 36.3239 320.373 36.3239C320.054 36.3239 319.77 36.3906 319.52 36.5241C319.273 36.6548 319.077 36.8366 318.932 37.0696C318.79 37.2997 318.719 37.5625 318.719 37.858V42H317.713ZM324.638 42.1364C324.047 42.1364 323.529 41.9957 323.083 41.7145C322.64 41.4332 322.293 41.0398 322.043 40.5341C321.796 40.0284 321.672 39.4375 321.672 38.7614C321.672 38.0795 321.796 37.4844 322.043 36.9759C322.293 36.4673 322.64 36.0724 323.083 35.7912C323.529 35.5099 324.047 35.3693 324.638 35.3693C325.229 35.3693 325.746 35.5099 326.189 35.7912C326.635 36.0724 326.982 36.4673 327.229 36.9759C327.479 37.4844 327.604 38.0795 327.604 38.7614C327.604 39.4375 327.479 40.0284 327.229 40.5341C326.982 41.0398 326.635 41.4332 326.189 41.7145C325.746 41.9957 325.229 42.1364 324.638 42.1364ZM324.638 41.233C325.087 41.233 325.456 41.1179 325.746 40.8878C326.036 40.6577 326.25 40.3551 326.39 39.9801C326.529 39.6051 326.598 39.1989 326.598 38.7614C326.598 38.3239 326.529 37.9162 326.39 37.5384C326.25 37.1605 326.036 36.8551 325.746 36.6222C325.456 36.3892 325.087 36.2727 324.638 36.2727C324.189 36.2727 323.82 36.3892 323.53 36.6222C323.24 36.8551 323.026 37.1605 322.887 37.5384C322.748 37.9162 322.678 38.3239 322.678 38.7614C322.678 39.1989 322.748 39.6051 322.887 39.9801C323.026 40.3551 323.24 40.6577 323.53 40.8878C323.82 41.1179 324.189 41.233 324.638 41.233ZM329.139 42V35.4545H330.111V36.4773H330.196C330.332 36.1278 330.553 35.8565 330.857 35.6634C331.161 35.4673 331.526 35.3693 331.952 35.3693C332.384 35.3693 332.743 35.4673 333.03 35.6634C333.32 35.8565 333.545 36.1278 333.707 36.4773H333.776C333.943 36.1392 334.195 35.8707 334.53 35.6719C334.865 35.4702 335.267 35.3693 335.736 35.3693C336.321 35.3693 336.8 35.5526 337.172 35.919C337.544 36.2827 337.73 36.8494 337.73 37.6193V42H336.724V37.6193C336.724 37.1364 336.592 36.7912 336.328 36.5838C336.064 36.3764 335.753 36.2727 335.395 36.2727C334.935 36.2727 334.578 36.4119 334.325 36.6903C334.072 36.9659 333.946 37.3153 333.946 37.7386V42H332.923V37.517C332.923 37.1449 332.803 36.8452 332.561 36.6179C332.32 36.3878 332.009 36.2727 331.628 36.2727C331.366 36.2727 331.122 36.3423 330.895 36.4815C330.67 36.6207 330.489 36.8139 330.349 37.0611C330.213 37.3054 330.145 37.5881 330.145 37.9091V42H329.139ZM344.478 35.4545C344.427 35.0227 344.219 34.6875 343.856 34.4489C343.492 34.2102 343.046 34.0909 342.518 34.0909C342.131 34.0909 341.793 34.1534 341.504 34.2784C341.217 34.4034 340.992 34.5753 340.83 34.794C340.671 35.0128 340.592 35.2614 340.592 35.5398C340.592 35.7727 340.647 35.973 340.758 36.1406C340.871 36.3054 341.016 36.4432 341.192 36.554C341.369 36.6619 341.553 36.7514 341.746 36.8224C341.94 36.8906 342.117 36.946 342.279 36.9886L343.165 37.2273C343.393 37.2869 343.646 37.3693 343.924 37.4744C344.205 37.5795 344.474 37.723 344.729 37.9048C344.988 38.0838 345.201 38.3139 345.369 38.5952C345.536 38.8764 345.62 39.2216 345.62 39.6307C345.62 40.1023 345.496 40.5284 345.249 40.9091C345.005 41.2898 344.647 41.5923 344.175 41.8168C343.707 42.0412 343.137 42.1534 342.467 42.1534C341.842 42.1534 341.3 42.0526 340.843 41.8509C340.388 41.6491 340.031 41.3679 339.769 41.0071C339.511 40.6463 339.364 40.2273 339.33 39.75H340.421C340.45 40.0795 340.56 40.3523 340.754 40.5682C340.95 40.7812 341.197 40.9403 341.495 41.0455C341.796 41.1477 342.12 41.1989 342.467 41.1989C342.87 41.1989 343.232 41.1335 343.553 41.0028C343.874 40.8693 344.129 40.6847 344.316 40.4489C344.504 40.2102 344.597 39.9318 344.597 39.6136C344.597 39.3239 344.516 39.0881 344.354 38.9062C344.192 38.7244 343.979 38.5767 343.715 38.4631C343.451 38.3494 343.165 38.25 342.859 38.1648L341.785 37.858C341.103 37.6619 340.563 37.3821 340.165 37.0185C339.768 36.6548 339.569 36.179 339.569 35.5909C339.569 35.1023 339.701 34.6761 339.965 34.3125C340.232 33.946 340.59 33.6619 341.039 33.4602C341.491 33.2557 341.995 33.1534 342.552 33.1534C343.114 33.1534 343.614 33.2543 344.052 33.456C344.489 33.6548 344.836 33.9276 345.092 34.2741C345.35 34.6207 345.487 35.0142 345.501 35.4545H344.478ZM350.068 35.4545V36.3068H346.676V35.4545H350.068ZM347.664 33.8864H348.67V40.125C348.67 40.4091 348.711 40.6222 348.794 40.7642C348.879 40.9034 348.987 40.9972 349.118 41.0455C349.251 41.0909 349.392 41.1136 349.539 41.1136C349.65 41.1136 349.741 41.108 349.812 41.0966C349.883 41.0824 349.94 41.071 349.983 41.0625L350.187 41.9659C350.119 41.9915 350.024 42.017 349.902 42.0426C349.779 42.071 349.625 42.0852 349.437 42.0852C349.153 42.0852 348.875 42.0241 348.602 41.902C348.332 41.7798 348.108 41.5938 347.929 41.3438C347.752 41.0938 347.664 40.7784 347.664 40.3977V33.8864ZM353.507 42.1534C353.092 42.1534 352.716 42.0753 352.377 41.919C352.039 41.7599 351.771 41.5312 351.572 41.233C351.373 40.9318 351.274 40.5682 351.274 40.142C351.274 39.767 351.348 39.4631 351.495 39.2301C351.643 38.9943 351.841 38.8097 352.088 38.6761C352.335 38.5426 352.608 38.4432 352.906 38.3778C353.207 38.3097 353.51 38.2557 353.814 38.2159C354.211 38.1648 354.534 38.1264 354.781 38.1009C355.031 38.0724 355.213 38.0256 355.326 37.9602C355.443 37.8949 355.501 37.7812 355.501 37.6193V37.5852C355.501 37.1648 355.386 36.8381 355.156 36.6051C354.929 36.3722 354.583 36.2557 354.12 36.2557C353.64 36.2557 353.264 36.3608 352.991 36.571C352.718 36.7812 352.527 37.0057 352.416 37.2443L351.461 36.9034C351.632 36.5057 351.859 36.196 352.143 35.9744C352.43 35.75 352.743 35.5937 353.081 35.5057C353.422 35.4148 353.757 35.3693 354.086 35.3693C354.297 35.3693 354.538 35.3949 354.811 35.446C355.086 35.4943 355.352 35.5952 355.608 35.7486C355.866 35.902 356.081 36.1335 356.251 36.4432C356.422 36.7528 356.507 37.1676 356.507 37.6875V42H355.501V41.1136H355.45C355.382 41.2557 355.268 41.4077 355.109 41.5696C354.95 41.7315 354.738 41.8693 354.474 41.983C354.21 42.0966 353.887 42.1534 353.507 42.1534ZM353.66 41.25C354.058 41.25 354.393 41.1719 354.666 41.0156C354.941 40.8594 355.149 40.6577 355.288 40.4105C355.43 40.1634 355.501 39.9034 355.501 39.6307V38.7102C355.458 38.7614 355.365 38.8082 355.22 38.8509C355.078 38.8906 354.913 38.9261 354.725 38.9574C354.541 38.9858 354.36 39.0114 354.184 39.0341C354.011 39.054 353.87 39.071 353.762 39.0852C353.501 39.1193 353.257 39.1747 353.029 39.2514C352.805 39.3253 352.623 39.4375 352.484 39.5881C352.348 39.7358 352.279 39.9375 352.279 40.1932C352.279 40.5426 352.409 40.8068 352.667 40.9858C352.929 41.1619 353.26 41.25 353.66 41.25ZM358.342 42V35.4545H359.314V36.4432H359.382C359.501 36.1193 359.717 35.8565 360.03 35.6548C360.342 35.4531 360.695 35.3523 361.087 35.3523C361.161 35.3523 361.253 35.3537 361.364 35.3565C361.474 35.3594 361.558 35.3636 361.615 35.3693V36.392C361.581 36.3835 361.503 36.3707 361.381 36.3537C361.261 36.3338 361.135 36.3239 361.001 36.3239C360.683 36.3239 360.399 36.3906 360.149 36.5241C359.902 36.6548 359.706 36.8366 359.561 37.0696C359.419 37.2997 359.348 37.5625 359.348 37.858V42H358.342ZM366.064 35.4545V36.3068H362.672V35.4545H366.064ZM363.661 33.8864H364.666V40.125C364.666 40.4091 364.707 40.6222 364.79 40.7642C364.875 40.9034 364.983 40.9972 365.114 41.0455C365.247 41.0909 365.388 41.1136 365.536 41.1136C365.646 41.1136 365.737 41.108 365.808 41.0966C365.879 41.0824 365.936 41.071 365.979 41.0625L366.183 41.9659C366.115 41.9915 366.02 42.017 365.898 42.0426C365.776 42.071 365.621 42.0852 365.433 42.0852C365.149 42.0852 364.871 42.0241 364.598 41.902C364.328 41.7798 364.104 41.5938 363.925 41.3438C363.749 41.0938 363.661 40.7784 363.661 40.3977V33.8864Z" fill="black"/>
<path d="M334.631 68.8693C334.131 68.8693 333.68 68.7699 333.28 68.571C332.879 68.3722 332.558 68.0994 332.317 67.7528C332.075 67.4062 331.943 67.0114 331.92 66.5682H332.943C332.983 66.9631 333.162 67.2898 333.48 67.5483C333.801 67.804 334.185 67.9318 334.631 67.9318C334.989 67.9318 335.307 67.848 335.585 67.6804C335.866 67.5128 336.087 67.2827 336.246 66.9901C336.408 66.6946 336.489 66.3608 336.489 65.9886C336.489 65.608 336.405 65.2685 336.237 64.9702C336.072 64.669 335.845 64.4318 335.555 64.2585C335.266 64.0852 334.935 63.9972 334.562 63.9943C334.295 63.9915 334.021 64.0327 333.74 64.1179C333.459 64.2003 333.227 64.3068 333.045 64.4375L332.057 64.3182L332.585 60.0227H337.119V60.9602H333.472L333.165 63.5341H333.216C333.395 63.392 333.619 63.2741 333.889 63.1804C334.159 63.0866 334.44 63.0398 334.733 63.0398C335.267 63.0398 335.743 63.1676 336.161 63.4233C336.581 63.6761 336.911 64.0227 337.149 64.4631C337.391 64.9034 337.511 65.4062 337.511 65.9716C337.511 66.5284 337.386 67.0256 337.136 67.4631C336.889 67.8977 336.548 68.2415 336.114 68.4943C335.679 68.7443 335.185 68.8693 334.631 68.8693Z" fill="black"/>
<path d="M331.972 98.5227V107.25H330.915V99.6307H330.864L328.733 101.045V99.9716L330.915 98.5227H331.972ZM337.43 107.369C336.868 107.369 336.366 107.273 335.926 107.08C335.489 106.886 335.141 106.618 334.882 106.274C334.626 105.928 334.487 105.526 334.464 105.068H335.538C335.561 105.349 335.658 105.592 335.828 105.797C335.999 105.999 336.222 106.155 336.497 106.266C336.773 106.376 337.078 106.432 337.413 106.432C337.788 106.432 338.121 106.366 338.411 106.236C338.7 106.105 338.928 105.923 339.092 105.69C339.257 105.457 339.339 105.188 339.339 104.881C339.339 104.56 339.26 104.277 339.101 104.033C338.942 103.786 338.709 103.592 338.402 103.453C338.095 103.314 337.72 103.244 337.277 103.244H336.578V102.307H337.277C337.624 102.307 337.928 102.244 338.189 102.119C338.453 101.994 338.659 101.818 338.807 101.591C338.957 101.364 339.033 101.097 339.033 100.79C339.033 100.494 338.967 100.237 338.837 100.018C338.706 99.7997 338.521 99.6293 338.283 99.5071C338.047 99.3849 337.768 99.3239 337.447 99.3239C337.146 99.3239 336.862 99.3793 336.595 99.4901C336.331 99.598 336.115 99.7557 335.947 99.9631C335.78 100.168 335.689 100.415 335.675 100.705H334.652C334.669 100.247 334.807 99.8466 335.065 99.5028C335.324 99.1562 335.662 98.8864 336.08 98.6932C336.5 98.5 336.962 98.4034 337.464 98.4034C338.004 98.4034 338.467 98.5128 338.854 98.7315C339.24 98.9474 339.537 99.233 339.744 99.5881C339.952 99.9432 340.055 100.327 340.055 100.739C340.055 101.23 339.926 101.649 339.668 101.996C339.412 102.342 339.064 102.582 338.624 102.716V102.784C339.175 102.875 339.605 103.109 339.915 103.487C340.224 103.862 340.379 104.327 340.379 104.881C340.379 105.355 340.25 105.781 339.991 106.159C339.736 106.534 339.386 106.83 338.943 107.045C338.5 107.261 337.996 107.369 337.43 107.369Z" fill="black"/>
<path d="M334.699 145.869C334.114 145.869 333.597 145.766 333.148 145.558C332.702 145.348 332.354 145.06 332.104 144.693C331.854 144.324 331.73 143.903 331.733 143.432C331.73 143.062 331.803 142.722 331.95 142.409C332.098 142.094 332.3 141.831 332.555 141.621C332.814 141.408 333.102 141.273 333.42 141.216V141.165C333.003 141.057 332.67 140.822 332.423 140.462C332.176 140.098 332.054 139.685 332.057 139.222C332.054 138.778 332.166 138.382 332.393 138.033C332.621 137.683 332.933 137.408 333.331 137.206C333.732 137.004 334.188 136.903 334.699 136.903C335.205 136.903 335.656 137.004 336.054 137.206C336.452 137.408 336.764 137.683 336.991 138.033C337.222 138.382 337.338 138.778 337.341 139.222C337.338 139.685 337.212 140.098 336.962 140.462C336.714 140.822 336.386 141.057 335.977 141.165V141.216C336.293 141.273 336.577 141.408 336.83 141.621C337.082 141.831 337.284 142.094 337.435 142.409C337.585 142.722 337.662 143.062 337.665 143.432C337.662 143.903 337.534 144.324 337.281 144.693C337.031 145.06 336.683 145.348 336.237 145.558C335.794 145.766 335.281 145.869 334.699 145.869ZM334.699 144.932C335.094 144.932 335.435 144.868 335.722 144.74C336.009 144.612 336.23 144.432 336.386 144.199C336.543 143.966 336.622 143.693 336.625 143.381C336.622 143.051 336.537 142.76 336.369 142.507C336.202 142.254 335.973 142.055 335.683 141.911C335.396 141.766 335.068 141.693 334.699 141.693C334.327 141.693 333.994 141.766 333.702 141.911C333.412 142.055 333.183 142.254 333.016 142.507C332.851 142.76 332.77 143.051 332.773 143.381C332.77 143.693 332.845 143.966 332.999 144.199C333.155 144.432 333.378 144.612 333.668 144.74C333.957 144.868 334.301 144.932 334.699 144.932ZM334.699 140.79C335.011 140.79 335.288 140.727 335.53 140.602C335.774 140.477 335.966 140.303 336.105 140.078C336.244 139.854 336.315 139.591 336.318 139.29C336.315 138.994 336.246 138.737 336.109 138.518C335.973 138.297 335.784 138.126 335.543 138.007C335.301 137.885 335.02 137.824 334.699 137.824C334.372 137.824 334.087 137.885 333.842 138.007C333.598 138.126 333.409 138.297 333.276 138.518C333.142 138.737 333.077 138.994 333.08 139.29C333.077 139.591 333.143 139.854 333.28 140.078C333.419 140.303 333.611 140.477 333.855 140.602C334.099 140.727 334.381 140.79 334.699 140.79Z" fill="black"/>
<path d="M331.903 184.25V183.483L334.784 180.33C335.122 179.96 335.401 179.639 335.619 179.366C335.838 179.091 336 178.832 336.105 178.591C336.213 178.347 336.267 178.091 336.267 177.824C336.267 177.517 336.193 177.251 336.045 177.027C335.901 176.803 335.702 176.629 335.449 176.507C335.196 176.385 334.912 176.324 334.597 176.324C334.261 176.324 333.969 176.393 333.719 176.533C333.472 176.669 333.28 176.861 333.143 177.108C333.01 177.355 332.943 177.645 332.943 177.977H331.938C331.938 177.466 332.055 177.017 332.291 176.631C332.527 176.244 332.848 175.943 333.254 175.727C333.663 175.511 334.122 175.403 334.631 175.403C335.142 175.403 335.595 175.511 335.99 175.727C336.385 175.943 336.695 176.234 336.919 176.601C337.143 176.967 337.256 177.375 337.256 177.824C337.256 178.145 337.197 178.459 337.081 178.766C336.967 179.07 336.768 179.409 336.484 179.784C336.203 180.156 335.812 180.611 335.312 181.148L333.352 183.244V183.312H337.409V184.25H331.903Z" fill="black"/>
<path d="M380.58 42.1364C379.966 42.1364 379.438 41.9915 378.994 41.7017C378.551 41.4119 378.21 41.0128 377.972 40.5043C377.733 39.9957 377.614 39.4148 377.614 38.7614C377.614 38.0966 377.736 37.5099 377.98 37.0014C378.227 36.4901 378.571 36.0909 379.011 35.804C379.455 35.5142 379.972 35.3693 380.562 35.3693C381.023 35.3693 381.438 35.4545 381.807 35.625C382.176 35.7955 382.479 36.0341 382.714 36.3409C382.95 36.6477 383.097 37.0057 383.153 37.4148H382.148C382.071 37.1165 381.901 36.8523 381.636 36.6222C381.375 36.3892 381.023 36.2727 380.58 36.2727C380.188 36.2727 379.844 36.375 379.548 36.5795C379.256 36.7812 379.027 37.0668 378.862 37.4361C378.7 37.8026 378.619 38.233 378.619 38.7273C378.619 39.233 378.699 39.6733 378.858 40.0483C379.02 40.4233 379.247 40.7145 379.54 40.9219C379.835 41.1293 380.182 41.233 380.58 41.233C380.841 41.233 381.078 41.1875 381.291 41.0966C381.504 41.0057 381.685 40.875 381.832 40.7045C381.98 40.5341 382.085 40.3295 382.148 40.0909H383.153C383.097 40.4773 382.956 40.8253 382.732 41.1349C382.51 41.4418 382.216 41.6861 381.849 41.8679C381.486 42.0469 381.063 42.1364 380.58 42.1364ZM385.629 38.0625V42H384.624V33.2727H385.629V36.4773H385.714C385.868 36.1392 386.098 35.8707 386.405 35.6719C386.714 35.4702 387.126 35.3693 387.641 35.3693C388.087 35.3693 388.477 35.4588 388.812 35.6378C389.148 35.8139 389.408 36.0852 389.592 36.4517C389.78 36.8153 389.874 37.2784 389.874 37.8409V42H388.868V37.9091C388.868 37.3892 388.733 36.9872 388.463 36.7031C388.196 36.4162 387.825 36.2727 387.351 36.2727C387.021 36.2727 386.726 36.3423 386.464 36.4815C386.206 36.6207 386.001 36.8239 385.851 37.0909C385.703 37.358 385.629 37.6818 385.629 38.0625ZM391.713 42V35.4545H392.685V36.4432H392.753C392.873 36.1193 393.088 35.8565 393.401 35.6548C393.713 35.4531 394.066 35.3523 394.458 35.3523C394.532 35.3523 394.624 35.3537 394.735 35.3565C394.846 35.3594 394.929 35.3636 394.986 35.3693V36.392C394.952 36.3835 394.874 36.3707 394.752 36.3537C394.632 36.3338 394.506 36.3239 394.373 36.3239C394.054 36.3239 393.77 36.3906 393.52 36.5241C393.273 36.6548 393.077 36.8366 392.932 37.0696C392.79 37.2997 392.719 37.5625 392.719 37.858V42H391.713ZM398.638 42.1364C398.047 42.1364 397.529 41.9957 397.083 41.7145C396.64 41.4332 396.293 41.0398 396.043 40.5341C395.796 40.0284 395.672 39.4375 395.672 38.7614C395.672 38.0795 395.796 37.4844 396.043 36.9759C396.293 36.4673 396.64 36.0724 397.083 35.7912C397.529 35.5099 398.047 35.3693 398.638 35.3693C399.229 35.3693 399.746 35.5099 400.189 35.7912C400.635 36.0724 400.982 36.4673 401.229 36.9759C401.479 37.4844 401.604 38.0795 401.604 38.7614C401.604 39.4375 401.479 40.0284 401.229 40.5341C400.982 41.0398 400.635 41.4332 400.189 41.7145C399.746 41.9957 399.229 42.1364 398.638 42.1364ZM398.638 41.233C399.087 41.233 399.456 41.1179 399.746 40.8878C400.036 40.6577 400.25 40.3551 400.39 39.9801C400.529 39.6051 400.598 39.1989 400.598 38.7614C400.598 38.3239 400.529 37.9162 400.39 37.5384C400.25 37.1605 400.036 36.8551 399.746 36.6222C399.456 36.3892 399.087 36.2727 398.638 36.2727C398.189 36.2727 397.82 36.3892 397.53 36.6222C397.24 36.8551 397.026 37.1605 396.887 37.5384C396.748 37.9162 396.678 38.3239 396.678 38.7614C396.678 39.1989 396.748 39.6051 396.887 39.9801C397.026 40.3551 397.24 40.6577 397.53 40.8878C397.82 41.1179 398.189 41.233 398.638 41.233ZM403.139 42V35.4545H404.111V36.4773H404.196C404.332 36.1278 404.553 35.8565 404.857 35.6634C405.161 35.4673 405.526 35.3693 405.952 35.3693C406.384 35.3693 406.743 35.4673 407.03 35.6634C407.32 35.8565 407.545 36.1278 407.707 36.4773H407.776C407.943 36.1392 408.195 35.8707 408.53 35.6719C408.865 35.4702 409.267 35.3693 409.736 35.3693C410.321 35.3693 410.8 35.5526 411.172 35.919C411.544 36.2827 411.73 36.8494 411.73 37.6193V42H410.724V37.6193C410.724 37.1364 410.592 36.7912 410.328 36.5838C410.064 36.3764 409.753 36.2727 409.395 36.2727C408.935 36.2727 408.578 36.4119 408.325 36.6903C408.072 36.9659 407.946 37.3153 407.946 37.7386V42H406.923V37.517C406.923 37.1449 406.803 36.8452 406.561 36.6179C406.32 36.3878 406.009 36.2727 405.628 36.2727C405.366 36.2727 405.122 36.3423 404.895 36.4815C404.67 36.6207 404.489 36.8139 404.349 37.0611C404.213 37.3054 404.145 37.5881 404.145 37.9091V42H403.139ZM413.705 42V33.2727H418.972V34.2102H414.762V37.1591H418.7V38.0966H414.762V41.0625H419.04V42H413.705ZM421.746 38.0625V42H420.741V35.4545H421.712V36.4773H421.798C421.951 36.1449 422.184 35.8778 422.496 35.6761C422.809 35.4716 423.212 35.3693 423.707 35.3693C424.15 35.3693 424.538 35.4602 424.87 35.642C425.202 35.821 425.461 36.0938 425.646 36.4602C425.83 36.8239 425.923 37.2841 425.923 37.8409V42H424.917V37.9091C424.917 37.3949 424.783 36.9943 424.516 36.7074C424.249 36.4176 423.883 36.2727 423.417 36.2727C423.096 36.2727 422.809 36.3423 422.556 36.4815C422.306 36.6207 422.109 36.8239 421.964 37.0909C421.819 37.358 421.746 37.6818 421.746 38.0625ZM430.232 42.1364C429.686 42.1364 429.205 41.9986 428.787 41.723C428.37 41.4446 428.043 41.0526 427.807 40.5469C427.571 40.0384 427.453 39.4375 427.453 38.7443C427.453 38.0568 427.571 37.4602 427.807 36.9545C428.043 36.4489 428.371 36.0582 428.792 35.7827C429.212 35.5071 429.698 35.3693 430.249 35.3693C430.675 35.3693 431.012 35.4403 431.259 35.5824C431.509 35.7216 431.699 35.8807 431.83 36.0597C431.963 36.2358 432.067 36.3807 432.141 36.4943H432.226V33.2727H433.232V42H432.26V40.9943H432.141C432.067 41.1136 431.962 41.2642 431.826 41.446C431.689 41.625 431.495 41.7855 431.242 41.9276C430.989 42.0668 430.652 42.1364 430.232 42.1364ZM430.368 41.233C430.772 41.233 431.113 41.1278 431.391 40.9176C431.669 40.7045 431.881 40.4105 432.026 40.0355C432.171 39.6577 432.243 39.2216 432.243 38.7273C432.243 38.2386 432.172 37.8111 432.03 37.4446C431.888 37.0753 431.678 36.7884 431.4 36.5838C431.121 36.3764 430.777 36.2727 430.368 36.2727C429.942 36.2727 429.587 36.3821 429.303 36.6009C429.022 36.8168 428.81 37.1108 428.668 37.483C428.529 37.8523 428.459 38.267 428.459 38.7273C428.459 39.1932 428.53 39.6165 428.672 39.9972C428.817 40.375 429.03 40.6761 429.311 40.9006C429.596 41.1222 429.948 41.233 430.368 41.233Z" fill="black"/>
<path d="M405.699 68.8693C405.114 68.8693 404.597 68.7656 404.148 68.5582C403.702 68.348 403.354 68.0597 403.104 67.6932C402.854 67.3239 402.73 66.9034 402.733 66.4318C402.73 66.0625 402.803 65.7216 402.95 65.4091C403.098 65.0937 403.3 64.831 403.555 64.6207C403.814 64.4077 404.102 64.2727 404.42 64.2159V64.1648C404.003 64.0568 403.67 63.8224 403.423 63.4616C403.176 63.098 403.054 62.6847 403.057 62.2216C403.054 61.7784 403.166 61.3821 403.393 61.0327C403.621 60.6832 403.933 60.4077 404.331 60.206C404.732 60.0043 405.188 59.9034 405.699 59.9034C406.205 59.9034 406.656 60.0043 407.054 60.206C407.452 60.4077 407.764 60.6832 407.991 61.0327C408.222 61.3821 408.338 61.7784 408.341 62.2216C408.338 62.6847 408.212 63.098 407.962 63.4616C407.714 63.8224 407.386 64.0568 406.977 64.1648V64.2159C407.293 64.2727 407.577 64.4077 407.83 64.6207C408.082 64.831 408.284 65.0937 408.435 65.4091C408.585 65.7216 408.662 66.0625 408.665 66.4318C408.662 66.9034 408.534 67.3239 408.281 67.6932C408.031 68.0597 407.683 68.348 407.237 68.5582C406.794 68.7656 406.281 68.8693 405.699 68.8693ZM405.699 67.9318C406.094 67.9318 406.435 67.8679 406.722 67.7401C407.009 67.6122 407.23 67.4318 407.386 67.1989C407.543 66.9659 407.622 66.6932 407.625 66.3807C407.622 66.0511 407.537 65.7599 407.369 65.5071C407.202 65.2543 406.973 65.0554 406.683 64.9105C406.396 64.7656 406.068 64.6932 405.699 64.6932C405.327 64.6932 404.994 64.7656 404.702 64.9105C404.412 65.0554 404.183 65.2543 404.016 65.5071C403.851 65.7599 403.77 66.0511 403.773 66.3807C403.77 66.6932 403.845 66.9659 403.999 67.1989C404.155 67.4318 404.378 67.6122 404.668 67.7401C404.957 67.8679 405.301 67.9318 405.699 67.9318ZM405.699 63.7898C406.011 63.7898 406.288 63.7273 406.53 63.6023C406.774 63.4773 406.966 63.3026 407.105 63.0781C407.244 62.8537 407.315 62.5909 407.318 62.2898C407.315 61.9943 407.246 61.7372 407.109 61.5185C406.973 61.2969 406.784 61.1264 406.543 61.0071C406.301 60.8849 406.02 60.8239 405.699 60.8239C405.372 60.8239 405.087 60.8849 404.842 61.0071C404.598 61.1264 404.409 61.2969 404.276 61.5185C404.142 61.7372 404.077 61.9943 404.08 62.2898C404.077 62.5909 404.143 62.8537 404.28 63.0781C404.419 63.3026 404.611 63.4773 404.855 63.6023C405.099 63.7273 405.381 63.7898 405.699 63.7898Z" fill="black"/>
<path d="M402.972 98.5227V107.25H401.915V99.6307H401.864L399.733 101.045V99.9716L401.915 98.5227H402.972ZM408.379 107.369C408.021 107.364 407.663 107.295 407.305 107.165C406.947 107.034 406.621 106.814 406.325 106.504C406.03 106.192 405.793 105.77 405.614 105.239C405.435 104.705 405.345 104.034 405.345 103.227C405.345 102.455 405.418 101.77 405.562 101.173C405.707 100.574 405.918 100.07 406.193 99.6605C406.469 99.2486 406.801 98.9361 407.19 98.723C407.582 98.5099 408.024 98.4034 408.516 98.4034C409.004 98.4034 409.439 98.5014 409.82 98.6974C410.203 98.8906 410.516 99.1605 410.757 99.5071C410.999 99.8537 411.155 100.253 411.226 100.705H410.186C410.089 100.312 409.902 99.9872 409.624 99.7287C409.345 99.4702 408.976 99.3409 408.516 99.3409C407.839 99.3409 407.307 99.6349 406.918 100.223C406.531 100.811 406.337 101.636 406.334 102.699H406.402C406.561 102.457 406.75 102.251 406.969 102.081C407.19 101.908 407.435 101.774 407.702 101.68C407.969 101.587 408.251 101.54 408.55 101.54C409.05 101.54 409.507 101.665 409.922 101.915C410.337 102.162 410.669 102.504 410.919 102.942C411.169 103.376 411.294 103.875 411.294 104.438C411.294 104.977 411.173 105.472 410.932 105.92C410.69 106.366 410.351 106.722 409.913 106.986C409.479 107.247 408.967 107.375 408.379 107.369ZM408.379 106.432C408.737 106.432 409.058 106.342 409.342 106.163C409.629 105.984 409.855 105.744 410.02 105.443C410.188 105.142 410.271 104.807 410.271 104.438C410.271 104.077 410.19 103.749 410.028 103.453C409.869 103.155 409.649 102.918 409.368 102.741C409.089 102.565 408.771 102.477 408.413 102.477C408.143 102.477 407.892 102.531 407.659 102.639C407.426 102.744 407.222 102.889 407.045 103.074C406.872 103.259 406.736 103.47 406.636 103.709C406.537 103.945 406.487 104.193 406.487 104.455C406.487 104.801 406.568 105.125 406.73 105.426C406.895 105.727 407.119 105.97 407.403 106.155C407.69 106.339 408.016 106.432 408.379 106.432Z" fill="black"/>
<path d="M403.972 137.023V145.75H402.915V138.131H402.864L400.733 139.545V138.472L402.915 137.023H403.972ZM409.55 137.023V145.75H408.493V138.131H408.442L406.311 139.545V138.472L408.493 137.023H409.55Z" fill="black"/>
<path d="M405.631 184.369C405.131 184.369 404.68 184.27 404.28 184.071C403.879 183.872 403.558 183.599 403.317 183.253C403.075 182.906 402.943 182.511 402.92 182.068H403.943C403.983 182.463 404.162 182.79 404.48 183.048C404.801 183.304 405.185 183.432 405.631 183.432C405.989 183.432 406.307 183.348 406.585 183.18C406.866 183.013 407.087 182.783 407.246 182.49C407.408 182.195 407.489 181.861 407.489 181.489C407.489 181.108 407.405 180.768 407.237 180.47C407.072 180.169 406.845 179.932 406.555 179.759C406.266 179.585 405.935 179.497 405.562 179.494C405.295 179.491 405.021 179.533 404.74 179.618C404.459 179.7 404.227 179.807 404.045 179.938L403.057 179.818L403.585 175.523H408.119V176.46H404.472L404.165 179.034H404.216C404.395 178.892 404.619 178.774 404.889 178.68C405.159 178.587 405.44 178.54 405.733 178.54C406.267 178.54 406.743 178.668 407.161 178.923C407.581 179.176 407.911 179.523 408.149 179.963C408.391 180.403 408.511 180.906 408.511 181.472C408.511 182.028 408.386 182.526 408.136 182.963C407.889 183.398 407.548 183.741 407.114 183.994C406.679 184.244 406.185 184.369 405.631 184.369Z" fill="black"/>
<path d="M22.1251 176.927L21.3417 176.144L29.7787 172.239L30.5501 173.01L26.645 181.447L25.8615 180.664L29.2123 173.625L29.164 173.577L22.1251 176.927ZM24.825 174.806L27.9829 177.964L27.3199 178.627L24.1621 175.469L24.825 174.806ZM32.6684 178.214L31.885 181.215L34.8862 180.432L35.7058 181.251L31.897 182.071L31.0774 185.88L30.2578 185.06L30.9449 182.155L28.0401 182.842L27.2205 182.023L31.0051 181.179L31.8488 177.395L32.6684 178.214ZM32.0922 186.895L36.7205 182.266L37.4316 182.977L32.8033 187.606L32.0922 186.895ZM37.8535 181.856C37.7149 181.718 37.6425 181.551 37.6365 181.356C37.6325 181.163 37.6968 181.001 37.8294 180.868C37.9619 180.735 38.1247 180.671 38.3175 180.675C38.5124 180.681 38.6791 180.754 38.8177 180.892C38.9563 181.031 39.0276 181.197 39.0316 181.389C39.0377 181.584 38.9744 181.748 38.8418 181.881C38.7092 182.013 38.5455 182.076 38.3507 182.07C38.1578 182.066 37.9921 181.995 37.8535 181.856ZM40.9759 188.595L40.1563 188.137C40.2226 187.99 40.2668 187.827 40.2889 187.649C40.315 187.47 40.2949 187.281 40.2287 187.082C40.1624 186.883 40.0258 186.68 39.8189 186.473C39.5356 186.19 39.2343 186.019 38.9149 185.961C38.5995 185.903 38.3424 185.973 38.1435 186.172C37.9667 186.349 37.8914 186.553 37.9175 186.784C37.9436 187.015 38.0591 187.301 38.264 187.643L38.7823 188.498C39.0957 189.013 39.2504 189.475 39.2463 189.884C39.2443 190.292 39.0816 190.658 38.7582 190.981C38.493 191.246 38.1797 191.407 37.8181 191.463C37.4585 191.522 37.0828 191.475 36.6911 191.325C36.2994 191.174 35.9237 190.919 35.5642 190.559C35.0921 190.087 34.8038 189.594 34.6994 189.08C34.5949 188.566 34.6984 188.07 35.0097 187.594L35.8534 188.101C35.6686 188.414 35.6033 188.722 35.6576 189.026C35.7138 189.331 35.8876 189.629 36.1789 189.921C36.5103 190.252 36.8438 190.445 37.1793 190.499C37.5187 190.553 37.7879 190.481 37.9868 190.282C38.1475 190.121 38.2259 189.931 38.2218 189.71C38.2198 189.487 38.1294 189.232 37.9506 188.944L37.3601 187.992C37.0366 187.468 36.8809 187.001 36.893 186.591C36.9091 186.181 37.0768 185.817 37.3962 185.497C37.6574 185.236 37.9617 185.078 38.3092 185.024C38.6588 184.972 39.0183 185.016 39.388 185.157C39.7596 185.299 40.1081 185.533 40.4336 185.859C40.8916 186.317 41.1507 186.777 41.211 187.239C41.2732 187.703 41.1949 188.155 40.9759 188.595ZM40.9134 195.716L41.4558 195.173L45.7225 194.981C46.2227 194.958 46.6466 194.928 46.9941 194.89C47.3437 194.85 47.641 194.782 47.886 194.685C48.1351 194.589 48.3541 194.446 48.5429 194.257C48.7599 194.04 48.8955 193.8 48.9497 193.537C49.006 193.276 48.9879 193.013 48.8955 192.748C48.8031 192.483 48.6454 192.239 48.4224 192.016C48.1854 191.778 47.9292 191.621 47.654 191.542C47.3828 191.464 47.1116 191.464 46.8405 191.542C46.5713 191.623 46.3192 191.781 46.0841 192.016L45.373 191.304C45.7346 190.943 46.1354 190.709 46.5753 190.602C47.0152 190.496 47.4552 190.51 47.8951 190.645C48.337 190.781 48.7378 191.029 49.0974 191.389C49.459 191.75 49.703 192.147 49.8296 192.579C49.9561 193.011 49.9692 193.436 49.8688 193.854C49.7683 194.271 49.5594 194.639 49.242 194.956C49.015 195.183 48.7519 195.364 48.4525 195.499C48.1572 195.633 47.7766 195.733 47.3105 195.797C46.8485 195.861 46.2509 195.907 45.5176 195.933L42.649 196.029L42.6008 196.077L45.4694 198.946L44.8065 199.609L40.9134 195.716ZM47.3708 200.594C47.2221 200.446 47.1478 200.265 47.1478 200.052C47.1478 199.839 47.2221 199.658 47.3708 199.509C47.5194 199.361 47.7002 199.286 47.9132 199.286C48.1261 199.286 48.3069 199.361 48.4556 199.509C48.6042 199.658 48.6785 199.839 48.6785 200.052C48.6785 200.265 48.6042 200.446 48.4556 200.594C48.3571 200.693 48.2416 200.758 48.109 200.79C47.9785 200.824 47.8469 200.825 47.7143 200.793C47.5857 200.761 47.4712 200.695 47.3708 200.594ZM50.4925 197.473C50.3438 197.324 50.2695 197.143 50.2695 196.93C50.2695 196.717 50.3438 196.536 50.4925 196.388C50.6412 196.239 50.8219 196.165 51.0349 196.165C51.2478 196.165 51.4286 196.239 51.5773 196.388C51.7259 196.536 51.8002 196.717 51.8002 196.93C51.8002 197.143 51.7259 197.324 51.5773 197.473C51.4788 197.571 51.3633 197.636 51.2307 197.668C51.1002 197.703 50.9686 197.704 50.836 197.671C50.7074 197.639 50.5929 197.573 50.4925 197.473ZM50.8827 205.685L57.0538 199.514L57.8011 200.261L52.2929 205.769L55.1615 208.638L54.4986 209.301L50.8827 205.685ZM57.4034 212.399C56.9574 211.953 56.6711 211.47 56.5446 210.949C56.4221 210.429 56.4512 209.904 56.632 209.373C56.8168 208.843 57.1462 208.341 57.6203 207.867C58.0944 207.393 58.5986 207.061 59.133 206.872C59.6713 206.683 60.1976 206.643 60.7119 206.752C61.2302 206.86 61.6982 207.123 62.1161 207.541C62.3571 207.782 62.555 208.061 62.7097 208.376C62.8644 208.691 62.9477 209.036 62.9598 209.409C62.9738 209.781 62.8905 210.172 62.7097 210.582C62.5289 210.991 62.2225 211.412 61.7906 211.844L61.4893 212.145L57.9216 208.578L58.5363 207.963L61.3808 210.808C61.642 210.546 61.8228 210.261 61.9232 209.952C62.0257 209.644 62.0407 209.336 61.9684 209.027C61.8981 208.719 61.7344 208.437 61.4773 208.18C61.194 207.897 60.8786 207.722 60.5311 207.656C60.1876 207.589 59.8491 207.613 59.5156 207.725C59.1822 207.838 58.8879 208.021 58.6328 208.276L58.223 208.686C57.8734 209.036 57.6374 209.392 57.5149 209.756C57.3963 210.12 57.3823 210.473 57.4727 210.817C57.5651 211.158 57.7549 211.473 58.0422 211.76C58.229 211.947 58.4238 212.089 58.6267 212.188C58.8336 212.286 59.0456 212.337 59.2625 212.341C59.4815 212.343 59.7015 212.294 59.9224 212.194L60.4166 213.074C60.1113 213.234 59.7848 213.318 59.4373 213.324C59.0918 213.328 58.7443 213.253 58.3947 213.101C58.0472 212.946 57.7167 212.712 57.4034 212.399ZM63.9933 213.227L61.2091 216.011L60.498 215.3L65.1263 210.672L65.8133 211.359L65.0901 212.082L65.1504 212.142C65.4939 212.016 65.8475 211.992 66.2111 212.07C66.5767 212.146 66.9342 212.359 67.2838 212.709C67.5972 213.022 67.8071 213.361 67.9135 213.724C68.022 214.086 68.012 214.462 67.8834 214.851C67.7569 215.239 67.4967 215.63 67.103 216.024L64.1621 218.964L63.4509 218.253L66.3436 215.361C66.7072 214.997 66.8961 214.619 66.9101 214.228C66.9262 213.834 66.7695 213.472 66.4401 213.143C66.2131 212.916 65.961 212.762 65.6837 212.682C65.4085 212.603 65.1253 212.608 64.834 212.694C64.5427 212.78 64.2625 212.958 63.9933 213.227ZM65.4977 223.964C65.1542 223.621 64.9031 223.281 64.7444 222.946C64.5837 222.612 64.4923 222.292 64.4702 221.984C64.4481 221.681 64.4692 221.401 64.5334 221.144L65.4977 221.313C65.4776 221.461 65.4625 221.639 65.4525 221.846C65.4404 222.055 65.4796 222.285 65.57 222.536C65.6604 222.791 65.8452 223.058 66.1244 223.337C66.4981 223.711 66.8968 223.929 67.3207 223.991C67.7446 224.054 68.1493 223.892 68.535 223.506L69.4752 222.566L69.4149 222.506C69.2783 222.538 69.0995 222.568 68.8785 222.596C68.6616 222.624 68.4155 222.597 68.1403 222.515C67.8691 222.432 67.5828 222.241 67.2815 221.939C66.9079 221.566 66.6608 221.142 66.5403 220.668C66.4217 220.196 66.4448 219.704 66.6096 219.194C66.7763 218.686 67.1007 218.191 67.5828 217.709C68.0569 217.235 68.5531 216.905 69.0714 216.72C69.5917 216.534 70.0969 216.492 70.587 216.597C71.0792 216.699 71.5201 216.945 71.9099 217.335C72.2112 217.636 72.4 217.926 72.4763 218.203C72.5567 218.48 72.5808 218.729 72.5487 218.95C72.5205 219.171 72.4924 219.348 72.4643 219.48L72.5366 219.553L73.2718 218.818L73.9589 219.505L69.1979 224.265C68.8002 224.663 68.3864 224.896 67.9565 224.965C67.5266 225.037 67.1017 224.98 66.6819 224.793C66.262 224.61 65.8673 224.334 65.4977 223.964ZM68.0167 221.397C68.302 221.682 68.6083 221.858 68.9358 221.924C69.2632 221.99 69.6007 221.952 69.9482 221.81C70.2958 221.667 70.6403 221.425 70.9818 221.084C71.3152 220.75 71.5593 220.406 71.714 220.05C71.8687 219.694 71.9199 219.346 71.8677 219.004C71.8154 218.663 71.6447 218.347 71.3554 218.058C71.0541 217.757 70.7267 217.582 70.3731 217.534C70.0216 217.488 69.667 217.543 69.3094 217.7C68.9539 217.858 68.6194 218.094 68.306 218.408C67.9846 218.729 67.7506 219.064 67.6039 219.411C67.4613 219.759 67.4191 220.102 67.4774 220.442C67.5396 220.781 67.7194 221.1 68.0167 221.397ZM77.2734 222.819L76.6708 223.422L74.2722 221.023L74.8749 220.421L77.2734 222.819ZM76.6828 220.011L77.3939 220.722L72.9826 225.133C72.7817 225.334 72.6601 225.514 72.618 225.673C72.5798 225.831 72.5898 225.974 72.6481 226.101C72.7104 226.227 72.7937 226.343 72.8982 226.447C72.9765 226.525 73.0448 226.586 73.1031 226.628C73.1634 226.668 73.2116 226.7 73.2477 226.724L72.7536 227.508C72.6873 227.478 72.6019 227.428 72.4974 227.36C72.391 227.294 72.2714 227.194 72.1389 227.062C71.938 226.861 71.7843 226.621 71.6778 226.342C71.5734 226.064 71.5463 225.774 71.5965 225.471C71.6487 225.169 71.8094 224.884 72.0786 224.615L76.6828 220.011ZM77.3096 226.543L74.5253 229.328L73.8142 228.617L79.9853 222.445L80.6965 223.157L78.4305 225.423L78.4908 225.483C78.8383 225.352 79.1908 225.325 79.5484 225.401C79.91 225.478 80.2726 225.698 80.6362 226.061C80.9516 226.377 81.1645 226.716 81.275 227.08C81.3875 227.441 81.3795 227.817 81.2509 228.207C81.1263 228.597 80.8652 228.99 80.4674 229.388L77.5265 232.329L76.8154 231.618L79.7081 228.725C80.0757 228.357 80.2646 227.978 80.2746 227.586C80.2887 227.194 80.128 226.831 79.7925 226.495C79.5595 226.262 79.3013 226.103 79.0181 226.016C78.7368 225.932 78.4486 225.931 78.1533 226.013C77.86 226.098 77.5788 226.274 77.3096 226.543Z" fill="black"/>
</svg>
