<svg width="226" height="172" viewBox="0 0 226 172" fill="none" xmlns="http://www.w3.org/2000/svg">
<g clip-path="url(#clip0_69_77)">
<mask id="mask0_69_77" style="mask-type:alpha" maskUnits="userSpaceOnUse" x="27" y="-10" width="181" height="182">
<rect x="27" y="-9.70837" width="180.928" height="180.928" fill="url(#paint0_linear_69_77)"/>
</mask>
<g mask="url(#mask0_69_77)">
<path d="M41.6297 122.56L59.0026 139.959L54.3304 144.633L36.9575 127.239L41.6297 122.56Z" fill="#77B255"/>
<path d="M58.5524 139.498L75.9203 156.897L71.248 161.576L53.8852 144.177L58.5524 139.498Z" fill="#FFD983"/>
<path d="M58.1015 112.375L75.4744 129.774L70.8021 134.453L53.4293 117.054L58.1015 112.375Z" fill="#FFAC33"/>
<path d="M71.8958 126.19L89.2686 143.589L84.5964 148.268L67.2286 130.869L71.8958 126.19ZM91.6832 78.7426L109.051 96.1418L104.379 100.821L87.011 83.422L91.6832 78.7426Z" fill="#EA596E"/>
<path d="M105.472 92.5626L122.845 109.957L118.173 114.636L100.8 97.2419L105.472 92.5626Z" fill="#FFAC33"/>
<path d="M102.126 62.3878L119.499 79.787L114.832 84.4663L97.4592 67.0671L102.126 62.3878Z" fill="#77B255"/>
<path d="M118.867 79.1482L136.24 96.5474L131.567 101.227L114.194 83.8275L118.867 79.1482Z" fill="#FFD983"/>
<path d="M115.521 48.9734L132.893 66.3726L128.221 71.0468L110.848 53.6527L115.521 48.9734Z" fill="#FFAC33"/>
<path d="M132.261 65.7389L149.634 83.133L144.961 87.8124L127.594 70.4132L132.261 65.7389ZM149.796 14.6465L167.169 32.0457L162.496 36.72L145.123 19.3259L149.796 14.6465Z" fill="#EA596E"/>
<path d="M166.535 31.4119L183.908 48.8061L179.236 53.4854L161.863 36.0862L166.535 31.4119Z" fill="#FFAC33"/>
<path d="M163.088 0.917723L180.461 18.3169L175.789 22.9962L158.416 5.59705L163.088 0.917723Z" fill="#77B255"/>
<path d="M180.031 17.891L197.404 35.2852L192.731 39.9645L175.358 22.5704L180.031 17.891Z" fill="#FFD983"/>
<path d="M152.504 -6.38265C139.748 6.39298 139.338 24.7706 140.375 43.3308C142.911 43.4727 145.447 43.64 147.978 43.8073C149.953 43.9392 151.902 44.0659 153.845 44.1825C152.843 27.5235 152.838 12.2485 161.975 3.09768C165.655 -0.466314 166.809 -5.28252 164.238 -7.88328C161.53 -10.6209 156.432 -10.4029 152.504 -6.38265Z" fill="#9266CC"/>
<path d="M92.8928 119.538L92.1183 106.053C91.9867 103.797 91.8247 101.495 91.7437 99.3003C90.2454 97.7996 79.2608 97.5309 78.3142 98.479C78.38 100.71 78.5521 102.961 78.6736 105.206C78.8153 107.751 79.3114 116.74 79.4278 118.692C79.7011 123.305 79.9138 127.848 79.8631 132.157C81.1742 133.47 91.8652 134.372 93.2522 132.978C93.2931 128.495 93.1732 124.013 92.8928 119.538Z" fill="#3B88C3"/>
<path d="M93.2677 132.973L79.8584 132.152C79.7268 143.351 77.9146 153.166 71.3187 159.772C70.0628 161.029 69.357 162.734 69.3565 164.512C69.356 166.291 70.0609 167.997 71.3162 169.254C72.5715 170.512 74.2743 171.219 76.0499 171.22C77.8256 171.22 79.5288 170.514 80.7847 169.257C93.05 156.978 93.2728 132.887 93.2677 132.973Z" fill="#55ACEE"/>
<path d="M154.69 57.6729C152.154 57.531 149.613 57.3637 147.082 57.1964C145.113 57.0646 143.159 56.9378 141.22 56.8212C142.223 73.4752 142.228 88.7552 133.086 97.906C123.954 107.052 108.722 107.057 92.1136 106.053C90.1597 105.936 81.1847 105.343 78.6689 105.201C60.1064 104.157 41.7312 104.563 28.9597 117.353C27.7045 118.611 26.9995 120.317 27 122.095C27.0005 123.874 27.7063 125.579 28.9623 126.836C30.2182 128.093 31.9214 128.799 33.697 128.799C35.4727 128.798 37.1755 128.092 38.4308 126.834C47.5678 117.688 62.8045 117.678 79.4231 118.682C81.372 118.798 90.3621 119.391 92.8881 119.533C111.425 120.573 129.785 120.167 142.552 107.386C155.313 94.6107 155.728 76.2331 154.69 57.6729Z" fill="#9266CC"/>
<path d="M154.69 57.6729C154.549 55.133 153.957 46.1293 153.84 44.1876C153.704 41.9381 153.596 39.687 153.516 37.4348C151.816 37.3283 142.886 36.7605 140.087 36.6084C140.153 38.8391 140.249 41.0849 140.37 43.3308C140.512 45.8707 141.104 54.8745 141.22 56.8212C141.499 61.4549 141.681 65.967 141.631 70.2864C143.316 70.3928 152.231 70.9556 155.02 71.1077C155.073 66.6269 154.963 62.1457 154.69 57.6729Z" fill="#744EAA"/>
<path d="M206.46 34.2509C204.334 32.0405 199.449 31.204 194.863 36.0405C185.726 45.1913 170.479 45.1965 153.84 44.1876C151.897 44.071 142.906 43.4728 140.37 43.3308C121.843 42.2915 103.488 42.7072 90.7319 55.4828C79.5195 66.7122 77.849 82.2711 78.3147 98.4738C81.114 98.6259 90.0536 99.1937 91.7443 99.2951C91.2482 85.3281 92.3163 72.8617 100.203 64.9632C109.34 55.8124 124.592 55.8124 141.226 56.8162C143.164 56.9328 152.16 57.5259 154.696 57.6679C173.228 58.7072 191.578 58.2965 204.334 45.5209C208.819 41.1153 208.586 36.4613 206.46 34.2509Z" fill="#55ACEE"/>
</g>
</g>
<mask id="mask1_69_77" style="mask-type:alpha" maskUnits="userSpaceOnUse" x="90" y="0" width="110" height="109">
<rect x="90.5454" y="-3.05176e-05" width="108.557" height="108.557" fill="url(#paint1_linear_69_77)"/>
</mask>
<g mask="url(#mask1_69_77)">
<path d="M145.96 38.7199C146.875 38.261 147.744 37.95 148.566 37.7871C149.388 37.6241 150.147 37.6106 150.841 37.7465C151.527 37.8795 152.139 38.1564 152.677 38.5769C153.215 38.9975 153.662 39.5633 154.019 40.2742C154.326 40.8885 154.502 41.5086 154.545 42.1345C154.589 42.7604 154.474 43.3765 154.201 43.9827C153.923 44.5919 153.476 45.1827 152.859 45.7551C152.242 46.3276 151.43 46.8661 150.423 47.3707C149.508 47.8296 148.639 48.1406 147.817 48.3035C146.992 48.4608 146.236 48.4729 145.551 48.3398C144.859 48.2096 144.243 47.9314 143.702 47.5051C143.161 47.0789 142.714 46.5131 142.36 45.8078C142.052 45.1936 141.877 44.5735 141.833 43.9476C141.79 43.3217 141.906 42.7085 142.182 42.1079C142.454 41.5016 142.899 40.9122 143.516 40.3397C144.133 39.7673 144.947 39.2273 145.96 38.7199ZM149.303 45.3061C149.417 45.2491 149.525 45.195 149.627 45.1437C149.724 45.0952 149.821 45.0396 149.918 44.9769L144.802 42.3102C144.339 42.7915 144.056 43.2641 143.954 43.7279C143.844 44.1889 143.9 44.6413 144.122 45.0849C144.282 45.4034 144.512 45.6578 144.814 45.8482C145.11 46.0414 145.477 46.1562 145.916 46.1928C146.351 46.2237 146.852 46.172 147.418 46.0377C147.981 45.8978 148.609 45.6539 149.303 45.3061ZM147.08 40.7844C146.983 40.8329 146.888 40.8842 146.794 40.9384C146.694 40.9954 146.599 41.0467 146.508 41.0923L151.594 43.742C152.054 43.2835 152.335 42.8223 152.437 42.3584C152.539 41.8945 152.48 41.4436 152.261 41.0057C152.101 40.6872 151.871 40.4328 151.569 40.2424C151.264 40.0464 150.897 39.9315 150.467 39.8978C150.029 39.8612 149.529 39.9129 148.965 40.0529C148.396 40.1957 147.768 40.4395 147.08 40.7844Z" fill="#9266CC"/>
<path d="M150.528 30.3511L148.458 30.2778L148.571 27.1019L140.559 26.8183L141.987 29.638L140.063 30.3338L138.114 26.3019L138.183 24.3469L148.655 24.7177L148.752 21.9806L150.821 22.0539L150.528 30.3511Z" fill="#9266CC"/>
<path d="M151.652 5.42296C152.532 5.94553 153.264 6.50868 153.845 7.1124C154.426 7.71613 154.847 8.34685 155.108 9.00455C155.367 9.65354 155.464 10.3181 155.401 10.9981C155.338 11.6782 155.104 12.3602 154.698 13.0442C154.347 13.6351 153.92 14.1179 153.417 14.4925C152.914 14.8671 152.334 15.1035 151.676 15.2017C151.013 15.2967 150.274 15.2393 149.459 15.0295C148.644 14.8198 147.752 14.4276 146.784 13.8531C145.903 13.3306 145.172 12.7674 144.591 12.1637C144.013 11.5545 143.594 10.9254 143.336 10.2764C143.072 9.62418 142.973 8.95529 143.039 8.26975C143.106 7.58422 143.34 6.9022 143.742 6.22371C144.093 5.63276 144.52 5.14999 145.023 4.7754C145.526 4.40082 146.105 4.16715 146.759 4.07439C147.417 3.97617 148.153 4.03193 148.968 4.24169C149.783 4.45145 150.678 4.84521 151.652 5.42296ZM147.916 11.7951C148.025 11.86 148.129 11.9217 148.228 11.9801C148.321 12.0353 148.42 12.0866 148.525 12.1341L148.005 6.38888C147.35 6.25906 146.799 6.27655 146.354 6.44136C145.906 6.59745 145.556 6.88889 145.303 7.31569C145.121 7.62211 145.032 7.9537 145.034 8.31047C145.032 8.664 145.134 9.035 145.339 9.42348C145.549 9.8065 145.863 10.1999 146.282 10.6037C146.704 11.002 147.248 11.3991 147.916 11.7951ZM150.519 7.48098C150.426 7.4258 150.332 7.37336 150.236 7.32365C150.134 7.2707 150.039 7.21826 149.952 7.16632L150.47 12.8772C151.104 13.0169 151.644 13.0044 152.09 12.8396C152.535 12.6748 152.883 12.3817 153.133 11.9604C153.315 11.654 153.404 11.3224 153.401 10.9656C153.401 10.6034 153.3 10.2324 153.096 9.85261C152.89 9.46413 152.576 9.07073 152.154 8.67242C151.726 8.27087 151.182 7.87372 150.519 7.48098Z" fill="#9266CC"/>
<path d="M106.153 94.8156L105.225 96.6669L108.066 98.0908L104.474 105.257L102.684 102.652L101.151 104.008L103.755 107.651L105.504 108.527L110.199 99.1597L112.647 100.387L113.575 98.5356L106.153 94.8156Z" fill="#9266CC"/>
<path d="M128.567 105.782C128.531 104.758 128.387 103.847 128.136 103.047C127.885 102.248 127.533 101.576 127.081 101.032C126.635 100.494 126.099 100.089 125.472 99.8185C124.845 99.5479 124.134 99.4267 123.339 99.4548C122.653 99.4791 122.024 99.6223 121.454 99.8844C120.884 100.147 120.399 100.542 119.997 101.072C119.596 101.609 119.292 102.285 119.085 103.1C118.879 103.916 118.795 104.887 118.835 106.012C118.871 107.036 119.015 107.947 119.266 108.747C119.524 109.546 119.875 110.215 120.321 110.753C120.767 111.298 121.306 111.705 121.94 111.975C122.573 112.246 123.284 112.367 124.072 112.339C124.759 112.315 125.387 112.172 125.958 111.909C126.528 111.647 127.01 111.251 127.405 110.722C127.806 110.192 128.111 109.519 128.317 108.703C128.524 107.888 128.607 106.914 128.567 105.782ZM121.184 106.005C121.18 105.878 121.175 105.757 121.171 105.643C121.167 105.535 121.17 105.423 121.178 105.308L125.971 108.519C125.771 109.156 125.492 109.631 125.134 109.943C124.782 110.261 124.358 110.429 123.862 110.446C123.506 110.459 123.172 110.378 122.861 110.205C122.549 110.038 122.272 109.77 122.03 109.403C121.794 109.036 121.6 108.572 121.446 108.011C121.299 107.45 121.211 106.781 121.184 106.005ZM126.218 105.789C126.222 105.897 126.223 106.005 126.22 106.113C126.218 106.228 126.219 106.336 126.222 106.438L121.459 103.246C121.64 102.622 121.91 102.154 122.268 101.842C122.627 101.53 123.05 101.365 123.54 101.348C123.896 101.335 124.23 101.416 124.542 101.589C124.86 101.763 125.137 102.03 125.372 102.391C125.614 102.758 125.809 103.222 125.956 103.783C126.104 104.351 126.191 105.02 126.218 105.789Z" fill="#9266CC"/>
<path d="M144.489 98.6858C143.966 97.8048 143.403 97.0737 142.8 96.4924C142.196 95.9111 141.565 95.49 140.907 95.2292C140.258 94.9706 139.594 94.8729 138.914 94.9361C138.234 94.9992 137.552 95.2336 136.868 95.6394C136.277 95.9899 135.794 96.4168 135.42 96.9201C135.045 97.4234 134.809 98.0038 134.71 98.6612C134.615 99.3241 134.673 100.063 134.882 100.878C135.092 101.693 135.484 102.585 136.059 103.553C136.581 104.434 137.145 105.165 137.748 105.747C138.358 106.325 138.987 106.743 139.636 107.002C140.288 107.266 140.957 107.365 141.642 107.298C142.328 107.232 143.01 106.997 143.688 106.595C144.279 106.244 144.762 105.817 145.137 105.314C145.511 104.811 145.745 104.232 145.838 103.578C145.936 102.92 145.88 102.184 145.67 101.369C145.461 100.554 145.067 99.6597 144.489 98.6858ZM138.117 102.421C138.052 102.312 137.99 102.208 137.932 102.109C137.877 102.016 137.825 101.917 137.778 101.812L143.523 102.332C143.653 102.988 143.635 103.538 143.471 103.983C143.315 104.431 143.023 104.781 142.596 105.035C142.29 105.216 141.958 105.306 141.602 105.303C141.248 105.305 140.877 105.204 140.489 104.998C140.106 104.789 139.712 104.475 139.308 104.056C138.91 103.634 138.513 103.089 138.117 102.421ZM142.431 99.8178C142.486 99.9108 142.539 100.005 142.588 100.102C142.641 100.203 142.694 100.298 142.746 100.386L137.035 99.8676C136.895 99.233 136.908 98.693 137.072 98.2475C137.237 97.8021 137.53 97.4544 137.952 97.2045C138.258 97.0227 138.59 96.9333 138.946 96.9362C139.309 96.9358 139.68 97.0375 140.059 97.2413C140.448 97.4473 140.841 97.7613 141.24 98.1834C141.641 98.6109 142.038 99.1557 142.431 99.8178Z" fill="#9266CC"/>
<path d="M155.06 84.8247C154.179 84.3021 153.335 83.9305 152.526 83.7098C151.718 83.4891 150.962 83.422 150.26 83.5084C149.566 83.5926 148.936 83.8255 148.37 84.2069C147.803 84.5884 147.317 85.1211 146.911 85.805C146.561 86.396 146.342 87.0021 146.254 87.6234C146.167 88.2446 146.238 88.8673 146.467 89.4913C146.701 90.1186 147.106 90.7396 147.681 91.3543C148.256 91.9689 149.027 92.5635 149.996 93.138C150.877 93.6606 151.721 94.0322 152.53 94.2529C153.342 94.4682 154.094 94.5337 154.788 94.4495C155.487 94.3685 156.121 94.1345 156.691 93.7476C157.261 93.3607 157.747 92.828 158.149 92.1495C158.5 91.5585 158.719 90.9524 158.806 90.3312C158.894 89.7099 158.821 89.09 158.589 88.4714C158.36 87.8474 157.958 87.228 157.383 86.6133C156.809 85.9987 156.034 85.4025 155.06 84.8247ZM151.259 91.1579C151.15 91.093 151.046 91.0313 150.947 90.9729C150.854 90.9177 150.762 90.8555 150.67 90.7861L155.961 88.4879C156.389 89.0007 156.637 89.4921 156.706 89.962C156.784 90.4297 156.696 90.8769 156.443 91.3037C156.261 91.6101 156.013 91.8476 155.699 92.0161C155.39 92.1879 155.015 92.2765 154.576 92.282C154.139 92.282 153.643 92.195 153.088 92.0211C152.536 91.8416 151.927 91.5539 151.259 91.1579ZM153.797 86.8048C153.89 86.86 153.981 86.9179 154.071 86.9786C154.166 87.0425 154.258 87.1004 154.345 87.1523L149.085 89.4356C148.658 88.9457 148.41 88.4658 148.341 87.9959C148.272 87.526 148.363 87.0803 148.613 86.659C148.795 86.3526 149.043 86.1151 149.357 85.9466C149.675 85.7726 150.049 85.684 150.48 85.6807C150.92 85.6753 151.416 85.7622 151.968 85.9417C152.525 86.1244 153.135 86.4121 153.797 86.8048Z" fill="#9266CC"/>
<path d="M151.096 76.1532L153.166 76.2265L153.278 73.0507L161.289 73.3343L159.665 76.046L161.536 76.8762L163.765 72.9923L163.834 71.0372L153.363 70.6664L153.459 67.9293L151.39 67.856L151.096 76.1532Z" fill="#9266CC"/>
<path d="M150.055 61.8839L151.907 60.956L150.483 58.115L157.649 54.5233L157.524 57.6815L159.564 57.5131L159.658 53.0362L158.781 51.2872L149.414 55.9822L148.187 53.5336L146.335 54.4615L150.055 61.8839Z" fill="#9266CC"/>
<path d="M160.336 51.1125C160.795 50.1968 161.106 49.3279 161.269 48.5058C161.432 47.6837 161.445 46.9255 161.309 46.2311C161.176 45.5453 160.899 44.9333 160.479 44.3952C160.058 43.8571 159.492 43.4098 158.781 43.0535C158.167 42.7456 157.547 42.5701 156.921 42.5268C156.295 42.4835 155.679 42.5982 155.073 42.8707C154.464 43.149 153.873 43.5965 153.301 44.2134C152.728 44.8302 152.19 45.642 151.685 46.6487C151.226 47.5644 150.915 48.4333 150.752 49.2554C150.595 50.0804 150.583 50.8358 150.716 51.5216C150.846 52.2131 151.124 52.8293 151.551 53.3703C151.977 53.9113 152.543 54.3585 153.248 54.712C153.862 55.0199 154.482 55.1955 155.108 55.2387C155.734 55.282 156.347 55.1659 156.948 54.8905C157.554 54.618 158.144 54.1733 158.716 53.5564C159.288 52.9395 159.828 52.1249 160.336 51.1125ZM153.75 47.7689C153.807 47.6551 153.861 47.547 153.912 47.4447C153.961 47.348 154.016 47.2513 154.079 47.1546L156.746 52.2699C156.264 52.7332 155.792 53.0159 155.328 53.1179C154.867 53.2284 154.414 53.1725 153.971 52.9501C153.652 52.7905 153.398 52.5598 153.208 52.258C153.014 51.9619 152.899 51.5948 152.863 51.1566C152.832 50.7213 152.884 50.2206 153.018 49.6545C153.158 49.0913 153.402 48.4627 153.75 47.7689ZM158.271 49.9924C158.223 50.0891 158.172 50.1844 158.117 50.2782C158.06 50.3777 158.009 50.473 157.963 50.564L155.314 45.4786C155.772 45.0181 156.233 44.7368 156.697 44.6349C157.161 44.5329 157.612 44.5916 158.05 44.8111C158.369 44.9708 158.623 45.2015 158.813 45.5032C159.009 45.8079 159.124 46.175 159.158 46.6046C159.195 47.0428 159.143 47.5435 159.003 48.1068C158.86 48.6756 158.616 49.3042 158.271 49.9924Z" fill="#55ACEE"/>
<path d="M168.704 46.5449L168.777 48.6144L171.953 48.5019L172.237 56.513L169.417 55.0851L168.721 57.0099L172.753 58.9584L174.708 58.8891L174.338 48.4175L177.075 48.3206L177.001 46.251L168.704 46.5449Z" fill="#55ACEE"/>
<path d="M193.632 45.4213C193.11 44.5404 192.547 43.8092 191.943 43.2279C191.339 42.6466 190.708 42.2256 190.051 41.9648C189.402 41.7062 188.737 41.6085 188.057 41.6716C187.377 41.7348 186.695 41.9692 186.011 42.3749C185.42 42.7255 184.937 43.1524 184.563 43.6557C184.188 44.159 183.952 44.7393 183.854 45.3968C183.759 46.0597 183.816 46.7986 184.026 47.6136C184.235 48.4286 184.628 49.3204 185.202 50.2889C185.725 51.1698 186.288 51.901 186.892 52.4823C187.501 53.0603 188.13 53.4786 188.779 53.7372C189.431 54.0013 190.1 54.1001 190.786 54.0337C191.471 53.9673 192.153 53.7329 192.832 53.3304C193.423 52.9799 193.905 52.5529 194.28 52.0497C194.654 51.5464 194.888 50.9676 194.981 50.3134C195.079 49.656 195.023 48.9198 194.814 48.1048C194.604 47.2898 194.21 46.3953 193.632 45.4213ZM187.26 49.1568C187.195 49.0474 187.134 48.9434 187.075 48.845C187.02 48.7519 186.969 48.6529 186.921 48.548L192.666 49.0678C192.796 49.7231 192.779 50.2735 192.614 50.7189C192.458 51.1665 192.166 51.517 191.74 51.7701C191.433 51.9519 191.102 52.0413 190.745 52.0384C190.391 52.041 190.02 51.9393 189.632 51.7334C189.249 51.5241 188.855 51.2101 188.452 50.7913C188.053 50.3692 187.656 49.8244 187.26 49.1568ZM191.574 46.5534C191.629 46.6464 191.682 46.741 191.732 46.8373C191.785 46.939 191.837 47.0337 191.889 47.1212L186.178 46.6032C186.038 45.9686 186.051 45.4285 186.216 44.9831C186.38 44.5377 186.674 44.19 187.095 43.9401C187.401 43.7583 187.733 43.6689 188.09 43.6718C188.452 43.6714 188.823 43.7731 189.203 43.9768C189.591 44.1828 189.985 44.4969 190.383 44.9189C190.784 45.3465 191.182 45.8913 191.574 46.5534Z" fill="#55ACEE"/>
<path d="M104.239 90.9191L102.388 91.847L100.964 89.006L93.7975 92.5978L96.4026 94.3878L95.0469 95.9212L91.404 93.3171L90.5275 91.5681L99.895 86.8732L98.6678 84.4247L100.519 83.4968L104.239 90.9191Z" fill="#55ACEE"/>
<path d="M93.273 68.5045C94.2967 68.5407 95.2083 68.6844 96.0079 68.9355C96.8075 69.1867 97.4794 69.5383 98.0235 69.9905C98.5616 70.436 98.966 70.9724 99.2366 71.5995C99.5072 72.2265 99.6285 72.9375 99.6003 73.7322C99.576 74.4189 99.4328 75.0472 99.1707 75.6172C98.9086 76.1873 98.5126 76.673 97.9828 77.0744C97.4465 77.4755 96.7705 77.7794 95.9547 77.9861C95.1389 78.1927 94.1684 78.2761 93.043 78.2363C92.0194 78.2 91.1077 78.0564 90.3082 77.8052C89.5088 77.5477 88.8401 77.1962 88.302 76.7506C87.7576 76.3048 87.3502 75.7652 87.0798 75.1318C86.8094 74.4983 86.6881 73.7874 86.7161 72.999C86.7404 72.3124 86.8836 71.684 87.1457 71.114C87.4078 70.544 87.8036 70.0614 88.3333 69.6664C88.8631 69.265 89.536 68.961 90.3518 68.7543C91.1676 68.5477 92.1413 68.4644 93.273 68.5045ZM93.0498 75.8875C93.1769 75.892 93.2977 75.8963 93.4122 75.9003C93.5203 75.9041 93.6318 75.9017 93.7467 75.8931L90.536 71.1004C89.8987 71.3006 89.4241 71.5798 89.1122 71.938C88.7942 72.2896 88.6264 72.7134 88.6089 73.2093C88.5963 73.5653 88.6767 73.8992 88.8503 74.2109C89.0175 74.5224 89.2846 74.7992 89.6517 75.0414C90.0189 75.2772 90.4831 75.4719 91.0442 75.6255C91.6056 75.7727 92.2741 75.86 93.0498 75.8875ZM93.2663 70.8533C93.1582 70.8495 93.05 70.8488 92.9417 70.8513C92.827 70.8536 92.7188 70.853 92.6171 70.8494L95.8096 75.6128C96.4335 75.4312 96.9015 75.1613 97.2133 74.8031C97.5252 74.4449 97.6898 74.0211 97.7072 73.5315C97.7198 73.1754 97.6393 72.8416 97.4657 72.5298C97.2924 72.2118 97.0253 71.9349 96.6644 71.6993C96.2974 71.4572 95.8332 71.2625 95.2718 71.1153C94.7041 70.9679 94.0356 70.8805 93.2663 70.8533Z" fill="#55ACEE"/>
<path d="M100.369 52.583C101.25 53.1056 101.981 53.6687 102.563 54.2724C103.144 54.8762 103.565 55.5069 103.826 56.1646C104.084 56.8136 104.182 57.4781 104.119 58.1582C104.056 58.8382 103.821 59.5202 103.416 60.2042C103.065 60.7952 102.638 61.2779 102.135 61.6525C101.631 62.0271 101.051 62.2635 100.394 62.3617C99.7308 62.4567 98.9918 62.3993 98.1768 62.1896C97.3618 61.9798 96.4701 61.5877 95.5016 61.0132C94.6206 60.4906 93.8895 59.9275 93.3082 59.3237C92.7301 58.7145 92.3118 58.0854 92.0532 57.4364C91.7892 56.7842 91.6903 56.1153 91.7567 55.4298C91.8231 54.7443 92.0576 54.0622 92.46 53.3837C92.8106 52.7928 93.2375 52.31 93.7408 51.9354C94.2441 51.5609 94.8228 51.3272 95.477 51.2344C96.1344 51.1362 96.8707 51.192 97.6857 51.4017C98.5007 51.6115 99.3951 52.0052 100.369 52.583ZM96.6336 58.9552C96.743 59.0201 96.847 59.0817 96.9455 59.1402C97.0385 59.1953 97.1375 59.2467 97.2425 59.2941L96.7226 53.5489C96.0673 53.4191 95.517 53.4366 95.0715 53.6014C94.6239 53.7575 94.2735 54.0489 94.0203 54.4757C93.8385 54.7821 93.7491 55.1137 93.752 55.4705C93.7494 55.824 93.8511 56.195 94.0571 56.5835C94.2663 56.9665 94.5803 57.3599 94.9992 57.7637C95.4212 58.162 95.966 58.5592 96.6336 58.9552ZM99.2371 54.641C99.1441 54.5858 99.0494 54.5334 98.9532 54.4837C98.8514 54.4307 98.7568 54.3783 98.6692 54.3264L99.1873 60.0372C99.8219 60.177 100.362 60.1644 100.807 59.9996C101.253 59.8348 101.6 59.5418 101.85 59.1204C102.032 58.814 102.122 58.4824 102.119 58.1257C102.119 57.7634 102.017 57.3924 101.814 57.0126C101.608 56.6242 101.294 56.2308 100.872 55.8325C100.444 55.4309 99.8992 55.0338 99.2371 54.641Z" fill="#55ACEE"/>
<path d="M114.23 42.0119C114.753 42.8928 115.125 43.7376 115.345 44.5461C115.566 45.3546 115.633 46.11 115.547 46.8122C115.463 47.5057 115.23 48.1357 114.848 48.7023C114.467 49.2688 113.934 49.7549 113.25 50.1606C112.659 50.5112 112.053 50.7302 111.432 50.8176C110.811 50.9051 110.188 50.8343 109.564 50.6053C108.937 50.3708 108.316 49.9662 107.701 49.3914C107.086 48.8166 106.492 48.0449 105.917 47.0764C105.395 46.1955 105.023 45.3507 104.802 44.5422C104.587 43.7305 104.521 42.9778 104.606 42.2843C104.687 41.5853 104.921 40.951 105.308 40.3812C105.694 39.8114 106.227 39.3253 106.906 38.9228C107.497 38.5722 108.103 38.3532 108.724 38.2658C109.345 38.1784 109.965 38.2508 110.584 38.483C111.208 38.712 111.827 39.1139 112.442 39.6887C113.057 40.2635 113.653 41.0379 114.23 42.0119ZM107.897 45.8131C107.962 45.9225 108.024 46.0265 108.082 46.125C108.137 46.218 108.2 46.3105 108.269 46.4025L110.567 41.1113C110.054 40.6832 109.563 40.4347 109.093 40.3658C108.625 40.2882 108.178 40.376 107.751 40.6291C107.445 40.8109 107.208 41.059 107.039 41.3735C106.867 41.6825 106.779 42.0568 106.773 42.4965C106.773 42.933 106.86 43.4287 107.034 43.9839C107.214 44.5358 107.501 45.1455 107.897 45.8131ZM112.25 43.2752C112.195 43.1822 112.137 43.0908 112.077 43.001C112.013 42.9058 111.955 42.8144 111.903 42.7269L109.62 47.987C110.109 48.4139 110.589 48.6618 111.059 48.7307C111.529 48.7996 111.975 48.7091 112.396 48.4592C112.703 48.2774 112.94 48.0293 113.109 47.7148C113.283 47.3971 113.371 47.0227 113.374 46.5918C113.38 46.1521 113.293 45.6563 113.113 45.1044C112.931 44.547 112.643 43.9373 112.25 43.2752Z" fill="#55ACEE"/>
<path d="M122.902 45.9768L122.828 43.9073L126.004 43.7949L125.72 35.7838L123.009 37.4076L122.179 35.5368L126.062 33.308L128.018 33.2388L128.388 43.7104L131.126 43.6135L131.199 45.683L122.902 45.9768Z" fill="#55ACEE"/>
<path d="M137.171 47.0176L138.099 45.1663L140.94 46.5901L144.531 39.4237L141.373 39.5488L141.542 37.5089L146.019 37.415L147.767 38.2916L143.073 47.6591L145.521 48.8863L144.593 50.7376L137.171 47.0176Z" fill="#55ACEE"/>
</g>
<mask id="path-22-outside-1_69_77" maskUnits="userSpaceOnUse" x="0" y="69" width="225" height="27" fill="black">
<rect fill="white" y="69" width="225" height="27"/>
<path d="M10.4434 84.8221V81.453H18.1608V93.0208C17.165 93.4855 16.125 93.8285 15.0406 94.0498C13.9563 94.2711 12.778 94.3817 11.5056 94.3817C10.0008 94.3817 8.64546 94.1494 7.43945 93.6847C6.2445 93.22 5.22658 92.5284 4.38569 91.6101C3.5448 90.6918 2.89753 89.5521 2.4439 88.1912C2.00132 86.8303 1.78004 85.2536 1.78004 83.4612C1.78004 81.6577 2.01239 80.0423 2.47709 78.615C2.95286 77.1877 3.63885 75.9817 4.53506 74.997C5.44233 74.0012 6.54877 73.2433 7.85436 72.7233C9.17102 72.2032 10.6702 71.9432 12.352 71.9432C13.3478 71.9432 14.3159 72.0317 15.2564 72.2088C16.2079 72.3747 17.1539 72.6016 18.0944 72.8892V76.9222C17.2756 76.5349 16.3684 76.2196 15.3726 75.9762C14.3879 75.7217 13.3921 75.5945 12.3852 75.5945C11.3673 75.5945 10.4655 75.7715 9.67998 76.1256C8.90547 76.4796 8.25268 76.983 7.72159 77.6358C7.20156 78.2886 6.80325 79.0908 6.52664 80.0423C6.26109 80.9939 6.12832 82.0671 6.12832 83.2621C6.12832 84.4127 6.23343 85.4528 6.44366 86.3822C6.65388 87.3005 6.99134 88.0861 7.45604 88.7389C7.93181 89.3806 8.54035 89.873 9.28166 90.216C10.023 90.559 10.9247 90.7305 11.9869 90.7305C12.2414 90.7305 12.4627 90.725 12.6508 90.7139C12.8388 90.6918 13.0159 90.6641 13.1818 90.6309C13.3478 90.5977 13.5027 90.559 13.6465 90.5147C13.8014 90.4705 13.9619 90.4207 14.1278 90.3654V84.8221H10.4434ZM36.6825 84.2744C36.6825 84.5511 36.6714 84.9106 36.6493 85.3532C36.6382 85.7958 36.6161 86.2107 36.5829 86.598H25.4965C25.4965 87.3393 25.6071 87.9921 25.8284 88.5563C26.0607 89.1206 26.3816 89.5964 26.791 89.9836C27.2114 90.3598 27.7093 90.6475 28.2847 90.8467C28.8711 91.0458 29.5183 91.1454 30.2265 91.1454C31.0452 91.1454 31.9193 91.0845 32.8487 90.9628C33.7892 90.8301 34.7628 90.6198 35.7697 90.3322V93.5519C35.3382 93.6736 34.868 93.7842 34.359 93.8838C33.85 93.9834 33.33 94.0719 32.7989 94.1494C32.2678 94.2268 31.7312 94.2821 31.1891 94.3153C30.6469 94.3596 30.1213 94.3817 29.6124 94.3817C28.3289 94.3817 27.1782 94.1992 26.1603 93.834C25.1424 93.4689 24.2794 92.9323 23.5713 92.2242C22.8631 91.505 22.321 90.6198 21.9448 89.5687C21.5686 88.5176 21.3805 87.3005 21.3805 85.9175C21.3805 84.5455 21.5686 83.3008 21.9448 82.1833C22.321 81.0547 22.8521 80.0921 23.5381 79.2955C24.2241 78.4878 25.0539 77.8682 26.0275 77.4367C27.0123 76.9941 28.1076 76.7728 29.3137 76.7728C30.5086 76.7728 31.5652 76.9609 32.4836 77.3371C33.4019 77.7022 34.1709 78.2167 34.7905 78.8806C35.4101 79.5444 35.8803 80.3355 36.2012 81.2539C36.5221 82.1722 36.6825 83.1791 36.6825 84.2744ZM32.5666 83.6936C32.5776 83.0297 32.4946 82.4544 32.3176 81.9675C32.1406 81.4696 31.8972 81.0603 31.5874 80.7394C31.2886 80.4185 30.9346 80.1806 30.5252 80.0257C30.1269 79.8708 29.6954 79.7934 29.2307 79.7934C28.2127 79.7934 27.3774 80.1364 26.7246 80.8224C26.0718 81.4973 25.6845 82.4544 25.5628 83.6936H32.5666ZM50.7397 94V83.0131C50.7397 81.1654 50.0538 80.2415 48.6818 80.2415C47.9958 80.2415 47.3375 80.5181 46.7068 81.0713C46.0872 81.6245 45.4289 82.3769 44.7318 83.3284V94H40.6823V77.1379H44.1841L44.2837 79.6274C44.6267 79.1959 44.9808 78.8031 45.3459 78.4491C45.7221 78.095 46.1259 77.7963 46.5574 77.5529C46.9889 77.2984 47.4536 77.1047 47.9515 76.972C48.4494 76.8392 49.0082 76.7728 49.6278 76.7728C50.4908 76.7728 51.2432 76.9167 51.8849 77.2043C52.5266 77.4809 53.0633 77.8793 53.4948 78.3993C53.9263 78.9082 54.2471 79.5278 54.4574 80.2581C54.6787 80.9773 54.7893 81.785 54.7893 82.6812V94H50.7397ZM69.0955 94H63.685L57.063 72.3084H61.6934L65.3613 85.3698L66.5396 89.6517L67.7678 85.1209L71.4024 72.3084H75.7507L69.0955 94ZM88.6296 94L88.53 91.7927C88.176 92.1689 87.8053 92.5174 87.418 92.8382C87.0308 93.148 86.6048 93.4191 86.1401 93.6515C85.6754 93.8838 85.1664 94.0609 84.6132 94.1826C84.0711 94.3153 83.4736 94.3817 82.8208 94.3817C81.9578 94.3817 81.1999 94.2545 80.5471 94C79.8943 93.7455 79.3466 93.3915 78.904 92.9378C78.4615 92.4842 78.124 91.9365 77.8916 91.2948C77.6704 90.653 77.5597 89.9449 77.5597 89.1704C77.5597 88.3738 77.7257 87.638 78.0576 86.9631C78.4006 86.2882 78.9151 85.7073 79.6011 85.2204C80.2981 84.7336 81.1612 84.3519 82.1901 84.0753C83.2302 83.7987 84.4473 83.6604 85.8414 83.6604H88.0487V82.648C88.0487 82.2165 87.9879 81.8292 87.8661 81.4862C87.7444 81.1322 87.5453 80.8334 87.2687 80.59C87.0031 80.3466 86.6546 80.1585 86.2231 80.0257C85.7916 79.893 85.2605 79.8266 84.6298 79.8266C83.634 79.8266 82.6493 79.9428 81.6756 80.1751C80.7131 80.3964 79.7781 80.7117 78.8708 81.1211V77.8848C79.6785 77.5639 80.6079 77.2984 81.6591 77.0882C82.7212 76.8779 83.8221 76.7728 84.9618 76.7728C86.212 76.7728 87.2853 76.8945 88.1815 77.1379C89.0777 77.3703 89.8135 77.7244 90.3888 78.2001C90.9752 78.6759 91.4067 79.2734 91.6833 79.9925C91.96 80.7007 92.0983 81.5305 92.0983 82.482V94H88.6296ZM88.0487 86.5482H85.5758C84.8898 86.5482 84.309 86.6146 83.8332 86.7473C83.3574 86.8801 82.9702 87.0627 82.6714 87.295C82.3727 87.5274 82.1514 87.7984 82.0076 88.1082C81.8748 88.407 81.8084 88.7278 81.8084 89.0708C81.8084 89.7568 82.0297 90.2824 82.4723 90.6475C82.9149 91.0016 83.5179 91.1786 84.2813 91.1786C84.8456 91.1786 85.432 90.9739 86.0405 90.5645C86.6491 90.1551 87.3185 89.5687 88.0487 88.8053V86.5482ZM107.599 83.6936C107.622 83.0629 107.588 82.5263 107.5 82.0837C107.422 81.6411 107.29 81.276 107.102 80.9883C106.924 80.7007 106.703 80.4904 106.438 80.3577C106.172 80.2249 105.868 80.1585 105.525 80.1585C104.927 80.1585 104.308 80.4075 103.666 80.9054C103.035 81.3922 102.338 82.1999 101.575 83.3284V94H97.4257V77.1379H101.094L101.243 79.5942C101.52 79.1627 101.829 78.7755 102.172 78.4325C102.526 78.0895 102.914 77.7963 103.334 77.5529C103.766 77.2984 104.241 77.1047 104.761 76.972C105.281 76.8392 105.851 76.7728 106.471 76.7728C107.323 76.7728 108.075 76.9222 108.728 77.2209C109.392 77.5086 109.945 77.9401 110.388 78.5155C110.841 79.0908 111.173 79.8155 111.383 80.6896C111.605 81.5526 111.699 82.5539 111.666 83.6936H107.599ZM116.396 94V72.3084H120.545V90.4981H129.706V94H116.396ZM149.306 85.4362C149.306 86.7639 149.118 87.981 148.742 89.0874C148.366 90.1828 147.824 91.1233 147.116 91.9088C146.408 92.6944 145.539 93.3029 144.51 93.7345C143.481 94.166 142.308 94.3817 140.992 94.3817C139.741 94.3817 138.624 94.1992 137.639 93.834C136.654 93.4689 135.819 92.9268 135.133 92.2076C134.447 91.4773 133.921 90.5701 133.556 89.4857C133.191 88.3904 133.009 87.118 133.009 85.6686C133.009 84.3298 133.197 83.1127 133.573 82.0173C133.96 80.9219 134.508 79.987 135.216 79.2125C135.935 78.438 136.809 77.8405 137.838 77.4201C138.867 76.9886 140.029 76.7728 141.324 76.7728C142.585 76.7728 143.708 76.9609 144.693 77.3371C145.677 77.7022 146.513 78.2499 147.199 78.9802C147.885 79.7104 148.405 80.6177 148.759 81.702C149.124 82.7752 149.306 84.02 149.306 85.4362ZM145.091 85.5358C145.091 83.7876 144.759 82.4765 144.095 81.6024C143.442 80.7173 142.474 80.2747 141.191 80.2747C140.483 80.2747 139.88 80.413 139.382 80.6896C138.884 80.9662 138.474 81.3479 138.154 81.8348C137.833 82.3105 137.595 82.8693 137.44 83.511C137.296 84.1527 137.224 84.8387 137.224 85.569C137.224 87.3282 137.578 88.6559 138.286 89.5521C138.994 90.4373 139.963 90.8799 141.191 90.8799C141.866 90.8799 142.452 90.7471 142.95 90.4815C143.448 90.2049 143.852 89.8287 144.162 89.353C144.471 88.8661 144.704 88.2963 144.859 87.6435C145.013 86.9907 145.091 86.2882 145.091 85.5358ZM163.38 94L163.281 91.7927C162.927 92.1689 162.556 92.5174 162.169 92.8382C161.781 93.148 161.356 93.4191 160.891 93.6515C160.426 93.8838 159.917 94.0609 159.364 94.1826C158.822 94.3153 158.224 94.3817 157.572 94.3817C156.708 94.3817 155.951 94.2545 155.298 94C154.645 93.7455 154.097 93.3915 153.655 92.9378C153.212 92.4842 152.875 91.9365 152.642 91.2948C152.421 90.653 152.31 89.9449 152.31 89.1704C152.31 88.3738 152.476 87.638 152.808 86.9631C153.151 86.2882 153.666 85.7073 154.352 85.2204C155.049 84.7336 155.912 84.3519 156.941 84.0753C157.981 83.7987 159.198 83.6604 160.592 83.6604H162.799V82.648C162.799 82.2165 162.739 81.8292 162.617 81.4862C162.495 81.1322 162.296 80.8334 162.019 80.59C161.754 80.3466 161.405 80.1585 160.974 80.0257C160.542 79.893 160.011 79.8266 159.381 79.8266C158.385 79.8266 157.4 79.9428 156.426 80.1751C155.464 80.3964 154.529 80.7117 153.622 81.1211V77.8848C154.429 77.5639 155.359 77.2984 156.41 77.0882C157.472 76.8779 158.573 76.7728 159.712 76.7728C160.963 76.7728 162.036 76.8945 162.932 77.1379C163.828 77.3703 164.564 77.7244 165.14 78.2001C165.726 78.6759 166.157 79.2734 166.434 79.9925C166.711 80.7007 166.849 81.5305 166.849 82.482V94H163.38ZM162.799 86.5482H160.327C159.641 86.5482 159.06 86.6146 158.584 86.7473C158.108 86.8801 157.721 87.0627 157.422 87.295C157.123 87.5274 156.902 87.7984 156.758 88.1082C156.626 88.407 156.559 88.7278 156.559 89.0708C156.559 89.7568 156.78 90.2824 157.223 90.6475C157.666 91.0016 158.269 91.1786 159.032 91.1786C159.596 91.1786 160.183 90.9739 160.791 90.5645C161.4 90.1551 162.069 89.5687 162.799 88.8053V86.5482ZM182.101 94L182.002 91.5105C181.648 91.942 181.282 92.3348 180.906 92.6889C180.53 93.0429 180.126 93.3472 179.695 93.6017C179.263 93.8451 178.798 94.0332 178.301 94.166C177.814 94.3098 177.272 94.3817 176.674 94.3817C175.678 94.3817 174.793 94.1826 174.019 93.7842C173.244 93.3859 172.591 92.8216 172.06 92.0914C171.54 91.3501 171.142 90.4539 170.865 89.4028C170.589 88.3517 170.45 87.1788 170.45 85.8843C170.45 84.3353 170.666 82.9965 171.098 81.8679C171.54 80.7283 172.149 79.7879 172.923 79.0465C173.698 78.2942 174.616 77.7409 175.678 77.3869C176.74 77.0218 177.897 76.8392 179.147 76.8392C179.567 76.8392 179.988 76.8669 180.408 76.9222C180.84 76.9775 181.222 77.0494 181.553 77.1379V70.5491H185.603V94H182.101ZM174.699 85.7017C174.699 86.6311 174.76 87.4278 174.882 88.0916C175.014 88.7444 175.203 89.2811 175.446 89.7015C175.7 90.1219 176.01 90.4317 176.375 90.6309C176.74 90.819 177.155 90.913 177.62 90.913C178.306 90.913 178.959 90.6364 179.578 90.0832C180.198 89.53 180.856 88.7721 181.553 87.8095V80.4406C181.233 80.3189 180.834 80.2194 180.359 80.1419C179.894 80.0645 179.424 80.0257 178.948 80.0257C178.295 80.0257 177.709 80.1585 177.189 80.4241C176.669 80.6896 176.22 81.0658 175.844 81.5526C175.479 82.0394 175.197 82.6369 174.998 83.345C174.799 84.0421 174.699 84.8277 174.699 85.7017ZM204.872 84.2744C204.872 84.5511 204.861 84.9106 204.838 85.3532C204.827 85.7958 204.805 86.2107 204.772 86.598H193.686C193.686 87.3393 193.796 87.9921 194.017 88.5563C194.25 89.1206 194.571 89.5964 194.98 89.9836C195.4 90.3598 195.898 90.6475 196.474 90.8467C197.06 91.0458 197.707 91.1454 198.416 91.1454C199.234 91.1454 200.108 91.0845 201.038 90.9628C201.978 90.8301 202.952 90.6198 203.959 90.3322V93.5519C203.527 93.6736 203.057 93.7842 202.548 93.8838C202.039 93.9834 201.519 94.0719 200.988 94.1494C200.457 94.2268 199.92 94.2821 199.378 94.3153C198.836 94.3596 198.31 94.3817 197.801 94.3817C196.518 94.3817 195.367 94.1992 194.349 93.834C193.331 93.4689 192.468 92.9323 191.76 92.2242C191.052 91.505 190.51 90.6198 190.134 89.5687C189.758 88.5176 189.57 87.3005 189.57 85.9175C189.57 84.5455 189.758 83.3008 190.134 82.1833C190.51 81.0547 191.041 80.0921 191.727 79.2955C192.413 78.4878 193.243 77.8682 194.217 77.4367C195.201 76.9941 196.297 76.7728 197.503 76.7728C198.698 76.7728 199.754 76.9609 200.673 77.3371C201.591 77.7022 202.36 78.2167 202.98 78.8806C203.599 79.5444 204.069 80.3355 204.39 81.2539C204.711 82.1722 204.872 83.1791 204.872 84.2744ZM200.756 83.6936C200.767 83.0297 200.684 82.4544 200.507 81.9675C200.33 81.4696 200.086 81.0603 199.776 80.7394C199.478 80.4185 199.124 80.1806 198.714 80.0257C198.316 79.8708 197.884 79.7934 197.42 79.7934C196.402 79.7934 195.566 80.1364 194.914 80.8224C194.261 81.4973 193.874 82.4544 193.752 83.6936H200.756ZM219.725 83.6936C219.748 83.0629 219.714 82.5263 219.626 82.0837C219.548 81.6411 219.416 81.276 219.228 80.9883C219.051 80.7007 218.829 80.4904 218.564 80.3577C218.298 80.2249 217.994 80.1585 217.651 80.1585C217.053 80.1585 216.434 80.4075 215.792 80.9054C215.161 81.3922 214.464 82.1999 213.701 83.3284V94H209.552V77.1379H213.22L213.369 79.5942C213.646 79.1627 213.955 78.7755 214.298 78.4325C214.652 78.0895 215.04 77.7963 215.46 77.5529C215.892 77.2984 216.367 77.1047 216.887 76.972C217.407 76.8392 217.977 76.7728 218.597 76.7728C219.449 76.7728 220.201 76.9222 220.854 77.2209C221.518 77.5086 222.071 77.9401 222.514 78.5155C222.967 79.0908 223.299 79.8155 223.509 80.6896C223.731 81.5526 223.825 82.5539 223.792 83.6936H219.725Z"/>
</mask>
<path d="M10.4434 84.8221V81.453H18.1608V93.0208C17.165 93.4855 16.125 93.8285 15.0406 94.0498C13.9563 94.2711 12.778 94.3817 11.5056 94.3817C10.0008 94.3817 8.64546 94.1494 7.43945 93.6847C6.2445 93.22 5.22658 92.5284 4.38569 91.6101C3.5448 90.6918 2.89753 89.5521 2.4439 88.1912C2.00132 86.8303 1.78004 85.2536 1.78004 83.4612C1.78004 81.6577 2.01239 80.0423 2.47709 78.615C2.95286 77.1877 3.63885 75.9817 4.53506 74.997C5.44233 74.0012 6.54877 73.2433 7.85436 72.7233C9.17102 72.2032 10.6702 71.9432 12.352 71.9432C13.3478 71.9432 14.3159 72.0317 15.2564 72.2088C16.2079 72.3747 17.1539 72.6016 18.0944 72.8892V76.9222C17.2756 76.5349 16.3684 76.2196 15.3726 75.9762C14.3879 75.7217 13.3921 75.5945 12.3852 75.5945C11.3673 75.5945 10.4655 75.7715 9.67998 76.1256C8.90547 76.4796 8.25268 76.983 7.72159 77.6358C7.20156 78.2886 6.80325 79.0908 6.52664 80.0423C6.26109 80.9939 6.12832 82.0671 6.12832 83.2621C6.12832 84.4127 6.23343 85.4528 6.44366 86.3822C6.65388 87.3005 6.99134 88.0861 7.45604 88.7389C7.93181 89.3806 8.54035 89.873 9.28166 90.216C10.023 90.559 10.9247 90.7305 11.9869 90.7305C12.2414 90.7305 12.4627 90.725 12.6508 90.7139C12.8388 90.6918 13.0159 90.6641 13.1818 90.6309C13.3478 90.5977 13.5027 90.559 13.6465 90.5147C13.8014 90.4705 13.9619 90.4207 14.1278 90.3654V84.8221H10.4434ZM36.6825 84.2744C36.6825 84.5511 36.6714 84.9106 36.6493 85.3532C36.6382 85.7958 36.6161 86.2107 36.5829 86.598H25.4965C25.4965 87.3393 25.6071 87.9921 25.8284 88.5563C26.0607 89.1206 26.3816 89.5964 26.791 89.9836C27.2114 90.3598 27.7093 90.6475 28.2847 90.8467C28.8711 91.0458 29.5183 91.1454 30.2265 91.1454C31.0452 91.1454 31.9193 91.0845 32.8487 90.9628C33.7892 90.8301 34.7628 90.6198 35.7697 90.3322V93.5519C35.3382 93.6736 34.868 93.7842 34.359 93.8838C33.85 93.9834 33.33 94.0719 32.7989 94.1494C32.2678 94.2268 31.7312 94.2821 31.1891 94.3153C30.6469 94.3596 30.1213 94.3817 29.6124 94.3817C28.3289 94.3817 27.1782 94.1992 26.1603 93.834C25.1424 93.4689 24.2794 92.9323 23.5713 92.2242C22.8631 91.505 22.321 90.6198 21.9448 89.5687C21.5686 88.5176 21.3805 87.3005 21.3805 85.9175C21.3805 84.5455 21.5686 83.3008 21.9448 82.1833C22.321 81.0547 22.8521 80.0921 23.5381 79.2955C24.2241 78.4878 25.0539 77.8682 26.0275 77.4367C27.0123 76.9941 28.1076 76.7728 29.3137 76.7728C30.5086 76.7728 31.5652 76.9609 32.4836 77.3371C33.4019 77.7022 34.1709 78.2167 34.7905 78.8806C35.4101 79.5444 35.8803 80.3355 36.2012 81.2539C36.5221 82.1722 36.6825 83.1791 36.6825 84.2744ZM32.5666 83.6936C32.5776 83.0297 32.4946 82.4544 32.3176 81.9675C32.1406 81.4696 31.8972 81.0603 31.5874 80.7394C31.2886 80.4185 30.9346 80.1806 30.5252 80.0257C30.1269 79.8708 29.6954 79.7934 29.2307 79.7934C28.2127 79.7934 27.3774 80.1364 26.7246 80.8224C26.0718 81.4973 25.6845 82.4544 25.5628 83.6936H32.5666ZM50.7397 94V83.0131C50.7397 81.1654 50.0538 80.2415 48.6818 80.2415C47.9958 80.2415 47.3375 80.5181 46.7068 81.0713C46.0872 81.6245 45.4289 82.3769 44.7318 83.3284V94H40.6823V77.1379H44.1841L44.2837 79.6274C44.6267 79.1959 44.9808 78.8031 45.3459 78.4491C45.7221 78.095 46.1259 77.7963 46.5574 77.5529C46.9889 77.2984 47.4536 77.1047 47.9515 76.972C48.4494 76.8392 49.0082 76.7728 49.6278 76.7728C50.4908 76.7728 51.2432 76.9167 51.8849 77.2043C52.5266 77.4809 53.0633 77.8793 53.4948 78.3993C53.9263 78.9082 54.2471 79.5278 54.4574 80.2581C54.6787 80.9773 54.7893 81.785 54.7893 82.6812V94H50.7397ZM69.0955 94H63.685L57.063 72.3084H61.6934L65.3613 85.3698L66.5396 89.6517L67.7678 85.1209L71.4024 72.3084H75.7507L69.0955 94ZM88.6296 94L88.53 91.7927C88.176 92.1689 87.8053 92.5174 87.418 92.8382C87.0308 93.148 86.6048 93.4191 86.1401 93.6515C85.6754 93.8838 85.1664 94.0609 84.6132 94.1826C84.0711 94.3153 83.4736 94.3817 82.8208 94.3817C81.9578 94.3817 81.1999 94.2545 80.5471 94C79.8943 93.7455 79.3466 93.3915 78.904 92.9378C78.4615 92.4842 78.124 91.9365 77.8916 91.2948C77.6704 90.653 77.5597 89.9449 77.5597 89.1704C77.5597 88.3738 77.7257 87.638 78.0576 86.9631C78.4006 86.2882 78.9151 85.7073 79.6011 85.2204C80.2981 84.7336 81.1612 84.3519 82.1901 84.0753C83.2302 83.7987 84.4473 83.6604 85.8414 83.6604H88.0487V82.648C88.0487 82.2165 87.9879 81.8292 87.8661 81.4862C87.7444 81.1322 87.5453 80.8334 87.2687 80.59C87.0031 80.3466 86.6546 80.1585 86.2231 80.0257C85.7916 79.893 85.2605 79.8266 84.6298 79.8266C83.634 79.8266 82.6493 79.9428 81.6756 80.1751C80.7131 80.3964 79.7781 80.7117 78.8708 81.1211V77.8848C79.6785 77.5639 80.6079 77.2984 81.6591 77.0882C82.7212 76.8779 83.8221 76.7728 84.9618 76.7728C86.212 76.7728 87.2853 76.8945 88.1815 77.1379C89.0777 77.3703 89.8135 77.7244 90.3888 78.2001C90.9752 78.6759 91.4067 79.2734 91.6833 79.9925C91.96 80.7007 92.0983 81.5305 92.0983 82.482V94H88.6296ZM88.0487 86.5482H85.5758C84.8898 86.5482 84.309 86.6146 83.8332 86.7473C83.3574 86.8801 82.9702 87.0627 82.6714 87.295C82.3727 87.5274 82.1514 87.7984 82.0076 88.1082C81.8748 88.407 81.8084 88.7278 81.8084 89.0708C81.8084 89.7568 82.0297 90.2824 82.4723 90.6475C82.9149 91.0016 83.5179 91.1786 84.2813 91.1786C84.8456 91.1786 85.432 90.9739 86.0405 90.5645C86.6491 90.1551 87.3185 89.5687 88.0487 88.8053V86.5482ZM107.599 83.6936C107.622 83.0629 107.588 82.5263 107.5 82.0837C107.422 81.6411 107.29 81.276 107.102 80.9883C106.924 80.7007 106.703 80.4904 106.438 80.3577C106.172 80.2249 105.868 80.1585 105.525 80.1585C104.927 80.1585 104.308 80.4075 103.666 80.9054C103.035 81.3922 102.338 82.1999 101.575 83.3284V94H97.4257V77.1379H101.094L101.243 79.5942C101.52 79.1627 101.829 78.7755 102.172 78.4325C102.526 78.0895 102.914 77.7963 103.334 77.5529C103.766 77.2984 104.241 77.1047 104.761 76.972C105.281 76.8392 105.851 76.7728 106.471 76.7728C107.323 76.7728 108.075 76.9222 108.728 77.2209C109.392 77.5086 109.945 77.9401 110.388 78.5155C110.841 79.0908 111.173 79.8155 111.383 80.6896C111.605 81.5526 111.699 82.5539 111.666 83.6936H107.599ZM116.396 94V72.3084H120.545V90.4981H129.706V94H116.396ZM149.306 85.4362C149.306 86.7639 149.118 87.981 148.742 89.0874C148.366 90.1828 147.824 91.1233 147.116 91.9088C146.408 92.6944 145.539 93.3029 144.51 93.7345C143.481 94.166 142.308 94.3817 140.992 94.3817C139.741 94.3817 138.624 94.1992 137.639 93.834C136.654 93.4689 135.819 92.9268 135.133 92.2076C134.447 91.4773 133.921 90.5701 133.556 89.4857C133.191 88.3904 133.009 87.118 133.009 85.6686C133.009 84.3298 133.197 83.1127 133.573 82.0173C133.96 80.9219 134.508 79.987 135.216 79.2125C135.935 78.438 136.809 77.8405 137.838 77.4201C138.867 76.9886 140.029 76.7728 141.324 76.7728C142.585 76.7728 143.708 76.9609 144.693 77.3371C145.677 77.7022 146.513 78.2499 147.199 78.9802C147.885 79.7104 148.405 80.6177 148.759 81.702C149.124 82.7752 149.306 84.02 149.306 85.4362ZM145.091 85.5358C145.091 83.7876 144.759 82.4765 144.095 81.6024C143.442 80.7173 142.474 80.2747 141.191 80.2747C140.483 80.2747 139.88 80.413 139.382 80.6896C138.884 80.9662 138.474 81.3479 138.154 81.8348C137.833 82.3105 137.595 82.8693 137.44 83.511C137.296 84.1527 137.224 84.8387 137.224 85.569C137.224 87.3282 137.578 88.6559 138.286 89.5521C138.994 90.4373 139.963 90.8799 141.191 90.8799C141.866 90.8799 142.452 90.7471 142.95 90.4815C143.448 90.2049 143.852 89.8287 144.162 89.353C144.471 88.8661 144.704 88.2963 144.859 87.6435C145.013 86.9907 145.091 86.2882 145.091 85.5358ZM163.38 94L163.281 91.7927C162.927 92.1689 162.556 92.5174 162.169 92.8382C161.781 93.148 161.356 93.4191 160.891 93.6515C160.426 93.8838 159.917 94.0609 159.364 94.1826C158.822 94.3153 158.224 94.3817 157.572 94.3817C156.708 94.3817 155.951 94.2545 155.298 94C154.645 93.7455 154.097 93.3915 153.655 92.9378C153.212 92.4842 152.875 91.9365 152.642 91.2948C152.421 90.653 152.31 89.9449 152.31 89.1704C152.31 88.3738 152.476 87.638 152.808 86.9631C153.151 86.2882 153.666 85.7073 154.352 85.2204C155.049 84.7336 155.912 84.3519 156.941 84.0753C157.981 83.7987 159.198 83.6604 160.592 83.6604H162.799V82.648C162.799 82.2165 162.739 81.8292 162.617 81.4862C162.495 81.1322 162.296 80.8334 162.019 80.59C161.754 80.3466 161.405 80.1585 160.974 80.0257C160.542 79.893 160.011 79.8266 159.381 79.8266C158.385 79.8266 157.4 79.9428 156.426 80.1751C155.464 80.3964 154.529 80.7117 153.622 81.1211V77.8848C154.429 77.5639 155.359 77.2984 156.41 77.0882C157.472 76.8779 158.573 76.7728 159.712 76.7728C160.963 76.7728 162.036 76.8945 162.932 77.1379C163.828 77.3703 164.564 77.7244 165.14 78.2001C165.726 78.6759 166.157 79.2734 166.434 79.9925C166.711 80.7007 166.849 81.5305 166.849 82.482V94H163.38ZM162.799 86.5482H160.327C159.641 86.5482 159.06 86.6146 158.584 86.7473C158.108 86.8801 157.721 87.0627 157.422 87.295C157.123 87.5274 156.902 87.7984 156.758 88.1082C156.626 88.407 156.559 88.7278 156.559 89.0708C156.559 89.7568 156.78 90.2824 157.223 90.6475C157.666 91.0016 158.269 91.1786 159.032 91.1786C159.596 91.1786 160.183 90.9739 160.791 90.5645C161.4 90.1551 162.069 89.5687 162.799 88.8053V86.5482ZM182.101 94L182.002 91.5105C181.648 91.942 181.282 92.3348 180.906 92.6889C180.53 93.0429 180.126 93.3472 179.695 93.6017C179.263 93.8451 178.798 94.0332 178.301 94.166C177.814 94.3098 177.272 94.3817 176.674 94.3817C175.678 94.3817 174.793 94.1826 174.019 93.7842C173.244 93.3859 172.591 92.8216 172.06 92.0914C171.54 91.3501 171.142 90.4539 170.865 89.4028C170.589 88.3517 170.45 87.1788 170.45 85.8843C170.45 84.3353 170.666 82.9965 171.098 81.8679C171.54 80.7283 172.149 79.7879 172.923 79.0465C173.698 78.2942 174.616 77.7409 175.678 77.3869C176.74 77.0218 177.897 76.8392 179.147 76.8392C179.567 76.8392 179.988 76.8669 180.408 76.9222C180.84 76.9775 181.222 77.0494 181.553 77.1379V70.5491H185.603V94H182.101ZM174.699 85.7017C174.699 86.6311 174.76 87.4278 174.882 88.0916C175.014 88.7444 175.203 89.2811 175.446 89.7015C175.7 90.1219 176.01 90.4317 176.375 90.6309C176.74 90.819 177.155 90.913 177.62 90.913C178.306 90.913 178.959 90.6364 179.578 90.0832C180.198 89.53 180.856 88.7721 181.553 87.8095V80.4406C181.233 80.3189 180.834 80.2194 180.359 80.1419C179.894 80.0645 179.424 80.0257 178.948 80.0257C178.295 80.0257 177.709 80.1585 177.189 80.4241C176.669 80.6896 176.22 81.0658 175.844 81.5526C175.479 82.0394 175.197 82.6369 174.998 83.345C174.799 84.0421 174.699 84.8277 174.699 85.7017ZM204.872 84.2744C204.872 84.5511 204.861 84.9106 204.838 85.3532C204.827 85.7958 204.805 86.2107 204.772 86.598H193.686C193.686 87.3393 193.796 87.9921 194.017 88.5563C194.25 89.1206 194.571 89.5964 194.98 89.9836C195.4 90.3598 195.898 90.6475 196.474 90.8467C197.06 91.0458 197.707 91.1454 198.416 91.1454C199.234 91.1454 200.108 91.0845 201.038 90.9628C201.978 90.8301 202.952 90.6198 203.959 90.3322V93.5519C203.527 93.6736 203.057 93.7842 202.548 93.8838C202.039 93.9834 201.519 94.0719 200.988 94.1494C200.457 94.2268 199.92 94.2821 199.378 94.3153C198.836 94.3596 198.31 94.3817 197.801 94.3817C196.518 94.3817 195.367 94.1992 194.349 93.834C193.331 93.4689 192.468 92.9323 191.76 92.2242C191.052 91.505 190.51 90.6198 190.134 89.5687C189.758 88.5176 189.57 87.3005 189.57 85.9175C189.57 84.5455 189.758 83.3008 190.134 82.1833C190.51 81.0547 191.041 80.0921 191.727 79.2955C192.413 78.4878 193.243 77.8682 194.217 77.4367C195.201 76.9941 196.297 76.7728 197.503 76.7728C198.698 76.7728 199.754 76.9609 200.673 77.3371C201.591 77.7022 202.36 78.2167 202.98 78.8806C203.599 79.5444 204.069 80.3355 204.39 81.2539C204.711 82.1722 204.872 83.1791 204.872 84.2744ZM200.756 83.6936C200.767 83.0297 200.684 82.4544 200.507 81.9675C200.33 81.4696 200.086 81.0603 199.776 80.7394C199.478 80.4185 199.124 80.1806 198.714 80.0257C198.316 79.8708 197.884 79.7934 197.42 79.7934C196.402 79.7934 195.566 80.1364 194.914 80.8224C194.261 81.4973 193.874 82.4544 193.752 83.6936H200.756ZM219.725 83.6936C219.748 83.0629 219.714 82.5263 219.626 82.0837C219.548 81.6411 219.416 81.276 219.228 80.9883C219.051 80.7007 218.829 80.4904 218.564 80.3577C218.298 80.2249 217.994 80.1585 217.651 80.1585C217.053 80.1585 216.434 80.4075 215.792 80.9054C215.161 81.3922 214.464 82.1999 213.701 83.3284V94H209.552V77.1379H213.22L213.369 79.5942C213.646 79.1627 213.955 78.7755 214.298 78.4325C214.652 78.0895 215.04 77.7963 215.46 77.5529C215.892 77.2984 216.367 77.1047 216.887 76.972C217.407 76.8392 217.977 76.7728 218.597 76.7728C219.449 76.7728 220.201 76.9222 220.854 77.2209C221.518 77.5086 222.071 77.9401 222.514 78.5155C222.967 79.0908 223.299 79.8155 223.509 80.6896C223.731 81.5526 223.825 82.5539 223.792 83.6936H219.725Z" fill="black"/>
<path d="M10.4434 84.8221H9.44342V85.8221H10.4434V84.8221ZM10.4434 81.453V80.453H9.44342V81.453H10.4434ZM18.1608 81.453H19.1608V80.453H18.1608V81.453ZM18.1608 93.0208L18.5837 93.927L19.1608 93.6577V93.0208H18.1608ZM7.43945 93.6847L7.077 94.6167L7.07989 94.6178L7.43945 93.6847ZM2.4439 88.1912L1.49289 88.5005L1.49521 88.5074L2.4439 88.1912ZM2.47709 78.615L1.52838 78.2988L1.52622 78.3054L2.47709 78.615ZM4.53506 74.997L3.79586 74.3235L3.79549 74.3239L4.53506 74.997ZM7.85436 72.7233L7.48701 71.7932L7.48433 71.7943L7.85436 72.7233ZM15.2564 72.2088L15.0714 73.1916L15.0846 73.1939L15.2564 72.2088ZM18.0944 72.8892H19.0944V72.1494L18.3869 71.933L18.0944 72.8892ZM18.0944 76.9222L17.6668 77.8262L19.0944 78.5014V76.9222H18.0944ZM15.3726 75.9762L15.1224 76.9445L15.1351 76.9476L15.3726 75.9762ZM9.67998 76.1256L9.26907 75.2139L9.26422 75.2161L9.67998 76.1256ZM7.72159 77.6358L6.94584 77.0047L6.93943 77.0128L7.72159 77.6358ZM6.52664 80.0423L5.56633 79.7632L5.56344 79.7735L6.52664 80.0423ZM6.44366 86.3822L5.46829 86.6028L5.46887 86.6053L6.44366 86.3822ZM7.45604 88.7389L6.64138 89.3188L6.64698 89.3267L6.65273 89.3345L7.45604 88.7389ZM9.28166 90.216L9.70158 89.3084L9.28166 90.216ZM12.6508 90.7139L12.7095 91.7122L12.7386 91.7105L12.7676 91.707L12.6508 90.7139ZM13.6465 90.5147L13.3718 89.5532L13.3621 89.556L13.3525 89.559L13.6465 90.5147ZM14.1278 90.3654L14.4441 91.314L15.1278 91.0861V90.3654H14.1278ZM14.1278 84.8221H15.1278V83.8221H14.1278V84.8221ZM11.4434 84.8221V81.453H9.44342V84.8221H11.4434ZM10.4434 82.453H18.1608V80.453H10.4434V82.453ZM17.1608 81.453V93.0208H19.1608V81.453H17.1608ZM17.7379 92.1146C16.8138 92.5459 15.8486 92.8643 14.8407 93.07L15.2406 95.0296C16.4013 94.7927 17.5162 94.4251 18.5837 93.927L17.7379 92.1146ZM14.8407 93.07C13.8311 93.276 12.7206 93.3817 11.5056 93.3817V95.3817C12.8354 95.3817 14.0816 95.2661 15.2406 95.0296L14.8407 93.07ZM11.5056 93.3817C10.1039 93.3817 8.87311 93.1654 7.799 92.7515L7.07989 94.6178C8.41781 95.1333 9.89777 95.3817 11.5056 95.3817V93.3817ZM7.80189 92.7527C6.74563 92.3419 5.8573 91.7365 5.12321 90.9348L3.64817 92.2854C4.59585 93.3204 5.74337 94.098 7.077 94.6167L7.80189 92.7527ZM5.12321 90.9348C4.3905 90.1346 3.80854 89.1229 3.39258 87.875L1.49521 88.5074C1.98653 89.9814 2.6991 91.2489 3.64817 92.2854L5.12321 90.9348ZM3.39487 87.882C2.99178 86.6424 2.78004 85.1739 2.78004 83.4612H0.780036C0.780036 85.3333 1.01086 87.0182 1.49292 88.5005L3.39487 87.882ZM2.78004 83.4612C2.78004 81.7424 3.0016 80.2342 3.42796 78.9246L1.52622 78.3054C1.02318 79.8505 0.780036 81.5731 0.780036 83.4612H2.78004ZM3.42577 78.9313C3.86319 77.619 4.48369 76.5391 5.27462 75.6701L3.79549 74.3239C2.794 75.4243 2.04252 76.7565 1.52841 78.2988L3.42577 78.9313ZM5.27425 75.6705C6.07499 74.7916 7.05337 74.1187 8.22439 73.6523L7.48433 71.7943C6.04416 72.3679 4.80968 73.2108 3.79586 74.3235L5.27425 75.6705ZM8.2217 73.6534C9.40164 73.1873 10.7728 72.9432 12.352 72.9432V70.9432C10.5676 70.9432 8.94039 71.2192 7.48702 71.7932L8.2217 73.6534ZM12.352 72.9432C13.2882 72.9432 14.1944 73.0264 15.0714 73.1915L15.4414 71.226C14.4375 71.0371 13.4074 70.9432 12.352 70.9432V72.9432ZM15.0846 73.1939C15.9946 73.3526 16.9003 73.5697 17.8019 73.8455L18.3869 71.933C17.4076 71.6334 16.4213 71.3969 15.4282 71.2237L15.0846 73.1939ZM17.0944 72.8892V76.9222H19.0944V72.8892H17.0944ZM18.522 76.0182C17.6349 75.5986 16.6629 75.2622 15.61 75.0048L15.1351 76.9476C16.0739 77.1771 16.9164 77.4712 17.6668 77.8262L18.522 76.0182ZM15.6228 75.008C14.5572 74.7326 13.4773 74.5945 12.3852 74.5945V76.5945C13.3068 76.5945 14.2185 76.7108 15.1224 76.9444L15.6228 75.008ZM12.3852 74.5945C11.251 74.5945 10.2051 74.792 9.26908 75.2139L10.0909 77.0372C10.726 76.751 11.4836 76.5945 12.3852 76.5945V74.5945ZM9.26422 75.2161C8.35166 75.6332 7.57516 76.2313 6.94588 77.0048L8.4973 78.2669C8.9302 77.7348 9.45928 77.326 10.0957 77.035L9.26422 75.2161ZM6.93943 77.0128C6.3245 77.7847 5.87269 78.7095 5.56639 79.7632L7.48689 80.3215C7.7338 79.4721 8.07863 78.7926 8.50375 78.2589L6.93943 77.0128ZM5.56344 79.7735C5.269 80.8286 5.12832 81.9946 5.12832 83.2621H7.12832C7.12832 82.1397 7.25319 81.1591 7.48984 80.3111L5.56344 79.7735ZM5.12832 83.2621C5.12832 84.4722 5.23874 85.5879 5.4683 86.6028L7.41902 86.1616C7.22813 85.3177 7.12832 84.3533 7.12832 83.2621H5.12832ZM5.46887 86.6053C5.70338 87.6298 6.08816 88.5417 6.64138 89.3188L8.27071 88.159C7.89452 87.6305 7.60437 86.9713 7.41844 86.1591L5.46887 86.6053ZM6.65273 89.3345C7.23048 90.1138 7.9721 90.7119 8.86174 91.1236L9.70158 89.3084C9.1086 89.0341 8.63314 88.6475 8.25936 88.1433L6.65273 89.3345ZM8.86174 91.1236C9.76795 91.5428 10.8215 91.7305 11.9869 91.7305V89.7305C11.0279 89.7305 10.278 89.5751 9.70158 89.3084L8.86174 91.1236ZM11.9869 91.7305C12.2547 91.7305 12.4964 91.7247 12.7095 91.7122L12.592 89.7156C12.4289 89.7252 12.2281 89.7305 11.9869 89.7305V91.7305ZM12.7676 91.707C12.9792 91.6821 13.1829 91.6505 13.378 91.6115L12.9857 89.6503C12.8489 89.6777 12.6985 89.7014 12.5339 89.7207L12.7676 91.707ZM13.378 91.6115C13.573 91.5725 13.7609 91.5258 13.9406 91.4705L13.3525 89.559C13.2445 89.5922 13.1226 89.6229 12.9857 89.6503L13.378 91.6115ZM13.9213 91.4763C14.0912 91.4277 14.2655 91.3736 14.4441 91.314L13.8116 89.4167C13.6582 89.4678 13.5117 89.5133 13.3718 89.5532L13.9213 91.4763ZM15.1278 90.3654V84.8221H13.1278V90.3654H15.1278ZM14.1278 83.8221H10.4434V85.8221H14.1278V83.8221ZM36.6493 85.3532L35.6506 85.3033L35.6499 85.3157L35.6496 85.3282L36.6493 85.3532ZM36.5829 86.598V87.598H37.5009L37.5793 86.6834L36.5829 86.598ZM25.4965 86.598V85.598H24.4965V86.598H25.4965ZM25.8284 88.5563L24.8974 88.9214L24.9005 88.9293L24.9037 88.9371L25.8284 88.5563ZM26.791 89.9836L26.1038 90.7101L26.1139 90.7196L26.1242 90.7289L26.791 89.9836ZM28.2847 90.8467L27.9576 91.7917L27.9631 91.7935L28.2847 90.8467ZM32.8487 90.9628L32.9786 91.9544L32.9885 91.953L32.8487 90.9628ZM35.7697 90.3322H36.7697V89.0064L35.495 89.3706L35.7697 90.3322ZM35.7697 93.5519L36.0412 94.5143L36.7697 94.3089V93.5519H35.7697ZM31.1891 94.3153L31.1279 93.3172L31.1178 93.3178L31.1077 93.3186L31.1891 94.3153ZM23.5713 92.2242L22.8587 92.9258L22.8642 92.9313L23.5713 92.2242ZM21.9448 82.1833L22.8925 82.5023L22.8935 82.4995L21.9448 82.1833ZM23.5381 79.2955L24.2959 79.948L24.3003 79.9428L23.5381 79.2955ZM26.0275 77.4367L26.4327 78.3509L26.4375 78.3488L26.0275 77.4367ZM32.4836 77.3371L32.1045 78.2625L32.1141 78.2663L32.4836 77.3371ZM32.5666 83.6936V84.6936H33.55L33.5664 83.7102L32.5666 83.6936ZM32.3176 81.9675L31.3754 82.3025L31.3778 82.3093L32.3176 81.9675ZM31.5874 80.7394L30.8555 81.4208L30.8617 81.4274L30.868 81.434L31.5874 80.7394ZM30.5252 80.0257L30.1627 80.9578L30.1713 80.961L30.5252 80.0257ZM26.7246 80.8224L27.4434 81.5176L27.449 81.5117L26.7246 80.8224ZM25.5628 83.6936L24.5676 83.5958L24.4598 84.6936H25.5628V83.6936ZM35.6825 84.2744C35.6825 84.5276 35.6723 84.8687 35.6506 85.3033L37.6481 85.4032C37.6706 84.9525 37.6825 84.5745 37.6825 84.2744H35.6825ZM35.6496 85.3282C35.639 85.7533 35.6178 86.1479 35.5866 86.5126L37.5793 86.6834C37.6144 86.2735 37.6375 85.8382 37.649 85.3782L35.6496 85.3282ZM36.5829 85.598H25.4965V87.598H36.5829V85.598ZM24.4965 86.598C24.4965 87.4372 24.6216 88.2181 24.8974 88.9214L26.7594 88.1913C26.5926 87.766 26.4965 87.2414 26.4965 86.598H24.4965ZM24.9037 88.9371C25.1854 89.6211 25.5834 90.2179 26.1038 90.7101L27.4782 89.2572C27.1798 88.9749 26.9361 88.6201 26.7531 88.1756L24.9037 88.9371ZM26.1242 90.7289C26.6511 91.2003 27.2669 91.5526 27.9576 91.7916L28.6118 89.9017C28.1518 89.7424 27.7718 89.5193 27.4578 89.2384L26.1242 90.7289ZM27.9631 91.7935C28.6667 92.0325 29.4244 92.1454 30.2265 92.1454V90.1454C29.6123 90.1454 29.0754 90.0591 28.6062 89.8998L27.9631 91.7935ZM30.2265 92.1454C31.0943 92.1454 32.0121 92.0809 32.9786 91.9544L32.7189 89.9713C31.8265 90.0882 30.9961 90.1454 30.2265 90.1454V92.1454ZM32.9885 91.953C33.9789 91.8132 34.9977 91.5927 36.0444 91.2937L35.495 89.3706C34.5279 89.6469 33.5995 89.8469 32.7089 89.9727L32.9885 91.953ZM34.7697 90.3322V93.5519H36.7697V90.3322H34.7697ZM35.4982 92.5894C35.0966 92.7027 34.6532 92.8073 34.167 92.9024L34.551 94.8652C35.0827 94.7612 35.5798 94.6445 36.0412 94.5143L35.4982 92.5894ZM34.167 92.9024C33.6744 92.9988 33.1703 93.0846 32.6546 93.1598L32.9432 95.1389C33.4897 95.0592 34.0257 94.968 34.551 94.8652L34.167 92.9024ZM32.6546 93.1598C32.1515 93.2332 31.6426 93.2857 31.1279 93.3172L31.2502 95.3135C31.8198 95.2786 32.3842 95.2204 32.9432 95.1389L32.6546 93.1598ZM31.1077 93.3186C30.5908 93.3608 30.0924 93.3817 29.6124 93.3817V95.3817C30.1503 95.3817 30.703 95.3583 31.2704 95.312L31.1077 93.3186ZM29.6124 93.3817C28.423 93.3817 27.3894 93.2125 26.4979 92.8928L25.8227 94.7753C26.967 95.1858 28.2348 95.3817 29.6124 95.3817V93.3817ZM26.4979 92.8928C25.6077 92.5734 24.874 92.1127 24.2784 91.5171L22.8642 92.9313C23.6848 93.7519 24.6771 94.3644 25.8227 94.7753L26.4979 92.8928ZM24.2838 91.5226C23.688 90.9174 23.2188 90.1608 22.8863 89.2318L21.0033 89.9057C21.4232 91.0789 22.0383 92.0926 22.8587 92.9258L24.2838 91.5226ZM22.8863 89.2318C22.5568 88.3111 22.3805 87.2121 22.3805 85.9175H20.3805C20.3805 87.389 20.5804 88.7241 21.0033 89.9057L22.8863 89.2318ZM22.3805 85.9175C22.3805 84.6366 22.5561 83.5018 22.8925 82.5023L20.9971 81.8642C20.5811 83.0998 20.3805 84.4544 20.3805 85.9175H22.3805ZM22.8935 82.4995C23.2339 81.4782 23.7052 80.6339 24.2958 79.948L22.7803 78.643C21.9989 79.5503 21.4081 80.6312 20.9961 81.8671L22.8935 82.4995ZM24.3003 79.9428C24.8883 79.2504 25.5959 78.7218 26.4327 78.3509L25.6224 76.5224C24.5118 77.0146 23.5598 77.7252 22.7759 78.6481L24.3003 79.9428ZM26.4375 78.3488C27.279 77.9706 28.2323 77.7728 29.3137 77.7728V75.7728C27.9829 75.7728 26.7456 76.0176 25.6176 76.5246L26.4375 78.3488ZM29.3137 77.7728C30.4045 77.7728 31.3283 77.9445 32.1045 78.2625L32.8627 76.4117C31.8021 75.9773 30.6127 75.7728 29.3137 75.7728V77.7728ZM32.1141 78.2663C32.9075 78.5818 33.5493 79.0163 34.0594 79.5629L35.5216 78.1983C34.7925 77.4171 33.8964 76.8227 32.853 76.4079L32.1141 78.2663ZM34.0594 79.5629C34.5778 80.1182 34.9788 80.7869 35.2572 81.5837L37.1452 80.924C36.7819 79.8842 36.2425 78.9706 35.5216 78.1983L34.0594 79.5629ZM35.2572 81.5837C35.5366 82.3836 35.6825 83.2774 35.6825 84.2744H37.6825C37.6825 83.0808 37.5075 81.9609 37.1452 80.924L35.2572 81.5837ZM33.5664 83.7102C33.579 82.9571 33.4861 82.2547 33.2574 81.6258L31.3778 82.3093C31.5032 82.654 31.5763 83.1023 31.5667 83.6769L33.5664 83.7102ZM33.2598 81.6325C33.0437 81.0248 32.7322 80.4855 32.3068 80.0448L30.868 81.434C31.0621 81.635 31.2374 81.9145 31.3754 82.3025L33.2598 81.6325ZM32.3193 80.058C31.9159 79.6247 31.4326 79.2999 30.8791 79.0904L30.1713 80.961C30.4366 81.0614 30.6614 81.2123 30.8555 81.4208L32.3193 80.058ZM30.8876 79.0937C30.3641 78.8901 29.8085 78.7934 29.2307 78.7934V80.7934C29.5823 80.7934 29.8897 80.8516 30.1628 80.9577L30.8876 79.0937ZM29.2307 78.7934C27.9618 78.7934 26.8569 79.2327 26.0002 80.133L27.449 81.5117C27.8978 81.0401 28.4637 80.7934 29.2307 80.7934V78.7934ZM26.0058 80.1271C25.1515 81.0104 24.7042 82.2054 24.5676 83.5958L26.5581 83.7913C26.6649 82.7034 26.9921 81.9842 27.4434 81.5176L26.0058 80.1271ZM25.5628 84.6936H32.5666V82.6936H25.5628V84.6936ZM50.7397 94H49.7397V95H50.7397V94ZM46.7068 81.0713L46.0473 80.3195L46.0408 80.3254L46.7068 81.0713ZM44.7318 83.3284L43.9251 82.7375L43.7318 83.0014V83.3284H44.7318ZM44.7318 94V95H45.7318V94H44.7318ZM40.6823 94H39.6823V95H40.6823V94ZM40.6823 77.1379V76.1379H39.6823V77.1379H40.6823ZM44.1841 77.1379L45.1833 77.098L45.1449 76.1379H44.1841V77.1379ZM44.2837 79.6274L43.2845 79.6674L43.3921 82.3563L45.0665 80.2497L44.2837 79.6274ZM45.3459 78.4491L44.6605 77.7209L44.6551 77.726L44.6497 77.7312L45.3459 78.4491ZM46.5574 77.5529L47.0487 78.4238L47.0571 78.4191L47.0654 78.4142L46.5574 77.5529ZM51.8849 77.2043L51.4759 78.1168L51.4824 78.1198L51.4891 78.1227L51.8849 77.2043ZM53.4948 78.3993L52.7252 79.0379L52.732 79.046L53.4948 78.3993ZM54.4574 80.2581L53.4964 80.5347L53.4989 80.5435L53.5016 80.5522L54.4574 80.2581ZM54.7893 94V95H55.7893V94H54.7893ZM51.7397 94V83.0131H49.7397V94H51.7397ZM51.7397 83.0131C51.7397 81.9946 51.5559 81.049 51.0281 80.3382C50.459 79.5717 49.6156 79.2415 48.6818 79.2415V81.2415C49.12 81.2415 49.3055 81.3732 49.4224 81.5305C49.5807 81.7437 49.7397 82.1838 49.7397 83.0131H51.7397ZM48.6818 79.2415C47.7021 79.2415 46.818 79.6435 46.0474 80.3196L47.3662 81.8231C47.8569 81.3927 48.2895 81.2415 48.6818 81.2415V79.2415ZM46.0408 80.3254C45.3523 80.9401 44.6478 81.751 43.9251 82.7375L45.5385 83.9194C46.2099 83.0028 46.8221 82.309 47.3728 81.8173L46.0408 80.3254ZM43.7318 83.3284V94H45.7318V83.3284H43.7318ZM44.7318 93H40.6823V95H44.7318V93ZM41.6823 94V77.1379H39.6823V94H41.6823ZM40.6823 78.1379H44.1841V76.1379H40.6823V78.1379ZM43.1849 77.1779L43.2845 79.6674L45.2829 79.5875L45.1833 77.098L43.1849 77.1779ZM45.0665 80.2497C45.3849 79.8491 45.7103 79.4887 46.042 79.167L44.6497 77.7312C44.2512 78.1176 43.8685 78.5427 43.5009 79.0052L45.0665 80.2497ZM46.0312 79.1773C46.3513 78.8761 46.6904 78.626 47.0487 78.4238L46.0661 76.6819C45.5615 76.9665 45.0929 77.3139 44.6605 77.7209L46.0312 79.1773ZM47.0654 78.4142C47.4164 78.2072 47.7966 78.0482 48.2092 77.9382L47.6939 76.0057C47.1107 76.1613 46.5615 76.3895 46.0494 76.6915L47.0654 78.4142ZM48.2092 77.9382C48.6081 77.8318 49.0782 77.7728 49.6278 77.7728V75.7728C48.9381 75.7728 48.2908 75.8466 47.6939 76.0057L48.2092 77.9382ZM49.6278 77.7728C50.3811 77.7728 50.9885 77.8984 51.4759 78.1168L52.294 76.2918C51.4978 75.9349 50.6005 75.7728 49.6278 75.7728V77.7728ZM51.4891 78.1227C51.991 78.339 52.398 78.6435 52.7252 79.0379L54.2643 77.7607C53.7286 77.115 53.0623 76.6229 52.2807 76.286L51.4891 78.1227ZM52.732 79.046C53.0601 79.433 53.3199 79.9216 53.4964 80.5347L55.4183 79.9814C55.1744 79.1341 54.7924 78.3835 54.2575 77.7526L52.732 79.046ZM53.5016 80.5522C53.6886 81.1599 53.7893 81.8662 53.7893 82.6812H55.7893C55.7893 81.7037 55.6687 80.7946 55.4131 79.964L53.5016 80.5522ZM53.7893 82.6812V94H55.7893V82.6812H53.7893ZM54.7893 93H50.7397V95H54.7893V93ZM69.0955 94V95H69.8347L70.0515 94.2933L69.0955 94ZM63.685 94L62.7286 94.292L62.9447 95H63.685V94ZM57.063 72.3084V71.3084H55.7122L56.1066 72.6003L57.063 72.3084ZM61.6934 72.3084L62.6562 72.038L62.4513 71.3084H61.6934V72.3084ZM65.3613 85.3698L66.3254 85.1045L66.324 85.0995L65.3613 85.3698ZM66.5396 89.6517L65.5755 89.917L66.5469 93.4471L67.5048 89.9133L66.5396 89.6517ZM67.7678 85.1209L66.8057 84.8479L66.8026 84.8592L67.7678 85.1209ZM71.4024 72.3084V71.3084H70.6466L70.4404 72.0354L71.4024 72.3084ZM75.7507 72.3084L76.7067 72.6017L77.1035 71.3084H75.7507V72.3084ZM69.0955 93H63.685V95H69.0955V93ZM64.6415 93.708L58.0194 72.0164L56.1066 72.6003L62.7286 94.292L64.6415 93.708ZM57.063 73.3084H61.6934V71.3084H57.063V73.3084ZM60.7307 72.5787L64.3985 85.6402L66.324 85.0995L62.6562 72.038L60.7307 72.5787ZM64.3971 85.6351L65.5755 89.917L67.5038 89.3864L66.3254 85.1045L64.3971 85.6351ZM67.5048 89.9133L68.7329 85.3825L66.8026 84.8592L65.5745 89.3901L67.5048 89.9133ZM68.7298 85.3938L72.3644 72.5813L70.4404 72.0354L66.8057 84.848L68.7298 85.3938ZM71.4024 73.3084H75.7507V71.3084H71.4024V73.3084ZM74.7947 72.015L68.1395 93.7067L70.0515 94.2933L76.7067 72.6017L74.7947 72.015ZM88.6296 94L87.6306 94.0451L87.6737 95H88.6296V94ZM88.53 91.7927L89.529 91.7476L89.4224 89.3854L87.8018 91.1073L88.53 91.7927ZM87.418 92.8382L88.0427 93.6191L88.0494 93.6137L88.0561 93.6083L87.418 92.8382ZM84.6132 94.1826L84.3984 93.2059L84.3868 93.2085L84.3754 93.2113L84.6132 94.1826ZM77.8916 91.2948L76.9463 91.6208L76.9488 91.628L76.9514 91.6352L77.8916 91.2948ZM78.0576 86.9631L77.166 86.51L77.1603 86.5218L78.0576 86.9631ZM79.6011 85.2204L79.0285 84.4006L79.0223 84.4049L79.6011 85.2204ZM82.1901 84.0753L81.9331 83.1089L81.9305 83.1096L82.1901 84.0753ZM88.0487 83.6604V84.6604H89.0487V83.6604H88.0487ZM87.8661 81.4862L86.9204 81.8113L86.9237 81.8206L87.8661 81.4862ZM87.2687 80.59L86.5929 81.3272L86.6004 81.334L86.608 81.3407L87.2687 80.59ZM81.6756 80.1751L81.8997 81.1497L81.9078 81.1478L81.6756 80.1751ZM78.8708 81.1211H77.8708V82.6694L79.2821 82.0326L78.8708 81.1211ZM78.8708 77.8848L78.5016 76.9554L77.8708 77.206V77.8848H78.8708ZM81.6591 77.0882L81.4649 76.1072L81.4629 76.1076L81.6591 77.0882ZM88.1815 77.1379L87.9194 78.103L87.9305 78.1059L88.1815 77.1379ZM90.3888 78.2001L89.7515 78.9708L89.7588 78.9767L90.3888 78.2001ZM91.6833 79.9925L90.75 80.3515L90.7519 80.3564L91.6833 79.9925ZM92.0983 94V95H93.0983V94H92.0983ZM88.0487 86.5482H89.0487V85.5482H88.0487V86.5482ZM82.0076 88.1082L81.1006 87.6871L81.0971 87.6946L81.0938 87.7021L82.0076 88.1082ZM82.4723 90.6475L81.8359 91.4189L81.8417 91.4237L81.8476 91.4284L82.4723 90.6475ZM88.0487 88.8053L88.7714 89.4965L89.0487 89.2065V88.8053H88.0487ZM89.6286 93.9549L89.529 91.7476L87.531 91.8377L87.6306 94.0451L89.6286 93.9549ZM87.8018 91.1073C87.4753 91.4542 87.1346 91.7744 86.78 92.0682L88.0561 93.6083C88.4759 93.2604 88.8766 92.8835 89.2582 92.478L87.8018 91.1073ZM86.7933 92.0574C86.4636 92.3211 86.0976 92.5547 85.6929 92.757L86.5873 94.5459C87.112 94.2835 87.5979 93.975 88.0427 93.6191L86.7933 92.0574ZM85.6929 92.757C85.3083 92.9494 84.8782 93.1003 84.3984 93.2059L84.8281 95.1592C85.4547 95.0214 86.0426 94.8183 86.5873 94.5459L85.6929 92.757ZM84.3754 93.2113C83.9229 93.3221 83.4066 93.3817 82.8208 93.3817V95.3817C83.5406 95.3817 84.2193 95.3086 84.8511 95.1539L84.3754 93.2113ZM82.8208 93.3817C82.0542 93.3817 81.4239 93.2685 80.9103 93.0683L80.1839 94.9317C80.9758 95.2404 81.8614 95.3817 82.8208 95.3817V93.3817ZM80.9103 93.0683C80.3762 92.8601 79.9528 92.5808 79.6198 92.2395L78.1882 93.6361C78.7404 94.2021 79.4124 94.631 80.1839 94.9317L80.9103 93.0683ZM79.6198 92.2395C79.2842 91.8955 79.0196 91.4726 78.8319 90.9543L76.9514 91.6352C77.2284 92.4004 77.6387 93.0729 78.1882 93.6361L79.6198 92.2395ZM78.837 90.9688C78.6566 90.4456 78.5597 89.8494 78.5597 89.1704H76.5597C76.5597 90.0405 76.6841 90.8605 76.9463 91.6208L78.837 90.9688ZM78.5597 89.1704C78.5597 88.5175 78.6945 87.9339 78.955 87.4044L77.1603 86.5218C76.7568 87.3421 76.5597 88.23 76.5597 89.1704H78.5597ZM78.9491 87.4161C79.2109 86.901 79.611 86.4396 80.1798 86.036L79.0223 84.4049C78.2192 84.9749 77.5903 85.6753 77.1661 86.51L78.9491 87.4161ZM80.1737 86.0403C80.755 85.6343 81.5056 85.2948 82.4497 85.041L81.9305 83.1096C80.8168 83.409 79.8413 83.833 79.0285 84.4006L80.1737 86.0403ZM82.4472 85.0417C83.3829 84.7928 84.51 84.6604 85.8414 84.6604V82.6604C84.3846 82.6604 83.0775 82.8045 81.9331 83.1089L82.4472 85.0417ZM85.8414 84.6604H88.0487V82.6604H85.8414V84.6604ZM89.0487 83.6604V82.648H87.0487V83.6604H89.0487ZM89.0487 82.648C89.0487 82.1232 88.9747 81.62 88.8086 81.1518L86.9237 81.8206C87.001 82.0384 87.0487 82.3098 87.0487 82.648H89.0487ZM88.8118 81.1611C88.6346 80.6456 88.3385 80.1994 87.9293 79.8393L86.608 81.3407C86.7521 81.4675 86.8543 81.6187 86.9205 81.8113L88.8118 81.1611ZM87.9444 79.8529C87.5454 79.4871 87.0556 79.2356 86.5172 79.07L85.929 80.9815C86.2536 81.0814 86.4609 81.2061 86.5929 81.3272L87.9444 79.8529ZM86.5172 79.07C85.961 78.8988 85.3238 78.8266 84.6298 78.8266V80.8266C85.1972 80.8266 85.6222 80.8871 85.929 80.9815L86.5172 79.07ZM84.6298 78.8266C83.5555 78.8266 82.4928 78.952 81.4435 79.2024L81.9078 81.1478C82.8058 80.9335 83.7126 80.8266 84.6298 80.8266V78.8266ZM81.4516 79.2005C80.4242 79.4367 79.4265 79.7733 78.4595 80.2096L79.2821 82.0326C80.1297 81.6502 81.0019 81.3561 81.8997 81.1497L81.4516 79.2005ZM79.8708 81.1211V77.8848H77.8708V81.1211H79.8708ZM79.24 78.8141C79.9805 78.52 80.8501 78.2697 81.8552 78.0687L81.4629 76.1076C80.3658 76.327 79.3765 76.6079 78.5016 76.9554L79.24 78.8141ZM81.8532 78.0691C82.8482 77.8722 83.8839 77.7728 84.9618 77.7728V75.7728C83.7604 75.7728 82.5943 75.8837 81.4649 76.1072L81.8532 78.0691ZM84.9618 77.7728C86.1519 77.7728 87.1323 77.8892 87.9194 78.103L88.4436 76.1729C87.4383 75.8999 86.2721 75.7728 84.9618 75.7728V77.7728ZM87.9305 78.1059C88.7182 78.3102 89.3127 78.6079 89.7516 78.9708L91.0261 77.4295C90.3142 76.8408 89.4371 76.4304 88.4324 76.1699L87.9305 78.1059ZM89.7588 78.9767C90.2064 79.3399 90.5349 79.7922 90.75 80.3515L92.6167 79.6336C92.2786 78.7545 91.744 78.0119 91.0189 77.4236L89.7588 78.9767ZM90.7519 80.3564C90.9734 80.9234 91.0983 81.6248 91.0983 82.482H93.0983C93.0983 81.4361 92.9465 80.4779 92.6148 79.6287L90.7519 80.3564ZM91.0983 82.482V94H93.0983V82.482H91.0983ZM92.0983 93H88.6296V95H92.0983V93ZM88.0487 85.5482H85.5758V87.5482H88.0487V85.5482ZM85.5758 85.5482C84.8314 85.5482 84.1542 85.6195 83.5644 85.7841L84.102 87.7105C84.4637 87.6096 84.9483 87.5482 85.5758 87.5482V85.5482ZM83.5644 85.7841C82.9997 85.9417 82.485 86.1732 82.0575 86.5057L83.2854 88.0844C83.4554 87.9522 83.7151 87.8185 84.102 87.7105L83.5644 85.7841ZM82.0575 86.5057C81.6469 86.825 81.3184 87.218 81.1006 87.6871L82.9146 88.5293C82.9844 88.3789 83.0985 88.2297 83.2854 88.0844L82.0575 86.5057ZM81.0938 87.7021C80.9014 88.135 80.8084 88.5949 80.8084 89.0708H82.8084C82.8084 88.8607 82.8482 88.679 82.9214 88.5144L81.0938 87.7021ZM80.8084 89.0708C80.8084 89.9907 81.1175 90.8262 81.8359 91.4189L83.1087 89.8761C82.9419 89.7386 82.8084 89.5229 82.8084 89.0708H80.8084ZM81.8476 91.4284C82.5204 91.9666 83.3694 92.1786 84.2813 92.1786V90.1786C83.6663 90.1786 83.3093 90.0365 83.097 89.8666L81.8476 91.4284ZM84.2813 92.1786C85.0962 92.1786 85.8741 91.8817 86.5987 91.3942L85.4824 89.7348C84.9899 90.0661 84.595 90.1786 84.2813 90.1786V92.1786ZM86.5987 91.3942C87.2866 90.9315 88.0111 90.2913 88.7714 89.4965L87.3261 88.1141C86.6258 88.8462 86.0115 89.3788 85.4824 89.7348L86.5987 91.3942ZM89.0487 88.8053V86.5482H87.0487V88.8053H89.0487ZM107.599 83.6936L106.6 83.6585L106.564 84.6936H107.599V83.6936ZM107.5 82.0837L106.515 82.2561L106.517 82.268L106.519 82.2798L107.5 82.0837ZM107.102 80.9883L106.25 81.5124L106.257 81.5241L106.265 81.5356L107.102 80.9883ZM103.666 80.9054L104.277 81.6969L104.279 81.6954L103.666 80.9054ZM101.575 83.3284L100.747 82.7681L100.575 83.022V83.3284H101.575ZM101.575 94V95H102.575V94H101.575ZM97.4257 94H96.4257V95H97.4257V94ZM97.4257 77.1379V76.1379H96.4257V77.1379H97.4257ZM101.094 77.1379L102.092 77.0772L102.035 76.1379H101.094V77.1379ZM101.243 79.5942L100.245 79.6549L100.431 82.7141L102.085 80.1339L101.243 79.5942ZM102.172 78.4325L101.477 77.7142L101.471 77.7198L101.465 77.7254L102.172 78.4325ZM103.334 77.5529L103.835 78.4183L103.842 78.4142L103.334 77.5529ZM108.728 77.2209L108.312 78.1302L108.321 78.1345L108.33 78.1385L108.728 77.2209ZM110.388 78.5155L109.595 79.1252L109.602 79.1346L110.388 78.5155ZM111.383 80.6896L110.411 80.9234L110.413 80.9307L110.415 80.938L111.383 80.6896ZM111.666 83.6936V84.6936H112.637L112.665 83.7227L111.666 83.6936ZM108.599 83.7286C108.623 83.0486 108.589 82.4296 108.48 81.8876L106.519 82.2798C106.588 82.6229 106.62 83.0772 106.6 83.6585L108.599 83.7286ZM108.485 81.9113C108.391 81.3742 108.22 80.8715 107.938 80.4411L106.265 81.5356C106.359 81.6805 106.454 81.9081 106.515 82.2561L108.485 81.9113ZM107.953 80.4642C107.692 80.0402 107.339 79.6904 106.885 79.4632L105.99 81.2521C106.067 81.2905 106.157 81.3611 106.25 81.5124L107.953 80.4642ZM106.885 79.4632C106.46 79.251 105.999 79.1585 105.525 79.1585V81.1585C105.737 81.1585 105.884 81.1988 105.99 81.2521L106.885 79.4632ZM105.525 79.1585C104.638 79.1585 103.808 79.5297 103.053 80.1153L104.279 81.6954C104.808 81.2852 105.217 81.1585 105.525 81.1585V79.1585ZM103.055 80.1138C102.301 80.6958 101.534 81.6046 100.747 82.7681L102.403 83.8888C103.143 82.7951 103.77 82.0886 104.277 81.6969L103.055 80.1138ZM100.575 83.3284V94H102.575V83.3284H100.575ZM101.575 93H97.4257V95H101.575V93ZM98.4257 94V77.1379H96.4257V94H98.4257ZM97.4257 78.1379H101.094V76.1379H97.4257V78.1379ZM100.095 77.1986L100.245 79.6549L102.241 79.5335L102.092 77.0772L100.095 77.1986ZM102.085 80.1339C102.325 79.7595 102.59 79.429 102.879 79.1396L101.465 77.7254C101.069 78.122 100.714 78.566 100.401 79.0546L102.085 80.1339ZM102.868 79.1507C103.164 78.8637 103.486 78.6202 103.835 78.4183L102.833 76.6874C102.341 76.9724 101.888 77.3152 101.477 77.7142L102.868 79.1507ZM103.842 78.4142C104.187 78.211 104.574 78.052 105.009 77.9409L104.514 76.0031C103.909 76.1575 103.345 76.3857 102.826 76.6915L103.842 78.4142ZM105.009 77.9409C105.437 77.8317 105.922 77.7728 106.471 77.7728V75.7728C105.78 75.7728 105.126 75.8468 104.514 76.0031L105.009 77.9409ZM106.471 77.7728C107.206 77.7728 107.812 77.9014 108.312 78.1302L109.144 76.3116C108.339 75.943 107.44 75.7728 106.471 75.7728V77.7728ZM108.33 78.1385C108.838 78.3585 109.255 78.6838 109.595 79.1252L111.18 77.9057C110.635 77.1964 109.946 76.6587 109.126 76.3034L108.33 78.1385ZM109.602 79.1346C109.949 79.5738 110.227 80.1586 110.411 80.9234L112.356 80.4558C112.119 79.4724 111.734 78.6078 111.173 77.8963L109.602 79.1346ZM110.415 80.938C110.607 81.6892 110.697 82.5936 110.666 83.6645L112.665 83.7227C112.7 82.5143 112.602 81.416 112.352 80.4412L110.415 80.938ZM111.666 82.6936H107.599V84.6936H111.666V82.6936ZM116.396 94H115.396V95H116.396V94ZM116.396 72.3084V71.3084H115.396V72.3084H116.396ZM120.545 72.3084H121.545V71.3084H120.545V72.3084ZM120.545 90.4981H119.545V91.4981H120.545V90.4981ZM129.706 90.4981H130.706V89.4981H129.706V90.4981ZM129.706 94V95H130.706V94H129.706ZM117.396 94V72.3084H115.396V94H117.396ZM116.396 73.3084H120.545V71.3084H116.396V73.3084ZM119.545 72.3084V90.4981H121.545V72.3084H119.545ZM120.545 91.4981H129.706V89.4981H120.545V91.4981ZM128.706 90.4981V94H130.706V90.4981H128.706ZM129.706 93H116.396V95H129.706V93ZM148.742 89.0874L149.688 89.4122L149.689 89.4093L148.742 89.0874ZM147.116 91.9088L147.858 92.5784L147.116 91.9088ZM135.133 92.2076L134.404 92.8923L134.409 92.8978L135.133 92.2076ZM133.556 89.4857L132.608 89.802L132.609 89.8049L133.556 89.4857ZM133.573 82.0173L132.63 81.684L132.627 81.6925L133.573 82.0173ZM135.216 79.2125L134.483 78.532L134.478 78.5377L135.216 79.2125ZM137.838 77.4201L138.217 78.3458L138.225 78.3423L137.838 77.4201ZM144.693 77.3371L144.336 78.2713L144.345 78.2747L144.693 77.3371ZM147.199 78.9802L146.47 79.6648L147.199 78.9802ZM148.759 81.702L147.808 82.0124L147.812 82.0241L148.759 81.702ZM144.095 81.6024L143.29 82.196L143.299 82.2072L144.095 81.6024ZM138.154 81.8348L138.983 82.3939L138.989 82.3851L138.154 81.8348ZM137.44 83.511L136.468 83.2764L136.466 83.2843L136.464 83.2923L137.44 83.511ZM138.286 89.5521L137.502 90.1721L137.505 90.1768L138.286 89.5521ZM142.95 90.4815L143.421 91.3639L143.428 91.3599L143.436 91.3557L142.95 90.4815ZM144.162 89.353L145 89.8987L145.005 89.8899L144.162 89.353ZM148.306 85.4362C148.306 86.6691 148.132 87.7758 147.795 88.7655L149.689 89.4093C150.105 88.1862 150.306 86.8587 150.306 85.4362H148.306ZM147.796 88.7626C147.46 89.7428 146.983 90.5629 146.373 91.2393L147.858 92.5784C148.665 91.6836 149.272 90.6228 149.688 89.4122L147.796 88.7626ZM146.373 91.2393C145.769 91.9095 145.024 92.4345 144.123 92.8123L144.897 94.6567C146.054 94.1714 147.046 93.4794 147.858 92.5784L146.373 91.2393ZM144.123 92.8123C143.237 93.184 142.199 93.3817 140.992 93.3817V95.3817C142.418 95.3817 143.725 95.1479 144.897 94.6567L144.123 92.8123ZM140.992 93.3817C139.838 93.3817 138.841 93.2133 137.987 92.8964L137.291 94.7717C138.406 95.1851 139.645 95.3817 140.992 95.3817V93.3817ZM137.987 92.8964C137.136 92.5811 136.432 92.1204 135.857 91.5174L134.409 92.8978C135.206 93.7332 136.173 94.3568 137.291 94.7717L137.987 92.8964ZM135.862 91.5229C135.287 90.9113 134.83 90.1341 134.504 89.1666L132.609 89.8049C133.013 91.006 133.607 92.0434 134.404 92.8923L135.862 91.5229ZM134.505 89.1695C134.181 88.1983 134.009 87.0367 134.009 85.6686H132.009C132.009 87.1992 132.201 88.5824 132.608 89.802L134.505 89.1695ZM134.009 85.6686C134.009 84.4234 134.184 83.3181 134.519 82.3421L132.627 81.6925C132.21 82.9073 132.009 84.2362 132.009 85.6686H134.009ZM134.516 82.3506C134.863 81.3681 135.346 80.5527 135.954 79.8873L134.478 78.5377C133.67 79.4213 133.057 80.4758 132.63 81.684L134.516 82.3506ZM135.949 79.893C136.564 79.2305 137.315 78.7141 138.217 78.3458L137.46 76.4944C136.304 76.9669 135.306 77.6455 134.483 78.5321L135.949 79.893ZM138.225 78.3423C139.113 77.9697 140.141 77.7728 141.324 77.7728V75.7728C139.917 75.7728 138.621 76.0075 137.452 76.4979L138.225 78.3423ZM141.324 77.7728C142.486 77.7728 143.485 77.9462 144.336 78.2713L145.049 76.4029C143.931 75.9756 142.683 75.7728 141.324 75.7728V77.7728ZM144.345 78.2747C145.192 78.5888 145.895 79.0527 146.47 79.6648L147.928 78.2955C147.131 77.4471 146.163 76.8157 145.04 76.3995L144.345 78.2747ZM146.47 79.6648C147.042 80.2742 147.493 81.0483 147.808 82.0124L149.709 81.3916C149.316 80.1871 148.727 79.1466 147.928 78.2955L146.47 79.6648ZM147.812 82.0241C148.134 82.9714 148.306 84.1034 148.306 85.4362H150.306C150.306 83.9366 150.113 82.579 149.705 81.3799L147.812 82.0241ZM146.091 85.5358C146.091 83.6895 145.745 82.1218 144.891 80.9976L143.299 82.2072C143.773 82.8312 144.091 83.8858 144.091 85.5358H146.091ZM144.9 81.0089C144.025 79.8232 142.731 79.2747 141.191 79.2747V81.2747C142.217 81.2747 142.859 81.6113 143.29 82.1959L144.9 81.0089ZM141.191 79.2747C140.353 79.2747 139.575 79.4385 138.896 79.8154L139.867 81.5638C140.185 81.3874 140.612 81.2747 141.191 81.2747V79.2747ZM138.896 79.8154C138.254 80.1722 137.726 80.6664 137.319 81.2844L138.989 82.3851C139.223 82.0294 139.514 81.7602 139.867 81.5638L138.896 79.8154ZM137.325 81.2756C136.928 81.8638 136.647 82.536 136.468 83.2764L138.412 83.7456C138.543 83.2026 138.738 82.7572 138.983 82.3939L137.325 81.2756ZM136.464 83.2923C136.303 84.0132 136.224 84.7731 136.224 85.569H138.224C138.224 84.9043 138.29 84.2923 138.416 83.7297L136.464 83.2923ZM136.224 85.569C136.224 87.4382 136.596 89.0264 137.502 90.1721L139.071 88.9322C138.56 88.2854 138.224 87.2182 138.224 85.569H136.224ZM137.505 90.1768C138.421 91.321 139.688 91.8799 141.191 91.8799V89.8799C140.237 89.8799 139.568 89.5536 139.067 88.9274L137.505 90.1768ZM141.191 91.8799C141.998 91.8799 142.752 91.7205 143.421 91.3639L142.479 89.5992C142.152 89.7737 141.734 89.8799 141.191 89.8799V91.8799ZM143.436 91.3557C144.076 91.0002 144.6 90.5114 145 89.8986L143.324 88.8073C143.103 89.146 142.82 89.4097 142.464 89.6074L143.436 91.3557ZM145.005 89.8899C145.384 89.295 145.655 88.6184 145.832 87.8744L143.886 87.4127C143.752 87.9743 143.559 88.4373 143.318 88.8161L145.005 89.8899ZM145.832 87.8744C146.006 87.1375 146.091 86.3567 146.091 85.5358H144.091C144.091 86.2197 144.021 86.844 143.886 87.4127L145.832 87.8744ZM163.38 94L162.381 94.0451L162.424 95H163.38V94ZM163.281 91.7927L164.28 91.7476L164.173 89.3854L162.553 91.1073L163.281 91.7927ZM162.169 92.8382L162.793 93.6191L162.8 93.6137L162.807 93.6083L162.169 92.8382ZM159.364 94.1826L159.149 93.2059L159.138 93.2085L159.126 93.2113L159.364 94.1826ZM152.642 91.2948L151.697 91.6208L151.699 91.628L151.702 91.6352L152.642 91.2948ZM152.808 86.9631L151.917 86.51L151.911 86.5218L152.808 86.9631ZM154.352 85.2204L153.779 84.4006L153.773 84.4049L154.352 85.2204ZM156.941 84.0753L156.684 83.1089L156.681 83.1096L156.941 84.0753ZM162.799 83.6604V84.6604H163.799V83.6604H162.799ZM162.617 81.4862L161.671 81.8113L161.674 81.8206L162.617 81.4862ZM162.019 80.59L161.344 81.3272L161.351 81.334L161.359 81.3407L162.019 80.59ZM156.426 80.1751L156.65 81.1497L156.658 81.1478L156.426 80.1751ZM153.622 81.1211H152.622V82.6694L154.033 82.0326L153.622 81.1211ZM153.622 77.8848L153.252 76.9554L152.622 77.206V77.8848H153.622ZM156.41 77.0882L156.216 76.1072L156.214 76.1076L156.41 77.0882ZM162.932 77.1379L162.67 78.103L162.681 78.1059L162.932 77.1379ZM165.14 78.2001L164.502 78.9708L164.509 78.9767L165.14 78.2001ZM166.434 79.9925L165.501 80.3515L165.503 80.3564L166.434 79.9925ZM166.849 94V95H167.849V94H166.849ZM162.799 86.5482H163.799V85.5482H162.799V86.5482ZM156.758 88.1082L155.851 87.6871L155.848 87.6946L155.844 87.7021L156.758 88.1082ZM157.223 90.6475L156.587 91.4189L156.592 91.4237L156.598 91.4284L157.223 90.6475ZM162.799 88.8053L163.522 89.4965L163.799 89.2065V88.8053H162.799ZM164.379 93.9549L164.28 91.7476L162.282 91.8377L162.381 94.0451L164.379 93.9549ZM162.553 91.1073C162.226 91.4542 161.885 91.7744 161.531 92.0682L162.807 93.6083C163.227 93.2604 163.627 92.8835 164.009 92.478L162.553 91.1073ZM161.544 92.0574C161.214 92.3211 160.848 92.5547 160.444 92.757L161.338 94.5459C161.863 94.2835 162.349 93.975 162.793 93.6191L161.544 92.0574ZM160.444 92.757C160.059 92.9494 159.629 93.1003 159.149 93.2059L159.579 95.1592C160.205 95.0214 160.793 94.8183 161.338 94.5459L160.444 92.757ZM159.126 93.2113C158.674 93.3221 158.157 93.3817 157.572 93.3817V95.3817C158.291 95.3817 158.97 95.3086 159.602 95.1539L159.126 93.2113ZM157.572 93.3817C156.805 93.3817 156.175 93.2685 155.661 93.0683L154.935 94.9317C155.727 95.2404 156.612 95.3817 157.572 95.3817V93.3817ZM155.661 93.0683C155.127 92.8601 154.703 92.5808 154.371 92.2395L152.939 93.6361C153.491 94.2021 154.163 94.631 154.935 94.9317L155.661 93.0683ZM154.371 92.2395C154.035 91.8955 153.77 91.4726 153.583 90.9543L151.702 91.6352C151.979 92.4004 152.389 93.0729 152.939 93.6361L154.371 92.2395ZM153.588 90.9688C153.407 90.4456 153.31 89.8494 153.31 89.1704H151.31C151.31 90.0405 151.435 90.8605 151.697 91.6208L153.588 90.9688ZM153.31 89.1704C153.31 88.5175 153.445 87.9339 153.706 87.4044L151.911 86.5218C151.508 87.3421 151.31 88.23 151.31 89.1704H153.31ZM153.7 87.4161C153.962 86.901 154.362 86.4396 154.931 86.036L153.773 84.4049C152.97 84.9749 152.341 85.6753 151.917 86.51L153.7 87.4161ZM154.924 86.0403C155.506 85.6343 156.256 85.2948 157.2 85.041L156.681 83.1096C155.567 83.409 154.592 83.833 153.779 84.4006L154.924 86.0403ZM157.198 85.0417C158.134 84.7928 159.261 84.6604 160.592 84.6604V82.6604C159.135 82.6604 157.828 82.8045 156.684 83.1089L157.198 85.0417ZM160.592 84.6604H162.799V82.6604H160.592V84.6604ZM163.799 83.6604V82.648H161.799V83.6604H163.799ZM163.799 82.648C163.799 82.1232 163.725 81.62 163.559 81.1518L161.674 81.8206C161.752 82.0384 161.799 82.3098 161.799 82.648H163.799ZM163.563 81.1611C163.385 80.6456 163.089 80.1994 162.68 79.8393L161.359 81.3407C161.503 81.4675 161.605 81.6187 161.671 81.8113L163.563 81.1611ZM162.695 79.8529C162.296 79.4871 161.806 79.2356 161.268 79.07L160.68 80.9815C161.004 81.0814 161.212 81.2061 161.344 81.3272L162.695 79.8529ZM161.268 79.07C160.712 78.8988 160.075 78.8266 159.381 78.8266V80.8266C159.948 80.8266 160.373 80.8871 160.68 80.9815L161.268 79.07ZM159.381 78.8266C158.306 78.8266 157.244 78.952 156.194 79.2024L156.658 81.1478C157.556 80.9335 158.463 80.8266 159.381 80.8266V78.8266ZM156.202 79.2005C155.175 79.4367 154.177 79.7733 153.21 80.2096L154.033 82.0326C154.88 81.6502 155.753 81.3561 156.65 81.1497L156.202 79.2005ZM154.622 81.1211V77.8848H152.622V81.1211H154.622ZM153.991 78.8141C154.731 78.52 155.601 78.2697 156.606 78.0687L156.214 76.1076C155.116 76.327 154.127 76.6079 153.252 76.9554L153.991 78.8141ZM156.604 78.0691C157.599 77.8722 158.635 77.7728 159.712 77.7728V75.7728C158.511 75.7728 157.345 75.8837 156.216 76.1072L156.604 78.0691ZM159.712 77.7728C160.903 77.7728 161.883 77.8892 162.67 78.103L163.194 76.1729C162.189 75.8999 161.023 75.7728 159.712 75.7728V77.7728ZM162.681 78.1059C163.469 78.3102 164.063 78.6079 164.502 78.9708L165.777 77.4295C165.065 76.8408 164.188 76.4304 163.183 76.1699L162.681 78.1059ZM164.509 78.9767C164.957 79.3399 165.286 79.7922 165.501 80.3515L167.367 79.6336C167.029 78.7545 166.495 78.0119 165.77 77.4236L164.509 78.9767ZM165.503 80.3564C165.724 80.9234 165.849 81.6248 165.849 82.482H167.849C167.849 81.4361 167.697 80.4779 167.365 79.6287L165.503 80.3564ZM165.849 82.482V94H167.849V82.482H165.849ZM166.849 93H163.38V95H166.849V93ZM162.799 85.5482H160.327V87.5482H162.799V85.5482ZM160.327 85.5482C159.582 85.5482 158.905 85.6195 158.315 85.7841L158.853 87.7105C159.214 87.6096 159.699 87.5482 160.327 87.5482V85.5482ZM158.315 85.7841C157.75 85.9417 157.236 86.1732 156.808 86.5057L158.036 88.0844C158.206 87.9522 158.466 87.8185 158.853 87.7105L158.315 85.7841ZM156.808 86.5057C156.398 86.825 156.069 87.218 155.851 87.6871L157.665 88.5293C157.735 88.3789 157.849 88.2297 158.036 88.0844L156.808 86.5057ZM155.844 87.7021C155.652 88.135 155.559 88.5949 155.559 89.0708H157.559C157.559 88.8607 157.599 88.679 157.672 88.5144L155.844 87.7021ZM155.559 89.0708C155.559 89.9907 155.868 90.8262 156.587 91.4189L157.859 89.8761C157.693 89.7386 157.559 89.5229 157.559 89.0708H155.559ZM156.598 91.4284C157.271 91.9666 158.12 92.1786 159.032 92.1786V90.1786C158.417 90.1786 158.06 90.0365 157.848 89.8666L156.598 91.4284ZM159.032 92.1786C159.847 92.1786 160.625 91.8817 161.349 91.3942L160.233 89.7348C159.741 90.0661 159.346 90.1786 159.032 90.1786V92.1786ZM161.349 91.3942C162.037 90.9315 162.762 90.2913 163.522 89.4965L162.077 88.1141C161.376 88.8462 160.762 89.3788 160.233 89.7348L161.349 91.3942ZM163.799 88.8053V86.5482H161.799V88.8053H163.799ZM182.101 94L181.102 94.04L181.14 95H182.101V94ZM182.002 91.5105L183.001 91.4706L182.896 88.8443L181.228 90.8762L182.002 91.5105ZM180.906 92.6889L180.221 91.9607L180.906 92.6889ZM179.695 93.6017L180.186 94.4727L180.194 94.4679L180.203 94.463L179.695 93.6017ZM178.301 94.166L178.043 93.1997L178.03 93.2032L178.017 93.2069L178.301 94.166ZM174.019 93.7842L173.561 94.6735L174.019 93.7842ZM172.06 92.0914L171.242 92.6657L171.246 92.6727L171.252 92.6796L172.06 92.0914ZM171.098 81.8679L170.165 81.5059L170.164 81.5108L171.098 81.8679ZM172.923 79.0465L173.615 79.769L173.62 79.7638L172.923 79.0465ZM175.678 77.3869L175.995 78.3356L176.003 78.3326L175.678 77.3869ZM180.408 76.9222L180.278 77.9136L180.281 77.9141L180.408 76.9222ZM181.553 77.1379L181.296 78.1042L182.553 78.4396V77.1379H181.553ZM181.553 70.5491V69.5491H180.553V70.5491H181.553ZM185.603 70.5491H186.603V69.5491H185.603V70.5491ZM185.603 94V95H186.603V94H185.603ZM174.882 88.0916L173.898 88.272L173.9 88.2815L173.902 88.291L174.882 88.0916ZM175.446 89.7015L174.581 90.2025L174.585 90.211L174.59 90.2193L175.446 89.7015ZM176.375 90.6309L175.896 91.5088L175.907 91.5145L175.917 91.5199L176.375 90.6309ZM179.578 90.0832L178.912 89.3373L179.578 90.0832ZM181.553 87.8095L182.363 88.396L182.553 88.1335V87.8095H181.553ZM181.553 80.4406H182.553V79.7504L181.908 79.5057L181.553 80.4406ZM180.359 80.1419L180.194 81.1283L180.198 81.1289L180.359 80.1419ZM177.189 80.4241L176.734 79.5334L177.189 80.4241ZM175.844 81.5526L175.053 80.9412L175.049 80.9469L175.044 80.9526L175.844 81.5526ZM174.998 83.345L175.959 83.6198L175.96 83.6158L174.998 83.345ZM183.1 93.96L183.001 91.4706L181.002 91.5505L181.102 94.04L183.1 93.96ZM181.228 90.8762C180.899 91.2772 180.563 91.6382 180.221 91.9607L181.592 93.4171C182.001 93.0314 182.396 92.6069 182.775 92.1448L181.228 90.8762ZM180.221 91.9607C179.897 92.2655 179.552 92.5247 179.187 92.7403L180.203 94.463C180.7 94.1697 181.163 93.8204 181.592 93.4171L180.221 91.9607ZM179.203 92.7307C178.848 92.931 178.462 93.0878 178.043 93.1997L178.558 95.1322C179.134 94.9785 179.678 94.7592 180.186 94.4727L179.203 92.7307ZM178.017 93.2069C177.637 93.3193 177.192 93.3817 176.674 93.3817V95.3817C177.351 95.3817 177.99 95.3003 178.584 95.125L178.017 93.2069ZM176.674 93.3817C175.814 93.3817 175.09 93.2107 174.476 92.895L173.561 94.6735C174.496 95.1544 175.542 95.3817 176.674 95.3817V93.3817ZM174.476 92.895C173.846 92.5708 173.312 92.1118 172.869 91.5032L171.252 92.6796C171.871 93.5315 172.643 94.201 173.561 94.6735L174.476 92.895ZM172.879 91.5171C172.439 90.89 172.085 90.1072 171.832 89.1483L169.898 89.6573C170.199 90.8006 170.641 91.8102 171.242 92.6657L172.879 91.5171ZM171.832 89.1483C171.581 88.1943 171.45 87.1088 171.45 85.8843H169.45C169.45 87.2489 169.596 88.5091 169.898 89.6573L171.832 89.1483ZM171.45 85.8843C171.45 84.4245 171.654 83.2125 172.032 82.2251L170.164 81.5108C169.678 82.7805 169.45 84.2461 169.45 85.8843H171.45ZM172.03 82.23C172.427 81.2075 172.96 80.3959 173.615 79.769L172.232 78.3241C171.338 79.1798 170.654 80.2492 170.165 81.5059L172.03 82.23ZM173.62 79.7638C174.283 79.1201 175.07 78.6439 175.995 78.3356L175.362 76.4382C174.163 76.838 173.113 77.4682 172.226 78.3293L173.62 79.7638ZM176.003 78.3326C176.95 78.0072 177.995 77.8392 179.147 77.8392V75.8392C177.798 75.8392 176.531 76.0363 175.353 76.4412L176.003 78.3326ZM179.147 77.8392C179.523 77.8392 179.9 77.864 180.278 77.9136L180.539 75.9307C180.075 75.8698 179.611 75.8392 179.147 75.8392V77.8392ZM180.281 77.9141C180.68 77.9652 181.016 78.0296 181.296 78.1042L181.811 76.1717C181.427 76.0692 181 75.9899 180.535 75.9303L180.281 77.9141ZM182.553 77.1379V70.5491H180.553V77.1379H182.553ZM181.553 71.5491H185.603V69.5491H181.553V71.5491ZM184.603 70.5491V94H186.603V70.5491H184.603ZM185.603 93H182.101V95H185.603V93ZM173.699 85.7017C173.699 86.6708 173.762 87.5311 173.898 88.272L175.865 87.9113C175.758 87.3244 175.699 86.5915 175.699 85.7017H173.699ZM173.902 88.291C174.049 89.0133 174.267 89.6608 174.581 90.2025L176.311 89.2005C176.138 88.9013 175.98 88.4755 175.862 87.8923L173.902 88.291ZM174.59 90.2193C174.92 90.7633 175.35 91.2108 175.896 91.5088L176.854 89.753C176.67 89.6527 176.481 89.4806 176.301 89.1837L174.59 90.2193ZM175.917 91.5199C176.442 91.79 177.017 91.913 177.62 91.913V89.913C177.294 89.913 177.039 89.848 176.833 89.7419L175.917 91.5199ZM177.62 91.913C178.601 91.913 179.482 91.5098 180.244 90.8292L178.912 89.3373C178.436 89.7631 178.011 89.913 177.62 89.913V91.913ZM180.244 90.8292C180.935 90.2125 181.641 89.3941 182.363 88.396L180.744 87.223C180.072 88.1501 179.461 88.8475 178.912 89.3373L180.244 90.8292ZM182.553 87.8095V80.4406H180.553V87.8095H182.553ZM181.908 79.5057C181.505 79.3528 181.037 79.2392 180.519 79.1549L180.198 81.1289C180.632 81.1995 180.96 81.2851 181.199 81.3756L181.908 79.5057ZM180.523 79.1555C180.003 79.0689 179.478 79.0257 178.948 79.0257V81.0257C179.369 81.0257 179.784 81.06 180.194 81.1283L180.523 79.1555ZM178.948 79.0257C178.156 79.0257 177.411 79.1879 176.734 79.5334L177.643 81.3147C178.007 81.1291 178.434 81.0257 178.948 81.0257V79.0257ZM176.734 79.5334C176.075 79.8697 175.514 80.344 175.053 80.9412L176.636 82.1641C176.926 81.7876 177.262 81.5095 177.643 81.3147L176.734 79.5334ZM175.044 80.9526C174.591 81.5565 174.261 82.2715 174.035 83.0743L175.96 83.6158C176.133 83.0024 176.367 82.5224 176.644 82.1526L175.044 80.9526ZM174.036 83.0703C173.807 83.8728 173.699 84.7531 173.699 85.7017H175.699C175.699 84.9022 175.79 84.2114 175.959 83.6198L174.036 83.0703ZM204.838 85.3532L203.84 85.3033L203.839 85.3157L203.839 85.3282L204.838 85.3532ZM204.772 86.598V87.598H205.69L205.768 86.6834L204.772 86.598ZM193.686 86.598V85.598H192.686V86.598H193.686ZM194.017 88.5563L193.086 88.9214L193.09 88.9293L193.093 88.9371L194.017 88.5563ZM194.98 89.9836L194.293 90.7101L194.303 90.7196L194.313 90.7289L194.98 89.9836ZM196.474 90.8467L196.147 91.7917L196.152 91.7935L196.474 90.8467ZM201.038 90.9628L201.168 91.9544L201.178 91.953L201.038 90.9628ZM203.959 90.3322H204.959V89.0064L203.684 89.3706L203.959 90.3322ZM203.959 93.5519L204.23 94.5143L204.959 94.3089V93.5519H203.959ZM199.378 94.3153L199.317 93.3172L199.307 93.3178L199.297 93.3186L199.378 94.3153ZM191.76 92.2242L191.048 92.9258L191.053 92.9313L191.76 92.2242ZM190.134 82.1833L191.082 82.5023L191.083 82.4995L190.134 82.1833ZM191.727 79.2955L192.485 79.948L192.489 79.9428L191.727 79.2955ZM194.217 77.4367L194.622 78.3509L194.627 78.3488L194.217 77.4367ZM200.673 77.3371L200.294 78.2625L200.303 78.2663L200.673 77.3371ZM200.756 83.6936V84.6936H201.739L201.755 83.7102L200.756 83.6936ZM200.507 81.9675L199.564 82.3025L199.567 82.3093L200.507 81.9675ZM199.776 80.7394L199.045 81.4208L199.051 81.4274L199.057 81.434L199.776 80.7394ZM198.714 80.0257L198.352 80.9578L198.36 80.961L198.714 80.0257ZM194.914 80.8224L195.632 81.5176L195.638 81.5117L194.914 80.8224ZM193.752 83.6936L192.757 83.5958L192.649 84.6936H193.752V83.6936ZM203.872 84.2744C203.872 84.5276 203.861 84.8687 203.84 85.3033L205.837 85.4032C205.86 84.9525 205.872 84.5745 205.872 84.2744H203.872ZM203.839 85.3282C203.828 85.7533 203.807 86.1479 203.776 86.5126L205.768 86.6834C205.803 86.2735 205.827 85.8382 205.838 85.3782L203.839 85.3282ZM204.772 85.598H193.686V87.598H204.772V85.598ZM192.686 86.598C192.686 87.4372 192.811 88.2181 193.086 88.9214L194.948 88.1913C194.782 87.766 194.686 87.2414 194.686 86.598H192.686ZM193.093 88.9371C193.374 89.6211 193.772 90.2179 194.293 90.7101L195.667 89.2572C195.369 88.9749 195.125 88.6201 194.942 88.1756L193.093 88.9371ZM194.313 90.7289C194.84 91.2003 195.456 91.5526 196.147 91.7916L196.801 89.9017C196.341 89.7424 195.961 89.5193 195.647 89.2384L194.313 90.7289ZM196.152 91.7935C196.856 92.0325 197.613 92.1454 198.416 92.1454V90.1454C197.801 90.1454 197.264 90.0591 196.795 89.8998L196.152 91.7935ZM198.416 92.1454C199.283 92.1454 200.201 92.0809 201.168 91.9544L200.908 89.9713C200.016 90.0882 199.185 90.1454 198.416 90.1454V92.1454ZM201.178 91.953C202.168 91.8132 203.187 91.5927 204.233 91.2937L203.684 89.3706C202.717 89.6469 201.789 89.8469 200.898 89.9727L201.178 91.953ZM202.959 90.3322V93.5519H204.959V90.3322H202.959ZM203.687 92.5894C203.286 92.7027 202.842 92.8073 202.356 92.9024L202.74 94.8652C203.272 94.7612 203.769 94.6445 204.23 94.5143L203.687 92.5894ZM202.356 92.9024C201.863 92.9988 201.359 93.0846 200.844 93.1598L201.132 95.1389C201.679 95.0592 202.215 94.968 202.74 94.8652L202.356 92.9024ZM200.844 93.1598C200.341 93.2332 199.832 93.2857 199.317 93.3172L199.439 95.3135C200.009 95.2786 200.573 95.2204 201.132 95.1389L200.844 93.1598ZM199.297 93.3186C198.78 93.3608 198.281 93.3817 197.801 93.3817V95.3817C198.339 95.3817 198.892 95.3583 199.459 95.312L199.297 93.3186ZM197.801 93.3817C196.612 93.3817 195.578 93.2125 194.687 92.8928L194.012 94.7753C195.156 95.1858 196.424 95.3817 197.801 95.3817V93.3817ZM194.687 92.8928C193.797 92.5734 193.063 92.1127 192.467 91.5171L191.053 92.9313C191.874 93.7519 192.866 94.3644 194.012 94.7753L194.687 92.8928ZM192.473 91.5226C191.877 90.9174 191.408 90.1608 191.075 89.2318L189.192 89.9057C189.612 91.0789 190.227 92.0926 191.048 92.9258L192.473 91.5226ZM191.075 89.2318C190.746 88.3111 190.57 87.2121 190.57 85.9175H188.57C188.57 87.389 188.769 88.7241 189.192 89.9057L191.075 89.2318ZM190.57 85.9175C190.57 84.6366 190.745 83.5018 191.082 82.5023L189.186 81.8642C188.77 83.0998 188.57 84.4544 188.57 85.9175H190.57ZM191.083 82.4995C191.423 81.4782 191.894 80.6339 192.485 79.948L190.969 78.643C190.188 79.5503 189.597 80.6312 189.185 81.8671L191.083 82.4995ZM192.489 79.9428C193.077 79.2504 193.785 78.7218 194.622 78.3509L193.811 76.5224C192.701 77.0146 191.749 77.7252 190.965 78.6481L192.489 79.9428ZM194.627 78.3488C195.468 77.9706 196.421 77.7728 197.503 77.7728V75.7728C196.172 75.7728 194.935 76.0176 193.807 76.5246L194.627 78.3488ZM197.503 77.7728C198.594 77.7728 199.517 77.9445 200.294 78.2625L201.052 76.4117C199.991 75.9773 198.802 75.7728 197.503 75.7728V77.7728ZM200.303 78.2663C201.097 78.5818 201.738 79.0163 202.249 79.5629L203.711 78.1983C202.982 77.4171 202.085 76.8227 201.042 76.4079L200.303 78.2663ZM202.249 79.5629C202.767 80.1182 203.168 80.7869 203.446 81.5837L205.334 80.924C204.971 79.8842 204.432 78.9706 203.711 78.1983L202.249 79.5629ZM203.446 81.5837C203.726 82.3836 203.872 83.2774 203.872 84.2744H205.872C205.872 83.0808 205.697 81.9609 205.334 80.924L203.446 81.5837ZM201.755 83.7102C201.768 82.9571 201.675 82.2547 201.446 81.6258L199.567 82.3093C199.692 82.654 199.765 83.1023 199.756 83.6769L201.755 83.7102ZM201.449 81.6325C201.233 81.0248 200.921 80.4855 200.496 80.0448L199.057 81.434C199.251 81.635 199.427 81.9145 199.564 82.3025L201.449 81.6325ZM200.508 80.058C200.105 79.6247 199.622 79.2999 199.068 79.0904L198.36 80.961C198.626 81.0614 198.85 81.2123 199.045 81.4208L200.508 80.058ZM199.077 79.0937C198.553 78.8901 197.998 78.7934 197.42 78.7934V80.7934C197.771 80.7934 198.079 80.8516 198.352 80.9577L199.077 79.0937ZM197.42 78.7934C196.151 78.7934 195.046 79.2327 194.189 80.133L195.638 81.5117C196.087 81.0401 196.653 80.7934 197.42 80.7934V78.7934ZM194.195 80.1271C193.341 81.0104 192.893 82.2054 192.757 83.5958L194.747 83.7913C194.854 82.7034 195.181 81.9842 195.632 81.5176L194.195 80.1271ZM193.752 84.6936H200.756V82.6936H193.752V84.6936ZM219.725 83.6936L218.726 83.6585L218.69 84.6936H219.725V83.6936ZM219.626 82.0837L218.641 82.2561L218.643 82.268L218.645 82.2798L219.626 82.0837ZM219.228 80.9883L218.376 81.5124L218.383 81.5241L218.391 81.5356L219.228 80.9883ZM215.792 80.9054L216.403 81.6969L216.405 81.6954L215.792 80.9054ZM213.701 83.3284L212.873 82.7681L212.701 83.022V83.3284H213.701ZM213.701 94V95H214.701V94H213.701ZM209.552 94H208.552V95H209.552V94ZM209.552 77.1379V76.1379H208.552V77.1379H209.552ZM213.22 77.1379L214.218 77.0772L214.161 76.1379H213.22V77.1379ZM213.369 79.5942L212.371 79.6549L212.557 82.7141L214.211 80.1339L213.369 79.5942ZM214.298 78.4325L213.603 77.7142L213.597 77.7198L213.591 77.7254L214.298 78.4325ZM215.46 77.5529L215.961 78.4183L215.968 78.4142L215.46 77.5529ZM220.854 77.2209L220.438 78.1302L220.447 78.1345L220.456 78.1385L220.854 77.2209ZM222.514 78.5155L221.721 79.1252L221.728 79.1346L222.514 78.5155ZM223.509 80.6896L222.537 80.9234L222.539 80.9307L222.541 80.938L223.509 80.6896ZM223.792 83.6936V84.6936H224.763L224.791 83.7227L223.792 83.6936ZM220.725 83.7286C220.749 83.0486 220.715 82.4296 220.606 81.8876L218.645 82.2798C218.714 82.6229 218.746 83.0772 218.726 83.6585L220.725 83.7286ZM220.611 81.9113C220.517 81.3742 220.346 80.8715 220.065 80.4411L218.391 81.5356C218.485 81.6805 218.58 81.9081 218.641 82.2561L220.611 81.9113ZM220.079 80.4642C219.818 80.0402 219.465 79.6904 219.011 79.4632L218.116 81.2521C218.193 81.2905 218.283 81.3611 218.376 81.5124L220.079 80.4642ZM219.011 79.4632C218.586 79.251 218.125 79.1585 217.651 79.1585V81.1585C217.863 81.1585 218.01 81.1988 218.116 81.2521L219.011 79.4632ZM217.651 79.1585C216.764 79.1585 215.934 79.5297 215.179 80.1153L216.405 81.6954C216.934 81.2852 217.343 81.1585 217.651 81.1585V79.1585ZM215.181 80.1138C214.427 80.6958 213.66 81.6046 212.873 82.7681L214.529 83.8888C215.269 82.7951 215.896 82.0886 216.403 81.6969L215.181 80.1138ZM212.701 83.3284V94H214.701V83.3284H212.701ZM213.701 93H209.552V95H213.701V93ZM210.552 94V77.1379H208.552V94H210.552ZM209.552 78.1379H213.22V76.1379H209.552V78.1379ZM212.221 77.1986L212.371 79.6549L214.367 79.5335L214.218 77.0772L212.221 77.1986ZM214.211 80.1339C214.451 79.7595 214.716 79.429 215.005 79.1396L213.591 77.7254C213.195 78.122 212.84 78.566 212.527 79.0546L214.211 80.1339ZM214.994 79.1507C215.29 78.8637 215.612 78.6202 215.961 78.4183L214.959 76.6874C214.467 76.9724 214.014 77.3152 213.603 77.7142L214.994 79.1507ZM215.968 78.4142C216.313 78.211 216.7 78.052 217.135 77.9409L216.64 76.0031C216.035 76.1575 215.471 76.3857 214.952 76.6915L215.968 78.4142ZM217.135 77.9409C217.563 77.8317 218.048 77.7728 218.597 77.7728V75.7728C217.906 75.7728 217.252 75.8468 216.64 76.0031L217.135 77.9409ZM218.597 77.7728C219.332 77.7728 219.938 77.9014 220.438 78.1302L221.27 76.3116C220.465 75.943 219.566 75.7728 218.597 75.7728V77.7728ZM220.456 78.1385C220.964 78.3585 221.382 78.6838 221.721 79.1252L223.306 77.9057C222.761 77.1964 222.072 76.6587 221.252 76.3034L220.456 78.1385ZM221.728 79.1346C222.075 79.5738 222.353 80.1586 222.537 80.9234L224.482 80.4558C224.245 79.4724 223.86 78.6078 223.299 77.8963L221.728 79.1346ZM222.541 80.938C222.733 81.6892 222.823 82.5936 222.792 83.6645L224.791 83.7227C224.826 82.5143 224.728 81.416 224.478 80.4412L222.541 80.938ZM223.792 82.6936H219.725V84.6936H223.792V82.6936Z" fill="white" mask="url(#path-22-outside-1_69_77)"/>
<defs>
<linearGradient id="paint0_linear_69_77" x1="27" y1="171.22" x2="207.928" y2="-9.70837" gradientUnits="userSpaceOnUse">
<stop offset="0.359375" stop-color="#D9D9D9"/>
<stop offset="0.479167" stop-color="#FEFEFE" stop-opacity="0"/>
</linearGradient>
<linearGradient id="paint1_linear_69_77" x1="199.102" y1="-3.71812e-05" x2="88.9729" y2="106.937" gradientUnits="userSpaceOnUse">
<stop offset="0.541667" stop-color="#D9D9D9"/>
<stop offset="0.802083" stop-color="white" stop-opacity="0"/>
</linearGradient>
<clipPath id="clip0_69_77">
<rect width="135.034" height="128.856" fill="white" transform="translate(27 42.3637)"/>
</clipPath>
</defs>
</svg>
