<svg width="110" height="118" viewBox="0 0 110 118" fill="none" xmlns="http://www.w3.org/2000/svg">
<rect width="110" height="118" fill="white"/>
<rect x="5.5" y="36.5" width="59" height="39" fill="#D9D9D9" stroke="black"/>
<rect x="64.5" y="36.5" width="39" height="39" fill="#9CEEFD" stroke="black"/>
<path d="M7 27H6.5V26.5H7V27ZM63 27V26.5H63.5V27H63ZM34.6464 18.6464C34.8417 18.4512 35.1583 18.4512 35.3536 18.6464L38.5355 21.8284C38.7308 22.0237 38.7308 22.3403 38.5355 22.5355C38.3403 22.7308 38.0237 22.7308 37.8284 22.5355L35 19.7071L32.1716 22.5355C31.9763 22.7308 31.6597 22.7308 31.4645 22.5355C31.2692 22.3403 31.2692 22.0237 31.4645 21.8284L34.6464 18.6464ZM6.5 35V27H7.5V35H6.5ZM63.5 27V35H62.5V27H63.5ZM7 26.5H35V27.5H7V26.5ZM35 26.5H63V27.5H35V26.5ZM34.5 27V19H35.5V27H34.5Z" fill="black"/>
<path d="M5 86H4.5V86.5H5V86ZM104 86V86.5H104.5V86H104ZM54.1464 94.3536C54.3417 94.5488 54.6583 94.5488 54.8536 94.3536L58.0355 91.1716C58.2308 90.9763 58.2308 90.6597 58.0355 90.4645C57.8403 90.2692 57.5237 90.2692 57.3284 90.4645L54.5 93.2929L51.6716 90.4645C51.4763 90.2692 51.1597 90.2692 50.9645 90.4645C50.7692 90.6597 50.7692 90.9763 50.9645 91.1716L54.1464 94.3536ZM4.5 78V86H5.5V78H4.5ZM104.5 86V78H103.5V86H104.5ZM5 86.5H54.5V85.5H5V86.5ZM54.5 86.5H104V85.5H54.5V86.5ZM54 86V94H55V86H54Z" fill="black"/>
<path d="M26.4968 98.8207C26.0924 98.8207 25.8783 98.7969 25.8545 98.7494C25.8426 98.7256 25.8367 98.678 25.8367 98.6066C25.8367 98.3212 25.9021 98.1249 26.0329 98.0179C26.0567 98.006 26.1459 98 26.3005 98C26.9428 98.0357 27.698 98.0536 28.5663 98.0536C30.2433 98.0536 31.2067 98.0357 31.4565 98H31.6705C31.7419 98.0714 31.7776 98.1249 31.7776 98.1606C31.7776 98.1963 31.7657 98.3033 31.7419 98.4817C31.6824 98.6601 31.6289 98.7731 31.5813 98.8207H30.9034C30.0827 98.8326 29.601 98.8861 29.4583 98.9813C29.3751 99.0289 29.2918 99.1954 29.2085 99.4808C29.1253 99.7663 28.7268 101.336 28.0132 104.191C27.8229 104.964 27.6207 105.785 27.4066 106.653C27.1925 107.521 27.032 108.175 26.9249 108.615L26.7644 109.257C26.7644 109.305 26.8179 109.329 26.9249 109.329C27.032 109.329 27.3828 109.341 27.9775 109.365H28.2808C28.6614 109.365 28.9647 109.359 29.1907 109.347C29.4167 109.335 29.7081 109.293 30.0649 109.222C30.4217 109.15 30.719 109.043 30.9569 108.901C31.1948 108.758 31.4565 108.556 31.7419 108.294C32.0274 108.032 32.2771 107.705 32.4912 107.313C32.6815 106.956 32.8599 106.558 33.0264 106.118C33.193 105.677 33.294 105.428 33.3297 105.368C33.3892 105.333 33.4903 105.315 33.633 105.315H33.8649C33.9363 105.422 33.972 105.487 33.972 105.511C33.972 105.535 33.8531 105.886 33.6152 106.564C33.3773 107.241 33.1156 107.955 32.8302 108.704C32.5447 109.454 32.3901 109.894 32.3663 110.025C32.3425 110.084 32.3188 110.12 32.295 110.132C32.2712 110.144 32.176 110.161 32.0095 110.185C31.843 110.209 31.5873 110.215 31.2424 110.203C31.1115 110.203 30.6596 110.203 29.8865 110.203C29.1134 110.203 28.376 110.197 27.6742 110.185H24.4986C23.4995 110.185 23 110.126 23 110.007C23 109.924 23.0119 109.84 23.0357 109.757C23.0952 109.531 23.1546 109.406 23.2141 109.382C23.2617 109.37 23.3509 109.365 23.4817 109.365H23.5887C23.9099 109.365 24.2667 109.347 24.6592 109.311C24.8257 109.275 24.9387 109.204 24.9982 109.097C25.0338 109.049 25.462 107.396 26.2827 104.137C27.1033 100.878 27.5137 99.1597 27.5137 98.9813C27.5137 98.898 27.1747 98.8445 26.4968 98.8207Z" fill="black"/>
<path d="M34.9318 110.162C34.9318 109.363 35.2051 108.674 35.7516 108.093C36.2982 107.513 36.9583 107.219 37.7319 107.211C38.4887 107.211 39.1404 107.496 39.687 108.068C40.2336 108.64 40.5111 109.334 40.5195 110.149C40.5195 110.948 40.2504 111.621 39.7122 112.168C39.174 112.714 38.5139 112.987 37.7319 112.987C36.9163 112.987 36.2478 112.706 35.7264 112.142C35.2051 111.579 34.9402 110.919 34.9318 110.162ZM37.7319 112.483C38.7578 112.483 39.2707 111.798 39.2707 110.427V110.023V109.708C39.2707 109.523 39.2665 109.363 39.2581 109.229C39.2497 109.094 39.2203 108.934 39.1698 108.749C39.1194 108.564 39.0521 108.413 38.968 108.295C38.8839 108.178 38.7536 108.06 38.577 107.942C38.4004 107.824 38.1944 107.74 37.959 107.69C37.9169 107.681 37.8496 107.677 37.7571 107.677C37.5049 107.677 37.2652 107.728 37.0382 107.829C36.6766 108.014 36.4412 108.27 36.3318 108.598C36.2225 108.926 36.1679 109.313 36.1679 109.758V110.011C36.1679 110.818 36.2478 111.386 36.4075 111.713C36.6766 112.226 37.1181 112.483 37.7319 112.483Z" fill="black"/>
<path d="M45.7162 112.13C45.2453 112.701 44.7113 112.987 44.1143 112.987H44.026C42.9749 112.987 42.3694 112.571 42.2097 111.739C42.2012 111.68 42.1928 111.104 42.1844 110.011C42.176 109.094 42.1718 108.581 42.1718 108.472C42.1718 108.362 42.1466 108.274 42.0961 108.207C42.012 108.072 41.7598 108.005 41.3393 108.005H41.2006V107.715C41.2006 107.522 41.209 107.425 41.2258 107.425L41.3646 107.412C41.4487 107.404 41.5706 107.395 41.7304 107.387C41.8901 107.379 42.0499 107.37 42.2097 107.362C42.3526 107.353 42.5082 107.345 42.6764 107.337C42.8445 107.328 42.9707 107.316 43.0548 107.299C43.1388 107.282 43.1893 107.278 43.2061 107.286H43.244V109.569C43.2524 111.116 43.265 111.945 43.2818 112.054C43.307 112.18 43.3659 112.281 43.4584 112.357C43.6266 112.474 43.8788 112.533 44.2152 112.533C44.4338 112.533 44.6314 112.495 44.808 112.42C44.9846 112.344 45.1191 112.247 45.2116 112.13C45.3041 112.012 45.3882 111.877 45.4639 111.726C45.5396 111.575 45.59 111.449 45.6153 111.348C45.6405 111.247 45.6573 111.146 45.6657 111.045C45.6657 111.037 45.6657 110.965 45.6657 110.831C45.6657 110.696 45.6699 110.528 45.6783 110.326C45.6867 110.124 45.6867 109.927 45.6783 109.733V108.888C45.6783 108.501 45.6363 108.262 45.5522 108.169C45.4681 108.077 45.2579 108.022 44.9215 108.005H44.6945V107.425C44.7113 107.425 45.0308 107.404 45.6531 107.362C46.2754 107.32 46.6075 107.295 46.6496 107.286H46.7378V109.531C46.7378 111.045 46.742 111.814 46.7505 111.84C46.7757 112.008 46.8345 112.117 46.927 112.168C47.0195 112.218 47.2087 112.256 47.4946 112.281H47.7217V112.861C47.7049 112.861 47.3895 112.882 46.7757 112.924C46.1618 112.966 45.8381 112.992 45.8045 113H45.7162V112.13Z" fill="black"/>
<path d="M48.2388 107.538C48.6845 107.505 49.0292 107.269 49.2731 106.832C49.517 106.395 49.6515 105.882 49.6767 105.293V105.104H50.1813V107.425H51.8841V108.005H50.1813V109.821C50.1897 110.873 50.1939 111.465 50.1939 111.6C50.1939 111.735 50.2233 111.869 50.2822 112.004C50.3999 112.332 50.6059 112.496 50.9002 112.496C51.2702 112.496 51.4973 112.197 51.5813 111.6C51.5898 111.533 51.594 111.339 51.594 111.02V110.578H52.0985V111.02V111.171C52.0985 111.819 51.9219 112.311 51.5687 112.647C51.3417 112.874 51.0474 112.987 50.6858 112.987C50.3999 112.987 50.1518 112.937 49.9416 112.836C49.7314 112.735 49.5716 112.605 49.4623 112.445C49.353 112.285 49.2731 112.138 49.2226 112.004C49.1722 111.869 49.1428 111.735 49.1344 111.6C49.1259 111.541 49.1217 110.919 49.1217 109.733V108.005H48.1253V107.538H48.2388Z" fill="black"/>
<path d="M59.6536 103.994C59.6536 103.84 59.7369 103.721 59.9034 103.638H71.2678C71.4463 103.733 71.5355 103.852 71.5355 103.994C71.5355 104.125 71.4522 104.238 71.2857 104.333L65.6124 104.351H59.939C59.7487 104.292 59.6536 104.173 59.6536 103.994ZM59.6536 107.456C59.6536 107.277 59.7487 107.158 59.939 107.099H71.2857C71.4522 107.218 71.5355 107.337 71.5355 107.456C71.5355 107.61 71.4463 107.729 71.2678 107.812H59.9034C59.7369 107.729 59.6536 107.61 59.6536 107.456Z" fill="black"/>
<path d="M80.4165 107.384C80.4165 107.67 80.3214 107.907 80.1311 108.098C79.9408 108.288 79.7089 108.383 79.4353 108.383H79.3104C79.8575 109.323 80.5831 109.793 81.487 109.793C82.3195 109.793 82.9261 109.436 83.3067 108.722C83.5327 108.33 83.6457 107.569 83.6457 106.439C83.6457 105.214 83.4851 104.387 83.164 103.959C82.8548 103.566 82.5098 103.37 82.1292 103.37H82.0222C81.0945 103.37 80.3928 103.774 79.917 104.583C79.8694 104.666 79.8278 104.714 79.7921 104.726C79.7564 104.738 79.6672 104.75 79.5245 104.762C79.3223 104.762 79.2093 104.726 79.1855 104.655C79.1617 104.607 79.1499 103.566 79.1499 101.532V99.231C79.1499 98.6363 79.1796 98.339 79.2391 98.339C79.2628 98.3152 79.2866 98.3033 79.3104 98.3033C79.3223 98.3033 79.4472 98.3509 79.6851 98.446C79.9229 98.5412 80.25 98.6363 80.6663 98.7315C81.0826 98.8266 81.5286 98.8742 82.0044 98.8742C82.8488 98.8742 83.6576 98.7077 84.4307 98.3746C84.5258 98.3271 84.6031 98.3033 84.6626 98.3033C84.7578 98.3033 84.8053 98.4103 84.8053 98.6244V98.8563C83.83 100.01 82.6109 100.587 81.148 100.587C80.7793 100.587 80.4463 100.551 80.1489 100.48L79.9705 100.444V103.513C80.1965 103.346 80.3749 103.215 80.5057 103.12C80.6366 103.025 80.8507 102.93 81.148 102.835C81.4453 102.74 81.7486 102.692 82.0579 102.692C83.0213 102.692 83.836 103.079 84.502 103.852C85.1681 104.625 85.5011 105.541 85.5011 106.599C85.5011 107.693 85.1205 108.627 84.3593 109.4C83.5981 110.173 82.6704 110.566 81.5762 110.578C80.6128 110.578 79.8397 110.257 79.2569 109.614C78.6741 108.972 78.3827 108.246 78.3827 107.438C78.3827 107.152 78.4481 106.926 78.579 106.76C78.7098 106.593 78.8466 106.486 78.9893 106.439C79.132 106.391 79.2688 106.367 79.3996 106.367C79.697 106.367 79.9408 106.468 80.1311 106.671C80.3214 106.873 80.4165 107.111 80.4165 107.384Z" fill="black"/>
<path d="M18.0788 7.30457C17.7316 7.30457 17.5478 7.28414 17.5273 7.24329C17.5171 7.22286 17.512 7.18201 17.512 7.12074C17.512 6.87563 17.5682 6.70712 17.6805 6.6152C17.701 6.60499 17.7775 6.59988 17.9103 6.59988C18.4618 6.63052 19.1103 6.64584 19.8558 6.64584C21.2959 6.64584 22.1231 6.63052 22.3376 6.59988H22.5214C22.5827 6.66116 22.6133 6.70712 22.6133 6.73776C22.6133 6.76839 22.6031 6.86031 22.5827 7.0135C22.5316 7.16669 22.4856 7.26371 22.4448 7.30457H21.8627C21.158 7.31478 20.7444 7.36074 20.6218 7.44244C20.5503 7.48329 20.4788 7.62627 20.4073 7.87138C20.3359 8.11648 19.9937 9.46457 19.381 11.9156C19.2176 12.5795 19.0439 13.2842 18.8601 14.0297C18.6763 14.7752 18.5384 15.3369 18.4465 15.7148L18.3086 16.2663C18.3086 16.3071 18.3546 16.3276 18.4465 16.3276C18.5384 16.3276 18.8397 16.3378 19.3503 16.3582H19.6107C19.9376 16.3582 20.198 16.3531 20.392 16.3429C20.5861 16.3327 20.8363 16.2969 21.1427 16.2357C21.449 16.1744 21.7044 16.0825 21.9086 15.9599C22.1129 15.8374 22.3376 15.6637 22.5827 15.4391C22.8278 15.2144 23.0422 14.9335 23.2261 14.5965C23.3895 14.2901 23.5427 13.948 23.6856 13.5701C23.8286 13.1922 23.9154 12.9778 23.9461 12.9267C23.9971 12.8961 24.0839 12.8807 24.2065 12.8807H24.4056C24.4669 12.9727 24.4976 13.0288 24.4976 13.0493C24.4976 13.0697 24.3954 13.371 24.1912 13.9531C23.9869 14.5352 23.7622 15.148 23.5171 15.7914C23.272 16.4348 23.1393 16.8127 23.1188 16.925C23.0984 16.9761 23.078 17.0067 23.0576 17.0169C23.0371 17.0271 22.9554 17.0425 22.8125 17.0629C22.6695 17.0833 22.4499 17.0884 22.1537 17.0782C22.0414 17.0782 21.6533 17.0782 20.9895 17.0782C20.3256 17.0782 19.6924 17.0731 19.0899 17.0629H16.3631C15.5052 17.0629 15.0763 17.0118 15.0763 16.9097C15.0763 16.8382 15.0865 16.7667 15.1069 16.6952C15.158 16.5012 15.209 16.3939 15.2601 16.3735C15.3009 16.3633 15.3775 16.3582 15.4899 16.3582H15.5818C15.8575 16.3582 16.1639 16.3429 16.5009 16.3122C16.6439 16.2816 16.7409 16.2203 16.792 16.1284C16.8227 16.0876 17.1903 14.668 17.895 11.8697C18.5997 9.07138 18.952 7.59563 18.952 7.44244C18.952 7.37095 18.661 7.32499 18.0788 7.30457Z" fill="black"/>
<path d="M30.132 11.7472C30.132 11.6144 30.2034 11.5123 30.3464 11.4408H40.1047C40.2579 11.5225 40.3345 11.6247 40.3345 11.7472C40.3345 11.8595 40.263 11.9566 40.1201 12.0383L35.2486 12.0536H30.3771C30.2137 12.0025 30.132 11.9004 30.132 11.7472ZM30.132 14.7191C30.132 14.5659 30.2137 14.4638 30.3771 14.4127H40.1201C40.263 14.5149 40.3345 14.617 40.3345 14.7191C40.3345 14.8519 40.2579 14.954 40.1047 15.0255H30.3464C30.2034 14.954 30.132 14.8519 30.132 14.7191Z" fill="black"/>
<path d="M47.3936 9.97022C47.1179 9.97022 46.9034 9.88341 46.7502 9.70979C46.597 9.53618 46.5153 9.31149 46.5051 9.03575C46.5051 8.47405 46.7502 7.97362 47.2404 7.53447C47.7306 7.09532 48.323 6.87574 49.0175 6.87574C49.3749 6.87574 49.5996 6.88085 49.6915 6.89106C50.4472 7.01362 51.0243 7.28426 51.4226 7.70298C51.8209 8.1217 52.0251 8.57617 52.0353 9.06639C52.0353 9.59745 51.8617 10.1132 51.5145 10.6136C51.1672 11.1141 50.6872 11.4766 50.0745 11.7013L50.0285 11.7319C50.0285 11.7421 50.0745 11.7575 50.1664 11.7779C50.2583 11.7983 50.4064 11.8443 50.6107 11.9158C50.8149 11.9872 51.009 12.0945 51.1928 12.2375C52.0302 12.7787 52.449 13.4936 52.449 14.3821C52.449 15.189 52.1324 15.8936 51.4992 16.4962C50.866 17.0987 50.0643 17.4 49.0941 17.4C48.277 17.4 47.5723 17.1804 46.98 16.7413C46.3877 16.3021 46.0915 15.7456 46.0915 15.0715C46.0915 14.7856 46.1834 14.5558 46.3672 14.3821C46.5511 14.2085 46.7809 14.1166 47.0566 14.1064C47.3426 14.1064 47.5775 14.1983 47.7613 14.3821C47.9451 14.566 48.037 14.7958 48.037 15.0715C48.037 15.1838 48.0217 15.286 47.9911 15.3779C47.9604 15.4698 47.9247 15.5515 47.8838 15.623C47.843 15.6945 47.7868 15.7558 47.7153 15.8068C47.6438 15.8579 47.5826 15.8987 47.5315 15.9294C47.4804 15.96 47.4294 15.9804 47.3783 15.9907C47.3272 16.0009 47.2864 16.0162 47.2558 16.0366L47.1945 16.0519C47.7153 16.5115 48.3485 16.7413 49.0941 16.7413C49.6558 16.7413 50.0796 16.4707 50.3655 15.9294C50.5392 15.5924 50.626 15.0766 50.626 14.3821V14.0758C50.626 13.1055 50.2992 12.457 49.6455 12.1302C49.4924 12.0689 49.1809 12.0332 48.7111 12.023L48.0677 12.0077L48.0217 11.977C48.0013 11.9464 47.9911 11.8647 47.9911 11.7319C47.9911 11.5481 48.0319 11.4562 48.1136 11.4562C48.3996 11.4562 48.6958 11.4306 49.0021 11.3796C49.3494 11.3285 49.666 11.1141 49.9519 10.7362C50.2379 10.3583 50.3809 9.78639 50.3809 9.02043V8.89788C50.3809 8.31575 50.2021 7.91234 49.8447 7.68766C49.62 7.54468 49.38 7.47319 49.1247 7.47319C48.7979 7.47319 48.4966 7.52936 48.2209 7.6417C47.9451 7.75404 47.7511 7.87149 47.6387 7.99404C47.5264 8.1166 47.4702 8.17787 47.4702 8.17787H47.5162C47.5468 8.18809 47.5877 8.1983 47.6387 8.20851C47.6898 8.21873 47.7409 8.24426 47.7919 8.28511C47.843 8.32596 47.9043 8.3617 47.9758 8.39234C48.0472 8.42298 48.0983 8.47915 48.1289 8.56085C48.1596 8.64256 48.2004 8.71915 48.2515 8.79064C48.3026 8.86213 48.3179 8.96426 48.2975 9.09703C48.2975 9.32171 48.226 9.52086 48.083 9.69447C47.94 9.86809 47.7102 9.96001 47.3936 9.97022Z" fill="black"/>
<path d="M66 27H65.5V26.5H66V27ZM103 27V26.5H103.5V27H103ZM84.1464 18.6464C84.3417 18.4512 84.6583 18.4512 84.8536 18.6464L88.0355 21.8284C88.2308 22.0237 88.2308 22.3403 88.0355 22.5355C87.8403 22.7308 87.5237 22.7308 87.3284 22.5355L84.5 19.7071L81.6716 22.5355C81.4763 22.7308 81.1597 22.7308 80.9645 22.5355C80.7692 22.3403 80.7692 22.0237 80.9645 21.8284L84.1464 18.6464ZM65.5 35V27H66.5V35H65.5ZM103.5 27V35H102.5V27H103.5ZM66 26.5H84.5V27.5H66V26.5ZM84.5 26.5H103V27.5H84.5V26.5ZM84 27V19H85V27H84Z" fill="black"/>
<path d="M62.1779 17V8.27273H65.1268C65.8114 8.27273 66.3711 8.39631 66.8058 8.64347C67.2433 8.88778 67.5671 9.21875 67.7773 9.63636C67.9876 10.054 68.0927 10.5199 68.0927 11.0341C68.0927 11.5483 67.9876 12.0156 67.7773 12.4361C67.57 12.8565 67.2489 13.1918 66.8143 13.4418C66.3796 13.6889 65.8228 13.8125 65.1438 13.8125H63.0302V12.875H65.1097C65.5785 12.875 65.9549 12.794 66.239 12.6321C66.5231 12.4702 66.729 12.2514 66.8569 11.9759C66.9876 11.6974 67.0529 11.3835 67.0529 11.0341C67.0529 10.6847 66.9876 10.3722 66.8569 10.0966C66.729 9.82102 66.5217 9.60511 66.2347 9.44886C65.9478 9.28977 65.5671 9.21023 65.0927 9.21023H63.2347V17H62.1779ZM71.5849 17.1534C71.1701 17.1534 70.7937 17.0753 70.4556 16.919C70.1175 16.7599 69.8491 16.5312 69.6502 16.233C69.4513 15.9318 69.3519 15.5682 69.3519 15.142C69.3519 14.767 69.4258 14.4631 69.5735 14.2301C69.7212 13.9943 69.9187 13.8097 70.1658 13.6761C70.413 13.5426 70.6857 13.4432 70.984 13.3778C71.2852 13.3097 71.5877 13.2557 71.8917 13.2159C72.2894 13.1648 72.6119 13.1264 72.859 13.1009C73.109 13.0724 73.2908 13.0256 73.4045 12.9602C73.521 12.8949 73.5792 12.7812 73.5792 12.6193V12.5852C73.5792 12.1648 73.4641 11.8381 73.234 11.6051C73.0067 11.3722 72.6616 11.2557 72.1985 11.2557C71.7184 11.2557 71.342 11.3608 71.0692 11.571C70.7965 11.7812 70.6048 12.0057 70.494 12.2443L69.5394 11.9034C69.7099 11.5057 69.9371 11.196 70.2212 10.9744C70.5082 10.75 70.8207 10.5937 71.1587 10.5057C71.4996 10.4148 71.8349 10.3693 72.1644 10.3693C72.3746 10.3693 72.6161 10.3949 72.8888 10.446C73.1644 10.4943 73.43 10.5952 73.6857 10.7486C73.9442 10.902 74.1587 11.1335 74.3292 11.4432C74.4996 11.7528 74.5849 12.1676 74.5849 12.6875V17H73.5792V16.1136H73.5281C73.4599 16.2557 73.3462 16.4077 73.1871 16.5696C73.0281 16.7315 72.8164 16.8693 72.5522 16.983C72.288 17.0966 71.9656 17.1534 71.5849 17.1534ZM71.7383 16.25C72.136 16.25 72.4712 16.1719 72.744 16.0156C73.0195 15.8594 73.2269 15.6577 73.3661 15.4105C73.5082 15.1634 73.5792 14.9034 73.5792 14.6307V13.7102C73.5366 13.7614 73.4428 13.8082 73.2979 13.8509C73.1559 13.8906 72.9911 13.9261 72.8036 13.9574C72.619 13.9858 72.4386 14.0114 72.2624 14.0341C72.0891 14.054 71.9485 14.071 71.8406 14.0852C71.5792 14.1193 71.3349 14.1747 71.1076 14.2514C70.8832 14.3253 70.7013 14.4375 70.5621 14.5881C70.4258 14.7358 70.3576 14.9375 70.3576 15.1932C70.3576 15.5426 70.4869 15.8068 70.7454 15.9858C71.0067 16.1619 71.3377 16.25 71.7383 16.25ZM78.892 17.1364C78.3466 17.1364 77.8651 16.9986 77.4474 16.723C77.0298 16.4446 76.7031 16.0526 76.4673 15.5469C76.2315 15.0384 76.1136 14.4375 76.1136 13.7443C76.1136 13.0568 76.2315 12.4602 76.4673 11.9545C76.7031 11.4489 77.0313 11.0582 77.4517 10.7827C77.8722 10.5071 78.358 10.3693 78.9091 10.3693C79.3352 10.3693 79.6719 10.4403 79.919 10.5824C80.169 10.7216 80.3594 10.8807 80.4901 11.0597C80.6236 11.2358 80.7273 11.3807 80.8011 11.4943H80.8864V8.27273H81.892V17H80.9205V15.9943H80.8011C80.7273 16.1136 80.6222 16.2642 80.4858 16.446C80.3494 16.625 80.1548 16.7855 79.902 16.9276C79.6491 17.0668 79.3125 17.1364 78.892 17.1364ZM79.0284 16.233C79.4318 16.233 79.7727 16.1278 80.0511 15.9176C80.3295 15.7045 80.5412 15.4105 80.6861 15.0355C80.831 14.6577 80.9034 14.2216 80.9034 13.7273C80.9034 13.2386 80.8324 12.8111 80.6903 12.4446C80.5483 12.0753 80.3381 11.7884 80.0597 11.5838C79.7813 11.3764 79.4375 11.2727 79.0284 11.2727C78.6023 11.2727 78.2472 11.3821 77.9631 11.6009C77.6818 11.8168 77.4702 12.1108 77.3281 12.483C77.1889 12.8523 77.1193 13.267 77.1193 13.7273C77.1193 14.1932 77.1903 14.6165 77.3324 14.9972C77.4773 15.375 77.6903 15.6761 77.9716 15.9006C78.2557 16.1222 78.608 16.233 79.0284 16.233ZM87.6577 11.8352V10.9148H92.9077V11.8352H87.6577ZM87.6577 14.358V13.4375H92.9077V14.358H87.6577ZM98.5167 17V16.233L101.397 13.0795C101.735 12.7102 102.014 12.3892 102.233 12.1165C102.451 11.8409 102.613 11.5824 102.718 11.3409C102.826 11.0966 102.88 10.8409 102.88 10.5739C102.88 10.267 102.806 10.0014 102.659 9.77699C102.514 9.55256 102.315 9.37926 102.062 9.2571C101.809 9.13494 101.525 9.07386 101.21 9.07386C100.875 9.07386 100.582 9.14347 100.332 9.28267C100.085 9.41903 99.8931 9.6108 99.7567 9.85795C99.6232 10.1051 99.5565 10.3949 99.5565 10.7273H98.5508C98.5508 10.2159 98.6687 9.76705 98.9045 9.38068C99.1403 8.99432 99.4613 8.69318 99.8675 8.47727C100.277 8.26136 100.735 8.15341 101.244 8.15341C101.755 8.15341 102.208 8.26136 102.603 8.47727C102.998 8.69318 103.308 8.98437 103.532 9.35085C103.757 9.71733 103.869 10.125 103.869 10.5739C103.869 10.8949 103.811 11.2088 103.694 11.5156C103.581 11.8196 103.382 12.1591 103.098 12.5341C102.816 12.9062 102.426 13.3608 101.926 13.8977L99.9656 15.9943V16.0625H104.022V17H98.5167Z" fill="black"/>
</svg>
