<svg width="450" height="255" viewBox="0 0 450 255" fill="none" xmlns="http://www.w3.org/2000/svg">
<rect width="450" height="254.26" transform="translate(0 0.530396)" fill="white"/>
<path d="M92.4148 17.5304H91.3068L94.5114 8.80312H95.6023L98.8068 17.5304H97.6989L95.0909 10.1838H95.0227L92.4148 17.5304ZM92.8239 14.1213H97.2898V15.0588H92.8239V14.1213ZM100.78 10.9849L102.348 13.6611L103.916 10.9849H105.075L102.962 14.2577L105.075 17.5304H103.916L102.348 14.9906L100.78 17.5304H99.6207L101.7 14.2577L99.6207 10.9849H100.78ZM106.51 17.5304V10.9849H107.516V17.5304H106.51ZM107.022 9.89403C106.826 9.89403 106.657 9.82727 106.515 9.69375C106.375 9.56023 106.306 9.39971 106.306 9.21221C106.306 9.02471 106.375 8.8642 106.515 8.73068C106.657 8.59716 106.826 8.5304 107.022 8.5304C107.218 8.5304 107.385 8.59716 107.525 8.73068C107.667 8.8642 107.738 9.02471 107.738 9.21221C107.738 9.39971 107.667 9.56023 107.525 9.69375C107.385 9.82727 107.218 9.89403 107.022 9.89403ZM113.994 12.4508L113.091 12.7065C113.034 12.556 112.95 12.4097 112.839 12.2676C112.732 12.1227 112.584 12.0034 112.396 11.9097C112.209 11.8159 111.969 11.769 111.676 11.769C111.276 11.769 110.942 11.8614 110.675 12.046C110.411 12.2278 110.278 12.4594 110.278 12.7406C110.278 12.9906 110.369 13.1881 110.551 13.333C110.733 13.4778 111.017 13.5986 111.403 13.6952L112.375 13.9338C112.96 14.0758 113.396 14.2932 113.683 14.5858C113.97 14.8756 114.114 15.2491 114.114 15.7065C114.114 16.0815 114.006 16.4168 113.79 16.7122C113.577 17.0077 113.278 17.2406 112.895 17.4111C112.511 17.5815 112.065 17.6668 111.557 17.6668C110.889 17.6668 110.337 17.5219 109.899 17.2321C109.462 16.9423 109.185 16.519 109.068 15.9622L110.023 15.7236C110.114 16.0759 110.286 16.3401 110.538 16.5162C110.794 16.6923 111.128 16.7804 111.54 16.7804C112.009 16.7804 112.381 16.681 112.656 16.4821C112.935 16.2804 113.074 16.0389 113.074 15.7577C113.074 15.5304 112.994 15.3401 112.835 15.1866C112.676 15.0304 112.432 14.9139 112.102 14.8372L111.011 14.5815C110.412 14.4395 109.972 14.2193 109.69 13.921C109.412 13.6199 109.273 13.2435 109.273 12.7918C109.273 12.4224 109.376 12.0957 109.584 11.8116C109.794 11.5276 110.08 11.3045 110.44 11.1426C110.804 10.9807 111.216 10.8997 111.676 10.8997C112.324 10.8997 112.832 11.0418 113.202 11.3258C113.574 11.6099 113.838 11.9849 113.994 12.4508ZM122.054 8.80312V17.5304H120.997V9.91108H120.946L118.815 11.3258V10.252L120.997 8.80312H122.054ZM125.314 16.4139C125.103 16.4139 124.923 16.3386 124.772 16.1881C124.622 16.0375 124.547 15.8571 124.547 15.6469C124.547 15.4366 124.622 15.2562 124.772 15.1057C124.923 14.9551 125.103 14.8798 125.314 14.8798C125.524 14.8798 125.704 14.9551 125.855 15.1057C126.005 15.2562 126.081 15.4366 126.081 15.6469C126.081 15.7861 126.045 15.9139 125.974 16.0304C125.906 16.1469 125.814 16.2406 125.697 16.3116C125.583 16.3798 125.456 16.4139 125.314 16.4139ZM125.314 11.9991C125.103 11.9991 124.923 11.9239 124.772 11.7733C124.622 11.6227 124.547 11.4423 124.547 11.2321C124.547 11.0219 124.622 10.8415 124.772 10.6909C124.923 10.5403 125.103 10.4651 125.314 10.4651C125.524 10.4651 125.704 10.5403 125.855 10.6909C126.005 10.8415 126.081 11.0219 126.081 11.2321C126.081 11.3713 126.045 11.4991 125.974 11.6156C125.906 11.7321 125.814 11.8258 125.697 11.8969C125.583 11.9651 125.456 11.9991 125.314 11.9991ZM135.897 12.4508L134.993 12.7065C134.936 12.556 134.853 12.4097 134.742 12.2676C134.634 12.1227 134.486 12.0034 134.299 11.9097C134.111 11.8159 133.871 11.769 133.578 11.769C133.178 11.769 132.844 11.8614 132.577 12.046C132.313 12.2278 132.181 12.4594 132.181 12.7406C132.181 12.9906 132.272 13.1881 132.453 13.333C132.635 13.4778 132.919 13.5986 133.306 13.6952L134.277 13.9338C134.863 14.0758 135.299 14.2932 135.586 14.5858C135.873 14.8756 136.016 15.2491 136.016 15.7065C136.016 16.0815 135.908 16.4168 135.692 16.7122C135.479 17.0077 135.181 17.2406 134.797 17.4111C134.414 17.5815 133.968 17.6668 133.459 17.6668C132.792 17.6668 132.239 17.5219 131.801 17.2321C131.364 16.9423 131.087 16.519 130.971 15.9622L131.925 15.7236C132.016 16.0759 132.188 16.3401 132.441 16.5162C132.696 16.6923 133.03 16.7804 133.442 16.7804C133.911 16.7804 134.283 16.681 134.559 16.4821C134.837 16.2804 134.976 16.0389 134.976 15.7577C134.976 15.5304 134.897 15.3401 134.738 15.1866C134.578 15.0304 134.334 14.9139 134.005 14.8372L132.914 14.5815C132.314 14.4395 131.874 14.2193 131.593 13.921C131.314 13.6199 131.175 13.2435 131.175 12.7918C131.175 12.4224 131.279 12.0957 131.486 11.8116C131.696 11.5276 131.982 11.3045 132.343 11.1426C132.706 10.9807 133.118 10.8997 133.578 10.8997C134.226 10.8997 134.735 11.0418 135.104 11.3258C135.476 11.6099 135.74 11.9849 135.897 12.4508ZM139.456 17.6838C139.041 17.6838 138.665 17.6057 138.327 17.4494C137.989 17.2903 137.72 17.0616 137.521 16.7634C137.322 16.4622 137.223 16.0986 137.223 15.6724C137.223 15.2974 137.297 14.9935 137.445 14.7605C137.592 14.5247 137.79 14.3401 138.037 14.2065C138.284 14.073 138.557 13.9736 138.855 13.9082C139.156 13.8401 139.459 13.7861 139.763 13.7463C140.161 13.6952 140.483 13.6568 140.73 13.6312C140.98 13.6028 141.162 13.556 141.276 13.4906C141.392 13.4253 141.45 13.3116 141.45 13.1497V13.1156C141.45 12.6952 141.335 12.3685 141.105 12.1355C140.878 11.9026 140.533 11.7861 140.07 11.7861C139.589 11.7861 139.213 11.8912 138.94 12.1014C138.668 12.3116 138.476 12.5361 138.365 12.7747L137.411 12.4338C137.581 12.0361 137.808 11.7264 138.092 11.5048C138.379 11.2804 138.692 11.1241 139.03 11.0361C139.371 10.9452 139.706 10.8997 140.036 10.8997C140.246 10.8997 140.487 10.9253 140.76 10.9764C141.036 11.0247 141.301 11.1256 141.557 11.279C141.815 11.4324 142.03 11.6639 142.2 11.9736C142.371 12.2832 142.456 12.698 142.456 13.2179V17.5304H141.45V16.644H141.399C141.331 16.7861 141.217 16.9381 141.058 17.1C140.899 17.2619 140.688 17.3997 140.423 17.5134C140.159 17.627 139.837 17.6838 139.456 17.6838ZM139.609 16.7804C140.007 16.7804 140.342 16.7023 140.615 16.546C140.891 16.3898 141.098 16.1881 141.237 15.9409C141.379 15.6937 141.45 15.4338 141.45 15.1611V14.2406C141.408 14.2918 141.314 14.3386 141.169 14.3812C141.027 14.421 140.862 14.4565 140.675 14.4878C140.49 14.5162 140.31 14.5418 140.134 14.5645C139.96 14.5844 139.82 14.6014 139.712 14.6156C139.45 14.6497 139.206 14.7051 138.979 14.7818C138.754 14.8557 138.572 14.9679 138.433 15.1185C138.297 15.2662 138.229 15.4679 138.229 15.7236C138.229 16.073 138.358 16.3372 138.616 16.5162C138.878 16.6923 139.209 16.7804 139.609 16.7804ZM144.292 17.5304V10.9849H145.263V12.0077H145.348C145.485 11.6582 145.705 11.3869 146.009 11.1937C146.313 10.9977 146.678 10.8997 147.104 10.8997C147.536 10.8997 147.895 10.9977 148.182 11.1937C148.472 11.3869 148.698 11.6582 148.86 12.0077H148.928C149.096 11.6696 149.347 11.4011 149.682 11.2023C150.017 11.0006 150.419 10.8997 150.888 10.8997C151.473 10.8997 151.952 11.083 152.324 11.4494C152.696 11.8131 152.882 12.3798 152.882 13.1497V17.5304H151.877V13.1497C151.877 12.6668 151.745 12.3216 151.48 12.1142C151.216 11.9068 150.905 11.8031 150.547 11.8031C150.087 11.8031 149.73 11.9423 149.478 12.2207C149.225 12.4963 149.098 12.8457 149.098 13.269V17.5304H148.076V13.0474C148.076 12.6753 147.955 12.3756 147.713 12.1483C147.472 11.9182 147.161 11.8031 146.78 11.8031C146.519 11.8031 146.275 11.8727 146.047 12.0119C145.823 12.1511 145.641 12.3443 145.502 12.5915C145.365 12.8358 145.297 13.1185 145.297 13.4395V17.5304H144.292ZM154.721 19.9849V10.9849H155.693V12.0247H155.812C155.886 11.9111 155.988 11.7662 156.119 11.5901C156.252 11.4111 156.443 11.252 156.69 11.1128C156.94 10.9707 157.278 10.8997 157.704 10.8997C158.255 10.8997 158.741 11.0375 159.162 11.3131C159.582 11.5886 159.91 11.9793 160.146 12.4849C160.382 12.9906 160.5 13.5872 160.5 14.2747C160.5 14.9679 160.382 15.5687 160.146 16.0773C159.91 16.583 159.583 16.975 159.166 17.2534C158.748 17.529 158.267 17.6668 157.721 17.6668C157.301 17.6668 156.964 17.5972 156.711 17.458C156.458 17.3159 156.264 17.1554 156.127 16.9764C155.991 16.7946 155.886 16.644 155.812 16.5247H155.727V19.9849H154.721ZM155.71 14.2577C155.71 14.752 155.782 15.1881 155.927 15.5659C156.072 15.9409 156.284 16.2349 156.562 16.448C156.841 16.6582 157.181 16.7634 157.585 16.7634C158.005 16.7634 158.356 16.6526 158.637 16.431C158.922 16.2065 159.135 15.9054 159.277 15.5276C159.422 15.1469 159.494 14.7236 159.494 14.2577C159.494 13.7974 159.423 13.3827 159.281 13.0133C159.142 12.6412 158.93 12.3472 158.646 12.1312C158.365 11.9125 158.011 11.8031 157.585 11.8031C157.176 11.8031 156.832 11.9068 156.554 12.1142C156.275 12.3187 156.065 12.6057 155.923 12.975C155.781 13.3415 155.71 13.769 155.71 14.2577ZM163.039 8.80312V17.5304H162.034V8.80312H163.039ZM167.626 17.6668C166.995 17.6668 166.451 17.5276 165.994 17.2491C165.539 16.9679 165.188 16.5759 164.941 16.073C164.697 15.5673 164.575 14.9793 164.575 14.3088C164.575 13.6383 164.697 13.0474 164.941 12.5361C165.188 12.0219 165.532 11.6213 165.972 11.3344C166.415 11.0446 166.933 10.8997 167.523 10.8997C167.864 10.8997 168.201 10.9565 168.533 11.0702C168.866 11.1838 169.168 11.3685 169.441 11.6241C169.714 11.877 169.931 12.2122 170.093 12.6298C170.255 13.0474 170.336 13.5616 170.336 14.1724V14.5986H165.29V13.7293H169.313C169.313 13.3599 169.239 13.0304 169.092 12.7406C168.947 12.4508 168.739 12.2222 168.469 12.0545C168.202 11.8869 167.887 11.8031 167.523 11.8031C167.123 11.8031 166.776 11.9026 166.484 12.1014C166.194 12.2974 165.971 12.5531 165.815 12.8685C165.658 13.1838 165.58 13.5219 165.58 13.8827V14.4622C165.58 14.9565 165.665 15.3756 165.836 15.7193C166.009 16.0602 166.249 16.3202 166.556 16.4991C166.863 16.6753 167.219 16.7634 167.626 16.7634C167.89 16.7634 168.129 16.7264 168.342 16.6526C168.558 16.5759 168.744 16.4622 168.9 16.3116C169.056 16.1582 169.177 15.9679 169.262 15.7406L170.234 16.0134C170.131 16.3429 169.96 16.6327 169.718 16.8827C169.477 17.1298 169.178 17.323 168.823 17.4622C168.468 17.5986 168.069 17.6668 167.626 17.6668ZM176.502 12.4508L175.599 12.7065C175.542 12.556 175.458 12.4097 175.347 12.2676C175.239 12.1227 175.092 12.0034 174.904 11.9097C174.717 11.8159 174.477 11.769 174.184 11.769C173.783 11.769 173.45 11.8614 173.183 12.046C172.918 12.2278 172.786 12.4594 172.786 12.7406C172.786 12.9906 172.877 13.1881 173.059 13.333C173.241 13.4778 173.525 13.5986 173.911 13.6952L174.883 13.9338C175.468 14.0758 175.904 14.2932 176.191 14.5858C176.478 14.8756 176.621 15.2491 176.621 15.7065C176.621 16.0815 176.513 16.4168 176.298 16.7122C176.085 17.0077 175.786 17.2406 175.403 17.4111C175.019 17.5815 174.573 17.6668 174.065 17.6668C173.397 17.6668 172.844 17.5219 172.407 17.2321C171.969 16.9423 171.692 16.519 171.576 15.9622L172.531 15.7236C172.621 16.0759 172.793 16.3401 173.046 16.5162C173.302 16.6923 173.636 16.7804 174.048 16.7804C174.516 16.7804 174.888 16.681 175.164 16.4821C175.442 16.2804 175.582 16.0389 175.582 15.7577C175.582 15.5304 175.502 15.3401 175.343 15.1866C175.184 15.0304 174.94 14.9139 174.61 14.8372L173.519 14.5815C172.92 14.4395 172.479 14.2193 172.198 13.921C171.92 13.6199 171.781 13.2435 171.781 12.7918C171.781 12.4224 171.884 12.0957 172.092 11.8116C172.302 11.5276 172.587 11.3045 172.948 11.1426C173.312 10.9807 173.724 10.8997 174.184 10.8997C174.832 10.8997 175.34 11.0418 175.71 11.3258C176.082 11.6099 176.346 11.9849 176.502 12.4508Z" fill="black"/>
<path d="M305.107 17.5304H302.414V8.80312H305.227C306.073 8.80312 306.798 8.97784 307.4 9.32727C308.002 9.67386 308.464 10.1724 308.785 10.823C309.106 11.4707 309.267 12.2463 309.267 13.1497C309.267 14.0588 309.105 14.8415 308.781 15.4977C308.457 16.1511 307.985 16.654 307.366 17.0062C306.747 17.3557 305.994 17.5304 305.107 17.5304ZM303.471 16.5929H305.039C305.761 16.5929 306.359 16.4537 306.833 16.1753C307.308 15.8969 307.661 15.5006 307.894 14.9864C308.127 14.4722 308.244 13.8599 308.244 13.1497C308.244 12.4452 308.129 11.8386 307.899 11.3301C307.669 10.8187 307.325 10.4267 306.867 10.154C306.41 9.87841 305.84 9.74062 305.159 9.74062H303.471V16.5929ZM312.829 17.6838C312.414 17.6838 312.038 17.6057 311.7 17.4494C311.362 17.2903 311.093 17.0616 310.894 16.7634C310.695 16.4622 310.596 16.0986 310.596 15.6724C310.596 15.2974 310.67 14.9935 310.818 14.7605C310.965 14.5247 311.163 14.3401 311.41 14.2065C311.657 14.073 311.93 13.9736 312.228 13.9082C312.529 13.8401 312.832 13.7861 313.136 13.7463C313.534 13.6952 313.856 13.6568 314.103 13.6312C314.353 13.6028 314.535 13.556 314.649 13.4906C314.765 13.4253 314.823 13.3116 314.823 13.1497V13.1156C314.823 12.6952 314.708 12.3685 314.478 12.1355C314.251 11.9026 313.906 11.7861 313.443 11.7861C312.963 11.7861 312.586 11.8912 312.313 12.1014C312.041 12.3116 311.849 12.5361 311.738 12.7747L310.784 12.4338C310.954 12.0361 311.181 11.7264 311.465 11.5048C311.752 11.2804 312.065 11.1241 312.403 11.0361C312.744 10.9452 313.079 10.8997 313.409 10.8997C313.619 10.8997 313.86 10.9253 314.133 10.9764C314.409 11.0247 314.674 11.1256 314.93 11.279C315.188 11.4324 315.403 11.6639 315.573 11.9736C315.744 12.2832 315.829 12.698 315.829 13.2179V17.5304H314.823V16.644H314.772C314.704 16.7861 314.59 16.9381 314.431 17.1C314.272 17.2619 314.061 17.3997 313.796 17.5134C313.532 17.627 313.21 17.6838 312.829 17.6838ZM312.982 16.7804C313.38 16.7804 313.715 16.7023 313.988 16.546C314.264 16.3898 314.471 16.1881 314.61 15.9409C314.752 15.6937 314.823 15.4338 314.823 15.1611V14.2406C314.781 14.2918 314.687 14.3386 314.542 14.3812C314.4 14.421 314.235 14.4565 314.048 14.4878C313.863 14.5162 313.683 14.5418 313.507 14.5645C313.333 14.5844 313.193 14.6014 313.085 14.6156C312.823 14.6497 312.579 14.7051 312.352 14.7818C312.127 14.8557 311.945 14.9679 311.806 15.1185C311.67 15.2662 311.602 15.4679 311.602 15.7236C311.602 16.073 311.731 16.3372 311.99 16.5162C312.251 16.6923 312.582 16.7804 312.982 16.7804ZM320.511 10.9849V11.8372H317.119V10.9849H320.511ZM318.108 9.41676H319.113V15.6554C319.113 15.9395 319.155 16.1526 319.237 16.2946C319.322 16.4338 319.43 16.5276 319.561 16.5759C319.694 16.6213 319.835 16.644 319.983 16.644C320.094 16.644 320.184 16.6384 320.256 16.627C320.327 16.6128 320.383 16.6014 320.426 16.5929L320.631 17.4963C320.562 17.5219 320.467 17.5474 320.345 17.573C320.223 17.6014 320.068 17.6156 319.881 17.6156C319.596 17.6156 319.318 17.5545 319.045 17.4324C318.775 17.3102 318.551 17.1241 318.372 16.8741C318.196 16.6241 318.108 16.3088 318.108 15.9281V9.41676ZM323.95 17.6838C323.535 17.6838 323.159 17.6057 322.821 17.4494C322.483 17.2903 322.214 17.0616 322.015 16.7634C321.817 16.4622 321.717 16.0986 321.717 15.6724C321.717 15.2974 321.791 14.9935 321.939 14.7605C322.086 14.5247 322.284 14.3401 322.531 14.2065C322.778 14.073 323.051 13.9736 323.349 13.9082C323.65 13.8401 323.953 13.7861 324.257 13.7463C324.655 13.6952 324.977 13.6568 325.224 13.6312C325.474 13.6028 325.656 13.556 325.77 13.4906C325.886 13.4253 325.944 13.3116 325.944 13.1497V13.1156C325.944 12.6952 325.829 12.3685 325.599 12.1355C325.372 11.9026 325.027 11.7861 324.564 11.7861C324.084 11.7861 323.707 11.8912 323.434 12.1014C323.162 12.3116 322.97 12.5361 322.859 12.7747L321.905 12.4338C322.075 12.0361 322.302 11.7264 322.586 11.5048C322.873 11.2804 323.186 11.1241 323.524 11.0361C323.865 10.9452 324.2 10.8997 324.53 10.8997C324.74 10.8997 324.981 10.9253 325.254 10.9764C325.53 11.0247 325.795 11.1256 326.051 11.279C326.309 11.4324 326.524 11.6639 326.694 11.9736C326.865 12.2832 326.95 12.698 326.95 13.2179V17.5304H325.944V16.644H325.893C325.825 16.7861 325.711 16.9381 325.552 17.1C325.393 17.2619 325.182 17.3997 324.917 17.5134C324.653 17.627 324.331 17.6838 323.95 17.6838ZM324.104 16.7804C324.501 16.7804 324.836 16.7023 325.109 16.546C325.385 16.3898 325.592 16.1881 325.731 15.9409C325.873 15.6937 325.944 15.4338 325.944 15.1611V14.2406C325.902 14.2918 325.808 14.3386 325.663 14.3812C325.521 14.421 325.356 14.4565 325.169 14.4878C324.984 14.5162 324.804 14.5418 324.628 14.5645C324.454 14.5844 324.314 14.6014 324.206 14.6156C323.944 14.6497 323.7 14.7051 323.473 14.7818C323.248 14.8557 323.067 14.9679 322.927 15.1185C322.791 15.2662 322.723 15.4679 322.723 15.7236C322.723 16.073 322.852 16.3372 323.111 16.5162C323.372 16.6923 323.703 16.7804 324.104 16.7804ZM333.422 12.4508L332.519 12.7065C332.462 12.556 332.378 12.4097 332.267 12.2676C332.159 12.1227 332.012 12.0034 331.824 11.9097C331.637 11.8159 331.396 11.769 331.104 11.769C330.703 11.769 330.369 11.8614 330.102 12.046C329.838 12.2278 329.706 12.4594 329.706 12.7406C329.706 12.9906 329.797 13.1881 329.979 13.333C330.161 13.4778 330.445 13.5986 330.831 13.6952L331.803 13.9338C332.388 14.0758 332.824 14.2932 333.111 14.5858C333.398 14.8756 333.541 15.2491 333.541 15.7065C333.541 16.0815 333.433 16.4168 333.218 16.7122C333.004 17.0077 332.706 17.2406 332.323 17.4111C331.939 17.5815 331.493 17.6668 330.985 17.6668C330.317 17.6668 329.764 17.5219 329.327 17.2321C328.889 16.9423 328.612 16.519 328.496 15.9622L329.45 15.7236C329.541 16.0759 329.713 16.3401 329.966 16.5162C330.222 16.6923 330.556 16.7804 330.968 16.7804C331.436 16.7804 331.808 16.681 332.084 16.4821C332.362 16.2804 332.502 16.0389 332.502 15.7577C332.502 15.5304 332.422 15.3401 332.263 15.1866C332.104 15.0304 331.86 14.9139 331.53 14.8372L330.439 14.5815C329.84 14.4395 329.399 14.2193 329.118 13.921C328.84 13.6199 328.7 13.2435 328.7 12.7918C328.7 12.4224 328.804 12.0957 329.012 11.8116C329.222 11.5276 329.507 11.3045 329.868 11.1426C330.232 10.9807 330.644 10.8997 331.104 10.8997C331.752 10.8997 332.26 11.0418 332.629 11.3258C333.002 11.6099 333.266 11.9849 333.422 12.4508ZM337.8 17.6668C337.169 17.6668 336.625 17.5276 336.167 17.2491C335.713 16.9679 335.362 16.5759 335.115 16.073C334.871 15.5673 334.748 14.9793 334.748 14.3088C334.748 13.6383 334.871 13.0474 335.115 12.5361C335.362 12.0219 335.706 11.6213 336.146 11.3344C336.589 11.0446 337.106 10.8997 337.697 10.8997C338.038 10.8997 338.375 10.9565 338.707 11.0702C339.04 11.1838 339.342 11.3685 339.615 11.6241C339.888 11.877 340.105 12.2122 340.267 12.6298C340.429 13.0474 340.51 13.5616 340.51 14.1724V14.5986H335.464V13.7293H339.487C339.487 13.3599 339.413 13.0304 339.265 12.7406C339.121 12.4508 338.913 12.2222 338.643 12.0545C338.376 11.8869 338.061 11.8031 337.697 11.8031C337.297 11.8031 336.95 11.9026 336.657 12.1014C336.368 12.2974 336.145 12.5531 335.988 12.8685C335.832 13.1838 335.754 13.5219 335.754 13.8827V14.4622C335.754 14.9565 335.839 15.3756 336.01 15.7193C336.183 16.0602 336.423 16.3202 336.73 16.4991C337.037 16.6753 337.393 16.7634 337.8 16.7634C338.064 16.7634 338.302 16.7264 338.515 16.6526C338.731 16.5759 338.917 16.4622 339.074 16.3116C339.23 16.1582 339.351 15.9679 339.436 15.7406L340.407 16.0134C340.305 16.3429 340.133 16.6327 339.892 16.8827C339.65 17.1298 339.352 17.323 338.997 17.4622C338.642 17.5986 338.243 17.6668 337.8 17.6668ZM344.886 10.9849V11.8372H341.494V10.9849H344.886ZM342.483 9.41676H343.488V15.6554C343.488 15.9395 343.53 16.1526 343.612 16.2946C343.697 16.4338 343.805 16.5276 343.936 16.5759C344.069 16.6213 344.21 16.644 344.358 16.644C344.469 16.644 344.559 16.6384 344.631 16.627C344.702 16.6128 344.758 16.6014 344.801 16.5929L345.006 17.4963C344.937 17.5219 344.842 17.5474 344.72 17.573C344.598 17.6014 344.443 17.6156 344.256 17.6156C343.971 17.6156 343.693 17.5545 343.42 17.4324C343.15 17.3102 342.926 17.1241 342.747 16.8741C342.571 16.6241 342.483 16.3088 342.483 15.9281V9.41676ZM347.132 17.5986C346.922 17.5986 346.741 17.5233 346.591 17.3727C346.44 17.2222 346.365 17.0418 346.365 16.8315C346.365 16.6213 346.44 16.4409 346.591 16.2903C346.741 16.1398 346.922 16.0645 347.132 16.0645C347.342 16.0645 347.523 16.1398 347.673 16.2903C347.824 16.4409 347.899 16.6213 347.899 16.8315C347.899 16.9707 347.863 17.0986 347.792 17.2151C347.724 17.3315 347.632 17.4253 347.515 17.4963C347.402 17.5645 347.274 17.5986 347.132 17.5986ZM349.704 17.5304V10.9849H350.675V11.9736H350.743C350.863 11.6497 351.079 11.3869 351.391 11.1852C351.704 10.9835 352.056 10.8827 352.448 10.8827C352.522 10.8827 352.614 10.8841 352.725 10.8869C352.836 10.8898 352.92 10.894 352.976 10.8997V11.9224C352.942 11.9139 352.864 11.9011 352.742 11.8841C352.623 11.8642 352.496 11.8543 352.363 11.8543C352.045 11.8543 351.76 11.921 351.51 12.0545C351.263 12.1852 351.067 12.367 350.922 12.6C350.78 12.8301 350.709 13.0929 350.709 13.3883V17.5304H349.704ZM356.714 17.6668C356.083 17.6668 355.539 17.5276 355.081 17.2491C354.627 16.9679 354.276 16.5759 354.029 16.073C353.785 15.5673 353.662 14.9793 353.662 14.3088C353.662 13.6383 353.785 13.0474 354.029 12.5361C354.276 12.0219 354.62 11.6213 355.06 11.3344C355.503 11.0446 356.02 10.8997 356.611 10.8997C356.952 10.8997 357.289 10.9565 357.621 11.0702C357.954 11.1838 358.256 11.3685 358.529 11.6241C358.802 11.877 359.019 12.2122 359.181 12.6298C359.343 13.0474 359.424 13.5616 359.424 14.1724V14.5986H354.378V13.7293H358.401C358.401 13.3599 358.327 13.0304 358.18 12.7406C358.035 12.4508 357.827 12.2222 357.557 12.0545C357.29 11.8869 356.975 11.8031 356.611 11.8031C356.211 11.8031 355.864 11.9026 355.572 12.1014C355.282 12.2974 355.059 12.5531 354.903 12.8685C354.746 13.1838 354.668 13.5219 354.668 13.8827V14.4622C354.668 14.9565 354.753 15.3756 354.924 15.7193C355.097 16.0602 355.337 16.3202 355.644 16.4991C355.951 16.6753 356.307 16.7634 356.714 16.7634C356.978 16.7634 357.216 16.7264 357.43 16.6526C357.645 16.5759 357.831 16.4622 357.988 16.3116C358.144 16.1582 358.265 15.9679 358.35 15.7406L359.322 16.0134C359.219 16.3429 359.047 16.6327 358.806 16.8827C358.564 17.1298 358.266 17.323 357.911 17.4622C357.556 17.5986 357.157 17.6668 356.714 17.6668ZM363.596 20.1213C363.11 20.1213 362.692 20.0588 362.343 19.9338C361.993 19.8116 361.702 19.6497 361.469 19.448C361.239 19.2491 361.056 19.0361 360.92 18.8088L361.721 18.2463C361.812 18.3656 361.927 18.502 362.066 18.6554C362.205 18.8116 362.395 18.9466 362.637 19.0602C362.881 19.1767 363.201 19.2349 363.596 19.2349C364.124 19.2349 364.56 19.1071 364.904 18.8514C365.248 18.5957 365.42 18.1952 365.42 17.6497V16.3202H365.334C365.26 16.4395 365.155 16.5872 365.019 16.7634C364.885 16.9366 364.692 17.0915 364.439 17.2278C364.189 17.3614 363.851 17.4281 363.425 17.4281C362.897 17.4281 362.422 17.3031 362.002 17.0531C361.584 16.8031 361.253 16.4395 361.009 15.9622C360.768 15.4849 360.647 14.9054 360.647 14.2236C360.647 13.5531 360.765 12.9693 361.001 12.4722C361.236 11.9722 361.564 11.5858 361.985 11.3131C362.405 11.0375 362.891 10.8997 363.442 10.8997C363.868 10.8997 364.206 10.9707 364.456 11.1128C364.709 11.252 364.903 11.4111 365.036 11.5901C365.172 11.7662 365.278 11.9111 365.351 12.0247H365.454V10.9849H366.425V17.7179C366.425 18.2804 366.297 18.7378 366.042 19.0901C365.789 19.4452 365.448 19.7051 365.019 19.8699C364.593 20.0375 364.118 20.1213 363.596 20.1213ZM363.562 16.5247C363.965 16.5247 364.306 16.4324 364.584 16.2477C364.863 16.0631 365.074 15.7974 365.219 15.4509C365.364 15.1043 365.437 14.6895 365.437 14.2065C365.437 13.7349 365.366 13.3187 365.224 12.958C365.081 12.5972 364.871 12.3145 364.593 12.1099C364.314 11.9054 363.971 11.8031 363.562 11.8031C363.135 11.8031 362.78 11.9111 362.496 12.127C362.215 12.3429 362.003 12.6327 361.861 12.9963C361.722 13.3599 361.653 13.7633 361.653 14.2065C361.653 14.6611 361.724 15.0631 361.866 15.4125C362.01 15.7591 362.224 16.0318 362.505 16.2307C362.789 16.4267 363.141 16.5247 363.562 16.5247ZM368.266 17.5304V10.9849H369.272V17.5304H368.266ZM368.778 9.89403C368.581 9.89403 368.412 9.82727 368.27 9.69375C368.131 9.56023 368.062 9.39971 368.062 9.21221C368.062 9.02471 368.131 8.8642 368.27 8.73068C368.412 8.59716 368.581 8.5304 368.778 8.5304C368.974 8.5304 369.141 8.59716 369.28 8.73068C369.422 8.8642 369.493 9.02471 369.493 9.21221C369.493 9.39971 369.422 9.56023 369.28 9.69375C369.141 9.82727 368.974 9.89403 368.778 9.89403ZM373.773 17.6668C373.182 17.6668 372.664 17.5261 372.218 17.2449C371.774 16.9636 371.428 16.5702 371.178 16.0645C370.931 15.5588 370.807 14.9679 370.807 14.2918C370.807 13.6099 370.931 13.0148 371.178 12.5062C371.428 11.9977 371.774 11.6028 372.218 11.3216C372.664 11.0403 373.182 10.8997 373.773 10.8997C374.364 10.8997 374.881 11.0403 375.324 11.3216C375.77 11.6028 376.117 11.9977 376.364 12.5062C376.614 13.0148 376.739 13.6099 376.739 14.2918C376.739 14.9679 376.614 15.5588 376.364 16.0645C376.117 16.5702 375.77 16.9636 375.324 17.2449C374.881 17.5261 374.364 17.6668 373.773 17.6668ZM373.773 16.7634C374.222 16.7634 374.591 16.6483 374.881 16.4182C375.171 16.1881 375.385 15.8855 375.524 15.5105C375.664 15.1355 375.733 14.7293 375.733 14.2918C375.733 13.8543 375.664 13.4466 375.524 13.0687C375.385 12.6909 375.171 12.3855 374.881 12.1526C374.591 11.9196 374.222 11.8031 373.773 11.8031C373.324 11.8031 372.955 11.9196 372.665 12.1526C372.375 12.3855 372.161 12.6909 372.021 13.0687C371.882 13.4466 371.813 13.8543 371.813 14.2918C371.813 14.7293 371.882 15.1355 372.021 15.5105C372.161 15.8855 372.375 16.1881 372.665 16.4182C372.955 16.6483 373.324 16.7634 373.773 16.7634ZM379.28 13.5929V17.5304H378.274V10.9849H379.246V12.0077H379.331C379.484 11.6753 379.717 11.4082 380.03 11.2065C380.342 11.002 380.746 10.8997 381.24 10.8997C381.683 10.8997 382.071 10.9906 382.403 11.1724C382.736 11.3514 382.994 11.6241 383.179 11.9906C383.363 12.3543 383.456 12.8145 383.456 13.3713V17.5304H382.45V13.4395C382.45 12.9253 382.317 12.5247 382.05 12.2378C381.782 11.948 381.416 11.8031 380.95 11.8031C380.629 11.8031 380.342 11.8727 380.089 12.0119C379.839 12.1511 379.642 12.3543 379.497 12.6213C379.352 12.8883 379.28 13.2122 379.28 13.5929ZM389.93 12.4508L389.026 12.7065C388.97 12.556 388.886 12.4097 388.775 12.2676C388.667 12.1227 388.519 12.0034 388.332 11.9097C388.144 11.8159 387.904 11.769 387.612 11.769C387.211 11.769 386.877 11.8614 386.61 12.046C386.346 12.2278 386.214 12.4594 386.214 12.7406C386.214 12.9906 386.305 13.1881 386.487 13.333C386.669 13.4778 386.953 13.5986 387.339 13.6952L388.311 13.9338C388.896 14.0758 389.332 14.2932 389.619 14.5858C389.906 14.8756 390.049 15.2491 390.049 15.7065C390.049 16.0815 389.941 16.4168 389.725 16.7122C389.512 17.0077 389.214 17.2406 388.83 17.4111C388.447 17.5815 388.001 17.6668 387.492 17.6668C386.825 17.6668 386.272 17.5219 385.835 17.2321C385.397 16.9423 385.12 16.519 385.004 15.9622L385.958 15.7236C386.049 16.0759 386.221 16.3401 386.474 16.5162C386.73 16.6923 387.063 16.7804 387.475 16.7804C387.944 16.7804 388.316 16.681 388.592 16.4821C388.87 16.2804 389.009 16.0389 389.009 15.7577C389.009 15.5304 388.93 15.3401 388.771 15.1866C388.612 15.0304 388.367 14.9139 388.038 14.8372L386.947 14.5815C386.347 14.4395 385.907 14.2193 385.626 13.921C385.347 13.6199 385.208 13.2435 385.208 12.7918C385.208 12.4224 385.312 12.0957 385.519 11.8116C385.73 11.5276 386.015 11.3045 386.376 11.1426C386.74 10.9807 387.151 10.8997 387.612 10.8997C388.259 10.8997 388.768 11.0418 389.137 11.3258C389.509 11.6099 389.774 11.9849 389.93 12.4508Z" fill="black"/>
<path d="M17 176.322V177.43L8.27273 174.225V173.134L17 169.93V171.038L9.65341 173.646V173.714L17 176.322ZM13.5909 175.913V171.447H14.5284V175.913H13.5909ZM10.4545 167.957L13.1307 166.389L10.4545 164.821V163.661L13.7273 165.775L17 163.661V164.821L14.4602 166.389L17 167.957V169.116L13.7273 167.036L10.4545 169.116V167.957ZM17 162.226H10.4545V161.221H17V162.226ZM9.36364 161.715C9.36364 161.911 9.29688 162.08 9.16335 162.222C9.02983 162.361 8.86932 162.431 8.68182 162.431C8.49432 162.431 8.33381 162.361 8.20028 162.222C8.06676 162.08 8 161.911 8 161.715C8 161.519 8.06676 161.351 8.20028 161.212C8.33381 161.07 8.49432 160.999 8.68182 160.999C8.86932 160.999 9.02983 161.07 9.16335 161.212C9.29688 161.351 9.36364 161.519 9.36364 161.715ZM11.9205 154.742L12.1761 155.646C12.0256 155.703 11.8793 155.786 11.7372 155.897C11.5923 156.005 11.473 156.153 11.3793 156.34C11.2855 156.528 11.2386 156.768 11.2386 157.061C11.2386 157.461 11.331 157.795 11.5156 158.062C11.6974 158.326 11.929 158.458 12.2102 158.458C12.4602 158.458 12.6577 158.367 12.8026 158.186C12.9474 158.004 13.0682 157.72 13.1648 157.333L13.4034 156.362C13.5455 155.776 13.7628 155.34 14.0554 155.053C14.3452 154.767 14.7187 154.623 15.1761 154.623C15.5511 154.623 15.8864 154.731 16.1818 154.947C16.4773 155.16 16.7102 155.458 16.8807 155.842C17.0511 156.225 17.1364 156.671 17.1364 157.18C17.1364 157.847 16.9915 158.4 16.7017 158.838C16.4119 159.275 15.9886 159.552 15.4318 159.669L15.1932 158.714C15.5455 158.623 15.8097 158.451 15.9858 158.198C16.1619 157.943 16.25 157.609 16.25 157.197C16.25 156.728 16.1506 156.356 15.9517 156.08C15.75 155.802 15.5085 155.663 15.2273 155.663C15 155.663 14.8097 155.742 14.6563 155.901C14.5 156.061 14.3835 156.305 14.3068 156.634L14.0511 157.725C13.9091 158.325 13.6889 158.765 13.3906 159.046C13.0895 159.325 12.7131 159.464 12.2614 159.464C11.892 159.464 11.5653 159.36 11.2812 159.153C10.9972 158.943 10.7741 158.657 10.6122 158.296C10.4503 157.933 10.3693 157.521 10.3693 157.061C10.3693 156.413 10.5114 155.904 10.7955 155.535C11.0795 155.163 11.4545 154.899 11.9205 154.742ZM17.1193 146.905C17.1193 147.547 16.9446 148.094 16.5952 148.545C16.2429 148.997 15.733 149.342 15.0653 149.581C14.3949 149.819 13.5852 149.939 12.6364 149.939C11.6932 149.939 10.8878 149.819 10.2202 149.581C9.54972 149.339 9.03835 148.993 8.68608 148.541C8.33097 148.086 8.15341 147.541 8.15341 146.905C8.15341 146.268 8.33097 145.724 8.68608 145.273C9.03835 144.818 9.54972 144.471 10.2202 144.233C10.8878 143.991 11.6932 143.871 12.6364 143.871C13.5852 143.871 14.3949 143.99 15.0653 144.229C15.733 144.467 16.2429 144.812 16.5952 145.264C16.9446 145.716 17.1193 146.263 17.1193 146.905ZM16.1818 146.905C16.1818 146.268 15.875 145.774 15.2614 145.422C14.6477 145.069 13.7727 144.893 12.6364 144.893C11.8807 144.893 11.2372 144.974 10.706 145.136C10.1747 145.295 9.76989 145.525 9.49148 145.827C9.21307 146.125 9.07386 146.484 9.07386 146.905C9.07386 147.535 9.38494 148.028 10.0071 148.383C10.6264 148.738 11.5028 148.916 12.6364 148.916C13.392 148.916 14.0341 148.836 14.5625 148.677C15.0909 148.518 15.4929 148.29 15.7685 147.991C16.044 147.69 16.1818 147.328 16.1818 146.905ZM15.8835 141.501C15.8835 141.711 15.8082 141.892 15.6577 142.042C15.5071 142.193 15.3267 142.268 15.1165 142.268C14.9062 142.268 14.7259 142.193 14.5753 142.042C14.4247 141.892 14.3494 141.711 14.3494 141.501C14.3494 141.291 14.4247 141.111 14.5753 140.96C14.7259 140.809 14.9062 140.734 15.1165 140.734C15.2557 140.734 15.3835 140.77 15.5 140.841C15.6165 140.909 15.7102 141.001 15.7813 141.118C15.8494 141.231 15.8835 141.359 15.8835 141.501ZM11.4688 141.501C11.4688 141.711 11.3935 141.892 11.2429 142.042C11.0923 142.193 10.9119 142.268 10.7017 142.268C10.4915 142.268 10.3111 142.193 10.1605 142.042C10.0099 141.892 9.93466 141.711 9.93466 141.501C9.93466 141.291 10.0099 141.111 10.1605 140.96C10.3111 140.809 10.4915 140.734 10.7017 140.734C10.8409 140.734 10.9688 140.77 11.0852 140.841C11.2017 140.909 11.2955 141.001 11.3665 141.118C11.4347 141.231 11.4688 141.359 11.4688 141.501ZM17 135.555H10.4545V134.583H11.4432V134.515C11.1193 134.395 10.8565 134.18 10.6548 133.867C10.4531 133.555 10.3523 133.202 10.3523 132.81C10.3523 132.736 10.3537 132.644 10.3565 132.533C10.3594 132.422 10.3636 132.339 10.3693 132.282H11.392C11.3835 132.316 11.3707 132.394 11.3537 132.516C11.3338 132.635 11.3239 132.762 11.3239 132.895C11.3239 133.214 11.3906 133.498 11.5241 133.748C11.6548 133.995 11.8366 134.191 12.0696 134.336C12.2997 134.478 12.5625 134.549 12.858 134.549H17V135.555ZM17.1364 128.545C17.1364 129.175 16.9972 129.719 16.7188 130.177C16.4375 130.631 16.0455 130.982 15.5426 131.229C15.0369 131.474 14.4489 131.596 13.7784 131.596C13.108 131.596 12.517 131.474 12.0057 131.229C11.4915 130.982 11.0909 130.638 10.804 130.198C10.5142 129.755 10.3693 129.238 10.3693 128.647C10.3693 128.306 10.4261 127.969 10.5398 127.637C10.6534 127.305 10.8381 127.002 11.0938 126.729C11.3466 126.457 11.6818 126.239 12.0994 126.077C12.517 125.915 13.0312 125.834 13.642 125.834H14.0682V130.88H13.1989V126.857C12.8295 126.857 12.5 126.931 12.2102 127.079C11.9205 127.224 11.6918 127.431 11.5241 127.701C11.3565 127.968 11.2727 128.283 11.2727 128.647C11.2727 129.047 11.3722 129.394 11.571 129.687C11.767 129.976 12.0227 130.199 12.3381 130.356C12.6534 130.512 12.9915 130.59 13.3523 130.59H13.9318C14.4261 130.59 14.8452 130.505 15.1889 130.334C15.5298 130.161 15.7898 129.921 15.9688 129.614C16.1449 129.307 16.233 128.951 16.233 128.545C16.233 128.28 16.196 128.042 16.1222 127.829C16.0455 127.613 15.9318 127.427 15.7813 127.27C15.6278 127.114 15.4375 126.993 15.2102 126.908L15.483 125.937C15.8125 126.039 16.1023 126.211 16.3523 126.452C16.5994 126.694 16.7926 126.992 16.9318 127.347C17.0682 127.702 17.1364 128.101 17.1364 128.545ZM19.5909 121.662C19.5909 122.148 19.5284 122.566 19.4034 122.915C19.2813 123.265 19.1193 123.556 18.9176 123.789C18.7188 124.019 18.5057 124.202 18.2784 124.339L17.7159 123.537C17.8352 123.447 17.9716 123.332 18.125 123.192C18.2813 123.053 18.4162 122.863 18.5298 122.621C18.6463 122.377 18.7045 122.057 18.7045 121.662C18.7045 121.134 18.5767 120.698 18.321 120.354C18.0653 120.01 17.6648 119.839 17.1193 119.839H15.7898V119.924C15.9091 119.998 16.0568 120.103 16.233 120.239C16.4063 120.373 16.5611 120.566 16.6974 120.819C16.831 121.069 16.8977 121.407 16.8977 121.833C16.8977 122.361 16.7727 122.836 16.5227 123.256C16.2727 123.674 15.9091 124.005 15.4318 124.249C14.9545 124.491 14.375 124.611 13.6932 124.611C13.0227 124.611 12.4389 124.493 11.9418 124.258C11.4418 124.022 11.0554 123.694 10.7827 123.273C10.5071 122.853 10.3693 122.367 10.3693 121.816C10.3693 121.39 10.4403 121.052 10.5824 120.802C10.7216 120.549 10.8807 120.356 11.0597 120.222C11.2358 120.086 11.3807 119.981 11.4943 119.907V119.805H10.4545V118.833H17.1875C17.75 118.833 18.2074 118.961 18.5597 119.216C18.9148 119.469 19.1747 119.81 19.3395 120.239C19.5071 120.665 19.5909 121.14 19.5909 121.662ZM15.9943 121.697C15.9943 121.293 15.902 120.952 15.7173 120.674C15.5327 120.395 15.267 120.184 14.9205 120.039C14.5739 119.894 14.1591 119.822 13.6761 119.822C13.2045 119.822 12.7884 119.893 12.4276 120.035C12.0668 120.177 11.7841 120.387 11.5795 120.665C11.375 120.944 11.2727 121.287 11.2727 121.697C11.2727 122.123 11.3807 122.478 11.5966 122.762C11.8125 123.043 12.1023 123.255 12.4659 123.397C12.8295 123.536 13.233 123.606 13.6761 123.606C14.1307 123.606 14.5327 123.535 14.8821 123.393C15.2287 123.248 15.5014 123.035 15.7003 122.753C15.8963 122.469 15.9943 122.117 15.9943 121.697ZM17 116.992H10.4545V115.986H17V116.992ZM9.36364 116.481C9.36364 116.677 9.29688 116.846 9.16335 116.988C9.02983 117.127 8.86932 117.197 8.68182 117.197C8.49432 117.197 8.33381 117.127 8.20028 116.988C8.06676 116.846 8 116.677 8 116.481C8 116.285 8.06676 116.117 8.20028 115.978C8.33381 115.836 8.49432 115.765 8.68182 115.765C8.86932 115.765 9.02983 115.836 9.16335 115.978C9.29688 116.117 9.36364 116.285 9.36364 116.481ZM17.1364 111.485C17.1364 112.076 16.9957 112.595 16.7145 113.041C16.4332 113.484 16.0398 113.83 15.5341 114.08C15.0284 114.328 14.4375 114.451 13.7614 114.451C13.0795 114.451 12.4844 114.328 11.9759 114.08C11.4673 113.83 11.0724 113.484 10.7912 113.041C10.5099 112.595 10.3693 112.076 10.3693 111.485C10.3693 110.894 10.5099 110.377 10.7912 109.934C11.0724 109.488 11.4673 109.142 11.9759 108.894C12.4844 108.644 13.0795 108.519 13.7614 108.519C14.4375 108.519 15.0284 108.644 15.5341 108.894C16.0398 109.142 16.4332 109.488 16.7145 109.934C16.9957 110.377 17.1364 110.894 17.1364 111.485ZM16.233 111.485C16.233 111.036 16.1179 110.667 15.8878 110.377C15.6577 110.088 15.3551 109.873 14.9801 109.734C14.6051 109.595 14.1989 109.525 13.7614 109.525C13.3239 109.525 12.9162 109.595 12.5384 109.734C12.1605 109.873 11.8551 110.088 11.6222 110.377C11.3892 110.667 11.2727 111.036 11.2727 111.485C11.2727 111.934 11.3892 112.303 11.6222 112.593C11.8551 112.883 12.1605 113.097 12.5384 113.237C12.9162 113.376 13.3239 113.446 13.7614 113.446C14.1989 113.446 14.6051 113.376 14.9801 113.237C15.3551 113.097 15.6577 112.883 15.8878 112.593C16.1179 112.303 16.233 111.934 16.233 111.485ZM13.0625 105.979H17V106.984H10.4545V106.013H11.4773V105.927C11.1449 105.774 10.8778 105.541 10.6761 105.229C10.4716 104.916 10.3693 104.513 10.3693 104.018C10.3693 103.575 10.4602 103.187 10.642 102.855C10.821 102.523 11.0938 102.264 11.4602 102.079C11.8239 101.895 12.2841 101.802 12.8409 101.802H17V102.808H12.9091C12.3949 102.808 11.9943 102.942 11.7074 103.209C11.4176 103.476 11.2727 103.842 11.2727 104.308C11.2727 104.629 11.3423 104.916 11.4815 105.169C11.6207 105.419 11.8239 105.616 12.0909 105.761C12.358 105.906 12.6818 105.979 13.0625 105.979ZM11.9205 95.3283L12.1761 96.2317C12.0256 96.2885 11.8793 96.3723 11.7372 96.4831C11.5923 96.5911 11.473 96.7388 11.3793 96.9263C11.2855 97.1138 11.2386 97.3539 11.2386 97.6465C11.2386 98.0471 11.331 98.3809 11.5156 98.6479C11.6974 98.9121 11.929 99.0442 12.2102 99.0442C12.4602 99.0442 12.6577 98.9533 12.8026 98.7715C12.9474 98.5897 13.0682 98.3056 13.1648 97.9192L13.4034 96.9476C13.5455 96.3624 13.7628 95.9263 14.0554 95.6394C14.3452 95.3525 14.7187 95.209 15.1761 95.209C15.5511 95.209 15.8864 95.3169 16.1818 95.5329C16.4773 95.7459 16.7102 96.0442 16.8807 96.4277C17.0511 96.8113 17.1364 97.2573 17.1364 97.7658C17.1364 98.4334 16.9915 98.986 16.7017 99.4235C16.4119 99.861 15.9886 100.138 15.4318 100.254L15.1932 99.2999C15.5455 99.209 15.8097 99.0371 15.9858 98.7843C16.1619 98.5286 16.25 98.1948 16.25 97.7829C16.25 97.3141 16.1506 96.9419 15.9517 96.6664C15.75 96.388 15.5085 96.2488 15.2273 96.2488C15 96.2488 14.8097 96.3283 14.6563 96.4874C14.5 96.6465 14.3835 96.8908 14.3068 97.2204L14.0511 98.3113C13.9091 98.9107 13.6889 99.351 13.3906 99.6323C13.0895 99.9107 12.7131 100.05 12.2614 100.05C11.892 100.05 11.5653 99.9462 11.2813 99.7388C10.9972 99.5286 10.7741 99.2431 10.6122 98.8823C10.4503 98.5187 10.3693 98.1067 10.3693 97.6465C10.3693 96.9988 10.5114 96.4902 10.7955 96.1209C11.0795 95.7488 11.4545 95.4846 11.9205 95.3283Z" fill="black"/>
<path d="M51 38.7367H91V78.7367H51V38.7367Z" fill="#D9D9D9"/>
<path d="M75 60.7367H115V100.737H75V60.7367Z" fill="#D9D9D9"/>
<path d="M91 38.7367L115 60.7367V100.737L91 78.7367V38.7367Z" fill="#CDCDCD"/>
<path d="M51 78.7367H91L115 100.737H75L51 78.7367Z" fill="#9D9D9D"/>
<path d="M98.5 45.9472H138.5V85.9472H98.5V45.9472Z" fill="#D9D9D9"/>
<path d="M115 60.7367H155V100.737H115V60.7367Z" fill="#D9D9D9"/>
<path d="M138.5 45.9472L155 60.7367V100.737L138.5 85.9472V45.9472Z" fill="#CDCDCD"/>
<path d="M98.5 85.9472H138.5L155 100.737H115L98.5 85.9472Z" fill="#9D9D9D"/>
<path d="M121 28.7367H161V68.7367H121V28.7367Z" fill="#D9D9D9"/>
<path d="M155 60.7367H195V100.737H155V60.7367Z" fill="#D9D9D9"/>
<path d="M161 28.7367L195 60.7367V100.737L161 68.7367V28.7367Z" fill="#CDCDCD"/>
<path d="M121 68.7367H161L195 100.737H155L121 68.7367Z" fill="#9D9D9D"/>
<path d="M184.5 51.7922H224.5V91.7922H184.5V51.7922Z" fill="#D9D9D9"/>
<path d="M195 60.7367H235V100.737H195V60.7367Z" fill="#D9D9D9"/>
<path d="M224.5 51.7922L235 60.7367V100.737L224.5 91.7922V51.7922Z" fill="#CDCDCD"/>
<path d="M184.5 91.7922H224.5L235 100.737H195L184.5 91.7922Z" fill="#9D9D9D"/>
<path d="M64.5 90.7922H104.5V130.792H64.5V90.7922Z" fill="#D9D9D9"/>
<path d="M75 99.7367H115V139.737H75V99.7367Z" fill="#D9D9D9"/>
<path d="M104.5 90.7922L115 99.7367V139.737L104.5 130.792V90.7922Z" fill="#CDCDCD"/>
<path d="M64.5 130.792H104.5L115 139.737H75L64.5 130.792Z" fill="#9D9D9D"/>
<path d="M91 77.7367H131V117.737H91V77.7367Z" fill="#D9D9D9"/>
<path d="M115 99.7367H155V139.737H115V99.7367Z" fill="#D9D9D9"/>
<path d="M131 77.7367L155 99.7367V139.737L131 117.737V77.7367Z" fill="#CDCDCD"/>
<path d="M91 117.737H131L155 139.737H115L91 117.737Z" fill="#9D9D9D"/>
<path d="M138.5 84.9472H178.5V124.947H138.5V84.9472Z" fill="#D9D9D9"/>
<path d="M155 99.7367H195V139.737H155V99.7367Z" fill="#D9D9D9"/>
<path d="M178.5 84.9472L195 99.7367V139.737L178.5 124.947V84.9472Z" fill="#CDCDCD"/>
<path d="M138.5 124.947H178.5L195 139.737H155L138.5 124.947Z" fill="#9D9D9D"/>
<path d="M161 67.7367H201V107.737H161V67.7367Z" fill="#D9D9D9"/>
<path d="M195 99.7367H235V139.737H195V99.7367Z" fill="#D9D9D9"/>
<path d="M201 67.7367L235 99.7367V139.737L201 107.737V67.7367Z" fill="#CDCDCD"/>
<path d="M161 107.737H201L235 139.737H195L161 107.737Z" fill="#9D9D9D"/>
<path d="M58.5 123.947H98.5V163.947H58.5V123.947Z" fill="#D9D9D9"/>
<path d="M75 138.737H115V178.737H75V138.737Z" fill="#D9D9D9"/>
<path d="M98.5 123.947L115 138.737V178.737L98.5 163.947V123.947Z" fill="#CDCDCD"/>
<path d="M58.5 163.947H98.5L115 178.737H75L58.5 163.947Z" fill="#9D9D9D"/>
<path d="M104.5 129.792H144.5V169.792H104.5V129.792Z" fill="#D9D9D9"/>
<path d="M115 138.737H155V178.737H115V138.737Z" fill="#D9D9D9"/>
<path d="M144.5 129.792L155 138.737V178.737L144.5 169.792V129.792Z" fill="#CDCDCD"/>
<path d="M104.5 169.792H144.5L155 178.737H115L104.5 169.792Z" fill="#9D9D9D"/>
<path d="M121 106.737H161V146.737H121V106.737Z" fill="#D9D9D9"/>
<path d="M155 138.737H195V178.737H155V138.737Z" fill="#D9D9D9"/>
<path d="M161 106.737L195 138.737V178.737L161 146.737V106.737Z" fill="#CDCDCD"/>
<path d="M121 146.737H161L195 178.737H155L121 146.737Z" fill="#9D9D9D"/>
<path d="M171 116.737H211V156.737H171V116.737Z" fill="#D9D9D9"/>
<path d="M195 138.737H235V178.737H195V138.737Z" fill="#D9D9D9"/>
<path d="M211 116.737L235 138.737V178.737L211 156.737V116.737Z" fill="#CDCDCD"/>
<path d="M171 156.737H211L235 178.737H195L171 156.737Z" fill="#9D9D9D"/>
<path d="M41 145.737H81V185.737H41V145.737Z" fill="#D9D9D9"/>
<path d="M75 177.737H115V217.737H75V177.737Z" fill="#D9D9D9"/>
<path d="M81 145.737L115 177.737V217.737L81 185.737V145.737Z" fill="#CDCDCD"/>
<path d="M41 185.737H81L115 217.737H75L41 185.737Z" fill="#9D9D9D"/>
<path d="M98.5 162.947H138.5V202.947H98.5V162.947Z" fill="#D9D9D9"/>
<path d="M115 177.737H155V217.737H115V177.737Z" fill="#D9D9D9"/>
<path d="M138.5 162.947L155 177.737V217.737L138.5 202.947V162.947Z" fill="#CDCDCD"/>
<path d="M98.5 202.947H138.5L155 217.737H115L98.5 202.947Z" fill="#9D9D9D"/>
<path d="M131 155.737H171V195.737H131V155.737Z" fill="#D9D9D9"/>
<path d="M155 177.737H195V217.737H155V177.737Z" fill="#D9D9D9"/>
<path d="M171 155.737L195 177.737V217.737L171 195.737V155.737Z" fill="#CDCDCD"/>
<path d="M131 195.737H171L195 217.737H155L131 195.737Z" fill="#9D9D9D"/>
<path d="M184.5 168.792H224.5V208.792H184.5V168.792Z" fill="#D9D9D9"/>
<path d="M195 177.737H235V217.737H195V177.737Z" fill="#D9D9D9"/>
<path d="M224.5 168.792L235 177.737V217.737L224.5 208.792V168.792Z" fill="#CDCDCD"/>
<path d="M184.5 208.792H224.5L235 217.737H195L184.5 208.792Z" fill="#9D9D9D"/>
<rect x="257.5" y="39.2367" width="187" height="178" rx="9.5" stroke="black"/>
<path d="M265.58 55.8731C264.966 55.8731 264.438 55.7282 263.994 55.4384C263.551 55.1486 263.21 54.7495 262.972 54.241C262.733 53.7324 262.614 53.1515 262.614 52.4981C262.614 51.8333 262.736 51.2466 262.98 50.7381C263.227 50.2268 263.571 49.8276 264.011 49.5407C264.455 49.2509 264.972 49.106 265.562 49.106C266.023 49.106 266.438 49.1912 266.807 49.3617C267.176 49.5321 267.479 49.7708 267.714 50.0776C267.95 50.3844 268.097 50.7424 268.153 51.1515H267.148C267.071 50.8532 266.901 50.589 266.636 50.3589C266.375 50.1259 266.023 50.0094 265.58 50.0094C265.188 50.0094 264.844 50.1117 264.548 50.3162C264.256 50.5179 264.027 50.8035 263.862 51.1728C263.7 51.5393 263.619 51.9696 263.619 52.464C263.619 52.9696 263.699 53.41 263.858 53.785C264.02 54.16 264.247 54.4512 264.54 54.6586C264.835 54.866 265.182 54.9696 265.58 54.9696C265.841 54.9696 266.078 54.9242 266.291 54.8333C266.504 54.7424 266.685 54.6117 266.832 54.4412C266.98 54.2708 267.085 54.0662 267.148 53.8276H268.153C268.097 54.214 267.956 54.562 267.732 54.8716C267.51 55.1785 267.216 55.4228 266.849 55.6046C266.486 55.7836 266.063 55.8731 265.58 55.8731ZM270.629 51.7992V55.7367H269.624V47.0094H270.629V50.214H270.714C270.868 49.8759 271.098 49.6074 271.405 49.4086C271.714 49.2069 272.126 49.106 272.641 49.106C273.087 49.106 273.477 49.1955 273.812 49.3745C274.148 49.5506 274.408 49.8219 274.592 50.1884C274.78 50.552 274.874 51.0151 274.874 51.5776V55.7367H273.868V51.6458C273.868 51.1259 273.733 50.7239 273.463 50.4398C273.196 50.1529 272.825 50.0094 272.351 50.0094C272.021 50.0094 271.726 50.079 271.464 50.2182C271.206 50.3574 271.001 50.5606 270.851 50.8276C270.703 51.0946 270.629 51.4185 270.629 51.7992ZM276.713 55.7367V49.1912H277.685V50.1799H277.753C277.873 49.856 278.088 49.5932 278.401 49.3915C278.713 49.1898 279.066 49.089 279.458 49.089C279.532 49.089 279.624 49.0904 279.735 49.0932C279.846 49.0961 279.929 49.1003 279.986 49.106V50.1287C279.952 50.1202 279.874 50.1074 279.752 50.0904C279.632 50.0705 279.506 50.0606 279.373 50.0606C279.054 50.0606 278.77 50.1273 278.52 50.2608C278.273 50.3915 278.077 50.5733 277.932 50.8063C277.79 51.0364 277.719 51.2992 277.719 51.5946V55.7367H276.713ZM283.638 55.8731C283.047 55.8731 282.529 55.7324 282.083 55.4512C281.64 55.1699 281.293 54.7765 281.043 54.2708C280.796 53.7651 280.672 53.1742 280.672 52.4981C280.672 51.8162 280.796 51.2211 281.043 50.7125C281.293 50.204 281.64 49.8091 282.083 49.5279C282.529 49.2466 283.047 49.106 283.638 49.106C284.229 49.106 284.746 49.2466 285.189 49.5279C285.635 49.8091 285.982 50.204 286.229 50.7125C286.479 51.2211 286.604 51.8162 286.604 52.4981C286.604 53.1742 286.479 53.7651 286.229 54.2708C285.982 54.7765 285.635 55.1699 285.189 55.4512C284.746 55.7324 284.229 55.8731 283.638 55.8731ZM283.638 54.9696C284.087 54.9696 284.456 54.8546 284.746 54.6245C285.036 54.3944 285.25 54.0918 285.39 53.7168C285.529 53.3418 285.598 52.9356 285.598 52.4981C285.598 52.0606 285.529 51.6529 285.39 51.275C285.25 50.8972 285.036 50.5918 284.746 50.3589C284.456 50.1259 284.087 50.0094 283.638 50.0094C283.189 50.0094 282.82 50.1259 282.53 50.3589C282.24 50.5918 282.026 50.8972 281.887 51.275C281.748 51.6529 281.678 52.0606 281.678 52.4981C281.678 52.9356 281.748 53.3418 281.887 53.7168C282.026 54.0918 282.24 54.3944 282.53 54.6245C282.82 54.8546 283.189 54.9696 283.638 54.9696ZM288.139 55.7367V49.1912H289.111V50.214H289.196C289.332 49.8645 289.553 49.5932 289.857 49.4C290.161 49.204 290.526 49.106 290.952 49.106C291.384 49.106 291.743 49.204 292.03 49.4C292.32 49.5932 292.545 49.8645 292.707 50.214H292.776C292.943 49.8759 293.195 49.6074 293.53 49.4086C293.865 49.2069 294.267 49.106 294.736 49.106C295.321 49.106 295.8 49.2893 296.172 49.6557C296.544 50.0194 296.73 50.5861 296.73 51.356V55.7367H295.724V51.356C295.724 50.8731 295.592 50.5279 295.328 50.3205C295.064 50.1131 294.753 50.0094 294.395 50.0094C293.935 50.0094 293.578 50.1486 293.325 50.427C293.072 50.7026 292.946 51.052 292.946 51.4753V55.7367H291.923V51.2537C291.923 50.8816 291.803 50.5819 291.561 50.3546C291.32 50.1245 291.009 50.0094 290.628 50.0094C290.366 50.0094 290.122 50.079 289.895 50.2182C289.67 50.3574 289.489 50.5506 289.349 50.7978C289.213 51.0421 289.145 51.3248 289.145 51.6458V55.7367H288.139Z" fill="black"/>
<path d="M279.699 82.606C279.114 82.606 278.597 82.5023 278.148 82.2949C277.702 82.0847 277.354 81.7964 277.104 81.4299C276.854 81.0606 276.73 80.6401 276.733 80.1685C276.73 79.7992 276.803 79.4583 276.95 79.1458C277.098 78.8304 277.3 78.5677 277.555 78.3574C277.814 78.1444 278.102 78.0094 278.42 77.9526V77.9015C278.003 77.7935 277.67 77.5591 277.423 77.1983C277.176 76.8347 277.054 76.4214 277.057 75.9583C277.054 75.5151 277.166 75.1188 277.393 74.7694C277.621 74.4199 277.933 74.1444 278.331 73.9427C278.732 73.741 279.188 73.6401 279.699 73.6401C280.205 73.6401 280.656 73.741 281.054 73.9427C281.452 74.1444 281.764 74.4199 281.991 74.7694C282.222 75.1188 282.338 75.5151 282.341 75.9583C282.338 76.4214 282.212 76.8347 281.962 77.1983C281.714 77.5591 281.386 77.7935 280.977 77.9015V77.9526C281.293 78.0094 281.577 78.1444 281.83 78.3574C282.082 78.5677 282.284 78.8304 282.435 79.1458C282.585 79.4583 282.662 79.7992 282.665 80.1685C282.662 80.6401 282.534 81.0606 282.281 81.4299C282.031 81.7964 281.683 82.0847 281.237 82.2949C280.794 82.5023 280.281 82.606 279.699 82.606ZM279.699 81.6685C280.094 81.6685 280.435 81.6046 280.722 81.4768C281.009 81.3489 281.23 81.1685 281.386 80.9356C281.543 80.7026 281.622 80.4299 281.625 80.1174C281.622 79.7878 281.537 79.4966 281.369 79.2438C281.202 78.991 280.973 78.7921 280.683 78.6472C280.396 78.5023 280.068 78.4299 279.699 78.4299C279.327 78.4299 278.994 78.5023 278.702 78.6472C278.412 78.7921 278.183 78.991 278.016 79.2438C277.851 79.4966 277.77 79.7878 277.773 80.1174C277.77 80.4299 277.845 80.7026 277.999 80.9356C278.155 81.1685 278.378 81.3489 278.668 81.4768C278.957 81.6046 279.301 81.6685 279.699 81.6685ZM279.699 77.5265C280.011 77.5265 280.288 77.464 280.53 77.339C280.774 77.214 280.966 77.0393 281.105 76.8148C281.244 76.5904 281.315 76.3276 281.318 76.0265C281.315 75.731 281.246 75.4739 281.109 75.2552C280.973 75.0336 280.784 74.8631 280.543 74.7438C280.301 74.6216 280.02 74.5606 279.699 74.5606C279.372 74.5606 279.087 74.6216 278.842 74.7438C278.598 74.8631 278.409 75.0336 278.276 75.2552C278.142 75.4739 278.077 75.731 278.08 76.0265C278.077 76.3276 278.143 76.5904 278.28 76.8148C278.419 77.0393 278.611 77.214 278.855 77.339C279.099 77.464 279.381 77.5265 279.699 77.5265Z" fill="black"/>
<path d="M279.852 121.106C279.29 121.106 278.788 121.009 278.348 120.816C277.911 120.623 277.563 120.355 277.304 120.011C277.048 119.664 276.909 119.262 276.886 118.805H277.96C277.983 119.086 278.08 119.329 278.25 119.534C278.42 119.735 278.643 119.892 278.919 120.002C279.195 120.113 279.5 120.169 279.835 120.169C280.21 120.169 280.543 120.103 280.832 119.972C281.122 119.842 281.349 119.66 281.514 119.427C281.679 119.194 281.761 118.924 281.761 118.617C281.761 118.296 281.682 118.014 281.523 117.769C281.364 117.522 281.131 117.329 280.824 117.19C280.517 117.051 280.142 116.981 279.699 116.981H279V116.044H279.699C280.045 116.044 280.349 115.981 280.611 115.856C280.875 115.731 281.081 115.555 281.229 115.328C281.379 115.1 281.455 114.833 281.455 114.526C281.455 114.231 281.389 113.974 281.259 113.755C281.128 113.536 280.943 113.366 280.705 113.244C280.469 113.122 280.19 113.061 279.869 113.061C279.568 113.061 279.284 113.116 279.017 113.227C278.753 113.335 278.537 113.492 278.369 113.7C278.202 113.904 278.111 114.151 278.097 114.441H277.074C277.091 113.984 277.229 113.583 277.487 113.24C277.746 112.893 278.084 112.623 278.501 112.43C278.922 112.237 279.384 112.14 279.886 112.14C280.426 112.14 280.889 112.249 281.276 112.468C281.662 112.684 281.959 112.97 282.166 113.325C282.374 113.68 282.477 114.063 282.477 114.475C282.477 114.967 282.348 115.386 282.089 115.732C281.834 116.079 281.486 116.319 281.045 116.453V116.521C281.597 116.612 282.027 116.846 282.337 117.224C282.646 117.599 282.801 118.063 282.801 118.617C282.801 119.092 282.672 119.518 282.413 119.896C282.158 120.271 281.808 120.566 281.365 120.782C280.922 120.998 280.418 121.106 279.852 121.106Z" fill="black"/>
<path d="M279.801 159.606C279.443 159.6 279.085 159.532 278.727 159.401C278.369 159.271 278.043 159.051 277.747 158.741C277.452 158.428 277.214 158.007 277.036 157.475C276.857 156.941 276.767 156.271 276.767 155.464C276.767 154.691 276.839 154.007 276.984 153.41C277.129 152.811 277.339 152.306 277.615 151.897C277.891 151.485 278.223 151.173 278.612 150.96C279.004 150.747 279.446 150.64 279.938 150.64C280.426 150.64 280.861 150.738 281.241 150.934C281.625 151.127 281.938 151.397 282.179 151.744C282.42 152.09 282.577 152.49 282.648 152.941H281.608C281.511 152.549 281.324 152.224 281.045 151.965C280.767 151.707 280.398 151.578 279.938 151.578C279.261 151.578 278.729 151.872 278.339 152.46C277.953 153.048 277.759 153.873 277.756 154.936H277.824C277.983 154.694 278.172 154.488 278.391 154.318C278.612 154.144 278.857 154.011 279.124 153.917C279.391 153.823 279.673 153.776 279.972 153.776C280.472 153.776 280.929 153.901 281.344 154.151C281.759 154.399 282.091 154.741 282.341 155.178C282.591 155.613 282.716 156.112 282.716 156.674C282.716 157.214 282.595 157.708 282.354 158.157C282.112 158.603 281.773 158.958 281.335 159.222C280.901 159.484 280.389 159.612 279.801 159.606ZM279.801 158.669C280.159 158.669 280.48 158.579 280.764 158.4C281.051 158.221 281.277 157.981 281.442 157.68C281.609 157.379 281.693 157.044 281.693 156.674C281.693 156.313 281.612 155.985 281.45 155.69C281.291 155.392 281.071 155.154 280.79 154.978C280.511 154.802 280.193 154.714 279.835 154.714C279.565 154.714 279.314 154.768 279.081 154.876C278.848 154.981 278.643 155.126 278.467 155.311C278.294 155.495 278.158 155.707 278.058 155.946C277.959 156.181 277.909 156.43 277.909 156.691C277.909 157.038 277.99 157.362 278.152 157.663C278.317 157.964 278.541 158.207 278.825 158.392C279.112 158.576 279.438 158.669 279.801 158.669Z" fill="black"/>
<path d="M276.903 197.987V197.22L279.784 194.066C280.122 193.697 280.401 193.376 280.619 193.103C280.838 192.828 281 192.569 281.105 192.328C281.213 192.083 281.267 191.828 281.267 191.561C281.267 191.254 281.193 190.988 281.045 190.764C280.901 190.539 280.702 190.366 280.449 190.244C280.196 190.122 279.912 190.061 279.597 190.061C279.261 190.061 278.969 190.13 278.719 190.269C278.472 190.406 278.28 190.597 278.143 190.845C278.01 191.092 277.943 191.382 277.943 191.714H276.938C276.938 191.203 277.055 190.754 277.291 190.367C277.527 189.981 277.848 189.68 278.254 189.464C278.663 189.248 279.122 189.14 279.631 189.14C280.142 189.14 280.595 189.248 280.99 189.464C281.385 189.68 281.695 189.971 281.919 190.338C282.143 190.704 282.256 191.112 282.256 191.561C282.256 191.882 282.197 192.196 282.081 192.502C281.967 192.806 281.768 193.146 281.484 193.521C281.203 193.893 280.812 194.347 280.312 194.884L278.352 196.981V197.049H282.409V197.987H276.903Z" fill="black"/>
<path d="M311.58 55.8731C310.966 55.8731 310.438 55.7282 309.994 55.4384C309.551 55.1486 309.21 54.7495 308.972 54.241C308.733 53.7324 308.614 53.1515 308.614 52.4981C308.614 51.8333 308.736 51.2466 308.98 50.7381C309.227 50.2268 309.571 49.8276 310.011 49.5407C310.455 49.2509 310.972 49.106 311.562 49.106C312.023 49.106 312.438 49.1912 312.807 49.3617C313.176 49.5321 313.479 49.7708 313.714 50.0776C313.95 50.3844 314.097 50.7424 314.153 51.1515H313.148C313.071 50.8532 312.901 50.589 312.636 50.3589C312.375 50.1259 312.023 50.0094 311.58 50.0094C311.188 50.0094 310.844 50.1117 310.548 50.3162C310.256 50.5179 310.027 50.8035 309.862 51.1728C309.7 51.5393 309.619 51.9696 309.619 52.464C309.619 52.9696 309.699 53.41 309.858 53.785C310.02 54.16 310.247 54.4512 310.54 54.6586C310.835 54.866 311.182 54.9696 311.58 54.9696C311.841 54.9696 312.078 54.9242 312.291 54.8333C312.504 54.7424 312.685 54.6117 312.832 54.4412C312.98 54.2708 313.085 54.0662 313.148 53.8276H314.153C314.097 54.214 313.956 54.562 313.732 54.8716C313.51 55.1785 313.216 55.4228 312.849 55.6046C312.486 55.7836 312.063 55.8731 311.58 55.8731ZM316.629 51.7992V55.7367H315.624V47.0094H316.629V50.214H316.714C316.868 49.8759 317.098 49.6074 317.405 49.4086C317.714 49.2069 318.126 49.106 318.641 49.106C319.087 49.106 319.477 49.1955 319.812 49.3745C320.148 49.5506 320.408 49.8219 320.592 50.1884C320.78 50.552 320.874 51.0151 320.874 51.5776V55.7367H319.868V51.6458C319.868 51.1259 319.733 50.7239 319.463 50.4398C319.196 50.1529 318.825 50.0094 318.351 50.0094C318.021 50.0094 317.726 50.079 317.464 50.2182C317.206 50.3574 317.001 50.5606 316.851 50.8276C316.703 51.0946 316.629 51.4185 316.629 51.7992ZM322.713 55.7367V49.1912H323.685V50.1799H323.753C323.873 49.856 324.088 49.5932 324.401 49.3915C324.713 49.1898 325.066 49.089 325.458 49.089C325.532 49.089 325.624 49.0904 325.735 49.0932C325.846 49.0961 325.929 49.1003 325.986 49.106V50.1287C325.952 50.1202 325.874 50.1074 325.752 50.0904C325.632 50.0705 325.506 50.0606 325.373 50.0606C325.054 50.0606 324.77 50.1273 324.52 50.2608C324.273 50.3915 324.077 50.5733 323.932 50.8063C323.79 51.0364 323.719 51.2992 323.719 51.5946V55.7367H322.713ZM329.638 55.8731C329.047 55.8731 328.529 55.7324 328.083 55.4512C327.64 55.1699 327.293 54.7765 327.043 54.2708C326.796 53.7651 326.672 53.1742 326.672 52.4981C326.672 51.8162 326.796 51.2211 327.043 50.7125C327.293 50.204 327.64 49.8091 328.083 49.5279C328.529 49.2466 329.047 49.106 329.638 49.106C330.229 49.106 330.746 49.2466 331.189 49.5279C331.635 49.8091 331.982 50.204 332.229 50.7125C332.479 51.2211 332.604 51.8162 332.604 52.4981C332.604 53.1742 332.479 53.7651 332.229 54.2708C331.982 54.7765 331.635 55.1699 331.189 55.4512C330.746 55.7324 330.229 55.8731 329.638 55.8731ZM329.638 54.9696C330.087 54.9696 330.456 54.8546 330.746 54.6245C331.036 54.3944 331.25 54.0918 331.39 53.7168C331.529 53.3418 331.598 52.9356 331.598 52.4981C331.598 52.0606 331.529 51.6529 331.39 51.275C331.25 50.8972 331.036 50.5918 330.746 50.3589C330.456 50.1259 330.087 50.0094 329.638 50.0094C329.189 50.0094 328.82 50.1259 328.53 50.3589C328.24 50.5918 328.026 50.8972 327.887 51.275C327.748 51.6529 327.678 52.0606 327.678 52.4981C327.678 52.9356 327.748 53.3418 327.887 53.7168C328.026 54.0918 328.24 54.3944 328.53 54.6245C328.82 54.8546 329.189 54.9696 329.638 54.9696ZM334.139 55.7367V49.1912H335.111V50.214H335.196C335.332 49.8645 335.553 49.5932 335.857 49.4C336.161 49.204 336.526 49.106 336.952 49.106C337.384 49.106 337.743 49.204 338.03 49.4C338.32 49.5932 338.545 49.8645 338.707 50.214H338.776C338.943 49.8759 339.195 49.6074 339.53 49.4086C339.865 49.2069 340.267 49.106 340.736 49.106C341.321 49.106 341.8 49.2893 342.172 49.6557C342.544 50.0194 342.73 50.5861 342.73 51.356V55.7367H341.724V51.356C341.724 50.8731 341.592 50.5279 341.328 50.3205C341.064 50.1131 340.753 50.0094 340.395 50.0094C339.935 50.0094 339.578 50.1486 339.325 50.427C339.072 50.7026 338.946 51.052 338.946 51.4753V55.7367H337.923V51.2537C337.923 50.8816 337.803 50.5819 337.561 50.3546C337.32 50.1245 337.009 50.0094 336.628 50.0094C336.366 50.0094 336.122 50.079 335.895 50.2182C335.67 50.3574 335.489 50.5506 335.349 50.7978C335.213 51.0421 335.145 51.3248 335.145 51.6458V55.7367H334.139ZM349.478 49.1912C349.427 48.7594 349.219 48.4242 348.856 48.1856C348.492 47.9469 348.046 47.8276 347.518 47.8276C347.131 47.8276 346.793 47.8901 346.504 48.0151C346.217 48.1401 345.992 48.312 345.83 48.5307C345.671 48.7495 345.592 48.9981 345.592 49.2765C345.592 49.5094 345.647 49.7097 345.758 49.8773C345.871 50.0421 346.016 50.1799 346.192 50.2907C346.369 50.3986 346.553 50.4881 346.746 50.5591C346.94 50.6273 347.117 50.6827 347.279 50.7253L348.165 50.964C348.393 51.0236 348.646 51.106 348.924 51.2111C349.205 51.3162 349.474 51.4597 349.729 51.6415C349.988 51.8205 350.201 52.0506 350.369 52.3319C350.536 52.6131 350.62 52.9583 350.62 53.3674C350.62 53.839 350.496 54.2651 350.249 54.6458C350.005 55.0265 349.647 55.329 349.175 55.5535C348.707 55.7779 348.137 55.8901 347.467 55.8901C346.842 55.8901 346.3 55.7893 345.843 55.5875C345.388 55.3858 345.031 55.1046 344.769 54.7438C344.511 54.383 344.364 53.964 344.33 53.4867H345.421C345.45 53.8162 345.56 54.089 345.754 54.3049C345.95 54.5179 346.197 54.677 346.495 54.7821C346.796 54.8844 347.12 54.9356 347.467 54.9356C347.87 54.9356 348.232 54.8702 348.553 54.7395C348.874 54.606 349.129 54.4214 349.316 54.1856C349.504 53.9469 349.597 53.6685 349.597 53.3503C349.597 53.0606 349.516 52.8248 349.354 52.6429C349.192 52.4611 348.979 52.3134 348.715 52.1998C348.451 52.0861 348.165 51.9867 347.859 51.9015L346.785 51.5946C346.103 51.3986 345.563 51.1188 345.165 50.7552C344.768 50.3915 344.569 49.9157 344.569 49.3276C344.569 48.839 344.701 48.4128 344.965 48.0492C345.232 47.6827 345.59 47.3986 346.039 47.1969C346.491 46.9924 346.995 46.8901 347.552 46.8901C348.114 46.8901 348.614 46.991 349.052 47.1927C349.489 47.3915 349.836 47.6643 350.092 48.0108C350.35 48.3574 350.487 48.7509 350.501 49.1912H349.478ZM355.068 49.1912V50.0435H351.676V49.1912H355.068ZM352.664 47.6231H353.67V53.8617C353.67 54.1458 353.711 54.3589 353.794 54.5009C353.879 54.6401 353.987 54.7339 354.118 54.7821C354.251 54.8276 354.392 54.8503 354.539 54.8503C354.65 54.8503 354.741 54.8446 354.812 54.8333C354.883 54.8191 354.94 54.8077 354.983 54.7992L355.187 55.7026C355.119 55.7282 355.024 55.7537 354.902 55.7793C354.779 55.8077 354.625 55.8219 354.437 55.8219C354.153 55.8219 353.875 55.7608 353.602 55.6387C353.332 55.5165 353.108 55.3304 352.929 55.0804C352.752 54.8304 352.664 54.5151 352.664 54.1344V47.6231ZM358.507 55.8901C358.092 55.8901 357.716 55.812 357.377 55.6557C357.039 55.4966 356.771 55.2679 356.572 54.9696C356.373 54.6685 356.274 54.3049 356.274 53.8787C356.274 53.5037 356.348 53.1998 356.495 52.9668C356.643 52.731 356.841 52.5464 357.088 52.4128C357.335 52.2793 357.608 52.1799 357.906 52.1145C358.207 52.0464 358.51 51.9924 358.814 51.9526C359.211 51.9015 359.534 51.8631 359.781 51.8375C360.031 51.8091 360.213 51.7623 360.326 51.6969C360.443 51.6316 360.501 51.5179 360.501 51.356V51.3219C360.501 50.9015 360.386 50.5748 360.156 50.3418C359.929 50.1089 359.583 49.9924 359.12 49.9924C358.64 49.9924 358.264 50.0975 357.991 50.3077C357.718 50.5179 357.527 50.7424 357.416 50.981L356.461 50.6401C356.632 50.2424 356.859 49.9327 357.143 49.7111C357.43 49.4867 357.743 49.3304 358.081 49.2424C358.422 49.1515 358.757 49.106 359.086 49.106C359.297 49.106 359.538 49.1316 359.811 49.1827C360.086 49.231 360.352 49.3319 360.608 49.4853C360.866 49.6387 361.081 49.8702 361.251 50.1799C361.422 50.4895 361.507 50.9043 361.507 51.4242V55.7367H360.501V54.8503H360.45C360.382 54.9924 360.268 55.1444 360.109 55.3063C359.95 55.4682 359.738 55.606 359.474 55.7196C359.21 55.8333 358.887 55.8901 358.507 55.8901ZM358.66 54.9867C359.058 54.9867 359.393 54.9086 359.666 54.7523C359.941 54.5961 360.149 54.3944 360.288 54.1472C360.43 53.9 360.501 53.6401 360.501 53.3674V52.4469C360.458 52.4981 360.365 52.5449 360.22 52.5875C360.078 52.6273 359.913 52.6628 359.725 52.6941C359.541 52.7225 359.36 52.7481 359.184 52.7708C359.011 52.7907 358.87 52.8077 358.762 52.8219C358.501 52.856 358.257 52.9114 358.029 52.9881C357.805 53.062 357.623 53.1742 357.484 53.3248C357.348 53.4725 357.279 53.6742 357.279 53.9299C357.279 54.2793 357.409 54.5435 357.667 54.7225C357.929 54.8986 358.26 54.9867 358.66 54.9867ZM363.342 55.7367V49.1912H364.314V50.1799H364.382C364.501 49.856 364.717 49.5932 365.03 49.3915C365.342 49.1898 365.695 49.089 366.087 49.089C366.161 49.089 366.253 49.0904 366.364 49.0932C366.474 49.0961 366.558 49.1003 366.615 49.106V50.1287C366.581 50.1202 366.503 50.1074 366.381 50.0904C366.261 50.0705 366.135 50.0606 366.001 50.0606C365.683 50.0606 365.399 50.1273 365.149 50.2608C364.902 50.3915 364.706 50.5733 364.561 50.8063C364.419 51.0364 364.348 51.2992 364.348 51.5946V55.7367H363.342ZM371.064 49.1912V50.0435H367.672V49.1912H371.064ZM368.661 47.6231H369.666V53.8617C369.666 54.1458 369.707 54.3589 369.79 54.5009C369.875 54.6401 369.983 54.7339 370.114 54.7821C370.247 54.8276 370.388 54.8503 370.536 54.8503C370.646 54.8503 370.737 54.8446 370.808 54.8333C370.879 54.8191 370.936 54.8077 370.979 54.7992L371.183 55.7026C371.115 55.7282 371.02 55.7537 370.898 55.7793C370.776 55.8077 370.621 55.8219 370.433 55.8219C370.149 55.8219 369.871 55.7608 369.598 55.6387C369.328 55.5165 369.104 55.3304 368.925 55.0804C368.749 54.8304 368.661 54.5151 368.661 54.1344V47.6231Z" fill="black"/>
<path d="M339.631 82.606C339.131 82.606 338.68 82.5066 338.28 82.3077C337.879 82.1089 337.558 81.8361 337.317 81.4895C337.075 81.1429 336.943 80.7481 336.92 80.3049H337.943C337.983 80.6998 338.162 81.0265 338.48 81.285C338.801 81.5407 339.185 81.6685 339.631 81.6685C339.989 81.6685 340.307 81.5847 340.585 81.4171C340.866 81.2495 341.087 81.0194 341.246 80.7268C341.408 80.4313 341.489 80.0975 341.489 79.7253C341.489 79.3446 341.405 79.0052 341.237 78.7069C341.072 78.4057 340.845 78.1685 340.555 77.9952C340.266 77.8219 339.935 77.7339 339.562 77.731C339.295 77.7282 339.021 77.7694 338.74 77.8546C338.459 77.937 338.227 78.0435 338.045 78.1742L337.057 78.0549L337.585 73.7594H342.119V74.6969H338.472L338.165 77.2708H338.216C338.395 77.1287 338.619 77.0108 338.889 76.9171C339.159 76.8233 339.44 76.7765 339.733 76.7765C340.267 76.7765 340.743 76.9043 341.161 77.16C341.581 77.4128 341.911 77.7594 342.149 78.1998C342.391 78.6401 342.511 79.1429 342.511 79.7083C342.511 80.2651 342.386 80.7623 342.136 81.1998C341.889 81.6344 341.548 81.9782 341.114 82.231C340.679 82.481 340.185 82.606 339.631 82.606Z" fill="black"/>
<path d="M336.972 112.259V120.987H335.915V113.367H335.864L333.733 114.782V113.708L335.915 112.259H336.972ZM342.43 121.106C341.868 121.106 341.366 121.009 340.926 120.816C340.489 120.623 340.141 120.355 339.882 120.011C339.626 119.664 339.487 119.262 339.464 118.805H340.538C340.561 119.086 340.658 119.329 340.828 119.534C340.999 119.735 341.222 119.892 341.497 120.002C341.773 120.113 342.078 120.169 342.413 120.169C342.788 120.169 343.121 120.103 343.411 119.972C343.7 119.842 343.928 119.66 344.092 119.427C344.257 119.194 344.339 118.924 344.339 118.617C344.339 118.296 344.26 118.014 344.101 117.769C343.942 117.522 343.709 117.329 343.402 117.19C343.095 117.051 342.72 116.981 342.277 116.981H341.578V116.044H342.277C342.624 116.044 342.928 115.981 343.189 115.856C343.453 115.731 343.659 115.555 343.807 115.328C343.957 115.1 344.033 114.833 344.033 114.526C344.033 114.231 343.967 113.974 343.837 113.755C343.706 113.536 343.521 113.366 343.283 113.244C343.047 113.122 342.768 113.061 342.447 113.061C342.146 113.061 341.862 113.116 341.595 113.227C341.331 113.335 341.115 113.492 340.947 113.7C340.78 113.904 340.689 114.151 340.675 114.441H339.652C339.669 113.984 339.807 113.583 340.065 113.24C340.324 112.893 340.662 112.623 341.08 112.43C341.5 112.237 341.962 112.14 342.464 112.14C343.004 112.14 343.467 112.249 343.854 112.468C344.24 112.684 344.537 112.97 344.744 113.325C344.952 113.68 345.055 114.063 345.055 114.475C345.055 114.967 344.926 115.386 344.668 115.732C344.412 116.079 344.064 116.319 343.624 116.453V116.521C344.175 116.612 344.605 116.846 344.915 117.224C345.224 117.599 345.379 118.063 345.379 118.617C345.379 119.092 345.25 119.518 344.991 119.896C344.736 120.271 344.386 120.566 343.943 120.782C343.5 120.998 342.996 121.106 342.43 121.106Z" fill="black"/>
<path d="M339.699 159.606C339.114 159.606 338.597 159.502 338.148 159.295C337.702 159.085 337.354 158.796 337.104 158.43C336.854 158.061 336.73 157.64 336.733 157.169C336.73 156.799 336.803 156.458 336.95 156.146C337.098 155.83 337.3 155.568 337.555 155.357C337.814 155.144 338.102 155.009 338.42 154.953V154.901C338.003 154.794 337.67 154.559 337.423 154.198C337.176 153.835 337.054 153.421 337.057 152.958C337.054 152.515 337.166 152.119 337.393 151.769C337.621 151.42 337.933 151.144 338.331 150.943C338.732 150.741 339.188 150.64 339.699 150.64C340.205 150.64 340.656 150.741 341.054 150.943C341.452 151.144 341.764 151.42 341.991 151.769C342.222 152.119 342.338 152.515 342.341 152.958C342.338 153.421 342.212 153.835 341.962 154.198C341.714 154.559 341.386 154.794 340.977 154.901V154.953C341.293 155.009 341.577 155.144 341.83 155.357C342.082 155.568 342.284 155.83 342.435 156.146C342.585 156.458 342.662 156.799 342.665 157.169C342.662 157.64 342.534 158.061 342.281 158.43C342.031 158.796 341.683 159.085 341.237 159.295C340.794 159.502 340.281 159.606 339.699 159.606ZM339.699 158.669C340.094 158.669 340.435 158.605 340.722 158.477C341.009 158.349 341.23 158.169 341.386 157.936C341.543 157.703 341.622 157.43 341.625 157.117C341.622 156.788 341.537 156.497 341.369 156.244C341.202 155.991 340.973 155.792 340.683 155.647C340.396 155.502 340.068 155.43 339.699 155.43C339.327 155.43 338.994 155.502 338.702 155.647C338.412 155.792 338.183 155.991 338.016 156.244C337.851 156.497 337.77 156.788 337.773 157.117C337.77 157.43 337.845 157.703 337.999 157.936C338.155 158.169 338.378 158.349 338.668 158.477C338.957 158.605 339.301 158.669 339.699 158.669ZM339.699 154.526C340.011 154.526 340.288 154.464 340.53 154.339C340.774 154.214 340.966 154.039 341.105 153.815C341.244 153.59 341.315 153.328 341.318 153.026C341.315 152.731 341.246 152.474 341.109 152.255C340.973 152.034 340.784 151.863 340.543 151.744C340.301 151.622 340.02 151.561 339.699 151.561C339.372 151.561 339.087 151.622 338.842 151.744C338.598 151.863 338.409 152.034 338.276 152.255C338.142 152.474 338.077 152.731 338.08 153.026C338.077 153.328 338.143 153.59 338.28 153.815C338.419 154.039 338.611 154.214 338.855 154.339C339.099 154.464 339.381 154.526 339.699 154.526Z" fill="black"/>
<path d="M336.903 197.987V197.22L339.784 194.066C340.122 193.697 340.401 193.376 340.619 193.103C340.838 192.828 341 192.569 341.105 192.328C341.213 192.083 341.267 191.828 341.267 191.561C341.267 191.254 341.193 190.988 341.045 190.764C340.901 190.539 340.702 190.366 340.449 190.244C340.196 190.122 339.912 190.061 339.597 190.061C339.261 190.061 338.969 190.13 338.719 190.269C338.472 190.406 338.28 190.597 338.143 190.845C338.01 191.092 337.943 191.382 337.943 191.714H336.938C336.938 191.203 337.055 190.754 337.291 190.367C337.527 189.981 337.848 189.68 338.254 189.464C338.663 189.248 339.122 189.14 339.631 189.14C340.142 189.14 340.595 189.248 340.99 189.464C341.385 189.68 341.695 189.971 341.919 190.338C342.143 190.704 342.256 191.112 342.256 191.561C342.256 191.882 342.197 192.196 342.081 192.502C341.967 192.806 341.768 193.146 341.484 193.521C341.203 193.893 340.812 194.347 340.312 194.884L338.352 196.981V197.049H342.409V197.987H336.903Z" fill="black"/>
<path d="M385.58 55.8731C384.966 55.8731 384.438 55.7282 383.994 55.4384C383.551 55.1486 383.21 54.7495 382.972 54.241C382.733 53.7324 382.614 53.1515 382.614 52.4981C382.614 51.8333 382.736 51.2466 382.98 50.7381C383.227 50.2268 383.571 49.8276 384.011 49.5407C384.455 49.2509 384.972 49.106 385.562 49.106C386.023 49.106 386.438 49.1912 386.807 49.3617C387.176 49.5321 387.479 49.7708 387.714 50.0776C387.95 50.3844 388.097 50.7424 388.153 51.1515H387.148C387.071 50.8532 386.901 50.589 386.636 50.3589C386.375 50.1259 386.023 50.0094 385.58 50.0094C385.188 50.0094 384.844 50.1117 384.548 50.3162C384.256 50.5179 384.027 50.8035 383.862 51.1728C383.7 51.5393 383.619 51.9696 383.619 52.464C383.619 52.9696 383.699 53.41 383.858 53.785C384.02 54.16 384.247 54.4512 384.54 54.6586C384.835 54.866 385.182 54.9696 385.58 54.9696C385.841 54.9696 386.078 54.9242 386.291 54.8333C386.504 54.7424 386.685 54.6117 386.832 54.4412C386.98 54.2708 387.085 54.0662 387.148 53.8276H388.153C388.097 54.214 387.956 54.562 387.732 54.8716C387.51 55.1785 387.216 55.4228 386.849 55.6046C386.486 55.7836 386.063 55.8731 385.58 55.8731ZM390.629 51.7992V55.7367H389.624V47.0094H390.629V50.214H390.714C390.868 49.8759 391.098 49.6074 391.405 49.4086C391.714 49.2069 392.126 49.106 392.641 49.106C393.087 49.106 393.477 49.1955 393.812 49.3745C394.148 49.5506 394.408 49.8219 394.592 50.1884C394.78 50.552 394.874 51.0151 394.874 51.5776V55.7367H393.868V51.6458C393.868 51.1259 393.733 50.7239 393.463 50.4398C393.196 50.1529 392.825 50.0094 392.351 50.0094C392.021 50.0094 391.726 50.079 391.464 50.2182C391.206 50.3574 391.001 50.5606 390.851 50.8276C390.703 51.0946 390.629 51.4185 390.629 51.7992ZM396.713 55.7367V49.1912H397.685V50.1799H397.753C397.873 49.856 398.088 49.5932 398.401 49.3915C398.713 49.1898 399.066 49.089 399.458 49.089C399.532 49.089 399.624 49.0904 399.735 49.0932C399.846 49.0961 399.929 49.1003 399.986 49.106V50.1287C399.952 50.1202 399.874 50.1074 399.752 50.0904C399.632 50.0705 399.506 50.0606 399.373 50.0606C399.054 50.0606 398.77 50.1273 398.52 50.2608C398.273 50.3915 398.077 50.5733 397.932 50.8063C397.79 51.0364 397.719 51.2992 397.719 51.5946V55.7367H396.713ZM403.638 55.8731C403.047 55.8731 402.529 55.7324 402.083 55.4512C401.64 55.1699 401.293 54.7765 401.043 54.2708C400.796 53.7651 400.672 53.1742 400.672 52.4981C400.672 51.8162 400.796 51.2211 401.043 50.7125C401.293 50.204 401.64 49.8091 402.083 49.5279C402.529 49.2466 403.047 49.106 403.638 49.106C404.229 49.106 404.746 49.2466 405.189 49.5279C405.635 49.8091 405.982 50.204 406.229 50.7125C406.479 51.2211 406.604 51.8162 406.604 52.4981C406.604 53.1742 406.479 53.7651 406.229 54.2708C405.982 54.7765 405.635 55.1699 405.189 55.4512C404.746 55.7324 404.229 55.8731 403.638 55.8731ZM403.638 54.9696C404.087 54.9696 404.456 54.8546 404.746 54.6245C405.036 54.3944 405.25 54.0918 405.39 53.7168C405.529 53.3418 405.598 52.9356 405.598 52.4981C405.598 52.0606 405.529 51.6529 405.39 51.275C405.25 50.8972 405.036 50.5918 404.746 50.3589C404.456 50.1259 404.087 50.0094 403.638 50.0094C403.189 50.0094 402.82 50.1259 402.53 50.3589C402.24 50.5918 402.026 50.8972 401.887 51.275C401.748 51.6529 401.678 52.0606 401.678 52.4981C401.678 52.9356 401.748 53.3418 401.887 53.7168C402.026 54.0918 402.24 54.3944 402.53 54.6245C402.82 54.8546 403.189 54.9696 403.638 54.9696ZM408.139 55.7367V49.1912H409.111V50.214H409.196C409.332 49.8645 409.553 49.5932 409.857 49.4C410.161 49.204 410.526 49.106 410.952 49.106C411.384 49.106 411.743 49.204 412.03 49.4C412.32 49.5932 412.545 49.8645 412.707 50.214H412.776C412.943 49.8759 413.195 49.6074 413.53 49.4086C413.865 49.2069 414.267 49.106 414.736 49.106C415.321 49.106 415.8 49.2893 416.172 49.6557C416.544 50.0194 416.73 50.5861 416.73 51.356V55.7367H415.724V51.356C415.724 50.8731 415.592 50.5279 415.328 50.3205C415.064 50.1131 414.753 50.0094 414.395 50.0094C413.935 50.0094 413.578 50.1486 413.325 50.427C413.072 50.7026 412.946 51.052 412.946 51.4753V55.7367H411.923V51.2537C411.923 50.8816 411.803 50.5819 411.561 50.3546C411.32 50.1245 411.009 50.0094 410.628 50.0094C410.366 50.0094 410.122 50.079 409.895 50.2182C409.67 50.3574 409.489 50.5506 409.349 50.7978C409.213 51.0421 409.145 51.3248 409.145 51.6458V55.7367H408.139ZM418.705 55.7367V47.0094H423.972V47.9469H419.762V50.8958H423.7V51.8333H419.762V54.7992H424.04V55.7367H418.705ZM426.746 51.7992V55.7367H425.741V49.1912H426.712V50.214H426.798C426.951 49.8816 427.184 49.6145 427.496 49.4128C427.809 49.2083 428.212 49.106 428.707 49.106C429.15 49.106 429.538 49.1969 429.87 49.3787C430.202 49.5577 430.461 49.8304 430.646 50.1969C430.83 50.5606 430.923 51.0208 430.923 51.5776V55.7367H429.917V51.6458C429.917 51.1316 429.783 50.731 429.516 50.4441C429.249 50.1543 428.883 50.0094 428.417 50.0094C428.096 50.0094 427.809 50.079 427.556 50.2182C427.306 50.3574 427.109 50.5606 426.964 50.8276C426.819 51.0946 426.746 51.4185 426.746 51.7992ZM435.232 55.8731C434.686 55.8731 434.205 55.7353 433.787 55.4597C433.37 55.1813 433.043 54.7893 432.807 54.2836C432.571 53.775 432.453 53.1742 432.453 52.481C432.453 51.7935 432.571 51.1969 432.807 50.6912C433.043 50.1856 433.371 49.7949 433.792 49.5194C434.212 49.2438 434.698 49.106 435.249 49.106C435.675 49.106 436.012 49.177 436.259 49.3191C436.509 49.4583 436.699 49.6174 436.83 49.7964C436.963 49.9725 437.067 50.1174 437.141 50.231H437.226V47.0094H438.232V55.7367H437.26V54.731H437.141C437.067 54.8503 436.962 55.0009 436.826 55.1827C436.689 55.3617 436.495 55.5222 436.242 55.6643C435.989 55.8035 435.652 55.8731 435.232 55.8731ZM435.368 54.9696C435.772 54.9696 436.113 54.8645 436.391 54.6543C436.669 54.4412 436.881 54.1472 437.026 53.7722C437.171 53.3944 437.243 52.9583 437.243 52.464C437.243 51.9753 437.172 51.5478 437.03 51.1813C436.888 50.812 436.678 50.525 436.4 50.3205C436.121 50.1131 435.777 50.0094 435.368 50.0094C434.942 50.0094 434.587 50.1188 434.303 50.3375C434.022 50.5535 433.81 50.8475 433.668 51.2196C433.529 51.589 433.459 52.0037 433.459 52.464C433.459 52.9299 433.53 53.3532 433.672 53.7339C433.817 54.1117 434.03 54.4128 434.311 54.6373C434.596 54.8589 434.948 54.9696 435.368 54.9696Z" fill="black"/>
<path d="M410.699 82.606C410.114 82.606 409.597 82.5023 409.148 82.2949C408.702 82.0847 408.354 81.7964 408.104 81.4299C407.854 81.0606 407.73 80.6401 407.733 80.1685C407.73 79.7992 407.803 79.4583 407.95 79.1458C408.098 78.8304 408.3 78.5677 408.555 78.3574C408.814 78.1444 409.102 78.0094 409.42 77.9526V77.9015C409.003 77.7935 408.67 77.5591 408.423 77.1983C408.176 76.8347 408.054 76.4214 408.057 75.9583C408.054 75.5151 408.166 75.1188 408.393 74.7694C408.621 74.4199 408.933 74.1444 409.331 73.9427C409.732 73.741 410.188 73.6401 410.699 73.6401C411.205 73.6401 411.656 73.741 412.054 73.9427C412.452 74.1444 412.764 74.4199 412.991 74.7694C413.222 75.1188 413.338 75.5151 413.341 75.9583C413.338 76.4214 413.212 76.8347 412.962 77.1983C412.714 77.5591 412.386 77.7935 411.977 77.9015V77.9526C412.293 78.0094 412.577 78.1444 412.83 78.3574C413.082 78.5677 413.284 78.8304 413.435 79.1458C413.585 79.4583 413.662 79.7992 413.665 80.1685C413.662 80.6401 413.534 81.0606 413.281 81.4299C413.031 81.7964 412.683 82.0847 412.237 82.2949C411.794 82.5023 411.281 82.606 410.699 82.606ZM410.699 81.6685C411.094 81.6685 411.435 81.6046 411.722 81.4768C412.009 81.3489 412.23 81.1685 412.386 80.9356C412.543 80.7026 412.622 80.4299 412.625 80.1174C412.622 79.7878 412.537 79.4966 412.369 79.2438C412.202 78.991 411.973 78.7921 411.683 78.6472C411.396 78.5023 411.068 78.4299 410.699 78.4299C410.327 78.4299 409.994 78.5023 409.702 78.6472C409.412 78.7921 409.183 78.991 409.016 79.2438C408.851 79.4966 408.77 79.7878 408.773 80.1174C408.77 80.4299 408.845 80.7026 408.999 80.9356C409.155 81.1685 409.378 81.3489 409.668 81.4768C409.957 81.6046 410.301 81.6685 410.699 81.6685ZM410.699 77.5265C411.011 77.5265 411.288 77.464 411.53 77.339C411.774 77.214 411.966 77.0393 412.105 76.8148C412.244 76.5904 412.315 76.3276 412.318 76.0265C412.315 75.731 412.246 75.4739 412.109 75.2552C411.973 75.0336 411.784 74.8631 411.543 74.7438C411.301 74.6216 411.02 74.5606 410.699 74.5606C410.372 74.5606 410.087 74.6216 409.842 74.7438C409.598 74.8631 409.409 75.0336 409.276 75.2552C409.142 75.4739 409.077 75.731 409.08 76.0265C409.077 76.3276 409.143 76.5904 409.28 76.8148C409.419 77.0393 409.611 77.214 409.855 77.339C410.099 77.464 410.381 77.5265 410.699 77.5265Z" fill="black"/>
<path d="M407.972 112.259V120.987H406.915V113.367H406.864L404.733 114.782V113.708L406.915 112.259H407.972ZM413.379 121.106C413.021 121.1 412.663 121.032 412.305 120.901C411.947 120.771 411.621 120.551 411.325 120.241C411.03 119.928 410.793 119.507 410.614 118.975C410.435 118.441 410.345 117.771 410.345 116.964C410.345 116.191 410.418 115.507 410.562 114.91C410.707 114.311 410.918 113.806 411.193 113.397C411.469 112.985 411.801 112.673 412.19 112.46C412.582 112.247 413.024 112.14 413.516 112.14C414.004 112.14 414.439 112.238 414.82 112.434C415.203 112.627 415.516 112.897 415.757 113.244C415.999 113.59 416.155 113.99 416.226 114.441H415.186C415.089 114.049 414.902 113.724 414.624 113.465C414.345 113.207 413.976 113.078 413.516 113.078C412.839 113.078 412.307 113.372 411.918 113.96C411.531 114.548 411.337 115.373 411.334 116.436H411.402C411.561 116.194 411.75 115.988 411.969 115.818C412.19 115.644 412.435 115.511 412.702 115.417C412.969 115.323 413.251 115.276 413.55 115.276C414.05 115.276 414.507 115.401 414.922 115.651C415.337 115.899 415.669 116.241 415.919 116.678C416.169 117.113 416.294 117.612 416.294 118.174C416.294 118.714 416.173 119.208 415.932 119.657C415.69 120.103 415.351 120.458 414.913 120.722C414.479 120.984 413.967 121.112 413.379 121.106ZM413.379 120.169C413.737 120.169 414.058 120.079 414.342 119.9C414.629 119.721 414.855 119.481 415.02 119.18C415.188 118.879 415.271 118.544 415.271 118.174C415.271 117.813 415.19 117.485 415.028 117.19C414.869 116.892 414.649 116.654 414.368 116.478C414.089 116.302 413.771 116.214 413.413 116.214C413.143 116.214 412.892 116.268 412.659 116.376C412.426 116.481 412.222 116.626 412.045 116.811C411.872 116.995 411.736 117.207 411.636 117.446C411.537 117.681 411.487 117.93 411.487 118.191C411.487 118.538 411.568 118.862 411.73 119.163C411.895 119.464 412.119 119.707 412.403 119.892C412.69 120.076 413.016 120.169 413.379 120.169Z" fill="black"/>
<path d="M408.972 150.759V159.487H407.915V151.867H407.864L405.733 153.282V152.208L407.915 150.759H408.972ZM414.55 150.759V159.487H413.493V151.867H413.442L411.311 153.282V152.208L413.493 150.759H414.55Z" fill="black"/>
<path d="M410.631 198.106C410.131 198.106 409.68 198.007 409.28 197.808C408.879 197.609 408.558 197.336 408.317 196.99C408.075 196.643 407.943 196.248 407.92 195.805H408.943C408.983 196.2 409.162 196.526 409.48 196.785C409.801 197.041 410.185 197.169 410.631 197.169C410.989 197.169 411.307 197.085 411.585 196.917C411.866 196.749 412.087 196.519 412.246 196.227C412.408 195.931 412.489 195.597 412.489 195.225C412.489 194.845 412.405 194.505 412.237 194.207C412.072 193.906 411.845 193.669 411.555 193.495C411.266 193.322 410.935 193.234 410.562 193.231C410.295 193.228 410.021 193.269 409.74 193.355C409.459 193.437 409.227 193.544 409.045 193.674L408.057 193.555L408.585 189.259H413.119V190.197H409.472L409.165 192.771H409.216C409.395 192.629 409.619 192.511 409.889 192.417C410.159 192.323 410.44 192.276 410.733 192.276C411.267 192.276 411.743 192.404 412.161 192.66C412.581 192.913 412.911 193.259 413.149 193.7C413.391 194.14 413.511 194.643 413.511 195.208C413.511 195.765 413.386 196.262 413.136 196.7C412.889 197.134 412.548 197.478 412.114 197.731C411.679 197.981 411.185 198.106 410.631 198.106Z" fill="black"/>
<path d="M22.1217 194.222L21.3383 193.439L29.7753 189.534L30.5467 190.305L26.6416 198.742L25.8581 197.959L29.2089 190.92L29.1606 190.872L22.1217 194.222ZM24.8216 192.101L27.9794 195.259L27.3165 195.922L24.1587 192.764L24.8216 192.101ZM32.665 195.509L31.8816 198.51L34.8828 197.727L35.7024 198.546L31.8936 199.366L31.074 203.175L30.2544 202.355L30.9415 199.45L28.0367 200.137L27.2171 199.318L31.0017 198.474L31.8454 194.689L32.665 195.509ZM32.0888 204.189L36.7171 199.561L37.4282 200.272L32.7999 204.901L32.0888 204.189ZM37.8501 199.151C37.7115 199.013 37.6391 198.846 37.6331 198.651C37.6291 198.458 37.6934 198.296 37.826 198.163C37.9585 198.03 38.1213 197.966 38.3141 197.97C38.509 197.976 38.6757 198.048 38.8143 198.187C38.9529 198.326 39.0242 198.491 39.0282 198.684C39.0343 198.879 38.971 199.043 38.8384 199.175C38.7058 199.308 38.5421 199.371 38.3473 199.365C38.1544 199.361 37.9887 199.29 37.8501 199.151ZM40.9725 205.89L40.1529 205.432C40.2192 205.285 40.2634 205.122 40.2855 204.943C40.3116 204.765 40.2915 204.576 40.2253 204.377C40.159 204.178 40.0224 203.975 39.8155 203.768C39.5322 203.485 39.2309 203.314 38.9115 203.256C38.5961 203.198 38.339 203.268 38.1401 203.467C37.9633 203.644 37.888 203.848 37.9141 204.079C37.9402 204.31 38.0557 204.596 38.2606 204.937L38.7789 205.793C39.0923 206.307 39.247 206.769 39.2429 207.179C39.2409 207.587 39.0782 207.953 38.7548 208.276C38.4896 208.541 38.1762 208.702 37.8147 208.758C37.4551 208.816 37.0794 208.77 36.6877 208.62C36.296 208.469 35.9203 208.214 35.5608 207.854C35.0887 207.382 34.8004 206.889 34.696 206.375C34.5915 205.861 34.695 205.365 35.0063 204.889L35.85 205.395C35.6652 205.709 35.5999 206.017 35.6542 206.321C35.7104 206.626 35.8842 206.924 36.1755 207.215C36.5069 207.547 36.8404 207.74 37.1759 207.794C37.5153 207.848 37.7845 207.776 37.9834 207.577C38.1441 207.416 38.2225 207.226 38.2184 207.005C38.2164 206.782 38.126 206.526 37.9472 206.239L37.3566 205.287C37.0332 204.763 36.8775 204.296 36.8896 203.886C36.9057 203.476 37.0734 203.111 37.3928 202.792C37.654 202.531 37.9583 202.373 38.3058 202.319C38.6554 202.267 39.0149 202.311 39.3846 202.452C39.7562 202.594 40.1047 202.828 40.4302 203.154C40.8882 203.612 41.1473 204.072 41.2076 204.534C41.2698 204.998 41.1915 205.45 40.9725 205.89ZM40.91 213.011L41.4524 212.468L45.7191 212.275C46.2193 212.253 46.6432 212.223 46.9907 212.185C47.3403 212.145 47.6376 212.077 47.8826 211.98C48.1317 211.884 48.3507 211.741 48.5395 211.552C48.7565 211.335 48.8921 211.095 48.9463 210.832C49.0026 210.571 48.9845 210.308 48.8921 210.043C48.7997 209.777 48.642 209.533 48.419 209.31C48.182 209.073 47.9258 208.916 47.6506 208.837C47.3794 208.759 47.1082 208.759 46.8371 208.837C46.5679 208.918 46.3158 209.075 46.0807 209.31L45.3696 208.599C45.7312 208.238 46.132 208.004 46.5719 207.897C47.0118 207.791 47.4518 207.805 47.8917 207.939C48.3336 208.076 48.7344 208.324 49.094 208.684C49.4556 209.045 49.6996 209.442 49.8262 209.874C49.9527 210.306 49.9658 210.731 49.8654 211.148C49.7649 211.566 49.556 211.934 49.2386 212.251C49.0116 212.478 48.7485 212.659 48.4491 212.794C48.1538 212.928 47.7732 213.028 47.3071 213.092C46.8451 213.156 46.2475 213.202 45.5142 213.228L42.6456 213.324L42.5974 213.372L45.466 216.241L44.8031 216.904L40.91 213.011ZM47.3674 217.889C47.2187 217.74 47.1444 217.56 47.1444 217.347C47.1444 217.134 47.2187 216.953 47.3674 216.804C47.516 216.656 47.6968 216.581 47.9098 216.581C48.1227 216.581 48.3035 216.656 48.4521 216.804C48.6008 216.953 48.6751 217.134 48.6751 217.347C48.6751 217.56 48.6008 217.74 48.4521 217.889C48.3537 217.988 48.2382 218.053 48.1056 218.085C47.9751 218.119 47.8435 218.12 47.7109 218.088C47.5823 218.056 47.4678 217.99 47.3674 217.889ZM50.4891 214.767C50.3404 214.619 50.2661 214.438 50.2661 214.225C50.2661 214.012 50.3404 213.831 50.4891 213.683C50.6378 213.534 50.8185 213.46 51.0315 213.46C51.2444 213.46 51.4252 213.534 51.5739 213.683C51.7225 213.831 51.7968 214.012 51.7968 214.225C51.7968 214.438 51.7225 214.619 51.5739 214.767C51.4754 214.866 51.3599 214.931 51.2273 214.963C51.0968 214.997 50.9652 214.998 50.8326 214.966C50.704 214.934 50.5895 214.868 50.4891 214.767ZM57.6651 217.424L51.494 223.595L50.7829 222.884L56.954 216.712L57.6651 217.424ZM54.6406 226.934C54.1946 226.488 53.9084 226.005 53.7818 225.485C53.6593 224.964 53.6884 224.439 53.8692 223.909C54.054 223.378 54.3835 222.876 54.8575 222.402C55.3316 221.928 55.8358 221.597 56.3702 221.408C56.9086 221.219 57.4349 221.179 57.9491 221.287C58.4674 221.396 58.9355 221.659 59.3533 222.077C59.5944 222.318 59.7922 222.596 59.9469 222.911C60.1016 223.227 60.1849 223.571 60.197 223.945C60.2111 224.317 60.1277 224.707 59.9469 225.117C59.7661 225.527 59.4598 225.948 59.0279 226.38L58.7265 226.681L55.1589 223.113L55.7736 222.499L58.6181 225.343C58.8792 225.082 59.06 224.797 59.1604 224.487C59.2629 224.18 59.278 223.872 59.2056 223.562C59.1353 223.255 58.9716 222.973 58.7145 222.716C58.4312 222.432 58.1159 222.258 57.7683 222.191C57.4248 222.125 57.0863 222.148 56.7529 222.261C56.4194 222.373 56.1251 222.557 55.87 222.812L55.4602 223.222C55.1107 223.571 54.8746 223.928 54.7521 224.291C54.6336 224.655 54.6195 225.009 54.7099 225.352C54.8023 225.694 54.9921 226.008 55.2794 226.295C55.4662 226.482 55.6611 226.625 55.864 226.723C56.0709 226.822 56.2828 226.873 56.4998 226.877C56.7187 226.879 56.9387 226.83 57.1597 226.729L57.6538 227.609C57.3485 227.77 57.0221 227.853 56.6745 227.859C56.329 227.863 55.9815 227.789 55.6319 227.636C55.2844 227.481 54.954 227.247 54.6406 226.934ZM61.2305 227.763L58.4463 230.547L57.7352 229.836L62.3635 225.208L63.0505 225.895L62.3274 226.618L62.3876 226.678C62.7311 226.551 63.0847 226.527 63.4483 226.606C63.8139 226.682 64.1715 226.895 64.521 227.244C64.8344 227.558 65.0443 227.896 65.1508 228.26C65.2592 228.622 65.2492 228.997 65.1206 229.387C64.9941 229.775 64.7339 230.165 64.3402 230.559L61.3993 233.5L60.6882 232.789L63.5809 229.896C63.9445 229.533 64.1333 229.155 64.1474 228.763C64.1634 228.369 64.0067 228.008 63.6773 227.678C63.4503 227.451 63.1982 227.298 62.921 227.217C62.6458 227.139 62.3625 227.143 62.0712 227.229C61.78 227.316 61.4997 227.494 61.2305 227.763ZM62.7349 238.5C62.3914 238.156 62.1403 237.817 61.9816 237.481C61.8209 237.148 61.7295 236.827 61.7074 236.52C61.6853 236.217 61.7064 235.936 61.7707 235.679L62.7349 235.848C62.7148 235.997 62.6997 236.174 62.6897 236.381C62.6777 236.59 62.7168 236.82 62.8072 237.071C62.8976 237.327 63.0824 237.594 63.3617 237.873C63.7353 238.247 64.134 238.465 64.5579 238.527C64.9818 238.589 65.3866 238.427 65.7722 238.042L66.7124 237.102L66.6521 237.041C66.5155 237.073 66.3367 237.104 66.1158 237.132C65.8988 237.16 65.6527 237.133 65.3775 237.05C65.1063 236.968 64.8201 236.776 64.5187 236.475C64.1451 236.101 63.898 235.677 63.7775 235.203C63.659 234.731 63.6821 234.24 63.8468 233.73C64.0135 233.221 64.3379 232.726 64.8201 232.244C65.2941 231.77 65.7903 231.441 66.3086 231.256C66.8289 231.069 67.3341 231.028 67.8243 231.132C68.3164 231.235 68.7574 231.481 69.1471 231.871C69.4484 232.172 69.6372 232.461 69.7136 232.738C69.7939 233.016 69.818 233.265 69.7859 233.486C69.7578 233.707 69.7296 233.883 69.7015 234.016L69.7738 234.088L70.5091 233.353L71.1961 234.04L66.4352 238.801C66.0374 239.199 65.6236 239.432 65.1937 239.5C64.7638 239.572 64.3389 239.515 63.9191 239.328C63.4993 239.145 63.1045 238.869 62.7349 238.5ZM65.254 235.932C65.5392 236.218 65.8456 236.393 66.173 236.46C66.5004 236.526 66.8379 236.488 67.1855 236.345C67.533 236.203 67.8775 235.961 68.219 235.619C68.5525 235.286 68.7965 234.941 68.9512 234.585C69.1059 234.23 69.1571 233.881 69.1049 233.54C69.0527 233.198 68.8819 232.883 68.5926 232.594C68.2913 232.292 67.9639 232.118 67.6103 232.069C67.2588 232.023 66.9042 232.078 66.5466 232.235C66.1911 232.394 65.8566 232.63 65.5432 232.943C65.2218 233.265 64.9878 233.599 64.8412 233.947C64.6985 234.294 64.6563 234.638 64.7146 234.977C64.7769 235.317 64.9567 235.635 65.254 235.932ZM74.5106 237.355L73.908 237.957L71.5095 235.559L72.1121 234.956L74.5106 237.355ZM73.92 234.546L74.6312 235.257L70.2198 239.669C70.0189 239.87 69.8974 240.049 69.8552 240.208C69.817 240.367 69.8271 240.509 69.8853 240.636C69.9476 240.763 70.031 240.878 70.1354 240.983C70.2138 241.061 70.2821 241.121 70.3403 241.163C70.4006 241.204 70.4488 241.236 70.485 241.26L69.9908 242.043C69.9245 242.013 69.8391 241.964 69.7347 241.896C69.6282 241.829 69.5087 241.73 69.3761 241.597C69.1752 241.396 69.0215 241.156 68.9151 240.877C68.8106 240.6 68.7835 240.31 68.8337 240.006C68.8859 239.705 69.0466 239.42 69.3158 239.151L73.92 234.546ZM74.5468 241.079L71.7626 243.863L71.0514 243.152L77.2226 236.981L77.9337 237.692L75.6677 239.958L75.728 240.018C76.0755 239.888 76.4281 239.861 76.7856 239.937C77.1472 240.013 77.5098 240.233 77.8734 240.597C78.1888 240.912 78.4017 241.252 78.5122 241.615C78.6247 241.977 78.6167 242.353 78.4881 242.742C78.3636 243.132 78.1024 243.526 77.7047 243.923L74.7638 246.864L74.0526 246.153L76.9453 243.261C77.313 242.893 77.5018 242.513 77.5118 242.122C77.5259 241.73 77.3652 241.366 77.0297 241.031C76.7967 240.798 76.5385 240.638 76.2553 240.552C75.9741 240.467 75.6858 240.466 75.3905 240.549C75.0972 240.633 74.816 240.81 74.5468 241.079Z" fill="black"/>
</svg>
