<svg width="64" height="64" viewBox="0 0 64 64" fill="none" xmlns="http://www.w3.org/2000/svg">
<rect width="64" height="64" fill="white"/>
<rect x="2" y="2" width="20" height="20" fill="white"/>
<rect x="2" y="2" width="20" height="20" stroke="black" stroke-width="0.5"/>
<path d="M13.1825 7.77273V16.5H12.1257V8.88068H12.0746L9.94389 10.2955V9.22159L12.1257 7.77273H13.1825Z" fill="black"/>
<rect x="22" y="2" width="20" height="20" fill="white"/>
<rect x="22" y="2" width="20" height="20" stroke="black" stroke-width="0.5"/>
<path d="M29.2706 16.5V15.733L32.1513 12.5795C32.4893 12.2102 32.7678 11.8892 32.9865 11.6165C33.2053 11.3409 33.3672 11.0824 33.4723 10.8409C33.5803 10.5966 33.6342 10.3409 33.6342 10.0739C33.6342 9.76705 33.5604 9.50142 33.4126 9.27699C33.2678 9.05256 33.0689 8.87926 32.8161 8.7571C32.5632 8.63494 32.2791 8.57386 31.9638 8.57386C31.6286 8.57386 31.3359 8.64347 31.0859 8.78267C30.8388 8.91903 30.647 9.1108 30.5107 9.35795C30.3771 9.60511 30.3104 9.89489 30.3104 10.2273H29.3047C29.3047 9.71591 29.4226 9.26705 29.6584 8.88068C29.8942 8.49432 30.2152 8.19318 30.6214 7.97727C31.0305 7.76136 31.4893 7.65341 31.9979 7.65341C32.5092 7.65341 32.9624 7.76136 33.3572 7.97727C33.7521 8.19318 34.0618 8.48437 34.2862 8.85085C34.5107 9.21733 34.6229 9.625 34.6229 10.0739C34.6229 10.3949 34.5646 10.7088 34.4482 11.0156C34.3345 11.3196 34.1357 11.6591 33.8516 12.0341C33.5703 12.4062 33.1797 12.8608 32.6797 13.3977L30.7195 15.4943V15.5625H34.7763V16.5H29.2706Z" fill="black"/>
<rect x="2" y="22" width="20" height="20" fill="white"/>
<rect x="2" y="22" width="20" height="20" stroke="black" stroke-width="0.5"/>
<path d="M12.032 36.6193C11.4695 36.6193 10.968 36.5227 10.5277 36.3295C10.0902 36.1364 9.74219 35.8679 9.48366 35.5241C9.22798 35.1776 9.08878 34.7756 9.06605 34.3182H10.1399C10.1626 34.5994 10.2592 34.8423 10.4297 35.0469C10.6001 35.2486 10.8232 35.4048 11.0987 35.5156C11.3743 35.6264 11.6797 35.6818 12.0149 35.6818C12.3899 35.6818 12.7223 35.6165 13.0121 35.4858C13.3018 35.3551 13.5291 35.1733 13.6939 34.9403C13.8587 34.7074 13.9411 34.4375 13.9411 34.1307C13.9411 33.8097 13.8615 33.527 13.7024 33.2827C13.5433 33.0355 13.3104 32.8423 13.0036 32.7031C12.6967 32.5639 12.3217 32.4943 11.8786 32.4943H11.1797V31.5568H11.8786C12.2251 31.5568 12.5291 31.4943 12.7905 31.3693C13.0547 31.2443 13.2607 31.0682 13.4084 30.8409C13.5589 30.6136 13.6342 30.3466 13.6342 30.0398C13.6342 29.7443 13.5689 29.4872 13.4382 29.2685C13.3075 29.0497 13.1229 28.8793 12.8842 28.7571C12.6484 28.6349 12.37 28.5739 12.049 28.5739C11.7479 28.5739 11.4638 28.6293 11.1967 28.7401C10.9325 28.848 10.7166 29.0057 10.549 29.2131C10.3814 29.4176 10.2905 29.6648 10.2763 29.9545H9.25355C9.2706 29.4972 9.40838 29.0966 9.6669 28.7528C9.92543 28.4062 10.2635 28.1364 10.6811 27.9432C11.1016 27.75 11.5632 27.6534 12.0661 27.6534C12.6058 27.6534 13.0689 27.7628 13.4553 27.9815C13.8416 28.1974 14.1385 28.483 14.3459 28.8381C14.5533 29.1932 14.657 29.5767 14.657 29.9886C14.657 30.4801 14.5277 30.8991 14.2692 31.2457C14.0135 31.5923 13.6655 31.8324 13.2251 31.9659V32.0341C13.7763 32.125 14.2067 32.3594 14.5163 32.7372C14.826 33.1122 14.9808 33.5767 14.9808 34.1307C14.9808 34.6051 14.8516 35.0312 14.593 35.4091C14.3374 35.7841 13.9879 36.0795 13.5447 36.2955C13.1016 36.5114 12.5973 36.6193 12.032 36.6193Z" fill="black"/>
<rect x="2" y="42" width="20" height="20" fill="white"/>
<rect x="2" y="42" width="20" height="20" stroke="black" stroke-width="0.5"/>
<path d="M8.84925 54.7102V53.8409L12.6845 47.7727H13.3152V49.1193H12.889L9.9913 53.7045V53.7727H15.1561V54.7102H8.84925ZM12.9572 56.5V54.446V54.0412V47.7727H13.9629V56.5H12.9572Z" fill="black"/>
<rect x="22" y="42" width="20" height="20" fill="white"/>
<rect x="22" y="42" width="20" height="20" stroke="black" stroke-width="0.5"/>
<path d="M31.9803 56.6193C31.4803 56.6193 31.03 56.5199 30.6294 56.321C30.2289 56.1222 29.9078 55.8494 29.6664 55.5028C29.4249 55.1562 29.2928 54.7614 29.2701 54.3182H30.2928C30.3326 54.7131 30.5115 55.0398 30.8297 55.2983C31.1507 55.554 31.5343 55.6818 31.9803 55.6818C32.3382 55.6818 32.6564 55.598 32.9348 55.4304C33.2161 55.2628 33.4363 55.0327 33.5953 54.7401C33.7573 54.4446 33.8382 54.1108 33.8382 53.7386C33.8382 53.358 33.7544 53.0185 33.5868 52.7202C33.4221 52.419 33.1948 52.1818 32.905 52.0085C32.6152 51.8352 32.2843 51.7472 31.9121 51.7443C31.6451 51.7415 31.3709 51.7827 31.0897 51.8679C30.8084 51.9503 30.5769 52.0568 30.3951 52.1875L29.4064 52.0682L29.9348 47.7727H34.4689V48.7102H30.8212L30.5144 51.2841H30.5655C30.7445 51.142 30.9689 51.0241 31.2388 50.9304C31.5087 50.8366 31.79 50.7898 32.0826 50.7898C32.6167 50.7898 33.0925 50.9176 33.5101 51.1733C33.9306 51.4261 34.2601 51.7727 34.4988 52.2131C34.7402 52.6534 34.861 53.1562 34.861 53.7216C34.861 54.2784 34.736 54.7756 34.486 55.2131C34.2388 55.6477 33.8979 55.9915 33.4632 56.2443C33.0286 56.4943 32.5343 56.6193 31.9803 56.6193Z" fill="black"/>
<rect x="42" y="42" width="20" height="20" fill="white"/>
<rect x="42" y="42" width="20" height="20" stroke="black" stroke-width="0.5"/>
<path d="M52.057 56.6193C51.699 56.6136 51.3411 56.5455 50.9831 56.4148C50.6252 56.2841 50.2985 56.0639 50.003 55.7543C49.7076 55.4418 49.4703 55.0199 49.2914 54.4886C49.1124 53.9545 49.0229 53.2841 49.0229 52.4773C49.0229 51.7045 49.0953 51.0199 49.2402 50.4233C49.3851 49.8239 49.5953 49.3196 49.8709 48.9105C50.1465 48.4986 50.4789 48.1861 50.8681 47.973C51.2601 47.7599 51.7019 47.6534 52.1934 47.6534C52.682 47.6534 53.1167 47.7514 53.4973 47.9474C53.8809 48.1406 54.1934 48.4105 54.4348 48.7571C54.6763 49.1037 54.8326 49.5028 54.9036 49.9545H53.8638C53.7672 49.5625 53.5797 49.2372 53.3013 48.9787C53.0229 48.7202 52.6536 48.5909 52.1934 48.5909C51.5172 48.5909 50.9846 48.8849 50.5953 49.473C50.209 50.0611 50.0144 50.8864 50.0115 51.9489H50.0797C50.2388 51.7074 50.4277 51.5014 50.6465 51.331C50.8681 51.1577 51.1124 51.0241 51.3794 50.9304C51.6465 50.8366 51.9292 50.7898 52.2275 50.7898C52.7275 50.7898 53.1848 50.9148 53.5996 51.1648C54.0144 51.4119 54.3468 51.7543 54.5968 52.1918C54.8468 52.6264 54.9718 53.125 54.9718 53.6875C54.9718 54.2273 54.851 54.7216 54.6096 55.1705C54.3681 55.6165 54.0286 55.9716 53.5911 56.2358C53.1564 56.4972 52.6451 56.625 52.057 56.6193ZM52.057 55.6818C52.415 55.6818 52.736 55.5923 53.0201 55.4134C53.307 55.2344 53.5328 54.9943 53.6976 54.6932C53.8652 54.392 53.949 54.0568 53.949 53.6875C53.949 53.3267 53.8681 52.9986 53.7061 52.7031C53.5471 52.4048 53.3269 52.1676 53.0456 51.9915C52.7672 51.8153 52.449 51.7273 52.0911 51.7273C51.8212 51.7273 51.5698 51.7812 51.3368 51.8892C51.1039 51.9943 50.8993 52.1392 50.7232 52.3239C50.5499 52.5085 50.4135 52.7202 50.3141 52.9588C50.2147 53.1946 50.165 53.4432 50.165 53.7045C50.165 54.0511 50.2459 54.375 50.4078 54.6761C50.5726 54.9773 50.7971 55.2202 51.0811 55.4048C51.3681 55.5895 51.6934 55.6818 52.057 55.6818Z" fill="black"/>
</svg>
