<svg width="215" height="163" viewBox="0 0 215 163" fill="none" xmlns="http://www.w3.org/2000/svg">
<rect width="215" height="162.341" transform="translate(0 0.658875)" fill="white"/>
<path d="M165 79H205V119H165V79Z" fill="#F2DFDF"/>
<path d="M165 79H205M165 79V119M165 79L205 119M205 79V119M205 79L165 119M205 119H165" stroke="black"/>
<rect x="5" y="79" width="60" height="40" fill="#D9D9D9" stroke="black"/>
<rect x="65" y="79" width="100" height="40" fill="#96EF91" stroke="black"/>
<path d="M86.0471 6.4327C85.6658 6.4327 85.4639 6.41027 85.4415 6.36541C85.4303 6.34298 85.4247 6.29813 85.4247 6.23084C85.4247 5.96169 85.4864 5.77665 85.6097 5.67572C85.6321 5.6645 85.7163 5.6589 85.862 5.6589C86.4676 5.69254 87.1798 5.70936 87.9984 5.70936C89.5797 5.70936 90.4881 5.69254 90.7236 5.6589H90.9254C90.9927 5.72618 91.0264 5.77665 91.0264 5.81029C91.0264 5.84394 91.0151 5.94487 90.9927 6.11309C90.9366 6.2813 90.8862 6.38784 90.8413 6.4327H90.2021C89.4283 6.44392 88.9741 6.49438 88.8395 6.5841C88.761 6.62896 88.6825 6.78596 88.604 7.05511C88.5255 7.32426 88.1498 8.80458 87.4769 11.4961C87.2975 12.225 87.1069 12.9988 86.905 13.8175C86.7031 14.6362 86.5517 15.253 86.4508 15.6679L86.2994 16.2735C86.2994 16.3183 86.3499 16.3408 86.4508 16.3408C86.5517 16.3408 86.8826 16.352 87.4433 16.3744H87.7293C88.0881 16.3744 88.3741 16.3688 88.5872 16.3576C88.8003 16.3464 89.075 16.3071 89.4115 16.2398C89.7479 16.1726 90.0283 16.0716 90.2525 15.9371C90.4768 15.8025 90.7236 15.6118 90.9927 15.3651C91.2619 15.1184 91.4974 14.81 91.6992 14.4399C91.8787 14.1035 92.0469 13.7278 92.2039 13.3128C92.3609 12.8979 92.4562 12.6624 92.4899 12.6063C92.5459 12.5727 92.6413 12.5559 92.7758 12.5559H92.9945C93.0618 12.6568 93.0954 12.7185 93.0954 12.7409C93.0954 12.7633 92.9833 13.0942 92.759 13.7334C92.5347 14.3726 92.288 15.0455 92.0188 15.752C91.7497 16.4585 91.6039 16.8735 91.5815 16.9968C91.559 17.0529 91.5366 17.0865 91.5142 17.0978C91.4918 17.109 91.402 17.1258 91.245 17.1482C91.088 17.1707 90.8469 17.1763 90.5217 17.165C90.3983 17.165 89.9722 17.165 89.2432 17.165C88.5143 17.165 87.819 17.1594 87.1573 17.1482H84.163C83.221 17.1482 82.75 17.0922 82.75 16.98C82.75 16.9015 82.7612 16.823 82.7836 16.7445C82.8397 16.5314 82.8958 16.4137 82.9519 16.3912C82.9967 16.38 83.0808 16.3744 83.2042 16.3744H83.3051C83.6079 16.3744 83.9444 16.3576 84.3144 16.324C84.4714 16.2903 84.578 16.223 84.634 16.1221C84.6677 16.0772 85.0714 14.5184 85.8452 11.4456C86.619 8.37282 87.0059 6.75232 87.0059 6.5841C87.0059 6.5056 86.6863 6.45513 86.0471 6.4327Z" fill="black"/>
<path d="M99.2825 11.3111C99.2825 11.1653 99.361 11.0531 99.518 10.9746H110.234C110.402 11.0644 110.486 11.1765 110.486 11.3111C110.486 11.4344 110.407 11.541 110.25 11.6307L104.901 11.6475H99.5517C99.3722 11.5914 99.2825 11.4793 99.2825 11.3111ZM99.2825 14.5745C99.2825 14.4063 99.3722 14.2941 99.5517 14.2381H110.25C110.407 14.3502 110.486 14.4624 110.486 14.5745C110.486 14.7203 110.402 14.8324 110.234 14.9109H99.518C99.361 14.8324 99.2825 14.7203 99.2825 14.5745Z" fill="black"/>
<path d="M119.684 7.42522L119.465 7.50933C119.308 7.5654 119.084 7.62148 118.793 7.67755C118.501 7.73362 118.176 7.77287 117.817 7.7953H117.497V7.0215H117.817C118.344 6.99907 118.832 6.91496 119.28 6.76917C119.729 6.62338 120.043 6.4888 120.222 6.36544C120.402 6.24208 120.559 6.11872 120.693 5.99536C120.716 5.96172 120.783 5.9449 120.895 5.9449C120.996 5.9449 121.091 5.97854 121.181 6.04583V11.0756L121.198 16.1221C121.277 16.2006 121.344 16.2511 121.4 16.2735C121.456 16.2959 121.591 16.3184 121.804 16.3408C122.017 16.3632 122.364 16.3744 122.847 16.3744H123.284V17.1483H123.099C122.863 17.1146 121.972 17.0978 120.424 17.0978C118.899 17.0978 118.019 17.1146 117.783 17.1483H117.581V16.3744H118.019C118.265 16.3744 118.478 16.3744 118.658 16.3744C118.837 16.3744 118.978 16.3688 119.078 16.3576C119.179 16.3464 119.269 16.3296 119.348 16.3072C119.426 16.2847 119.471 16.2735 119.482 16.2735C119.493 16.2735 119.527 16.2455 119.583 16.1894C119.639 16.1333 119.673 16.1109 119.684 16.1221V7.42522Z" fill="black"/>
<path d="M126.127 7.30744C126.755 6.39906 127.613 5.94487 128.701 5.94487C129.239 5.94487 129.777 6.09066 130.315 6.38224C130.854 6.67382 131.291 7.18969 131.628 7.92985C132.043 8.86066 132.25 10.1391 132.25 11.7652C132.25 13.5035 132.009 14.8324 131.527 15.752C131.302 16.223 130.994 16.5987 130.601 16.8791C130.209 17.1594 129.867 17.3333 129.575 17.4006C129.284 17.4678 128.998 17.5071 128.717 17.5183C128.426 17.5183 128.134 17.4847 127.843 17.4174C127.551 17.3501 127.209 17.1707 126.817 16.8791C126.424 16.5875 126.116 16.2118 125.891 15.752C125.409 14.8324 125.168 13.5035 125.168 11.7652C125.168 9.8139 125.488 8.32797 126.127 7.30744ZM129.912 7.10558C129.575 6.74671 129.177 6.56728 128.717 6.56728C128.246 6.56728 127.843 6.74671 127.506 7.10558C127.226 7.39716 127.041 7.80088 126.951 8.31675C126.861 8.83262 126.817 9.90922 126.817 11.5466C126.817 13.3185 126.861 14.4848 126.951 15.0455C127.041 15.6062 127.243 16.0492 127.557 16.3744C127.871 16.7109 128.258 16.8791 128.717 16.8791C129.166 16.8791 129.547 16.7109 129.861 16.3744C130.187 16.038 130.388 15.567 130.467 14.9614C130.545 14.3558 130.59 13.2175 130.601 11.5466C130.601 9.92044 130.557 8.84945 130.467 8.33358C130.377 7.81771 130.192 7.40837 129.912 7.10558Z" fill="black"/>
<path d="M63 69H63.5V68.5H63V69ZM7 69V68.5H6.5V69H7ZM35.3536 60.6464C35.1583 60.4512 34.8417 60.4512 34.6464 60.6464L31.4645 63.8284C31.2692 64.0237 31.2692 64.3403 31.4645 64.5355C31.6597 64.7308 31.9763 64.7308 32.1716 64.5355L35 61.7071L37.8284 64.5355C38.0237 64.7308 38.3403 64.7308 38.5355 64.5355C38.7308 64.3403 38.7308 64.0237 38.5355 63.8284L35.3536 60.6464ZM63.5 77V69H62.5V77H63.5ZM6.5 69V77H7.5V69H6.5ZM63 68.5H35V69.5H63V68.5ZM35 68.5H7V69.5H35V68.5ZM35.5 69V61H34.5V69H35.5Z" fill="black"/>
<path d="M204 29H204.5V28.5H204V29ZM7 29V28.5H6.5V29H7ZM105.854 20.6464C105.658 20.4512 105.342 20.4512 105.146 20.6464L101.964 23.8284C101.769 24.0237 101.769 24.3403 101.964 24.5355C102.16 24.7308 102.476 24.7308 102.672 24.5355L105.5 21.7071L108.328 24.5355C108.524 24.7308 108.84 24.7308 109.036 24.5355C109.231 24.3403 109.231 24.0237 109.036 23.8284L105.854 20.6464ZM204.5 37V29H203.5V37H204.5ZM6.5 29V37H7.5V29H6.5ZM204 28.5H105.5V29.5H204V28.5ZM105.5 28.5H7V29.5H105.5V28.5ZM106 29V21H105V29H106Z" fill="black"/>
<path d="M67 131H66.5V131.5H67V131ZM163 131V131.5H163.5V131H163ZM114.646 139.354C114.842 139.549 115.158 139.549 115.354 139.354L118.536 136.172C118.731 135.976 118.731 135.66 118.536 135.464C118.34 135.269 118.024 135.269 117.828 135.464L115 138.293L112.172 135.464C111.976 135.269 111.66 135.269 111.464 135.464C111.269 135.66 111.269 135.976 111.464 136.172L114.646 139.354ZM66.5 123V131H67.5V123H66.5ZM163.5 131V123H162.5V131H163.5ZM67 131.5H115V130.5H67V131.5ZM115 131.5H163V130.5H115V131.5ZM114.5 131V139H115.5V131H114.5Z" fill="black"/>
<path d="M166 69H165.5V68.5H166V69ZM204 69V68.5H204.5V69H204ZM184.646 60.6464C184.842 60.4512 185.158 60.4512 185.354 60.6464L188.536 63.8284C188.731 64.0237 188.731 64.3403 188.536 64.5355C188.34 64.7308 188.024 64.7308 187.828 64.5355L185 61.7071L182.172 64.5355C181.976 64.7308 181.66 64.7308 181.464 64.5355C181.269 64.3403 181.269 64.0237 181.464 63.8284L184.646 60.6464ZM165.5 77V69H166.5V77H165.5ZM204.5 69V77H203.5V69H204.5ZM166 68.5H185V69.5H166V68.5ZM185 68.5H204V69.5H185V68.5ZM184.5 69V61H185.5V69H184.5Z" fill="black"/>
<path d="M13.3068 43V34.2727H16.2557C16.9375 34.2727 17.4972 34.3892 17.9347 34.6222C18.3722 34.8523 18.696 35.169 18.9062 35.5724C19.1165 35.9759 19.2216 36.4347 19.2216 36.9489C19.2216 37.4631 19.1165 37.919 18.9062 38.3168C18.696 38.7145 18.3736 39.027 17.9389 39.2543C17.5043 39.4787 16.9489 39.5909 16.2727 39.5909H13.8864V38.6364H16.2386C16.7045 38.6364 17.0795 38.5682 17.3636 38.4318C17.6506 38.2955 17.858 38.1023 17.9858 37.8523C18.1165 37.5994 18.1818 37.2983 18.1818 36.9489C18.1818 36.5994 18.1165 36.294 17.9858 36.0327C17.8551 35.7713 17.6463 35.5696 17.3594 35.4276C17.0724 35.2827 16.6932 35.2102 16.2216 35.2102H14.3636V43H13.3068ZM17.4148 39.0795L19.5625 43H18.3352L16.2216 39.0795H17.4148ZM22.7724 43.1534C22.3576 43.1534 21.9812 43.0753 21.6431 42.919C21.305 42.7599 21.0366 42.5312 20.8377 42.233C20.6388 41.9318 20.5394 41.5682 20.5394 41.142C20.5394 40.767 20.6133 40.4631 20.761 40.2301C20.9087 39.9943 21.1062 39.8097 21.3533 39.6761C21.6005 39.5426 21.8732 39.4432 22.1715 39.3778C22.4727 39.3097 22.7752 39.2557 23.0792 39.2159C23.4769 39.1648 23.7994 39.1264 24.0465 39.1009C24.2965 39.0724 24.4783 39.0256 24.592 38.9602C24.7085 38.8949 24.7667 38.7812 24.7667 38.6193V38.5852C24.7667 38.1648 24.6516 37.8381 24.4215 37.6051C24.1942 37.3722 23.8491 37.2557 23.386 37.2557C22.9059 37.2557 22.5295 37.3608 22.2567 37.571C21.984 37.7812 21.7923 38.0057 21.6815 38.2443L20.7269 37.9034C20.8974 37.5057 21.1246 37.196 21.4087 36.9744C21.6957 36.75 22.0082 36.5937 22.3462 36.5057C22.6871 36.4148 23.0224 36.3693 23.3519 36.3693C23.5621 36.3693 23.8036 36.3949 24.0763 36.446C24.3519 36.4943 24.6175 36.5952 24.8732 36.7486C25.1317 36.902 25.3462 37.1335 25.5167 37.4432C25.6871 37.7528 25.7724 38.1676 25.7724 38.6875V43H24.7667V42.1136H24.7156C24.6474 42.2557 24.5337 42.4077 24.3746 42.5696C24.2156 42.7315 24.0039 42.8693 23.7397 42.983C23.4755 43.0966 23.1531 43.1534 22.7724 43.1534ZM22.9258 42.25C23.3235 42.25 23.6587 42.1719 23.9315 42.0156C24.207 41.8594 24.4144 41.6577 24.5536 41.4105C24.6957 41.1634 24.7667 40.9034 24.7667 40.6307V39.7102C24.7241 39.7614 24.6303 39.8082 24.4854 39.8509C24.3434 39.8906 24.1786 39.9261 23.9911 39.9574C23.8065 39.9858 23.6261 40.0114 23.4499 40.0341C23.2766 40.054 23.136 40.071 23.0281 40.0852C22.7667 40.1193 22.5224 40.1747 22.2951 40.2514C22.0707 40.3253 21.8888 40.4375 21.7496 40.5881C21.6133 40.7358 21.5451 40.9375 21.5451 41.1932C21.5451 41.5426 21.6744 41.8068 21.9329 41.9858C22.1942 42.1619 22.5252 42.25 22.9258 42.25ZM28.6136 39.0625V43H27.608V36.4545H28.5795V37.4773H28.6648C28.8182 37.1449 29.0511 36.8778 29.3636 36.6761C29.6761 36.4716 30.0795 36.3693 30.5739 36.3693C31.017 36.3693 31.4048 36.4602 31.7372 36.642C32.0696 36.821 32.3281 37.0938 32.5128 37.4602C32.6974 37.8239 32.7898 38.2841 32.7898 38.8409V43H31.7841V38.9091C31.7841 38.3949 31.6506 37.9943 31.3835 37.7074C31.1165 37.4176 30.75 37.2727 30.2841 37.2727C29.9631 37.2727 29.6761 37.3423 29.4233 37.4815C29.1733 37.6207 28.9759 37.8239 28.831 38.0909C28.6861 38.358 28.6136 38.6818 28.6136 39.0625ZM37.0991 43.1364C36.5536 43.1364 36.0721 42.9986 35.6545 42.723C35.2369 42.4446 34.9102 42.0526 34.6744 41.5469C34.4386 41.0384 34.3207 40.4375 34.3207 39.7443C34.3207 39.0568 34.4386 38.4602 34.6744 37.9545C34.9102 37.4489 35.2383 37.0582 35.6587 36.7827C36.0792 36.5071 36.565 36.3693 37.1161 36.3693C37.5423 36.3693 37.8789 36.4403 38.1261 36.5824C38.3761 36.7216 38.5664 36.8807 38.6971 37.0597C38.8306 37.2358 38.9343 37.3807 39.0082 37.4943H39.0934V34.2727H40.0991V43H39.1275V41.9943H39.0082C38.9343 42.1136 38.8292 42.2642 38.6928 42.446C38.5565 42.625 38.3619 42.7855 38.109 42.9276C37.8562 43.0668 37.5195 43.1364 37.0991 43.1364ZM37.2354 42.233C37.6388 42.233 37.9798 42.1278 38.2582 41.9176C38.5366 41.7045 38.7482 41.4105 38.8931 41.0355C39.038 40.6577 39.1104 40.2216 39.1104 39.7273C39.1104 39.2386 39.0394 38.8111 38.8974 38.4446C38.7553 38.0753 38.5451 37.7884 38.2667 37.5838C37.9883 37.3764 37.6445 37.2727 37.2354 37.2727C36.8093 37.2727 36.4542 37.3821 36.1701 37.6009C35.8888 37.8168 35.6772 38.1108 35.5352 38.483C35.396 38.8523 35.3263 39.267 35.3263 39.7273C35.3263 40.1932 35.3974 40.6165 35.5394 40.9972C35.6843 41.375 35.8974 41.6761 36.1786 41.9006C36.4627 42.1222 36.815 42.233 37.2354 42.233ZM44.7397 43.1364C44.1488 43.1364 43.6303 42.9957 43.1843 42.7145C42.7411 42.4332 42.3945 42.0398 42.1445 41.5341C41.8974 41.0284 41.7738 40.4375 41.7738 39.7614C41.7738 39.0795 41.8974 38.4844 42.1445 37.9759C42.3945 37.4673 42.7411 37.0724 43.1843 36.7912C43.6303 36.5099 44.1488 36.3693 44.7397 36.3693C45.3306 36.3693 45.8477 36.5099 46.2908 36.7912C46.7369 37.0724 47.0835 37.4673 47.3306 37.9759C47.5806 38.4844 47.7056 39.0795 47.7056 39.7614C47.7056 40.4375 47.5806 41.0284 47.3306 41.5341C47.0835 42.0398 46.7369 42.4332 46.2908 42.7145C45.8477 42.9957 45.3306 43.1364 44.7397 43.1364ZM44.7397 42.233C45.1886 42.233 45.5579 42.1179 45.8477 41.8878C46.1374 41.6577 46.3519 41.3551 46.4911 40.9801C46.6303 40.6051 46.6999 40.1989 46.6999 39.7614C46.6999 39.3239 46.6303 38.9162 46.4911 38.5384C46.3519 38.1605 46.1374 37.8551 45.8477 37.6222C45.5579 37.3892 45.1886 37.2727 44.7397 37.2727C44.2908 37.2727 43.9215 37.3892 43.6317 37.6222C43.342 37.8551 43.1275 38.1605 42.9883 38.5384C42.8491 38.9162 42.7795 39.3239 42.7795 39.7614C42.7795 40.1989 42.8491 40.6051 42.9883 40.9801C43.1275 41.3551 43.342 41.6577 43.6317 41.8878C43.9215 42.1179 44.2908 42.233 44.7397 42.233ZM49.2408 43V36.4545H50.2124V37.4773H50.2976C50.4339 37.1278 50.6541 36.8565 50.9581 36.6634C51.2621 36.4673 51.6271 36.3693 52.0533 36.3693C52.4851 36.3693 52.8445 36.4673 53.1314 36.6634C53.4212 36.8565 53.647 37.1278 53.8089 37.4773H53.8771C54.0447 37.1392 54.2962 36.8707 54.6314 36.6719C54.9666 36.4702 55.3686 36.3693 55.8374 36.3693C56.4226 36.3693 56.9013 36.5526 57.2734 36.919C57.6456 37.2827 57.8317 37.8494 57.8317 38.6193V43H56.826V38.6193C56.826 38.1364 56.6939 37.7912 56.4297 37.5838C56.1655 37.3764 55.8544 37.2727 55.4964 37.2727C55.0362 37.2727 54.6797 37.4119 54.4268 37.6903C54.174 37.9659 54.0476 38.3153 54.0476 38.7386V43H53.0249V38.517C53.0249 38.1449 52.9041 37.8452 52.6626 37.6179C52.4212 37.3878 52.1101 37.2727 51.7294 37.2727C51.468 37.2727 51.2237 37.3423 50.9964 37.4815C50.772 37.6207 50.5902 37.8139 50.451 38.0611C50.3146 38.3054 50.2464 38.5881 50.2464 38.9091V43H49.2408ZM17.0424 51.4545C16.9913 51.0227 16.7839 50.6875 16.4203 50.4489C16.0566 50.2102 15.6106 50.0909 15.0822 50.0909C14.6958 50.0909 14.3578 50.1534 14.068 50.2784C13.7811 50.4034 13.5566 50.5753 13.3947 50.794C13.2356 51.0128 13.1561 51.2614 13.1561 51.5398C13.1561 51.7727 13.2115 51.973 13.3223 52.1406C13.4359 52.3054 13.5808 52.4432 13.7569 52.554C13.9331 52.6619 14.1177 52.7514 14.3109 52.8224C14.5041 52.8906 14.6816 52.946 14.8436 52.9886L15.7299 53.2273C15.9572 53.2869 16.21 53.3693 16.4885 53.4744C16.7697 53.5795 17.0382 53.723 17.2939 53.9048C17.5524 54.0838 17.7654 54.3139 17.9331 54.5952C18.1007 54.8764 18.1845 55.2216 18.1845 55.6307C18.1845 56.1023 18.0609 56.5284 17.8137 56.9091C17.5694 57.2898 17.2115 57.5923 16.7399 57.8168C16.2711 58.0412 15.7015 58.1534 15.0311 58.1534C14.4061 58.1534 13.8649 58.0526 13.4075 57.8509C12.9529 57.6491 12.595 57.3679 12.3336 57.0071C12.0751 56.6463 11.9288 56.2273 11.8947 55.75H12.9856C13.014 56.0795 13.1248 56.3523 13.318 56.5682C13.514 56.7812 13.7612 56.9403 14.0595 57.0455C14.3606 57.1477 14.6845 57.1989 15.0311 57.1989C15.4345 57.1989 15.7967 57.1335 16.1177 57.0028C16.4387 56.8693 16.693 56.6847 16.8805 56.4489C17.068 56.2102 17.1618 55.9318 17.1618 55.6136C17.1618 55.3239 17.0808 55.0881 16.9189 54.9062C16.7569 54.7244 16.5439 54.5767 16.2797 54.4631C16.0154 54.3494 15.7299 54.25 15.4231 54.1648L14.3493 53.858C13.6674 53.6619 13.1277 53.3821 12.7299 53.0185C12.3322 52.6548 12.1333 52.179 12.1333 51.5909C12.1333 51.1023 12.2654 50.6761 12.5297 50.3125C12.7967 49.946 13.1547 49.6619 13.6035 49.4602C14.0552 49.2557 14.5595 49.1534 15.1163 49.1534C15.6788 49.1534 16.1788 49.2543 16.6163 49.456C17.0538 49.6548 17.4004 49.9276 17.6561 50.2741C17.9146 50.6207 18.051 51.0142 18.0652 51.4545H17.0424ZM20.7914 54.0625V58H19.7857V49.2727H20.7914V52.4773H20.8766C21.03 52.1392 21.2601 51.8707 21.5669 51.6719C21.8766 51.4702 22.2885 51.3693 22.8027 51.3693C23.2488 51.3693 23.6394 51.4588 23.9746 51.6378C24.3098 51.8139 24.5698 52.0852 24.7544 52.4517C24.9419 52.8153 25.0357 53.2784 25.0357 53.8409V58H24.03V53.9091C24.03 53.3892 23.8951 52.9872 23.6252 52.7031C23.3581 52.4162 22.9874 52.2727 22.513 52.2727C22.1834 52.2727 21.888 52.3423 21.6266 52.4815C21.3681 52.6207 21.1635 52.8239 21.013 53.0909C20.8652 53.358 20.7914 53.6818 20.7914 54.0625ZM26.8755 58V51.4545H27.8812V58H26.8755ZM27.3869 50.3636C27.1909 50.3636 27.0218 50.2969 26.8798 50.1634C26.7406 50.0298 26.671 49.8693 26.671 49.6818C26.671 49.4943 26.7406 49.3338 26.8798 49.2003C27.0218 49.0668 27.1909 49 27.3869 49C27.5829 49 27.7505 49.0668 27.8897 49.2003C28.0318 49.3338 28.1028 49.4943 28.1028 49.6818C28.1028 49.8693 28.0318 50.0298 27.8897 50.1634C27.7505 50.2969 27.5829 50.3636 27.3869 50.3636ZM32.638 51.4545V52.3068H29.1096V51.4545H32.638ZM30.1664 58V50.5511C30.1664 50.1761 30.2544 49.8636 30.4306 49.6136C30.6067 49.3636 30.8354 49.1761 31.1167 49.0511C31.3979 48.9261 31.6948 48.8636 32.0073 48.8636C32.2544 48.8636 32.4561 48.8835 32.6124 48.9233C32.7686 48.9631 32.8851 49 32.9618 49.0341L32.6721 49.9034C32.6209 49.8864 32.5499 49.8651 32.459 49.8395C32.3709 49.8139 32.2544 49.8011 32.1096 49.8011C31.7772 49.8011 31.5371 49.8849 31.3894 50.0526C31.2445 50.2202 31.1721 50.4659 31.1721 50.7898V58H30.1664ZM36.894 51.4545V52.3068H33.502V51.4545H36.894ZM34.4906 49.8864H35.4963V56.125C35.4963 56.4091 35.5375 56.6222 35.6199 56.7642C35.7051 56.9034 35.813 56.9972 35.9437 57.0455C36.0772 57.0909 36.2179 57.1136 36.3656 57.1136C36.4764 57.1136 36.5673 57.108 36.6383 57.0966C36.7093 57.0824 36.7662 57.071 36.8088 57.0625L37.0133 57.9659C36.9451 57.9915 36.85 58.017 36.7278 58.0426C36.6056 58.071 36.4508 58.0852 36.2633 58.0852C35.9792 58.0852 35.7008 58.0241 35.4281 57.902C35.1582 57.7798 34.9338 57.5938 34.7548 57.3438C34.5787 57.0938 34.4906 56.7784 34.4906 56.3977V49.8864ZM42.1909 52.8352V51.9148H47.4409V52.8352H42.1909ZM42.1909 55.358V54.4375H47.4409V55.358H42.1909ZM55.9988 58.1193C55.4363 58.1193 54.9348 58.0227 54.4945 57.8295C54.057 57.6364 53.709 57.3679 53.4505 57.0241C53.1948 56.6776 53.0556 56.2756 53.0328 55.8182H54.1067C54.1294 56.0994 54.226 56.3423 54.3965 56.5469C54.5669 56.7486 54.79 56.9048 55.0655 57.0156C55.3411 57.1264 55.6465 57.1818 55.9817 57.1818C56.3567 57.1818 56.6891 57.1165 56.9789 56.9858C57.2686 56.8551 57.4959 56.6733 57.6607 56.4403C57.8255 56.2074 57.9078 55.9375 57.9078 55.6307C57.9078 55.3097 57.8283 55.027 57.6692 54.7827C57.5101 54.5355 57.2772 54.3423 56.9703 54.2031C56.6635 54.0639 56.2885 53.9943 55.8453 53.9943H55.1465V53.0568H55.8453C56.1919 53.0568 56.4959 52.9943 56.7573 52.8693C57.0215 52.7443 57.2275 52.5682 57.3752 52.3409C57.5257 52.1136 57.601 51.8466 57.601 51.5398C57.601 51.2443 57.5357 50.9872 57.405 50.7685C57.2743 50.5497 57.0897 50.3793 56.851 50.2571C56.6152 50.1349 56.3368 50.0739 56.0158 50.0739C55.7147 50.0739 55.4306 50.1293 55.1635 50.2401C54.8993 50.348 54.6834 50.5057 54.5158 50.7131C54.3482 50.9176 54.2573 51.1648 54.2431 51.4545H53.2203C53.2374 50.9972 53.3752 50.5966 53.6337 50.2528C53.8922 49.9062 54.2303 49.6364 54.6479 49.4432C55.0684 49.25 55.53 49.1534 56.0328 49.1534C56.5726 49.1534 57.0357 49.2628 57.4221 49.4815C57.8084 49.6974 58.1053 49.983 58.3127 50.3381C58.5201 50.6932 58.6238 51.0767 58.6238 51.4886C58.6238 51.9801 58.4945 52.3991 58.236 52.7457C57.9803 53.0923 57.6323 53.3324 57.1919 53.4659V53.5341C57.7431 53.625 58.1735 53.8594 58.4831 54.2372C58.7928 54.6122 58.9476 55.0767 58.9476 55.6307C58.9476 56.1051 58.8184 56.5312 58.5598 56.9091C58.3042 57.2841 57.9547 57.5795 57.5115 57.7955C57.0684 58.0114 56.5641 58.1193 55.9988 58.1193Z" fill="black"/>
<path d="M87.4968 143.821C87.0924 143.821 86.8783 143.797 86.8545 143.749C86.8426 143.726 86.8367 143.678 86.8367 143.607C86.8367 143.321 86.9021 143.125 87.0329 143.018C87.0567 143.006 87.1459 143 87.3005 143C87.9428 143.036 88.698 143.054 89.5663 143.054C91.2433 143.054 92.2067 143.036 92.4565 143H92.6705C92.7419 143.071 92.7776 143.125 92.7776 143.161C92.7776 143.196 92.7657 143.303 92.7419 143.482C92.6824 143.66 92.6289 143.773 92.5813 143.821H91.9034C91.0827 143.833 90.601 143.886 90.4583 143.981C90.3751 144.029 90.2918 144.195 90.2085 144.481C90.1253 144.766 89.7268 146.336 89.0132 149.191C88.8229 149.964 88.6207 150.785 88.4066 151.653C88.1925 152.521 88.032 153.175 87.9249 153.615L87.7644 154.257C87.7644 154.305 87.8179 154.329 87.9249 154.329C88.032 154.329 88.3828 154.341 88.9775 154.365H89.2808C89.6614 154.365 89.9647 154.359 90.1907 154.347C90.4167 154.335 90.7081 154.293 91.0649 154.222C91.4217 154.15 91.719 154.043 91.9569 153.901C92.1948 153.758 92.4565 153.556 92.7419 153.294C93.0274 153.032 93.2771 152.705 93.4912 152.313C93.6815 151.956 93.8599 151.558 94.0264 151.118C94.193 150.677 94.294 150.428 94.3297 150.368C94.3892 150.333 94.4903 150.315 94.633 150.315H94.8649C94.9363 150.422 94.972 150.487 94.972 150.511C94.972 150.535 94.8531 150.886 94.6152 151.564C94.3773 152.241 94.1156 152.955 93.8302 153.704C93.5447 154.454 93.3901 154.894 93.3663 155.025C93.3425 155.084 93.3188 155.12 93.295 155.132C93.2712 155.144 93.176 155.161 93.0095 155.185C92.843 155.209 92.5873 155.215 92.2424 155.203C92.1115 155.203 91.6596 155.203 90.8865 155.203C90.1134 155.203 89.376 155.197 88.6742 155.185H85.4986C84.4995 155.185 84 155.126 84 155.007C84 154.924 84.0119 154.84 84.0357 154.757C84.0952 154.531 84.1546 154.406 84.2141 154.382C84.2617 154.37 84.3509 154.365 84.4817 154.365H84.5887C84.9099 154.365 85.2667 154.347 85.6592 154.311C85.8257 154.275 85.9387 154.204 85.9982 154.097C86.0338 154.049 86.462 152.396 87.2827 149.137C88.1033 145.878 88.5137 144.16 88.5137 143.981C88.5137 143.898 88.1747 143.845 87.4968 143.821Z" fill="black"/>
<path d="M95.9318 155.162C95.9318 154.363 96.2051 153.674 96.7516 153.093C97.2982 152.513 97.9583 152.219 98.7319 152.211C99.4887 152.211 100.14 152.496 100.687 153.068C101.234 153.64 101.511 154.334 101.519 155.149C101.519 155.948 101.25 156.621 100.712 157.168C100.174 157.714 99.5139 157.987 98.7319 157.987C97.9163 157.987 97.2478 157.706 96.7264 157.142C96.2051 156.579 95.9402 155.919 95.9318 155.162ZM98.7319 157.483C99.7578 157.483 100.271 156.798 100.271 155.427V155.023V154.708C100.271 154.523 100.267 154.363 100.258 154.229C100.25 154.094 100.22 153.934 100.17 153.749C100.119 153.564 100.052 153.413 99.968 153.295C99.8839 153.178 99.7536 153.06 99.577 152.942C99.4004 152.824 99.1944 152.74 98.959 152.69C98.9169 152.681 98.8496 152.677 98.7571 152.677C98.5049 152.677 98.2652 152.728 98.0382 152.829C97.6766 153.014 97.4412 153.27 97.3318 153.598C97.2225 153.926 97.1679 154.313 97.1679 154.758V155.011C97.1679 155.818 97.2478 156.386 97.4075 156.713C97.6766 157.226 98.1181 157.483 98.7319 157.483Z" fill="black"/>
<path d="M106.716 157.13C106.245 157.701 105.711 157.987 105.114 157.987H105.026C103.975 157.987 103.369 157.571 103.21 156.739C103.201 156.68 103.193 156.104 103.184 155.011C103.176 154.094 103.172 153.581 103.172 153.472C103.172 153.362 103.147 153.274 103.096 153.207C103.012 153.072 102.76 153.005 102.339 153.005H102.201V152.715C102.201 152.522 102.209 152.425 102.226 152.425L102.365 152.412C102.449 152.404 102.571 152.395 102.73 152.387C102.89 152.379 103.05 152.37 103.21 152.362C103.353 152.353 103.508 152.345 103.676 152.337C103.845 152.328 103.971 152.316 104.055 152.299C104.139 152.282 104.189 152.278 104.206 152.286H104.244V154.569C104.252 156.116 104.265 156.945 104.282 157.054C104.307 157.18 104.366 157.281 104.458 157.357C104.627 157.474 104.879 157.533 105.215 157.533C105.434 157.533 105.631 157.495 105.808 157.42C105.985 157.344 106.119 157.247 106.212 157.13C106.304 157.012 106.388 156.877 106.464 156.726C106.54 156.575 106.59 156.449 106.615 156.348C106.64 156.247 106.657 156.146 106.666 156.045C106.666 156.037 106.666 155.965 106.666 155.831C106.666 155.696 106.67 155.528 106.678 155.326C106.687 155.124 106.687 154.927 106.678 154.733V153.888C106.678 153.501 106.636 153.262 106.552 153.169C106.468 153.077 106.258 153.022 105.922 153.005H105.694V152.425C105.711 152.425 106.031 152.404 106.653 152.362C107.275 152.32 107.608 152.295 107.65 152.286H107.738V154.531C107.738 156.045 107.742 156.814 107.75 156.84C107.776 157.008 107.835 157.117 107.927 157.168C108.02 157.218 108.209 157.256 108.495 157.281H108.722V157.861C108.705 157.861 108.39 157.882 107.776 157.924C107.162 157.966 106.838 157.992 106.804 158H106.716V157.13Z" fill="black"/>
<path d="M109.239 152.538C109.684 152.505 110.029 152.269 110.273 151.832C110.517 151.395 110.652 150.882 110.677 150.293V150.104H111.181V152.425H112.884V153.005H111.181V154.821C111.19 155.873 111.194 156.465 111.194 156.6C111.194 156.735 111.223 156.869 111.282 157.004C111.4 157.332 111.606 157.496 111.9 157.496C112.27 157.496 112.497 157.197 112.581 156.6C112.59 156.533 112.594 156.339 112.594 156.02V155.578H113.099V156.02V156.171C113.099 156.819 112.922 157.311 112.569 157.647C112.342 157.874 112.047 157.987 111.686 157.987C111.4 157.987 111.152 157.937 110.942 157.836C110.731 157.735 110.572 157.605 110.462 157.445C110.353 157.285 110.273 157.138 110.223 157.004C110.172 156.869 110.143 156.735 110.134 156.6C110.126 156.541 110.122 155.919 110.122 154.733V153.005H109.125V152.538H109.239Z" fill="black"/>
<path d="M120.654 148.994C120.654 148.84 120.737 148.721 120.903 148.638H132.268C132.446 148.733 132.535 148.852 132.535 148.994C132.535 149.125 132.452 149.238 132.286 149.333L126.612 149.351H120.939C120.749 149.292 120.654 149.173 120.654 148.994ZM120.654 152.456C120.654 152.277 120.749 152.158 120.939 152.099H132.286C132.452 152.218 132.535 152.337 132.535 152.456C132.535 152.61 132.446 152.729 132.268 152.812H120.903C120.737 152.729 120.654 152.61 120.654 152.456Z" fill="black"/>
<path d="M141.417 152.384C141.417 152.67 141.321 152.907 141.131 153.098C140.941 153.288 140.709 153.383 140.435 153.383H140.31C140.858 154.323 141.583 154.793 142.487 154.793C143.32 154.793 143.926 154.436 144.307 153.722C144.533 153.33 144.646 152.569 144.646 151.439C144.646 150.214 144.485 149.387 144.164 148.959C143.855 148.566 143.51 148.37 143.129 148.37H143.022C142.094 148.37 141.393 148.774 140.917 149.583C140.869 149.666 140.828 149.714 140.792 149.726C140.756 149.738 140.667 149.75 140.525 149.762C140.322 149.762 140.209 149.726 140.186 149.655C140.162 149.607 140.15 148.566 140.15 146.532V144.231C140.15 143.636 140.18 143.339 140.239 143.339C140.263 143.315 140.287 143.303 140.31 143.303C140.322 143.303 140.447 143.351 140.685 143.446C140.923 143.541 141.25 143.636 141.666 143.731C142.083 143.827 142.529 143.874 143.004 143.874C143.849 143.874 144.658 143.708 145.431 143.375C145.526 143.327 145.603 143.303 145.663 143.303C145.758 143.303 145.805 143.41 145.805 143.624V143.856C144.83 145.01 143.611 145.587 142.148 145.587C141.779 145.587 141.446 145.551 141.149 145.48L140.971 145.444V148.513C141.197 148.346 141.375 148.215 141.506 148.12C141.637 148.025 141.851 147.93 142.148 147.835C142.445 147.74 142.749 147.692 143.058 147.692C144.021 147.692 144.836 148.079 145.502 148.852C146.168 149.625 146.501 150.541 146.501 151.599C146.501 152.693 146.121 153.627 145.359 154.4C144.598 155.173 143.67 155.566 142.576 155.578C141.613 155.578 140.84 155.257 140.257 154.614C139.674 153.972 139.383 153.246 139.383 152.438C139.383 152.152 139.448 151.926 139.579 151.76C139.71 151.593 139.847 151.486 139.989 151.439C140.132 151.391 140.269 151.367 140.4 151.367C140.697 151.367 140.941 151.468 141.131 151.671C141.321 151.873 141.417 152.111 141.417 152.384Z" fill="black"/>
<path d="M159.972 49.2102V48.2727H166.518V49.2102H163.773V57H162.716V49.2102H159.972ZM167.333 57V50.4545H168.304V51.4432H168.372C168.492 51.1193 168.708 50.8565 169.02 50.6548C169.333 50.4531 169.685 50.3523 170.077 50.3523C170.151 50.3523 170.243 50.3537 170.354 50.3565C170.465 50.3594 170.548 50.3636 170.605 50.3693V51.392C170.571 51.3835 170.493 51.3707 170.371 51.3537C170.252 51.3338 170.125 51.3239 169.992 51.3239C169.673 51.3239 169.389 51.3906 169.139 51.5241C168.892 51.6548 168.696 51.8366 168.551 52.0696C168.409 52.2997 168.338 52.5625 168.338 52.858V57H167.333ZM175.922 54.3239V50.4545H176.928V57H175.922V55.892H175.854C175.701 56.2244 175.462 56.5071 175.138 56.7401C174.814 56.9702 174.405 57.0852 173.911 57.0852C173.502 57.0852 173.138 56.9957 172.82 56.8168C172.502 56.6349 172.252 56.3622 172.07 55.9986C171.888 55.6321 171.797 55.1705 171.797 54.6136V50.4545H172.803V54.5455C172.803 55.0227 172.937 55.4034 173.204 55.6875C173.474 55.9716 173.817 56.1136 174.235 56.1136C174.485 56.1136 174.739 56.0497 174.998 55.9219C175.259 55.794 175.478 55.598 175.654 55.3338C175.833 55.0696 175.922 54.733 175.922 54.3239ZM179.776 53.0625V57H178.77V50.4545H179.742V51.4773H179.827C179.98 51.1449 180.213 50.8778 180.526 50.6761C180.838 50.4716 181.242 50.3693 181.736 50.3693C182.179 50.3693 182.567 50.4602 182.899 50.642C183.232 50.821 183.49 51.0938 183.675 51.4602C183.86 51.8239 183.952 52.2841 183.952 52.8409V57H182.946V52.9091C182.946 52.3949 182.813 51.9943 182.546 51.7074C182.279 51.4176 181.912 51.2727 181.446 51.2727C181.125 51.2727 180.838 51.3423 180.585 51.4815C180.335 51.6207 180.138 51.8239 179.993 52.0909C179.848 52.358 179.776 52.6818 179.776 53.0625ZM188.449 57.1364C187.835 57.1364 187.307 56.9915 186.863 56.7017C186.42 56.4119 186.079 56.0128 185.841 55.5043C185.602 54.9957 185.483 54.4148 185.483 53.7614C185.483 53.0966 185.605 52.5099 185.849 52.0014C186.096 51.4901 186.44 51.0909 186.881 50.804C187.324 50.5142 187.841 50.3693 188.432 50.3693C188.892 50.3693 189.307 50.4545 189.676 50.625C190.045 50.7955 190.348 51.0341 190.584 51.3409C190.819 51.6477 190.966 52.0057 191.023 52.4148H190.017C189.94 52.1165 189.77 51.8523 189.506 51.6222C189.244 51.3892 188.892 51.2727 188.449 51.2727C188.057 51.2727 187.713 51.375 187.417 51.5795C187.125 51.7812 186.896 52.0668 186.731 52.4361C186.569 52.8026 186.488 53.233 186.488 53.7273C186.488 54.233 186.568 54.6733 186.727 55.0483C186.889 55.4233 187.116 55.7145 187.409 55.9219C187.704 56.1293 188.051 56.233 188.449 56.233C188.71 56.233 188.947 56.1875 189.16 56.0966C189.373 56.0057 189.554 55.875 189.702 55.7045C189.849 55.5341 189.954 55.3295 190.017 55.0909H191.023C190.966 55.4773 190.825 55.8253 190.601 56.1349C190.379 56.4418 190.085 56.6861 189.719 56.8679C189.355 57.0469 188.932 57.1364 188.449 57.1364ZM194.419 57.1534C194.004 57.1534 193.628 57.0753 193.29 56.919C192.952 56.7599 192.683 56.5312 192.484 56.233C192.285 55.9318 192.186 55.5682 192.186 55.142C192.186 54.767 192.26 54.4631 192.407 54.2301C192.555 53.9943 192.753 53.8097 193 53.6761C193.247 53.5426 193.52 53.4432 193.818 53.3778C194.119 53.3097 194.422 53.2557 194.726 53.2159C195.123 53.1648 195.446 53.1264 195.693 53.1009C195.943 53.0724 196.125 53.0256 196.238 52.9602C196.355 52.8949 196.413 52.7812 196.413 52.6193V52.5852C196.413 52.1648 196.298 51.8381 196.068 51.6051C195.841 51.3722 195.496 51.2557 195.032 51.2557C194.552 51.2557 194.176 51.3608 193.903 51.571C193.631 51.7812 193.439 52.0057 193.328 52.2443L192.373 51.9034C192.544 51.5057 192.771 51.196 193.055 50.9744C193.342 50.75 193.655 50.5937 193.993 50.5057C194.334 50.4148 194.669 50.3693 194.998 50.3693C195.209 50.3693 195.45 50.3949 195.723 50.446C195.998 50.4943 196.264 50.5952 196.52 50.7486C196.778 50.902 196.993 51.1335 197.163 51.4432C197.334 51.7528 197.419 52.1676 197.419 52.6875V57H196.413V56.1136H196.362C196.294 56.2557 196.18 56.4077 196.021 56.5696C195.862 56.7315 195.65 56.8693 195.386 56.983C195.122 57.0966 194.8 57.1534 194.419 57.1534ZM194.572 56.25C194.97 56.25 195.305 56.1719 195.578 56.0156C195.854 55.8594 196.061 55.6577 196.2 55.4105C196.342 55.1634 196.413 54.9034 196.413 54.6307V53.7102C196.371 53.7614 196.277 53.8082 196.132 53.8509C195.99 53.8906 195.825 53.9261 195.638 53.9574C195.453 53.9858 195.273 54.0114 195.096 54.0341C194.923 54.054 194.782 54.071 194.675 54.0852C194.413 54.1193 194.169 54.1747 193.942 54.2514C193.717 54.3253 193.535 54.4375 193.396 54.5881C193.26 54.7358 193.192 54.9375 193.192 55.1932C193.192 55.5426 193.321 55.8068 193.579 55.9858C193.841 56.1619 194.172 56.25 194.572 56.25ZM202.101 50.4545V51.3068H198.709V50.4545H202.101ZM199.698 48.8864H200.703V55.125C200.703 55.4091 200.744 55.6222 200.827 55.7642C200.912 55.9034 201.02 55.9972 201.151 56.0455C201.284 56.0909 201.425 56.1136 201.573 56.1136C201.683 56.1136 201.774 56.108 201.845 56.0966C201.916 56.0824 201.973 56.071 202.016 56.0625L202.22 56.9659C202.152 56.9915 202.057 57.017 201.935 57.0426C201.813 57.071 201.658 57.0852 201.47 57.0852C201.186 57.0852 200.908 57.0241 200.635 56.902C200.365 56.7798 200.141 56.5938 199.962 56.3438C199.786 56.0938 199.698 55.7784 199.698 55.3977V48.8864ZM206.288 57.1364C205.657 57.1364 205.113 56.9972 204.656 56.7188C204.201 56.4375 203.85 56.0455 203.603 55.5426C203.359 55.0369 203.237 54.4489 203.237 53.7784C203.237 53.108 203.359 52.517 203.603 52.0057C203.85 51.4915 204.194 51.0909 204.634 50.804C205.078 50.5142 205.595 50.3693 206.186 50.3693C206.526 50.3693 206.863 50.4261 207.195 50.5398C207.528 50.6534 207.83 50.8381 208.103 51.0938C208.376 51.3466 208.593 51.6818 208.755 52.0994C208.917 52.517 208.998 53.0312 208.998 53.642V54.0682H203.953V53.1989H207.975C207.975 52.8295 207.901 52.5 207.754 52.2102C207.609 51.9205 207.401 51.6918 207.132 51.5241C206.865 51.3565 206.549 51.2727 206.186 51.2727C205.785 51.2727 205.438 51.3722 205.146 51.571C204.856 51.767 204.633 52.0227 204.477 52.3381C204.32 52.6534 204.242 52.9915 204.242 53.3523V53.9318C204.242 54.4261 204.328 54.8452 204.498 55.1889C204.671 55.5298 204.911 55.7898 205.218 55.9688C205.525 56.1449 205.882 56.233 206.288 56.233C206.552 56.233 206.791 56.196 207.004 56.1222C207.22 56.0455 207.406 55.9318 207.562 55.7812C207.718 55.6278 207.839 55.4375 207.924 55.2102L208.896 55.483C208.794 55.8125 208.622 56.1023 208.38 56.3523C208.139 56.5994 207.84 56.7926 207.485 56.9318C207.13 57.0682 206.731 57.1364 206.288 57.1364Z" fill="black"/>
</svg>
