<svg width="130" height="140" viewBox="0 0 130 140" fill="none" xmlns="http://www.w3.org/2000/svg">
<rect width="130" height="140" fill="white"/>
<rect x="5" y="5" width="90" height="40" fill="#D9D9D9" stroke="black"/>
<rect x="95" y="5" width="30" height="40" fill="#9CEEFD"/>
<rect x="95" y="5" width="30" height="40" stroke="black"/>
<path d="M100.141 29.5V20.7727H103.09C103.774 20.7727 104.334 20.8963 104.769 21.1435C105.206 21.3878 105.53 21.7188 105.74 22.1364C105.95 22.554 106.056 23.0199 106.056 23.5341C106.056 24.0483 105.95 24.5156 105.74 24.9361C105.533 25.3565 105.212 25.6918 104.777 25.9418C104.343 26.1889 103.786 26.3125 103.107 26.3125H100.993V25.375H103.073C103.541 25.375 103.918 25.294 104.202 25.1321C104.486 24.9702 104.692 24.7514 104.82 24.4759C104.95 24.1974 105.016 23.8835 105.016 23.5341C105.016 23.1847 104.95 22.8722 104.82 22.5966C104.692 22.321 104.485 22.1051 104.198 21.9489C103.911 21.7898 103.53 21.7102 103.056 21.7102H101.198V29.5H100.141ZM109.548 29.6534C109.133 29.6534 108.757 29.5753 108.419 29.419C108.08 29.2599 107.812 29.0312 107.613 28.733C107.414 28.4318 107.315 28.0682 107.315 27.642C107.315 27.267 107.389 26.9631 107.536 26.7301C107.684 26.4943 107.882 26.3097 108.129 26.1761C108.376 26.0426 108.649 25.9432 108.947 25.8778C109.248 25.8097 109.551 25.7557 109.855 25.7159C110.252 25.6648 110.575 25.6264 110.822 25.6009C111.072 25.5724 111.254 25.5256 111.367 25.4602C111.484 25.3949 111.542 25.2812 111.542 25.1193V25.0852C111.542 24.6648 111.427 24.3381 111.197 24.1051C110.97 23.8722 110.624 23.7557 110.161 23.7557C109.681 23.7557 109.305 23.8608 109.032 24.071C108.759 24.2812 108.568 24.5057 108.457 24.7443L107.502 24.4034C107.673 24.0057 107.9 23.696 108.184 23.4744C108.471 23.25 108.784 23.0937 109.122 23.0057C109.463 22.9148 109.798 22.8693 110.127 22.8693C110.338 22.8693 110.579 22.8949 110.852 22.946C111.127 22.9943 111.393 23.0952 111.649 23.2486C111.907 23.402 112.122 23.6335 112.292 23.9432C112.463 24.2528 112.548 24.6676 112.548 25.1875V29.5H111.542V28.6136H111.491C111.423 28.7557 111.309 28.9077 111.15 29.0696C110.991 29.2315 110.779 29.3693 110.515 29.483C110.251 29.5966 109.928 29.6534 109.548 29.6534ZM109.701 28.75C110.099 28.75 110.434 28.6719 110.707 28.5156C110.982 28.3594 111.19 28.1577 111.329 27.9105C111.471 27.6634 111.542 27.4034 111.542 27.1307V26.2102C111.499 26.2614 111.406 26.3082 111.261 26.3509C111.119 26.3906 110.954 26.4261 110.767 26.4574C110.582 26.4858 110.401 26.5114 110.225 26.5341C110.052 26.554 109.911 26.571 109.803 26.5852C109.542 26.6193 109.298 26.6747 109.07 26.7514C108.846 26.8253 108.664 26.9375 108.525 27.0881C108.389 27.2358 108.32 27.4375 108.32 27.6932C108.32 28.0426 108.45 28.3068 108.708 28.4858C108.97 28.6619 109.301 28.75 109.701 28.75ZM116.855 29.6364C116.309 29.6364 115.828 29.4986 115.41 29.223C114.993 28.9446 114.666 28.5526 114.43 28.0469C114.194 27.5384 114.077 26.9375 114.077 26.2443C114.077 25.5568 114.194 24.9602 114.43 24.4545C114.666 23.9489 114.994 23.5582 115.415 23.2827C115.835 23.0071 116.321 22.8693 116.872 22.8693C117.298 22.8693 117.635 22.9403 117.882 23.0824C118.132 23.2216 118.322 23.3807 118.453 23.5597C118.586 23.7358 118.69 23.8807 118.764 23.9943H118.849V20.7727H119.855V29.5H118.883V28.4943H118.764C118.69 28.6136 118.585 28.7642 118.449 28.946C118.312 29.125 118.118 29.2855 117.865 29.4276C117.612 29.5668 117.275 29.6364 116.855 29.6364ZM116.991 28.733C117.395 28.733 117.736 28.6278 118.014 28.4176C118.292 28.2045 118.504 27.9105 118.649 27.5355C118.794 27.1577 118.866 26.7216 118.866 26.2273C118.866 25.7386 118.795 25.3111 118.653 24.9446C118.511 24.5753 118.301 24.2884 118.023 24.0838C117.744 23.8764 117.4 23.7727 116.991 23.7727C116.565 23.7727 116.21 23.8821 115.926 24.1009C115.645 24.3168 115.433 24.6108 115.291 24.983C115.152 25.3523 115.082 25.767 115.082 26.2273C115.082 26.6932 115.153 27.1165 115.295 27.4972C115.44 27.875 115.653 28.1761 115.934 28.4006C116.219 28.6222 116.571 28.733 116.991 28.733Z" fill="black"/>
<rect x="5" y="50" width="60" height="40" fill="#D9D9D9" stroke="black"/>
<rect x="65" y="50" width="60" height="40" fill="#9CEEFD" stroke="black"/>
<path d="M85.1408 75V66.2727H88.0897C88.7743 66.2727 89.334 66.3963 89.7686 66.6435C90.2061 66.8878 90.53 67.2188 90.7402 67.6364C90.9505 68.054 91.0556 68.5199 91.0556 69.0341C91.0556 69.5483 90.9505 70.0156 90.7402 70.4361C90.5328 70.8565 90.2118 71.1918 89.7772 71.4418C89.3425 71.6889 88.7857 71.8125 88.1067 71.8125H85.9931V70.875H88.0726C88.5414 70.875 88.9178 70.794 89.2019 70.6321C89.486 70.4702 89.6919 70.2514 89.8198 69.9759C89.9505 69.6974 90.0158 69.3835 90.0158 69.0341C90.0158 68.6847 89.9505 68.3722 89.8198 68.0966C89.6919 67.821 89.4846 67.6051 89.1976 67.4489C88.9107 67.2898 88.53 67.2102 88.0556 67.2102H86.1976V75H85.1408ZM94.5478 75.1534C94.133 75.1534 93.7566 75.0753 93.4185 74.919C93.0804 74.7599 92.812 74.5312 92.6131 74.233C92.4142 73.9318 92.3148 73.5682 92.3148 73.142C92.3148 72.767 92.3887 72.4631 92.5364 72.2301C92.6841 71.9943 92.8816 71.8097 93.1287 71.6761C93.3759 71.5426 93.6486 71.4432 93.9469 71.3778C94.248 71.3097 94.5506 71.2557 94.8546 71.2159C95.2523 71.1648 95.5748 71.1264 95.8219 71.1009C96.0719 71.0724 96.2537 71.0256 96.3674 70.9602C96.4838 70.8949 96.5421 70.7812 96.5421 70.6193V70.5852C96.5421 70.1648 96.427 69.8381 96.1969 69.6051C95.9696 69.3722 95.6245 69.2557 95.1614 69.2557C94.6813 69.2557 94.3049 69.3608 94.0321 69.571C93.7594 69.7812 93.5676 70.0057 93.4569 70.2443L92.5023 69.9034C92.6728 69.5057 92.9 69.196 93.1841 68.9744C93.4711 68.75 93.7836 68.5937 94.1216 68.5057C94.4625 68.4148 94.7978 68.3693 95.1273 68.3693C95.3375 68.3693 95.579 68.3949 95.8517 68.446C96.1273 68.4943 96.3929 68.5952 96.6486 68.7486C96.9071 68.902 97.1216 69.1335 97.2921 69.4432C97.4625 69.7528 97.5478 70.1676 97.5478 70.6875V75H96.5421V74.1136H96.4909C96.4228 74.2557 96.3091 74.4077 96.15 74.5696C95.9909 74.7315 95.7793 74.8693 95.5151 74.983C95.2509 75.0966 94.9284 75.1534 94.5478 75.1534ZM94.7012 74.25C95.0989 74.25 95.4341 74.1719 95.7069 74.0156C95.9824 73.8594 96.1898 73.6577 96.329 73.4105C96.4711 73.1634 96.5421 72.9034 96.5421 72.6307V71.7102C96.4995 71.7614 96.4057 71.8082 96.2608 71.8509C96.1188 71.8906 95.954 71.9261 95.7665 71.9574C95.5819 71.9858 95.4015 72.0114 95.2253 72.0341C95.052 72.054 94.9114 72.071 94.8034 72.0852C94.5421 72.1193 94.2978 72.1747 94.0705 72.2514C93.8461 72.3253 93.6642 72.4375 93.525 72.5881C93.3887 72.7358 93.3205 72.9375 93.3205 73.1932C93.3205 73.5426 93.4498 73.8068 93.7083 73.9858C93.9696 74.1619 94.3006 74.25 94.7012 74.25ZM101.855 75.1364C101.309 75.1364 100.828 74.9986 100.41 74.723C99.9927 74.4446 99.666 74.0526 99.4302 73.5469C99.1944 73.0384 99.0765 72.4375 99.0765 71.7443C99.0765 71.0568 99.1944 70.4602 99.4302 69.9545C99.666 69.4489 99.9941 69.0582 100.415 68.7827C100.835 68.5071 101.321 68.3693 101.872 68.3693C102.298 68.3693 102.635 68.4403 102.882 68.5824C103.132 68.7216 103.322 68.8807 103.453 69.0597C103.586 69.2358 103.69 69.3807 103.764 69.4943H103.849V66.2727H104.855V75H103.883V73.9943H103.764C103.69 74.1136 103.585 74.2642 103.449 74.446C103.312 74.625 103.118 74.7855 102.865 74.9276C102.612 75.0668 102.275 75.1364 101.855 75.1364ZM101.991 74.233C102.395 74.233 102.736 74.1278 103.014 73.9176C103.292 73.7045 103.504 73.4105 103.649 73.0355C103.794 72.6577 103.866 72.2216 103.866 71.7273C103.866 71.2386 103.795 70.8111 103.653 70.4446C103.511 70.0753 103.301 69.7884 103.023 69.5838C102.744 69.3764 102.4 69.2727 101.991 69.2727C101.565 69.2727 101.21 69.3821 100.926 69.6009C100.645 69.8168 100.433 70.1108 100.291 70.483C100.152 70.8523 100.082 71.267 100.082 71.7273C100.082 72.1932 100.153 72.6165 100.295 72.9972C100.44 73.375 100.653 73.6761 100.934 73.9006C101.219 74.1222 101.571 74.233 101.991 74.233Z" fill="black"/>
<rect x="5" y="95" width="120" height="40" fill="#D9D9D9" stroke="black"/>
</svg>
