<svg width="445" height="243" viewBox="0 0 445 243" fill="none" xmlns="http://www.w3.org/2000/svg">
<rect width="445" height="242.378" transform="translate(0 0.324066)" fill="white"/>
<path d="M92.4148 17.3241H91.3068L94.5114 8.59679H95.6023L98.8068 17.3241H97.6989L95.0909 9.97747H95.0227L92.4148 17.3241ZM92.8239 13.915H97.2898V14.8525H92.8239V13.915ZM100.78 10.7786L102.348 13.4547L103.916 10.7786H105.075L102.962 14.0513L105.075 17.3241H103.916L102.348 14.7843L100.78 17.3241H99.6207L101.7 14.0513L99.6207 10.7786H100.78ZM106.51 17.3241V10.7786H107.516V17.3241H106.51ZM107.022 9.6877C106.826 9.6877 106.657 9.62094 106.515 9.48742C106.375 9.3539 106.306 9.19338 106.306 9.00588C106.306 8.81838 106.375 8.65787 106.515 8.52435C106.657 8.39083 106.826 8.32407 107.022 8.32407C107.218 8.32407 107.385 8.39083 107.525 8.52435C107.667 8.65787 107.738 8.81838 107.738 9.00588C107.738 9.19338 107.667 9.3539 107.525 9.48742C107.385 9.62094 107.218 9.6877 107.022 9.6877ZM113.994 12.2445L113.091 12.5002C113.034 12.3496 112.95 12.2033 112.839 12.0613C112.732 11.9164 112.584 11.7971 112.396 11.7033C112.209 11.6096 111.969 11.5627 111.676 11.5627C111.276 11.5627 110.942 11.655 110.675 11.8397C110.411 12.0215 110.278 12.253 110.278 12.5343C110.278 12.7843 110.369 12.9817 110.551 13.1266C110.733 13.2715 111.017 13.3922 111.403 13.4888L112.375 13.7275C112.96 13.8695 113.396 14.0869 113.683 14.3795C113.97 14.6692 114.114 15.0428 114.114 15.5002C114.114 15.8752 114.006 16.2104 113.79 16.5059C113.577 16.8013 113.278 17.0343 112.895 17.2047C112.511 17.3752 112.065 17.4604 111.557 17.4604C110.889 17.4604 110.337 17.3155 109.899 17.0258C109.462 16.736 109.185 16.3127 109.068 15.7559L110.023 15.5172C110.114 15.8695 110.286 16.1337 110.538 16.3099C110.794 16.486 111.128 16.5741 111.54 16.5741C112.009 16.5741 112.381 16.4746 112.656 16.2758C112.935 16.0741 113.074 15.8326 113.074 15.5513C113.074 15.3241 112.994 15.1337 112.835 14.9803C112.676 14.8241 112.432 14.7076 112.102 14.6309L111.011 14.3752C110.412 14.2332 109.972 14.013 109.69 13.7147C109.412 13.4136 109.273 13.0371 109.273 12.5854C109.273 12.2161 109.376 11.8894 109.584 11.6053C109.794 11.3212 110.08 11.0982 110.44 10.9363C110.804 10.7744 111.216 10.6934 111.676 10.6934C112.324 10.6934 112.832 10.8354 113.202 11.1195C113.574 11.4036 113.838 11.7786 113.994 12.2445ZM122.054 8.59679V17.3241H120.997V9.70475H120.946L118.815 11.1195V10.0457L120.997 8.59679H122.054ZM125.314 16.2076C125.103 16.2076 124.923 16.1323 124.772 15.9817C124.622 15.8312 124.547 15.6508 124.547 15.4405C124.547 15.2303 124.622 15.0499 124.772 14.8994C124.923 14.7488 125.103 14.6735 125.314 14.6735C125.524 14.6735 125.704 14.7488 125.855 14.8994C126.005 15.0499 126.081 15.2303 126.081 15.4405C126.081 15.5797 126.045 15.7076 125.974 15.8241C125.906 15.9405 125.814 16.0343 125.697 16.1053C125.583 16.1735 125.456 16.2076 125.314 16.2076ZM125.314 11.7928C125.103 11.7928 124.923 11.7175 124.772 11.567C124.622 11.4164 124.547 11.236 124.547 11.0258C124.547 10.8155 124.622 10.6351 124.772 10.4846C124.923 10.334 125.103 10.2587 125.314 10.2587C125.524 10.2587 125.704 10.334 125.855 10.4846C126.005 10.6351 126.081 10.8155 126.081 11.0258C126.081 11.165 126.045 11.2928 125.974 11.4093C125.906 11.5258 125.814 11.6195 125.697 11.6905C125.583 11.7587 125.456 11.7928 125.314 11.7928ZM135.897 12.2445L134.993 12.5002C134.936 12.3496 134.853 12.2033 134.742 12.0613C134.634 11.9164 134.486 11.7971 134.299 11.7033C134.111 11.6096 133.871 11.5627 133.578 11.5627C133.178 11.5627 132.844 11.655 132.577 11.8397C132.313 12.0215 132.181 12.253 132.181 12.5343C132.181 12.7843 132.272 12.9817 132.453 13.1266C132.635 13.2715 132.919 13.3922 133.306 13.4888L134.277 13.7275C134.863 13.8695 135.299 14.0869 135.586 14.3795C135.873 14.6692 136.016 15.0428 136.016 15.5002C136.016 15.8752 135.908 16.2104 135.692 16.5059C135.479 16.8013 135.181 17.0343 134.797 17.2047C134.414 17.3752 133.968 17.4604 133.459 17.4604C132.792 17.4604 132.239 17.3155 131.801 17.0258C131.364 16.736 131.087 16.3127 130.971 15.7559L131.925 15.5172C132.016 15.8695 132.188 16.1337 132.441 16.3099C132.696 16.486 133.03 16.5741 133.442 16.5741C133.911 16.5741 134.283 16.4746 134.559 16.2758C134.837 16.0741 134.976 15.8326 134.976 15.5513C134.976 15.3241 134.897 15.1337 134.738 14.9803C134.578 14.8241 134.334 14.7076 134.005 14.6309L132.914 14.3752C132.314 14.2332 131.874 14.013 131.593 13.7147C131.314 13.4136 131.175 13.0371 131.175 12.5854C131.175 12.2161 131.279 11.8894 131.486 11.6053C131.696 11.3212 131.982 11.0982 132.343 10.9363C132.706 10.7744 133.118 10.6934 133.578 10.6934C134.226 10.6934 134.735 10.8354 135.104 11.1195C135.476 11.4036 135.74 11.7786 135.897 12.2445ZM139.456 17.4775C139.041 17.4775 138.665 17.3994 138.327 17.2431C137.989 17.084 137.72 16.8553 137.521 16.557C137.322 16.2559 137.223 15.8922 137.223 15.4661C137.223 15.0911 137.297 14.7871 137.445 14.5542C137.592 14.3184 137.79 14.1337 138.037 14.0002C138.284 13.8667 138.557 13.7672 138.855 13.7019C139.156 13.6337 139.459 13.5797 139.763 13.54C140.161 13.4888 140.483 13.4505 140.73 13.4249C140.98 13.3965 141.162 13.3496 141.276 13.2843C141.392 13.219 141.45 13.1053 141.45 12.9434V12.9093C141.45 12.4888 141.335 12.1621 141.105 11.9292C140.878 11.6962 140.533 11.5797 140.07 11.5797C139.589 11.5797 139.213 11.6849 138.94 11.8951C138.668 12.1053 138.476 12.3297 138.365 12.5684L137.411 12.2275C137.581 11.8297 137.808 11.5201 138.092 11.2985C138.379 11.0741 138.692 10.9178 139.03 10.8297C139.371 10.7388 139.706 10.6934 140.036 10.6934C140.246 10.6934 140.487 10.719 140.76 10.7701C141.036 10.8184 141.301 10.9192 141.557 11.0726C141.815 11.2261 142.03 11.4576 142.2 11.7672C142.371 12.0769 142.456 12.4917 142.456 13.0116V17.3241H141.45V16.4377H141.399C141.331 16.5797 141.217 16.7317 141.058 16.8937C140.899 17.0556 140.688 17.1934 140.423 17.307C140.159 17.4207 139.837 17.4775 139.456 17.4775ZM139.609 16.5741C140.007 16.5741 140.342 16.4959 140.615 16.3397C140.891 16.1834 141.098 15.9817 141.237 15.7346C141.379 15.4874 141.45 15.2275 141.45 14.9547V14.0343C141.408 14.0854 141.314 14.1323 141.169 14.1749C141.027 14.2147 140.862 14.2502 140.675 14.2815C140.49 14.3099 140.31 14.3354 140.134 14.3582C139.96 14.378 139.82 14.3951 139.712 14.4093C139.45 14.4434 139.206 14.4988 138.979 14.5755C138.754 14.6494 138.572 14.7616 138.433 14.9121C138.297 15.0599 138.229 15.2616 138.229 15.5172C138.229 15.8667 138.358 16.1309 138.616 16.3099C138.878 16.486 139.209 16.5741 139.609 16.5741ZM144.292 17.3241V10.7786H145.263V11.8013H145.348C145.485 11.4519 145.705 11.1806 146.009 10.9874C146.313 10.7914 146.678 10.6934 147.104 10.6934C147.536 10.6934 147.895 10.7914 148.182 10.9874C148.472 11.1806 148.698 11.4519 148.86 11.8013H148.928C149.096 11.4633 149.347 11.1948 149.682 10.9959C150.017 10.7942 150.419 10.6934 150.888 10.6934C151.473 10.6934 151.952 10.8766 152.324 11.2431C152.696 11.6067 152.882 12.1735 152.882 12.9434V17.3241H151.877V12.9434C151.877 12.4604 151.745 12.1153 151.48 11.9079C151.216 11.7005 150.905 11.5968 150.547 11.5968C150.087 11.5968 149.73 11.736 149.478 12.0144C149.225 12.29 149.098 12.6394 149.098 13.0627V17.3241H148.076V12.8411C148.076 12.469 147.955 12.1692 147.713 11.942C147.472 11.7119 147.161 11.5968 146.78 11.5968C146.519 11.5968 146.275 11.6664 146.047 11.8056C145.823 11.9448 145.641 12.138 145.502 12.3851C145.365 12.6295 145.297 12.9121 145.297 13.2332V17.3241H144.292ZM154.721 19.7786V10.7786H155.693V11.8184H155.812C155.886 11.7047 155.988 11.5599 156.119 11.3837C156.252 11.2047 156.443 11.0457 156.69 10.9065C156.94 10.7644 157.278 10.6934 157.704 10.6934C158.255 10.6934 158.741 10.8312 159.162 11.1067C159.582 11.3823 159.91 11.7729 160.146 12.2786C160.382 12.7843 160.5 13.3809 160.5 14.0684C160.5 14.7616 160.382 15.3624 160.146 15.8709C159.91 16.3766 159.583 16.7687 159.166 17.0471C158.748 17.3226 158.267 17.4604 157.721 17.4604C157.301 17.4604 156.964 17.3908 156.711 17.2516C156.458 17.1096 156.264 16.9491 156.127 16.7701C155.991 16.5883 155.886 16.4377 155.812 16.3184H155.727V19.7786H154.721ZM155.71 14.0513C155.71 14.5457 155.782 14.9817 155.927 15.3596C156.072 15.7346 156.284 16.0286 156.562 16.2417C156.841 16.4519 157.181 16.557 157.585 16.557C158.005 16.557 158.356 16.4462 158.637 16.2246C158.922 16.0002 159.135 15.6991 159.277 15.3212C159.422 14.9405 159.494 14.5172 159.494 14.0513C159.494 13.5911 159.423 13.1763 159.281 12.807C159.142 12.4349 158.93 12.1408 158.646 11.9249C158.365 11.7062 158.011 11.5968 157.585 11.5968C157.176 11.5968 156.832 11.7005 156.554 11.9079C156.275 12.1124 156.065 12.3994 155.923 12.7687C155.781 13.1351 155.71 13.5627 155.71 14.0513ZM163.039 8.59679V17.3241H162.034V8.59679H163.039ZM167.626 17.4604C166.995 17.4604 166.451 17.3212 165.994 17.0428C165.539 16.7616 165.188 16.3695 164.941 15.8667C164.697 15.361 164.575 14.7729 164.575 14.1025C164.575 13.432 164.697 12.8411 164.941 12.3297C165.188 11.8155 165.532 11.415 165.972 11.128C166.415 10.8383 166.933 10.6934 167.523 10.6934C167.864 10.6934 168.201 10.7502 168.533 10.8638C168.866 10.9775 169.168 11.1621 169.441 11.4178C169.714 11.6707 169.931 12.0059 170.093 12.4235C170.255 12.8411 170.336 13.3553 170.336 13.9661V14.3922H165.29V13.5229H169.313C169.313 13.1536 169.239 12.8241 169.092 12.5343C168.947 12.2445 168.739 12.0158 168.469 11.8482C168.202 11.6806 167.887 11.5968 167.523 11.5968C167.123 11.5968 166.776 11.6962 166.484 11.8951C166.194 12.0911 165.971 12.3468 165.815 12.6621C165.658 12.9775 165.58 13.3155 165.58 13.6763V14.2559C165.58 14.7502 165.665 15.1692 165.836 15.513C166.009 15.8539 166.249 16.1138 166.556 16.2928C166.863 16.469 167.219 16.557 167.626 16.557C167.89 16.557 168.129 16.5201 168.342 16.4462C168.558 16.3695 168.744 16.2559 168.9 16.1053C169.056 15.9519 169.177 15.7616 169.262 15.5343L170.234 15.807C170.131 16.1366 169.96 16.4263 169.718 16.6763C169.477 16.9235 169.178 17.1167 168.823 17.2559C168.468 17.3922 168.069 17.4604 167.626 17.4604ZM176.502 12.2445L175.599 12.5002C175.542 12.3496 175.458 12.2033 175.347 12.0613C175.239 11.9164 175.092 11.7971 174.904 11.7033C174.717 11.6096 174.477 11.5627 174.184 11.5627C173.783 11.5627 173.45 11.655 173.183 11.8397C172.918 12.0215 172.786 12.253 172.786 12.5343C172.786 12.7843 172.877 12.9817 173.059 13.1266C173.241 13.2715 173.525 13.3922 173.911 13.4888L174.883 13.7275C175.468 13.8695 175.904 14.0869 176.191 14.3795C176.478 14.6692 176.621 15.0428 176.621 15.5002C176.621 15.8752 176.513 16.2104 176.298 16.5059C176.085 16.8013 175.786 17.0343 175.403 17.2047C175.019 17.3752 174.573 17.4604 174.065 17.4604C173.397 17.4604 172.844 17.3155 172.407 17.0258C171.969 16.736 171.692 16.3127 171.576 15.7559L172.531 15.5172C172.621 15.8695 172.793 16.1337 173.046 16.3099C173.302 16.486 173.636 16.5741 174.048 16.5741C174.516 16.5741 174.888 16.4746 175.164 16.2758C175.442 16.0741 175.582 15.8326 175.582 15.5513C175.582 15.3241 175.502 15.1337 175.343 14.9803C175.184 14.8241 174.94 14.7076 174.61 14.6309L173.519 14.3752C172.92 14.2332 172.479 14.013 172.198 13.7147C171.92 13.4136 171.781 13.0371 171.781 12.5854C171.781 12.2161 171.884 11.8894 172.092 11.6053C172.302 11.3212 172.587 11.0982 172.948 10.9363C173.312 10.7744 173.724 10.6934 174.184 10.6934C174.832 10.6934 175.34 10.8354 175.71 11.1195C176.082 11.4036 176.346 11.7786 176.502 12.2445Z" fill="black"/>
<path d="M305.107 17.3241H302.414V8.59679H305.227C306.073 8.59679 306.798 8.77151 307.4 9.12094C308.002 9.46753 308.464 9.96611 308.785 10.6167C309.106 11.2644 309.267 12.04 309.267 12.9434C309.267 13.8525 309.105 14.6351 308.781 15.2914C308.457 15.9448 307.985 16.4476 307.366 16.7999C306.747 17.1494 305.994 17.3241 305.107 17.3241ZM303.471 16.3866H305.039C305.761 16.3866 306.359 16.2474 306.833 15.969C307.308 15.6905 307.661 15.2942 307.894 14.78C308.127 14.2658 308.244 13.6536 308.244 12.9434C308.244 12.2388 308.129 11.6323 307.899 11.1238C307.669 10.6124 307.325 10.2204 306.867 9.94765C306.41 9.67208 305.84 9.53429 305.159 9.53429H303.471V16.3866ZM312.829 17.4775C312.414 17.4775 312.038 17.3994 311.7 17.2431C311.362 17.084 311.093 16.8553 310.894 16.557C310.695 16.2559 310.596 15.8922 310.596 15.4661C310.596 15.0911 310.67 14.7871 310.818 14.5542C310.965 14.3184 311.163 14.1337 311.41 14.0002C311.657 13.8667 311.93 13.7672 312.228 13.7019C312.529 13.6337 312.832 13.5797 313.136 13.54C313.534 13.4888 313.856 13.4505 314.103 13.4249C314.353 13.3965 314.535 13.3496 314.649 13.2843C314.765 13.219 314.823 13.1053 314.823 12.9434V12.9093C314.823 12.4888 314.708 12.1621 314.478 11.9292C314.251 11.6962 313.906 11.5797 313.443 11.5797C312.963 11.5797 312.586 11.6849 312.313 11.8951C312.041 12.1053 311.849 12.3297 311.738 12.5684L310.784 12.2275C310.954 11.8297 311.181 11.5201 311.465 11.2985C311.752 11.0741 312.065 10.9178 312.403 10.8297C312.744 10.7388 313.079 10.6934 313.409 10.6934C313.619 10.6934 313.86 10.719 314.133 10.7701C314.409 10.8184 314.674 10.9192 314.93 11.0726C315.188 11.2261 315.403 11.4576 315.573 11.7672C315.744 12.0769 315.829 12.4917 315.829 13.0116V17.3241H314.823V16.4377H314.772C314.704 16.5797 314.59 16.7317 314.431 16.8937C314.272 17.0556 314.061 17.1934 313.796 17.307C313.532 17.4207 313.21 17.4775 312.829 17.4775ZM312.982 16.5741C313.38 16.5741 313.715 16.4959 313.988 16.3397C314.264 16.1834 314.471 15.9817 314.61 15.7346C314.752 15.4874 314.823 15.2275 314.823 14.9547V14.0343C314.781 14.0854 314.687 14.1323 314.542 14.1749C314.4 14.2147 314.235 14.2502 314.048 14.2815C313.863 14.3099 313.683 14.3354 313.507 14.3582C313.333 14.378 313.193 14.3951 313.085 14.4093C312.823 14.4434 312.579 14.4988 312.352 14.5755C312.127 14.6494 311.945 14.7616 311.806 14.9121C311.67 15.0599 311.602 15.2616 311.602 15.5172C311.602 15.8667 311.731 16.1309 311.99 16.3099C312.251 16.486 312.582 16.5741 312.982 16.5741ZM320.511 10.7786V11.6309H317.119V10.7786H320.511ZM318.108 9.21043H319.113V15.4491C319.113 15.7332 319.155 15.9462 319.237 16.0883C319.322 16.2275 319.43 16.3212 319.561 16.3695C319.694 16.415 319.835 16.4377 319.983 16.4377C320.094 16.4377 320.184 16.432 320.256 16.4207C320.327 16.4065 320.383 16.3951 320.426 16.3866L320.631 17.29C320.562 17.3155 320.467 17.3411 320.345 17.3667C320.223 17.3951 320.068 17.4093 319.881 17.4093C319.596 17.4093 319.318 17.3482 319.045 17.2261C318.775 17.1039 318.551 16.9178 318.372 16.6678C318.196 16.4178 318.108 16.1025 318.108 15.7218V9.21043ZM323.95 17.4775C323.535 17.4775 323.159 17.3994 322.821 17.2431C322.483 17.084 322.214 16.8553 322.015 16.557C321.817 16.2559 321.717 15.8922 321.717 15.4661C321.717 15.0911 321.791 14.7871 321.939 14.5542C322.086 14.3184 322.284 14.1337 322.531 14.0002C322.778 13.8667 323.051 13.7672 323.349 13.7019C323.65 13.6337 323.953 13.5797 324.257 13.54C324.655 13.4888 324.977 13.4505 325.224 13.4249C325.474 13.3965 325.656 13.3496 325.77 13.2843C325.886 13.219 325.944 13.1053 325.944 12.9434V12.9093C325.944 12.4888 325.829 12.1621 325.599 11.9292C325.372 11.6962 325.027 11.5797 324.564 11.5797C324.084 11.5797 323.707 11.6849 323.434 11.8951C323.162 12.1053 322.97 12.3297 322.859 12.5684L321.905 12.2275C322.075 11.8297 322.302 11.5201 322.586 11.2985C322.873 11.0741 323.186 10.9178 323.524 10.8297C323.865 10.7388 324.2 10.6934 324.53 10.6934C324.74 10.6934 324.981 10.719 325.254 10.7701C325.53 10.8184 325.795 10.9192 326.051 11.0726C326.309 11.2261 326.524 11.4576 326.694 11.7672C326.865 12.0769 326.95 12.4917 326.95 13.0116V17.3241H325.944V16.4377H325.893C325.825 16.5797 325.711 16.7317 325.552 16.8937C325.393 17.0556 325.182 17.1934 324.917 17.307C324.653 17.4207 324.331 17.4775 323.95 17.4775ZM324.104 16.5741C324.501 16.5741 324.836 16.4959 325.109 16.3397C325.385 16.1834 325.592 15.9817 325.731 15.7346C325.873 15.4874 325.944 15.2275 325.944 14.9547V14.0343C325.902 14.0854 325.808 14.1323 325.663 14.1749C325.521 14.2147 325.356 14.2502 325.169 14.2815C324.984 14.3099 324.804 14.3354 324.628 14.3582C324.454 14.378 324.314 14.3951 324.206 14.4093C323.944 14.4434 323.7 14.4988 323.473 14.5755C323.248 14.6494 323.067 14.7616 322.927 14.9121C322.791 15.0599 322.723 15.2616 322.723 15.5172C322.723 15.8667 322.852 16.1309 323.111 16.3099C323.372 16.486 323.703 16.5741 324.104 16.5741ZM333.422 12.2445L332.519 12.5002C332.462 12.3496 332.378 12.2033 332.267 12.0613C332.159 11.9164 332.012 11.7971 331.824 11.7033C331.637 11.6096 331.396 11.5627 331.104 11.5627C330.703 11.5627 330.369 11.655 330.102 11.8397C329.838 12.0215 329.706 12.253 329.706 12.5343C329.706 12.7843 329.797 12.9817 329.979 13.1266C330.161 13.2715 330.445 13.3922 330.831 13.4888L331.803 13.7275C332.388 13.8695 332.824 14.0869 333.111 14.3795C333.398 14.6692 333.541 15.0428 333.541 15.5002C333.541 15.8752 333.433 16.2104 333.218 16.5059C333.004 16.8013 332.706 17.0343 332.323 17.2047C331.939 17.3752 331.493 17.4604 330.985 17.4604C330.317 17.4604 329.764 17.3155 329.327 17.0258C328.889 16.736 328.612 16.3127 328.496 15.7559L329.45 15.5172C329.541 15.8695 329.713 16.1337 329.966 16.3099C330.222 16.486 330.556 16.5741 330.968 16.5741C331.436 16.5741 331.808 16.4746 332.084 16.2758C332.362 16.0741 332.502 15.8326 332.502 15.5513C332.502 15.3241 332.422 15.1337 332.263 14.9803C332.104 14.8241 331.86 14.7076 331.53 14.6309L330.439 14.3752C329.84 14.2332 329.399 14.013 329.118 13.7147C328.84 13.4136 328.7 13.0371 328.7 12.5854C328.7 12.2161 328.804 11.8894 329.012 11.6053C329.222 11.3212 329.507 11.0982 329.868 10.9363C330.232 10.7744 330.644 10.6934 331.104 10.6934C331.752 10.6934 332.26 10.8354 332.629 11.1195C333.002 11.4036 333.266 11.7786 333.422 12.2445ZM337.8 17.4604C337.169 17.4604 336.625 17.3212 336.167 17.0428C335.713 16.7616 335.362 16.3695 335.115 15.8667C334.871 15.361 334.748 14.7729 334.748 14.1025C334.748 13.432 334.871 12.8411 335.115 12.3297C335.362 11.8155 335.706 11.415 336.146 11.128C336.589 10.8383 337.106 10.6934 337.697 10.6934C338.038 10.6934 338.375 10.7502 338.707 10.8638C339.04 10.9775 339.342 11.1621 339.615 11.4178C339.888 11.6707 340.105 12.0059 340.267 12.4235C340.429 12.8411 340.51 13.3553 340.51 13.9661V14.3922H335.464V13.5229H339.487C339.487 13.1536 339.413 12.8241 339.265 12.5343C339.121 12.2445 338.913 12.0158 338.643 11.8482C338.376 11.6806 338.061 11.5968 337.697 11.5968C337.297 11.5968 336.95 11.6962 336.657 11.8951C336.368 12.0911 336.145 12.3468 335.988 12.6621C335.832 12.9775 335.754 13.3155 335.754 13.6763V14.2559C335.754 14.7502 335.839 15.1692 336.01 15.513C336.183 15.8539 336.423 16.1138 336.73 16.2928C337.037 16.469 337.393 16.557 337.8 16.557C338.064 16.557 338.302 16.5201 338.515 16.4462C338.731 16.3695 338.917 16.2559 339.074 16.1053C339.23 15.9519 339.351 15.7616 339.436 15.5343L340.407 15.807C340.305 16.1366 340.133 16.4263 339.892 16.6763C339.65 16.9235 339.352 17.1167 338.997 17.2559C338.642 17.3922 338.243 17.4604 337.8 17.4604ZM344.886 10.7786V11.6309H341.494V10.7786H344.886ZM342.483 9.21043H343.488V15.4491C343.488 15.7332 343.53 15.9462 343.612 16.0883C343.697 16.2275 343.805 16.3212 343.936 16.3695C344.069 16.415 344.21 16.4377 344.358 16.4377C344.469 16.4377 344.559 16.432 344.631 16.4207C344.702 16.4065 344.758 16.3951 344.801 16.3866L345.006 17.29C344.937 17.3155 344.842 17.3411 344.72 17.3667C344.598 17.3951 344.443 17.4093 344.256 17.4093C343.971 17.4093 343.693 17.3482 343.42 17.2261C343.15 17.1039 342.926 16.9178 342.747 16.6678C342.571 16.4178 342.483 16.1025 342.483 15.7218V9.21043ZM347.132 17.3922C346.922 17.3922 346.741 17.317 346.591 17.1664C346.44 17.0158 346.365 16.8354 346.365 16.6252C346.365 16.415 346.44 16.2346 346.591 16.084C346.741 15.9334 346.922 15.8582 347.132 15.8582C347.342 15.8582 347.523 15.9334 347.673 16.084C347.824 16.2346 347.899 16.415 347.899 16.6252C347.899 16.7644 347.863 16.8922 347.792 17.0087C347.724 17.1252 347.632 17.219 347.515 17.29C347.402 17.3582 347.274 17.3922 347.132 17.3922ZM349.704 17.3241V10.7786H350.675V11.7672H350.743C350.863 11.4434 351.079 11.1806 351.391 10.9789C351.704 10.7772 352.056 10.6763 352.448 10.6763C352.522 10.6763 352.614 10.6778 352.725 10.6806C352.836 10.6834 352.92 10.6877 352.976 10.6934V11.7161C352.942 11.7076 352.864 11.6948 352.742 11.6778C352.623 11.6579 352.496 11.6479 352.363 11.6479C352.045 11.6479 351.76 11.7147 351.51 11.8482C351.263 11.9789 351.067 12.1607 350.922 12.3937C350.78 12.6238 350.709 12.8866 350.709 13.182V17.3241H349.704ZM356.714 17.4604C356.083 17.4604 355.539 17.3212 355.081 17.0428C354.627 16.7616 354.276 16.3695 354.029 15.8667C353.785 15.361 353.662 14.7729 353.662 14.1025C353.662 13.432 353.785 12.8411 354.029 12.3297C354.276 11.8155 354.62 11.415 355.06 11.128C355.503 10.8383 356.02 10.6934 356.611 10.6934C356.952 10.6934 357.289 10.7502 357.621 10.8638C357.954 10.9775 358.256 11.1621 358.529 11.4178C358.802 11.6707 359.019 12.0059 359.181 12.4235C359.343 12.8411 359.424 13.3553 359.424 13.9661V14.3922H354.378V13.5229H358.401C358.401 13.1536 358.327 12.8241 358.18 12.5343C358.035 12.2445 357.827 12.0158 357.557 11.8482C357.29 11.6806 356.975 11.5968 356.611 11.5968C356.211 11.5968 355.864 11.6962 355.572 11.8951C355.282 12.0911 355.059 12.3468 354.903 12.6621C354.746 12.9775 354.668 13.3155 354.668 13.6763V14.2559C354.668 14.7502 354.753 15.1692 354.924 15.513C355.097 15.8539 355.337 16.1138 355.644 16.2928C355.951 16.469 356.307 16.557 356.714 16.557C356.978 16.557 357.216 16.5201 357.43 16.4462C357.645 16.3695 357.831 16.2559 357.988 16.1053C358.144 15.9519 358.265 15.7616 358.35 15.5343L359.322 15.807C359.219 16.1366 359.047 16.4263 358.806 16.6763C358.564 16.9235 358.266 17.1167 357.911 17.2559C357.556 17.3922 357.157 17.4604 356.714 17.4604ZM363.596 19.915C363.11 19.915 362.692 19.8525 362.343 19.7275C361.993 19.6053 361.702 19.4434 361.469 19.2417C361.239 19.0428 361.056 18.8297 360.92 18.6025L361.721 18.04C361.812 18.1593 361.927 18.2957 362.066 18.4491C362.205 18.6053 362.395 18.7403 362.637 18.8539C362.881 18.9704 363.201 19.0286 363.596 19.0286C364.124 19.0286 364.56 18.9008 364.904 18.6451C365.248 18.3894 365.42 17.9888 365.42 17.4434V16.1138H365.334C365.26 16.2332 365.155 16.3809 365.019 16.557C364.885 16.7303 364.692 16.8851 364.439 17.0215C364.189 17.155 363.851 17.2218 363.425 17.2218C362.897 17.2218 362.422 17.0968 362.002 16.8468C361.584 16.5968 361.253 16.2332 361.009 15.7559C360.768 15.2786 360.647 14.6991 360.647 14.0172C360.647 13.3468 360.765 12.763 361.001 12.2658C361.236 11.7658 361.564 11.3795 361.985 11.1067C362.405 10.8312 362.891 10.6934 363.442 10.6934C363.868 10.6934 364.206 10.7644 364.456 10.9065C364.709 11.0457 364.903 11.2047 365.036 11.3837C365.172 11.5599 365.278 11.7047 365.351 11.8184H365.454V10.7786H366.425V17.5116C366.425 18.0741 366.297 18.5315 366.042 18.8837C365.789 19.2388 365.448 19.4988 365.019 19.6636C364.593 19.8312 364.118 19.915 363.596 19.915ZM363.562 16.3184C363.965 16.3184 364.306 16.2261 364.584 16.0414C364.863 15.8567 365.074 15.5911 365.219 15.2445C365.364 14.8979 365.437 14.4832 365.437 14.0002C365.437 13.5286 365.366 13.1124 365.224 12.7516C365.081 12.3908 364.871 12.1082 364.593 11.9036C364.314 11.6991 363.971 11.5968 363.562 11.5968C363.135 11.5968 362.78 11.7047 362.496 11.9207C362.215 12.1366 362.003 12.4263 361.861 12.79C361.722 13.1536 361.653 13.557 361.653 14.0002C361.653 14.4547 361.724 14.8567 361.866 15.2062C362.01 15.5528 362.224 15.8255 362.505 16.0244C362.789 16.2204 363.141 16.3184 363.562 16.3184ZM368.266 17.3241V10.7786H369.272V17.3241H368.266ZM368.778 9.6877C368.581 9.6877 368.412 9.62094 368.27 9.48742C368.131 9.3539 368.062 9.19338 368.062 9.00588C368.062 8.81838 368.131 8.65787 368.27 8.52435C368.412 8.39083 368.581 8.32407 368.778 8.32407C368.974 8.32407 369.141 8.39083 369.28 8.52435C369.422 8.65787 369.493 8.81838 369.493 9.00588C369.493 9.19338 369.422 9.3539 369.28 9.48742C369.141 9.62094 368.974 9.6877 368.778 9.6877ZM373.773 17.4604C373.182 17.4604 372.664 17.3198 372.218 17.0386C371.774 16.7573 371.428 16.3638 371.178 15.8582C370.931 15.3525 370.807 14.7616 370.807 14.0854C370.807 13.4036 370.931 12.8084 371.178 12.2999C371.428 11.7914 371.774 11.3965 372.218 11.1153C372.664 10.834 373.182 10.6934 373.773 10.6934C374.364 10.6934 374.881 10.834 375.324 11.1153C375.77 11.3965 376.117 11.7914 376.364 12.2999C376.614 12.8084 376.739 13.4036 376.739 14.0854C376.739 14.7616 376.614 15.3525 376.364 15.8582C376.117 16.3638 375.77 16.7573 375.324 17.0386C374.881 17.3198 374.364 17.4604 373.773 17.4604ZM373.773 16.557C374.222 16.557 374.591 16.442 374.881 16.2119C375.171 15.9817 375.385 15.6792 375.524 15.3042C375.664 14.9292 375.733 14.5229 375.733 14.0854C375.733 13.6479 375.664 13.2403 375.524 12.8624C375.385 12.4846 375.171 12.1792 374.881 11.9462C374.591 11.7133 374.222 11.5968 373.773 11.5968C373.324 11.5968 372.955 11.7133 372.665 11.9462C372.375 12.1792 372.161 12.4846 372.021 12.8624C371.882 13.2403 371.813 13.6479 371.813 14.0854C371.813 14.5229 371.882 14.9292 372.021 15.3042C372.161 15.6792 372.375 15.9817 372.665 16.2119C372.955 16.442 373.324 16.557 373.773 16.557ZM379.28 13.3866V17.3241H378.274V10.7786H379.246V11.8013H379.331C379.484 11.469 379.717 11.2019 380.03 11.0002C380.342 10.7957 380.746 10.6934 381.24 10.6934C381.683 10.6934 382.071 10.7843 382.403 10.9661C382.736 11.1451 382.994 11.4178 383.179 11.7843C383.363 12.1479 383.456 12.6082 383.456 13.165V17.3241H382.45V13.2332C382.45 12.719 382.317 12.3184 382.05 12.0315C381.782 11.7417 381.416 11.5968 380.95 11.5968C380.629 11.5968 380.342 11.6664 380.089 11.8056C379.839 11.9448 379.642 12.1479 379.497 12.415C379.352 12.682 379.28 13.0059 379.28 13.3866ZM389.93 12.2445L389.026 12.5002C388.97 12.3496 388.886 12.2033 388.775 12.0613C388.667 11.9164 388.519 11.7971 388.332 11.7033C388.144 11.6096 387.904 11.5627 387.612 11.5627C387.211 11.5627 386.877 11.655 386.61 11.8397C386.346 12.0215 386.214 12.253 386.214 12.5343C386.214 12.7843 386.305 12.9817 386.487 13.1266C386.669 13.2715 386.953 13.3922 387.339 13.4888L388.311 13.7275C388.896 13.8695 389.332 14.0869 389.619 14.3795C389.906 14.6692 390.049 15.0428 390.049 15.5002C390.049 15.8752 389.941 16.2104 389.725 16.5059C389.512 16.8013 389.214 17.0343 388.83 17.2047C388.447 17.3752 388.001 17.4604 387.492 17.4604C386.825 17.4604 386.272 17.3155 385.835 17.0258C385.397 16.736 385.12 16.3127 385.004 15.7559L385.958 15.5172C386.049 15.8695 386.221 16.1337 386.474 16.3099C386.73 16.486 387.063 16.5741 387.475 16.5741C387.944 16.5741 388.316 16.4746 388.592 16.2758C388.87 16.0741 389.009 15.8326 389.009 15.5513C389.009 15.3241 388.93 15.1337 388.771 14.9803C388.612 14.8241 388.367 14.7076 388.038 14.6309L386.947 14.3752C386.347 14.2332 385.907 14.013 385.626 13.7147C385.347 13.4136 385.208 13.0371 385.208 12.5854C385.208 12.2161 385.312 11.8894 385.519 11.6053C385.73 11.3212 386.015 11.0982 386.376 10.9363C386.74 10.7744 387.151 10.6934 387.612 10.6934C388.259 10.6934 388.768 10.8354 389.137 11.1195C389.509 11.4036 389.774 11.7786 389.93 12.2445Z" fill="black"/>
<path d="M17 164.233V165.341L8.27273 162.137V161.046L17 157.841V158.949L9.65341 161.557V161.625L17 164.233ZM13.5909 163.824V159.358H14.5284V163.824H13.5909ZM10.4545 155.868L13.1307 154.3L10.4545 152.732V151.573L13.7273 153.686L17 151.573V152.732L14.4602 154.3L17 155.868V157.027L13.7273 154.948L10.4545 157.027V155.868ZM17 150.138H10.4545V149.132H17V150.138ZM9.36364 149.626C9.36364 149.822 9.29688 149.992 9.16335 150.134C9.02983 150.273 8.86932 150.342 8.68182 150.342C8.49432 150.342 8.33381 150.273 8.20028 150.134C8.06676 149.992 8 149.822 8 149.626C8 149.43 8.06676 149.263 8.20028 149.124C8.33381 148.982 8.49432 148.911 8.68182 148.911C8.86932 148.911 9.02983 148.982 9.16335 149.124C9.29688 149.263 9.36364 149.43 9.36364 149.626ZM11.9205 142.654L12.1761 143.557C12.0256 143.614 11.8793 143.698 11.7372 143.809C11.5923 143.917 11.473 144.064 11.3793 144.252C11.2855 144.439 11.2386 144.679 11.2386 144.972C11.2386 145.373 11.331 145.706 11.5156 145.973C11.6974 146.238 11.929 146.37 12.2102 146.37C12.4602 146.37 12.6577 146.279 12.8026 146.097C12.9474 145.915 13.0682 145.631 13.1648 145.245L13.4034 144.273C13.5455 143.688 13.7628 143.252 14.0554 142.965C14.3452 142.678 14.7187 142.534 15.1761 142.534C15.5511 142.534 15.8864 142.642 16.1818 142.858C16.4773 143.071 16.7102 143.37 16.8807 143.753C17.0511 144.137 17.1364 144.583 17.1364 145.091C17.1364 145.759 16.9915 146.311 16.7017 146.749C16.4119 147.186 15.9886 147.463 15.4318 147.58L15.1932 146.625C15.5455 146.534 15.8097 146.363 15.9858 146.11C16.1619 145.854 16.25 145.52 16.25 145.108C16.25 144.64 16.1506 144.267 15.9517 143.992C15.75 143.713 15.5085 143.574 15.2273 143.574C15 143.574 14.8097 143.654 14.6563 143.813C14.5 143.972 14.3835 144.216 14.3068 144.546L14.0511 145.637C13.9091 146.236 13.6889 146.677 13.3906 146.958C13.0895 147.236 12.7131 147.375 12.2614 147.375C11.892 147.375 11.5653 147.272 11.2812 147.064C10.9972 146.854 10.7741 146.569 10.6122 146.208C10.4503 145.844 10.3693 145.432 10.3693 144.972C10.3693 144.324 10.5114 143.816 10.7955 143.446C11.0795 143.074 11.4545 142.81 11.9205 142.654ZM17.1193 134.816C17.1193 135.458 16.9446 136.005 16.5952 136.457C16.2429 136.908 15.733 137.254 15.0653 137.492C14.3949 137.731 13.5852 137.85 12.6364 137.85C11.6932 137.85 10.8878 137.731 10.2202 137.492C9.54972 137.251 9.03835 136.904 8.68608 136.452C8.33097 135.998 8.15341 135.452 8.15341 134.816C8.15341 134.18 8.33097 133.636 8.68608 133.184C9.03835 132.729 9.54972 132.383 10.2202 132.144C10.8878 131.903 11.6932 131.782 12.6364 131.782C13.5852 131.782 14.3949 131.901 15.0653 132.14C15.733 132.379 16.2429 132.724 16.5952 133.175C16.9446 133.627 17.1193 134.174 17.1193 134.816ZM16.1818 134.816C16.1818 134.18 15.875 133.685 15.2614 133.333C14.6477 132.981 13.7727 132.805 12.6364 132.805C11.8807 132.805 11.2372 132.886 10.706 133.048C10.1747 133.207 9.76989 133.437 9.49148 133.738C9.21307 134.036 9.07386 134.396 9.07386 134.816C9.07386 135.447 9.38494 135.94 10.0071 136.295C10.6264 136.65 11.5028 136.827 12.6364 136.827C13.392 136.827 14.0341 136.748 14.5625 136.589C15.0909 136.43 15.4929 136.201 15.7685 135.903C16.044 135.602 16.1818 135.239 16.1818 134.816ZM15.8835 129.413C15.8835 129.623 15.8082 129.803 15.6577 129.954C15.5071 130.104 15.3267 130.18 15.1165 130.18C14.9062 130.18 14.7259 130.104 14.5753 129.954C14.4247 129.803 14.3494 129.623 14.3494 129.413C14.3494 129.202 14.4247 129.022 14.5753 128.871C14.7259 128.721 14.9062 128.646 15.1165 128.646C15.2557 128.646 15.3835 128.681 15.5 128.752C15.6165 128.82 15.7102 128.913 15.7813 129.029C15.8494 129.143 15.8835 129.271 15.8835 129.413ZM11.4688 129.413C11.4688 129.623 11.3935 129.803 11.2429 129.954C11.0923 130.104 10.9119 130.18 10.7017 130.18C10.4915 130.18 10.3111 130.104 10.1605 129.954C10.0099 129.803 9.93466 129.623 9.93466 129.413C9.93466 129.202 10.0099 129.022 10.1605 128.871C10.3111 128.721 10.4915 128.646 10.7017 128.646C10.8409 128.646 10.9688 128.681 11.0852 128.752C11.2017 128.82 11.2955 128.913 11.3665 129.029C11.4347 129.143 11.4688 129.271 11.4688 129.413ZM17 123.466H10.4545V122.494H11.4432V122.426C11.1193 122.307 10.8565 122.091 10.6548 121.778C10.4531 121.466 10.3523 121.114 10.3523 120.722C10.3523 120.648 10.3537 120.555 10.3565 120.445C10.3594 120.334 10.3636 120.25 10.3693 120.193H11.392C11.3835 120.227 11.3707 120.305 11.3537 120.428C11.3338 120.547 11.3239 120.673 11.3239 120.807C11.3239 121.125 11.3906 121.409 11.5241 121.659C11.6548 121.906 11.8366 122.102 12.0696 122.247C12.2997 122.389 12.5625 122.46 12.858 122.46H17V123.466ZM17.1364 116.456C17.1364 117.087 16.9972 117.631 16.7188 118.088C16.4375 118.543 16.0455 118.894 15.5426 119.141C15.0369 119.385 14.4489 119.507 13.7784 119.507C13.108 119.507 12.517 119.385 12.0057 119.141C11.4915 118.894 11.0909 118.55 10.804 118.109C10.5142 117.666 10.3693 117.149 10.3693 116.558C10.3693 116.217 10.4261 115.881 10.5398 115.548C10.6534 115.216 10.8381 114.913 11.0938 114.641C11.3466 114.368 11.6818 114.151 12.0994 113.989C12.517 113.827 13.0312 113.746 13.642 113.746H14.0682V118.791H13.1989V114.769C12.8295 114.769 12.5 114.842 12.2102 114.99C11.9205 115.135 11.6918 115.342 11.5241 115.612C11.3565 115.879 11.2727 116.195 11.2727 116.558C11.2727 116.959 11.3722 117.305 11.571 117.598C11.767 117.888 12.0227 118.111 12.3381 118.267C12.6534 118.423 12.9915 118.501 13.3523 118.501H13.9318C14.4261 118.501 14.8452 118.416 15.1889 118.246C15.5298 118.072 15.7898 117.832 15.9688 117.526C16.1449 117.219 16.233 116.862 16.233 116.456C16.233 116.192 16.196 115.953 16.1222 115.74C16.0455 115.524 15.9318 115.338 15.7813 115.182C15.6278 115.026 15.4375 114.905 15.2102 114.82L15.483 113.848C15.8125 113.95 16.1023 114.122 16.3523 114.364C16.5994 114.605 16.7926 114.903 16.9318 115.259C17.0682 115.614 17.1364 116.013 17.1364 116.456ZM19.5909 109.574C19.5909 110.06 19.5284 110.477 19.4034 110.827C19.2813 111.176 19.1193 111.467 18.9176 111.7C18.7188 111.93 18.5057 112.114 18.2784 112.25L17.7159 111.449C17.8352 111.358 17.9716 111.243 18.125 111.104C18.2813 110.965 18.4162 110.774 18.5298 110.533C18.6463 110.288 18.7045 109.969 18.7045 109.574C18.7045 109.046 18.5767 108.609 18.321 108.266C18.0653 107.922 17.6648 107.75 17.1193 107.75H15.7898V107.835C15.9091 107.909 16.0568 108.014 16.233 108.151C16.4063 108.284 16.5611 108.477 16.6974 108.73C16.831 108.98 16.8977 109.318 16.8977 109.744C16.8977 110.273 16.7727 110.747 16.5227 111.168C16.2727 111.585 15.9091 111.916 15.4318 112.161C14.9545 112.402 14.375 112.523 13.6932 112.523C13.0227 112.523 12.4389 112.405 11.9418 112.169C11.4418 111.933 11.0554 111.605 10.7827 111.185C10.5071 110.764 10.3693 110.278 10.3693 109.727C10.3693 109.301 10.4403 108.963 10.5824 108.713C10.7216 108.46 10.8807 108.267 11.0597 108.134C11.2358 107.997 11.3807 107.892 11.4943 107.818V107.716H10.4545V106.744H17.1875C17.75 106.744 18.2074 106.872 18.5597 107.128C18.9148 107.381 19.1747 107.722 19.3395 108.151C19.5071 108.577 19.5909 109.051 19.5909 109.574ZM15.9943 109.608C15.9943 109.205 15.902 108.864 15.7173 108.585C15.5327 108.307 15.267 108.095 14.9205 107.95C14.5739 107.805 14.1591 107.733 13.6761 107.733C13.2045 107.733 12.7884 107.804 12.4276 107.946C12.0668 108.088 11.7841 108.298 11.5795 108.577C11.375 108.855 11.2727 109.199 11.2727 109.608C11.2727 110.034 11.3807 110.389 11.5966 110.673C11.8125 110.955 12.1023 111.166 12.4659 111.308C12.8295 111.447 13.233 111.517 13.6761 111.517C14.1307 111.517 14.5327 111.446 14.8821 111.304C15.2287 111.159 15.5014 110.946 15.7003 110.665C15.8963 110.381 15.9943 110.028 15.9943 109.608ZM17 104.903H10.4545V103.898H17V104.903ZM9.36364 104.392C9.36364 104.588 9.29688 104.757 9.16335 104.899C9.02983 105.038 8.86932 105.108 8.68182 105.108C8.49432 105.108 8.33381 105.038 8.20028 104.899C8.06676 104.757 8 104.588 8 104.392C8 104.196 8.06676 104.028 8.20028 103.889C8.33381 103.747 8.49432 103.676 8.68182 103.676C8.86932 103.676 9.02983 103.747 9.16335 103.889C9.29688 104.028 9.36364 104.196 9.36364 104.392ZM17.1364 99.3967C17.1364 99.9876 16.9957 100.506 16.7145 100.952C16.4332 101.395 16.0398 101.742 15.5341 101.992C15.0284 102.239 14.4375 102.363 13.7614 102.363C13.0795 102.363 12.4844 102.239 11.9759 101.992C11.4673 101.742 11.0724 101.395 10.7912 100.952C10.5099 100.506 10.3693 99.9876 10.3693 99.3967C10.3693 98.8058 10.5099 98.2888 10.7912 97.8456C11.0724 97.3996 11.4673 97.053 11.9759 96.8058C12.4844 96.5558 13.0795 96.4308 13.7614 96.4308C14.4375 96.4308 15.0284 96.5558 15.5341 96.8058C16.0398 97.053 16.4332 97.3996 16.7145 97.8456C16.9957 98.2888 17.1364 98.8058 17.1364 99.3967ZM16.233 99.3967C16.233 98.9478 16.1179 98.5785 15.8878 98.2888C15.6577 97.999 15.3551 97.7845 14.9801 97.6453C14.6051 97.5061 14.1989 97.4365 13.7614 97.4365C13.3239 97.4365 12.9162 97.5061 12.5384 97.6453C12.1605 97.7845 11.8551 97.999 11.6222 98.2888C11.3892 98.5785 11.2727 98.9478 11.2727 99.3967C11.2727 99.8456 11.3892 100.215 11.6222 100.505C11.8551 100.794 12.1605 101.009 12.5384 101.148C12.9162 101.287 13.3239 101.357 13.7614 101.357C14.1989 101.357 14.6051 101.287 14.9801 101.148C15.3551 101.009 15.6577 100.794 15.8878 100.505C16.1179 100.215 16.233 99.8456 16.233 99.3967ZM13.0625 93.89H17V94.8956H10.4545V93.9241H11.4773V93.8388C11.1449 93.6854 10.8778 93.4525 10.6761 93.14C10.4716 92.8275 10.3693 92.4241 10.3693 91.9297C10.3693 91.4866 10.4602 91.0988 10.642 90.7664C10.821 90.434 11.0938 90.1755 11.4602 89.9908C11.8239 89.8062 12.2841 89.7138 12.8409 89.7138H17V90.7195H12.9091C12.3949 90.7195 11.9943 90.853 11.7074 91.1201C11.4176 91.3871 11.2727 91.7536 11.2727 92.2195C11.2727 92.5405 11.3423 92.8275 11.4815 93.0803C11.6207 93.3303 11.8239 93.5277 12.0909 93.6726C12.358 93.8175 12.6818 93.89 13.0625 93.89ZM11.9205 83.2398L12.1761 84.1432C12.0256 84.2 11.8793 84.2838 11.7372 84.3946C11.5923 84.5025 11.473 84.6503 11.3793 84.8378C11.2855 85.0253 11.2386 85.2653 11.2386 85.5579C11.2386 85.9585 11.331 86.2923 11.5156 86.5594C11.6974 86.8236 11.929 86.9557 12.2102 86.9557C12.4602 86.9557 12.6577 86.8648 12.8026 86.6829C12.9474 86.5011 13.0682 86.217 13.1648 85.8307L13.4034 84.8591C13.5455 84.2738 13.7628 83.8378 14.0554 83.5508C14.3452 83.2639 14.7187 83.1204 15.1761 83.1204C15.5511 83.1204 15.8864 83.2284 16.1818 83.4443C16.4773 83.6574 16.7102 83.9557 16.8807 84.3392C17.0511 84.7227 17.1364 85.1687 17.1364 85.6773C17.1364 86.3449 16.9915 86.8974 16.7017 87.3349C16.4119 87.7724 15.9886 88.0494 15.4318 88.1659L15.1932 87.2113C15.5455 87.1204 15.8097 86.9486 15.9858 86.6957C16.1619 86.44 16.25 86.1062 16.25 85.6943C16.25 85.2255 16.1506 84.8534 15.9517 84.5778C15.75 84.2994 15.5085 84.1602 15.2273 84.1602C15 84.1602 14.8097 84.2398 14.6563 84.3988C14.5 84.5579 14.3835 84.8023 14.3068 85.1318L14.0511 86.2227C13.9091 86.8221 13.6889 87.2625 13.3906 87.5437C13.0895 87.8221 12.7131 87.9613 12.2614 87.9613C11.892 87.9613 11.5653 87.8576 11.2813 87.6503C10.9972 87.44 10.7741 87.1545 10.6122 86.7937C10.4503 86.4301 10.3693 86.0182 10.3693 85.5579C10.3693 84.9102 10.5114 84.4017 10.7955 84.0324C11.0795 83.6602 11.4545 83.396 11.9205 83.2398Z" fill="black"/>
<path d="M22.1217 182.134L21.3383 181.35L29.7753 177.445L30.5467 178.217L26.6416 186.654L25.8581 185.87L29.2089 178.831L29.1606 178.783L22.1217 182.134ZM24.8216 180.012L27.9794 183.17L27.3165 183.833L24.1587 180.675L24.8216 180.012ZM32.665 183.42L31.8816 186.422L34.8828 185.638L35.7024 186.458L31.8936 187.277L31.074 191.086L30.2544 190.267L30.9415 187.362L28.0367 188.049L27.2171 187.229L31.0017 186.385L31.8454 182.601L32.665 183.42ZM32.0888 192.101L36.7171 187.473L37.4282 188.184L32.7999 192.812L32.0888 192.101ZM37.8501 187.063C37.7115 186.924 37.6391 186.757 37.6331 186.563C37.6291 186.37 37.6934 186.207 37.826 186.074C37.9585 185.942 38.1213 185.878 38.3141 185.882C38.509 185.888 38.6757 185.96 38.8143 186.098C38.9529 186.237 39.0242 186.403 39.0282 186.596C39.0343 186.791 38.971 186.954 38.8384 187.087C38.7058 187.219 38.5421 187.283 38.3473 187.277C38.1544 187.273 37.9887 187.201 37.8501 187.063ZM40.9725 193.801L40.1529 193.343C40.2192 193.196 40.2634 193.034 40.2855 192.855C40.3116 192.676 40.2915 192.487 40.2253 192.288C40.159 192.09 40.0224 191.887 39.8155 191.68C39.5322 191.397 39.2309 191.226 38.9115 191.167C38.5961 191.109 38.339 191.18 38.1401 191.378C37.9633 191.555 37.888 191.759 37.9141 191.99C37.9402 192.221 38.0557 192.507 38.2606 192.849L38.7789 193.705C39.0923 194.219 39.247 194.681 39.2429 195.091C39.2409 195.499 39.0782 195.864 38.7548 196.188C38.4896 196.453 38.1762 196.613 37.8147 196.67C37.4551 196.728 37.0794 196.682 36.6877 196.531C36.296 196.38 35.9203 196.125 35.5608 195.766C35.0887 195.294 34.8004 194.8 34.696 194.286C34.5915 193.772 34.695 193.277 35.0063 192.801L35.85 193.307C35.6652 193.62 35.5999 193.929 35.6542 194.232C35.7104 194.537 35.8842 194.836 36.1755 195.127C36.5069 195.458 36.8404 195.651 37.1759 195.705C37.5153 195.76 37.7845 195.687 37.9834 195.488C38.1441 195.328 38.2225 195.137 38.2184 194.916C38.2164 194.693 38.126 194.438 37.9472 194.151L37.3566 193.198C37.0332 192.674 36.8775 192.207 36.8896 191.797C36.9057 191.387 37.0734 191.023 37.3928 190.703C37.654 190.442 37.9583 190.285 38.3058 190.23C38.6554 190.178 39.0149 190.222 39.3846 190.363C39.7562 190.506 40.1047 190.74 40.4302 191.065C40.8882 191.523 41.1473 191.983 41.2076 192.445C41.2698 192.909 41.1915 193.361 40.9725 193.801ZM40.91 200.922L41.4524 200.38L45.7191 200.187C46.2193 200.165 46.6432 200.135 46.9907 200.096C47.3403 200.056 47.6376 199.988 47.8826 199.892C48.1317 199.795 48.3507 199.653 48.5395 199.464C48.7565 199.247 48.8921 199.007 48.9463 198.744C49.0026 198.482 48.9845 198.219 48.8921 197.954C48.7997 197.689 48.642 197.445 48.419 197.222C48.182 196.985 47.9258 196.827 47.6506 196.749C47.3794 196.67 47.1082 196.67 46.8371 196.749C46.5679 196.829 46.3158 196.987 46.0807 197.222L45.3696 196.511C45.7312 196.149 46.132 195.915 46.5719 195.809C47.0118 195.702 47.4518 195.716 47.8917 195.851C48.3336 195.987 48.7344 196.236 49.094 196.595C49.4556 196.957 49.6996 197.353 49.8262 197.785C49.9527 198.217 49.9658 198.642 49.8654 199.06C49.7649 199.478 49.556 199.845 49.2386 200.163C49.0116 200.39 48.7485 200.571 48.4491 200.705C48.1538 200.84 47.7732 200.939 47.3071 201.003C46.8451 201.068 46.2475 201.113 45.5142 201.139L42.6456 201.235L42.5974 201.284L45.466 204.152L44.8031 204.815L40.91 200.922ZM47.3674 205.801C47.2187 205.652 47.1444 205.471 47.1444 205.258C47.1444 205.045 47.2187 204.864 47.3674 204.716C47.516 204.567 47.6968 204.493 47.9098 204.493C48.1227 204.493 48.3035 204.567 48.4521 204.716C48.6008 204.864 48.6751 205.045 48.6751 205.258C48.6751 205.471 48.6008 205.652 48.4521 205.801C48.3537 205.899 48.2382 205.964 48.1056 205.996C47.9751 206.031 47.8435 206.032 47.7109 205.999C47.5823 205.967 47.4678 205.901 47.3674 205.801ZM50.4891 202.679C50.3404 202.53 50.2661 202.349 50.2661 202.136C50.2661 201.924 50.3404 201.743 50.4891 201.594C50.6378 201.445 50.8185 201.371 51.0315 201.371C51.2444 201.371 51.4252 201.445 51.5739 201.594C51.7225 201.743 51.7968 201.924 51.7968 202.136C51.7968 202.349 51.7225 202.53 51.5739 202.679C51.4754 202.777 51.3599 202.843 51.2273 202.875C51.0968 202.909 50.9652 202.91 50.8326 202.878C50.704 202.846 50.5895 202.779 50.4891 202.679ZM57.6651 205.335L51.494 211.506L50.7829 210.795L56.954 204.624L57.6651 205.335ZM54.6406 214.846C54.1946 214.4 53.9084 213.916 53.7818 213.396C53.6593 212.876 53.6884 212.351 53.8692 211.82C54.054 211.29 54.3835 210.788 54.8575 210.314C55.3316 209.84 55.8358 209.508 56.3702 209.319C56.9086 209.13 57.4349 209.09 57.9491 209.199C58.4674 209.307 58.9355 209.57 59.3533 209.988C59.5944 210.229 59.7922 210.507 59.9469 210.823C60.1016 211.138 60.1849 211.483 60.197 211.856C60.2111 212.228 60.1277 212.619 59.9469 213.029C59.7661 213.438 59.4598 213.859 59.0279 214.291L58.7265 214.592L55.1589 211.025L55.7736 210.41L58.6181 213.255C58.8792 212.993 59.06 212.708 59.1604 212.399C59.2629 212.091 59.278 211.783 59.2056 211.474C59.1353 211.166 58.9716 210.884 58.7145 210.627C58.4312 210.344 58.1159 210.169 57.7683 210.103C57.4248 210.036 57.0863 210.06 56.7529 210.172C56.4194 210.284 56.1251 210.468 55.87 210.723L55.4602 211.133C55.1107 211.483 54.8746 211.839 54.7521 212.203C54.6336 212.567 54.6195 212.92 54.7099 213.264C54.8023 213.605 54.9921 213.919 55.2794 214.207C55.4662 214.394 55.6611 214.536 55.864 214.635C56.0709 214.733 56.2828 214.784 56.4998 214.788C56.7187 214.79 56.9387 214.741 57.1597 214.641L57.6538 215.52C57.3485 215.681 57.0221 215.765 56.6745 215.771C56.329 215.775 55.9815 215.7 55.6319 215.548C55.2844 215.393 54.954 215.159 54.6406 214.846ZM61.2305 215.674L58.4463 218.458L57.7352 217.747L62.3635 213.119L63.0505 213.806L62.3274 214.529L62.3876 214.589C62.7311 214.463 63.0847 214.439 63.4483 214.517C63.8139 214.593 64.1715 214.806 64.521 215.156C64.8344 215.469 65.0443 215.808 65.1508 216.171C65.2592 216.533 65.2492 216.909 65.1206 217.298C64.9941 217.686 64.7339 218.077 64.3402 218.47L61.3993 221.411L60.6882 220.7L63.5809 217.808C63.9445 217.444 64.1333 217.066 64.1474 216.675C64.1634 216.281 64.0067 215.919 63.6773 215.59C63.4503 215.363 63.1982 215.209 62.921 215.129C62.6458 215.05 62.3625 215.054 62.0712 215.141C61.78 215.227 61.4997 215.405 61.2305 215.674ZM62.7349 226.411C62.3914 226.068 62.1403 225.728 61.9816 225.393C61.8209 225.059 61.7295 224.739 61.7074 224.431C61.6853 224.128 61.7064 223.848 61.7707 223.591L62.7349 223.759C62.7148 223.908 62.6997 224.086 62.6897 224.293C62.6777 224.502 62.7168 224.732 62.8072 224.983C62.8976 225.238 63.0824 225.505 63.3617 225.784C63.7353 226.158 64.134 226.376 64.5579 226.438C64.9818 226.5 65.3866 226.339 65.7722 225.953L66.7124 225.013L66.6521 224.953C66.5155 224.985 66.3367 225.015 66.1158 225.043C65.8988 225.071 65.6527 225.044 65.3775 224.962C65.1063 224.879 64.8201 224.688 64.5187 224.386C64.1451 224.013 63.898 223.589 63.7775 223.115C63.659 222.643 63.6821 222.151 63.8468 221.641C64.0135 221.133 64.3379 220.638 64.8201 220.156C65.2941 219.682 65.7903 219.352 66.3086 219.167C66.8289 218.98 67.3341 218.939 67.8243 219.044C68.3164 219.146 68.7574 219.392 69.1471 219.782C69.4484 220.083 69.6372 220.373 69.7136 220.65C69.7939 220.927 69.818 221.176 69.7859 221.397C69.7578 221.618 69.7296 221.795 69.7015 221.927L69.7738 222L70.5091 221.264L71.1961 221.952L66.4352 226.712C66.0374 227.11 65.6236 227.343 65.1937 227.411C64.7638 227.484 64.3389 227.427 63.9191 227.24C63.4993 227.057 63.1045 226.781 62.7349 226.411ZM65.254 223.844C65.5392 224.129 65.8456 224.305 66.173 224.371C66.5004 224.437 66.8379 224.399 67.1855 224.257C67.533 224.114 67.8775 223.872 68.219 223.53C68.5525 223.197 68.7965 222.852 68.9512 222.497C69.1059 222.141 69.1571 221.793 69.1049 221.451C69.0527 221.11 68.8819 220.794 68.5926 220.505C68.2913 220.204 67.9639 220.029 67.6103 219.981C67.2588 219.935 66.9042 219.99 66.5466 220.147C66.1911 220.305 65.8566 220.541 65.5432 220.855C65.2218 221.176 64.9878 221.511 64.8412 221.858C64.6985 222.206 64.6563 222.549 64.7146 222.889C64.7769 223.228 64.9567 223.547 65.254 223.844ZM74.5106 225.266L73.908 225.869L71.5095 223.47L72.1121 222.868L74.5106 225.266ZM73.92 222.458L74.6312 223.169L70.2198 227.58C70.0189 227.781 69.8974 227.961 69.8552 228.12C69.817 228.278 69.8271 228.421 69.8853 228.547C69.9476 228.674 70.031 228.79 70.1354 228.894C70.2138 228.972 70.2821 229.033 70.3403 229.075C70.4006 229.115 70.4488 229.147 70.485 229.171L69.9908 229.955C69.9245 229.925 69.8391 229.875 69.7347 229.807C69.6282 229.741 69.5087 229.641 69.3761 229.509C69.1752 229.308 69.0215 229.068 68.9151 228.789C68.8106 228.511 68.7835 228.221 68.8337 227.918C68.8859 227.616 69.0466 227.331 69.3158 227.062L73.92 222.458ZM74.5468 228.99L71.7626 231.775L71.0514 231.064L77.2226 224.892L77.9337 225.604L75.6677 227.87L75.728 227.93C76.0755 227.799 76.4281 227.772 76.7856 227.848C77.1472 227.925 77.5098 228.145 77.8734 228.508C78.1888 228.824 78.4017 229.163 78.5122 229.527C78.6247 229.888 78.6167 230.264 78.4881 230.654C78.3636 231.043 78.1024 231.437 77.7047 231.835L74.7638 234.776L74.0526 234.065L76.9453 231.172C77.313 230.804 77.5018 230.425 77.5118 230.033C77.5259 229.641 77.3652 229.278 77.0297 228.942C76.7967 228.709 76.5385 228.549 76.2553 228.463C75.9741 228.379 75.6858 228.378 75.3905 228.46C75.0972 228.544 74.816 228.721 74.5468 228.99Z" fill="black"/>
<path d="M46 25.6481H86V65.6481H46V25.6481Z" fill="#D9D9D9"/>
<path d="M70 47.6481H110V87.6481H70V47.6481Z" fill="#D9D9D9"/>
<path d="M86 25.6481L110 47.6481V87.6481L86 65.6481V25.6481Z" fill="#CDCDCD"/>
<path d="M46 65.6481H86L110 87.6481H70L46 65.6481Z" fill="#9D9D9D"/>
<path d="M86 25.6481H126V65.6481H86V25.6481Z" fill="#D9D9D9"/>
<path d="M110 47.6481H150V87.6481H110V47.6481Z" fill="#D9D9D9"/>
<path d="M126 25.6481L150 47.6481V87.6481L126 65.6481V25.6481Z" fill="#CDCDCD"/>
<path d="M86 65.6481H126L150 87.6481H110L86 65.6481Z" fill="#9D9D9D"/>
<path d="M126 25.6481H166V65.6481H126V25.6481Z" fill="#D9D9D9"/>
<path d="M150 47.6481H190V87.6481H150V47.6481Z" fill="#D9D9D9"/>
<path d="M166 25.6481L190 47.6481V87.6481L166 65.6481V25.6481Z" fill="#CDCDCD"/>
<path d="M126 65.6481H166L190 87.6481H150L126 65.6481Z" fill="#9D9D9D"/>
<path d="M166 25.6481H206V65.6481H166V25.6481Z" fill="#D9D9D9"/>
<path d="M190 47.6481H230V87.6481H190V47.6481Z" fill="#D9D9D9"/>
<path d="M206 25.6481L230 47.6481V87.6481L206 65.6481V25.6481Z" fill="#CDCDCD"/>
<path d="M166 65.6481H206L230 87.6481H190L166 65.6481Z" fill="#9D9D9D"/>
<path d="M36 54.6481H76V94.6481H36V54.6481Z" fill="#D9D9D9"/>
<path d="M70 86.6481H110V126.648H70V86.6481Z" fill="#D9D9D9"/>
<path d="M76 54.6481L110 86.6481V126.648L76 94.6481V54.6481Z" fill="#CDCDCD"/>
<path d="M36 94.6481H76L110 126.648H70L36 94.6481Z" fill="#9D9D9D"/>
<path d="M76 54.6481H116V94.6481H76V54.6481Z" fill="#D9D9D9"/>
<path d="M110 86.6481H150V126.648H110V86.6481Z" fill="#D9D9D9"/>
<path d="M116 54.6481L150 86.6481V126.648L116 94.6481V54.6481Z" fill="#CDCDCD"/>
<path d="M76 94.6481H116L150 126.648H110L76 94.6481Z" fill="#9D9D9D"/>
<path d="M116 54.6481H156V94.6481H116V54.6481Z" fill="#D9D9D9"/>
<path d="M150 86.6481H190V126.648H150V86.6481Z" fill="#D9D9D9"/>
<path d="M156 54.6481L190 86.6481V126.648L156 94.6481V54.6481Z" fill="#CDCDCD"/>
<path d="M116 94.6481H156L190 126.648H150L116 94.6481Z" fill="#9D9D9D"/>
<path d="M156 54.6481H196V94.6481H156V54.6481Z" fill="#D9D9D9"/>
<path d="M190 86.6481H230V126.648H190V86.6481Z" fill="#D9D9D9"/>
<path d="M196 54.6481L230 86.6481V126.648L196 94.6481V54.6481Z" fill="#CDCDCD"/>
<path d="M156 94.6481H196L230 126.648H190L156 94.6481Z" fill="#9D9D9D"/>
<path d="M59.5 116.704H99.5V156.704H59.5V116.704Z" fill="#D9D9D9"/>
<path d="M70 125.648H110V165.648H70V125.648Z" fill="#D9D9D9"/>
<path d="M99.5 116.704L110 125.648V165.648L99.5 156.704V116.704Z" fill="#CDCDCD"/>
<path d="M59.5 156.704H99.5L110 165.648H70L59.5 156.704Z" fill="#9D9D9D"/>
<path d="M99.5 116.704H139.5V156.704H99.5V116.704Z" fill="#D9D9D9"/>
<path d="M110 125.648H150V165.648H110V125.648Z" fill="#D9D9D9"/>
<path d="M139.5 116.704L150 125.648V165.648L139.5 156.704V116.704Z" fill="#CDCDCD"/>
<path d="M99.5 156.704H139.5L150 165.648H110L99.5 156.704Z" fill="#9D9D9D"/>
<path d="M139.5 116.704H179.5V156.704H139.5V116.704Z" fill="#D9D9D9"/>
<path d="M150 125.648H190V165.648H150V125.648Z" fill="#D9D9D9"/>
<path d="M179.5 116.704L190 125.648V165.648L179.5 156.704V116.704Z" fill="#CDCDCD"/>
<path d="M139.5 156.704H179.5L190 165.648H150L139.5 156.704Z" fill="#9D9D9D"/>
<path d="M179.5 116.704H219.5V156.704H179.5V116.704Z" fill="#D9D9D9"/>
<path d="M190 125.648H230V165.648H190V125.648Z" fill="#D9D9D9"/>
<path d="M219.5 116.704L230 125.648V165.648L219.5 156.704V116.704Z" fill="#CDCDCD"/>
<path d="M179.5 156.704H219.5L230 165.648H190L179.5 156.704Z" fill="#9D9D9D"/>
<path d="M53.5 149.859H93.5V189.859H53.5V149.859Z" fill="#D9D9D9"/>
<path d="M70 164.648H110V204.648H70V164.648Z" fill="#D9D9D9"/>
<path d="M93.5 149.859L110 164.648V204.648L93.5 189.859V149.859Z" fill="#CDCDCD"/>
<path d="M53.5 189.859H93.5L110 204.648H70L53.5 189.859Z" fill="#9D9D9D"/>
<path d="M93.5 149.859H133.5V189.859H93.5V149.859Z" fill="#D9D9D9"/>
<path d="M110 164.648H150V204.648H110V164.648Z" fill="#D9D9D9"/>
<path d="M133.5 149.859L150 164.648V204.648L133.5 189.859V149.859Z" fill="#CDCDCD"/>
<path d="M93.5 189.859H133.5L150 204.648H110L93.5 189.859Z" fill="#9D9D9D"/>
<path d="M133.5 149.859H173.5V189.859H133.5V149.859Z" fill="#D9D9D9"/>
<path d="M150 164.648H190V204.648H150V164.648Z" fill="#D9D9D9"/>
<path d="M173.5 149.859L190 164.648V204.648L173.5 189.859V149.859Z" fill="#CDCDCD"/>
<path d="M133.5 189.859H173.5L190 204.648H150L133.5 189.859Z" fill="#9D9D9D"/>
<path d="M173.5 149.859H213.5V189.859H173.5V149.859Z" fill="#D9D9D9"/>
<path d="M190 164.648H230V204.648H190V164.648Z" fill="#D9D9D9"/>
<path d="M213.5 149.859L230 164.648V204.648L213.5 189.859V149.859Z" fill="#CDCDCD"/>
<path d="M173.5 189.859H213.5L230 204.648H190L173.5 189.859Z" fill="#9D9D9D"/>
<rect x="252.5" y="27.1481" width="187" height="178" rx="9.5" stroke="black"/>
<path d="M260.58 43.7845C259.966 43.7845 259.438 43.6396 258.994 43.3498C258.551 43.0601 258.21 42.6609 257.972 42.1524C257.733 41.6439 257.614 41.0629 257.614 40.4095C257.614 39.7447 257.736 39.1581 257.98 38.6496C258.227 38.1382 258.571 37.739 259.011 37.4521C259.455 37.1623 259.972 37.0175 260.562 37.0175C261.023 37.0175 261.438 37.1027 261.807 37.2731C262.176 37.4436 262.479 37.6822 262.714 37.989C262.95 38.2959 263.097 38.6538 263.153 39.0629H262.148C262.071 38.7646 261.901 38.5004 261.636 38.2703C261.375 38.0373 261.023 37.9209 260.58 37.9209C260.188 37.9209 259.844 38.0231 259.548 38.2277C259.256 38.4294 259.027 38.7149 258.862 39.0842C258.7 39.4507 258.619 39.8811 258.619 40.3754C258.619 40.8811 258.699 41.3214 258.858 41.6964C259.02 42.0714 259.247 42.3626 259.54 42.57C259.835 42.7774 260.182 42.8811 260.58 42.8811C260.841 42.8811 261.078 42.8356 261.291 42.7447C261.504 42.6538 261.685 42.5231 261.832 42.3527C261.98 42.1822 262.085 41.9777 262.148 41.739H263.153C263.097 42.1254 262.956 42.4734 262.732 42.7831C262.51 43.0899 262.216 43.3342 261.849 43.516C261.486 43.695 261.063 43.7845 260.58 43.7845ZM265.629 39.7106V43.6481H264.624V34.9209H265.629V38.1254H265.714C265.868 37.7873 266.098 37.5189 266.405 37.32C266.714 37.1183 267.126 37.0175 267.641 37.0175C268.087 37.0175 268.477 37.1069 268.812 37.2859C269.148 37.4621 269.408 37.7334 269.592 38.0998C269.78 38.4635 269.874 38.9265 269.874 39.489V43.6481H268.868V39.5572C268.868 39.0373 268.733 38.6353 268.463 38.3513C268.196 38.0643 267.825 37.9209 267.351 37.9209C267.021 37.9209 266.726 37.9905 266.464 38.1297C266.206 38.2689 266.001 38.472 265.851 38.739C265.703 39.0061 265.629 39.33 265.629 39.7106ZM271.713 43.6481V37.1027H272.685V38.0913H272.753C272.873 37.7675 273.088 37.5047 273.401 37.303C273.713 37.1013 274.066 37.0004 274.458 37.0004C274.532 37.0004 274.624 37.0018 274.735 37.0047C274.846 37.0075 274.929 37.0118 274.986 37.0175V38.0402C274.952 38.0317 274.874 38.0189 274.752 38.0018C274.632 37.9819 274.506 37.972 274.373 37.972C274.054 37.972 273.77 38.0388 273.52 38.1723C273.273 38.303 273.077 38.4848 272.932 38.7177C272.79 38.9478 272.719 39.2106 272.719 39.5061V43.6481H271.713ZM278.638 43.7845C278.047 43.7845 277.529 43.6439 277.083 43.3626C276.64 43.0814 276.293 42.6879 276.043 42.1822C275.796 41.6765 275.672 41.0856 275.672 40.4095C275.672 39.7277 275.796 39.1325 276.043 38.624C276.293 38.1155 276.64 37.7206 277.083 37.4393C277.529 37.1581 278.047 37.0175 278.638 37.0175C279.229 37.0175 279.746 37.1581 280.189 37.4393C280.635 37.7206 280.982 38.1155 281.229 38.624C281.479 39.1325 281.604 39.7277 281.604 40.4095C281.604 41.0856 281.479 41.6765 281.229 42.1822C280.982 42.6879 280.635 43.0814 280.189 43.3626C279.746 43.6439 279.229 43.7845 278.638 43.7845ZM278.638 42.8811C279.087 42.8811 279.456 42.766 279.746 42.5359C280.036 42.3058 280.25 42.0032 280.39 41.6282C280.529 41.2532 280.598 40.847 280.598 40.4095C280.598 39.972 280.529 39.5643 280.39 39.1865C280.25 38.8086 280.036 38.5032 279.746 38.2703C279.456 38.0373 279.087 37.9209 278.638 37.9209C278.189 37.9209 277.82 38.0373 277.53 38.2703C277.24 38.5032 277.026 38.8086 276.887 39.1865C276.748 39.5643 276.678 39.972 276.678 40.4095C276.678 40.847 276.748 41.2532 276.887 41.6282C277.026 42.0032 277.24 42.3058 277.53 42.5359C277.82 42.766 278.189 42.8811 278.638 42.8811ZM283.139 43.6481V37.1027H284.111V38.1254H284.196C284.332 37.776 284.553 37.5047 284.857 37.3115C285.161 37.1155 285.526 37.0175 285.952 37.0175C286.384 37.0175 286.743 37.1155 287.03 37.3115C287.32 37.5047 287.545 37.776 287.707 38.1254H287.776C287.943 37.7873 288.195 37.5189 288.53 37.32C288.865 37.1183 289.267 37.0175 289.736 37.0175C290.321 37.0175 290.8 37.2007 291.172 37.5672C291.544 37.9308 291.73 38.4976 291.73 39.2675V43.6481H290.724V39.2675C290.724 38.7845 290.592 38.4393 290.328 38.2319C290.064 38.0246 289.753 37.9209 289.395 37.9209C288.935 37.9209 288.578 38.0601 288.325 38.3385C288.072 38.614 287.946 38.9635 287.946 39.3868V43.6481H286.923V39.1652C286.923 38.793 286.803 38.4933 286.561 38.266C286.32 38.0359 286.009 37.9209 285.628 37.9209C285.366 37.9209 285.122 37.9905 284.895 38.1297C284.67 38.2689 284.489 38.4621 284.349 38.7092C284.213 38.9535 284.145 39.2362 284.145 39.5572V43.6481H283.139Z" fill="black"/>
<path d="M274.699 70.5175C274.114 70.5175 273.597 70.4138 273.148 70.2064C272.702 69.9961 272.354 69.7078 272.104 69.3413C271.854 68.972 271.73 68.5515 271.733 68.08C271.73 67.7106 271.803 67.3697 271.95 67.0572C272.098 66.7419 272.3 66.4791 272.555 66.2689C272.814 66.0558 273.102 65.9209 273.42 65.864V65.8129C273.003 65.705 272.67 65.4706 272.423 65.1098C272.176 64.7461 272.054 64.3328 272.057 63.8697C272.054 63.4265 272.166 63.0302 272.393 62.6808C272.621 62.3314 272.933 62.0558 273.331 61.8541C273.732 61.6524 274.188 61.5515 274.699 61.5515C275.205 61.5515 275.656 61.6524 276.054 61.8541C276.452 62.0558 276.764 62.3314 276.991 62.6808C277.222 63.0302 277.338 63.4265 277.341 63.8697C277.338 64.3328 277.212 64.7461 276.962 65.1098C276.714 65.4706 276.386 65.705 275.977 65.8129V65.864C276.293 65.9209 276.577 66.0558 276.83 66.2689C277.082 66.4791 277.284 66.7419 277.435 67.0572C277.585 67.3697 277.662 67.7106 277.665 68.08C277.662 68.5515 277.534 68.972 277.281 69.3413C277.031 69.7078 276.683 69.9961 276.237 70.2064C275.794 70.4138 275.281 70.5175 274.699 70.5175ZM274.699 69.58C275.094 69.58 275.435 69.516 275.722 69.3882C276.009 69.2603 276.23 69.08 276.386 68.847C276.543 68.614 276.622 68.3413 276.625 68.0288C276.622 67.6993 276.537 67.4081 276.369 67.1552C276.202 66.9024 275.973 66.7035 275.683 66.5586C275.396 66.4138 275.068 66.3413 274.699 66.3413C274.327 66.3413 273.994 66.4138 273.702 66.5586C273.412 66.7035 273.183 66.9024 273.016 67.1552C272.851 67.4081 272.77 67.6993 272.773 68.0288C272.77 68.3413 272.845 68.614 272.999 68.847C273.155 69.08 273.378 69.2603 273.668 69.3882C273.957 69.516 274.301 69.58 274.699 69.58ZM274.699 65.4379C275.011 65.4379 275.288 65.3754 275.53 65.2504C275.774 65.1254 275.966 64.9507 276.105 64.7263C276.244 64.5018 276.315 64.239 276.318 63.9379C276.315 63.6425 276.246 63.3853 276.109 63.1666C275.973 62.945 275.784 62.7746 275.543 62.6552C275.301 62.5331 275.02 62.472 274.699 62.472C274.372 62.472 274.087 62.5331 273.842 62.6552C273.598 62.7746 273.409 62.945 273.276 63.1666C273.142 63.3853 273.077 63.6425 273.08 63.9379C273.077 64.239 273.143 64.5018 273.28 64.7263C273.419 64.9507 273.611 65.1254 273.855 65.2504C274.099 65.3754 274.381 65.4379 274.699 65.4379Z" fill="black"/>
<path d="M274.852 109.017C274.29 109.017 273.788 108.921 273.348 108.728C272.911 108.534 272.563 108.266 272.304 107.922C272.048 107.576 271.909 107.174 271.886 106.716H272.96C272.983 106.998 273.08 107.24 273.25 107.445C273.42 107.647 273.643 107.803 273.919 107.914C274.195 108.025 274.5 108.08 274.835 108.08C275.21 108.08 275.543 108.015 275.832 107.884C276.122 107.753 276.349 107.571 276.514 107.338C276.679 107.106 276.761 106.836 276.761 106.529C276.761 106.208 276.682 105.925 276.523 105.681C276.364 105.434 276.131 105.24 275.824 105.101C275.517 104.962 275.142 104.892 274.699 104.892H274V103.955H274.699C275.045 103.955 275.349 103.892 275.611 103.767C275.875 103.642 276.081 103.466 276.229 103.239C276.379 103.012 276.455 102.745 276.455 102.438C276.455 102.142 276.389 101.885 276.259 101.667C276.128 101.448 275.943 101.277 275.705 101.155C275.469 101.033 275.19 100.972 274.869 100.972C274.568 100.972 274.284 101.027 274.017 101.138C273.753 101.246 273.537 101.404 273.369 101.611C273.202 101.816 273.111 102.063 273.097 102.353H272.074C272.091 101.895 272.229 101.495 272.487 101.151C272.746 100.804 273.084 100.534 273.501 100.341C273.922 100.148 274.384 100.052 274.886 100.052C275.426 100.052 275.889 100.161 276.276 100.38C276.662 100.596 276.959 100.881 277.166 101.236C277.374 101.591 277.477 101.975 277.477 102.387C277.477 102.878 277.348 103.297 277.089 103.644C276.834 103.99 276.486 104.231 276.045 104.364V104.432C276.597 104.523 277.027 104.758 277.337 105.135C277.646 105.51 277.801 105.975 277.801 106.529C277.801 107.003 277.672 107.429 277.413 107.807C277.158 108.182 276.808 108.478 276.365 108.694C275.922 108.909 275.418 109.017 274.852 109.017Z" fill="black"/>
<path d="M274.801 147.517C274.443 147.512 274.085 147.444 273.727 147.313C273.369 147.182 273.043 146.962 272.747 146.652C272.452 146.34 272.214 145.918 272.036 145.387C271.857 144.853 271.767 144.182 271.767 143.375C271.767 142.603 271.839 141.918 271.984 141.321C272.129 140.722 272.339 140.218 272.615 139.809C272.891 139.397 273.223 139.084 273.612 138.871C274.004 138.658 274.446 138.552 274.938 138.552C275.426 138.552 275.861 138.65 276.241 138.846C276.625 139.039 276.938 139.309 277.179 139.655C277.42 140.002 277.577 140.401 277.648 140.853H276.608C276.511 140.461 276.324 140.135 276.045 139.877C275.767 139.618 275.398 139.489 274.938 139.489C274.261 139.489 273.729 139.783 273.339 140.371C272.953 140.959 272.759 141.784 272.756 142.847H272.824C272.983 142.606 273.172 142.4 273.391 142.229C273.612 142.056 273.857 141.922 274.124 141.829C274.391 141.735 274.673 141.688 274.972 141.688C275.472 141.688 275.929 141.813 276.344 142.063C276.759 142.31 277.091 142.652 277.341 143.09C277.591 143.525 277.716 144.023 277.716 144.586C277.716 145.125 277.595 145.62 277.354 146.069C277.112 146.515 276.773 146.87 276.335 147.134C275.901 147.395 275.389 147.523 274.801 147.517ZM274.801 146.58C275.159 146.58 275.48 146.49 275.764 146.311C276.051 146.133 276.277 145.892 276.442 145.591C276.609 145.29 276.693 144.955 276.693 144.586C276.693 144.225 276.612 143.897 276.45 143.601C276.291 143.303 276.071 143.066 275.79 142.89C275.511 142.713 275.193 142.625 274.835 142.625C274.565 142.625 274.314 142.679 274.081 142.787C273.848 142.892 273.643 143.037 273.467 143.222C273.294 143.407 273.158 143.618 273.058 143.857C272.959 144.093 272.909 144.341 272.909 144.603C272.909 144.949 272.99 145.273 273.152 145.574C273.317 145.875 273.541 146.118 273.825 146.303C274.112 146.488 274.438 146.58 274.801 146.58Z" fill="black"/>
<path d="M271.903 185.898V185.131L274.784 181.978C275.122 181.608 275.401 181.287 275.619 181.015C275.838 180.739 276 180.481 276.105 180.239C276.213 179.995 276.267 179.739 276.267 179.472C276.267 179.165 276.193 178.9 276.045 178.675C275.901 178.451 275.702 178.277 275.449 178.155C275.196 178.033 274.912 177.972 274.597 177.972C274.261 177.972 273.969 178.042 273.719 178.181C273.472 178.317 273.28 178.509 273.143 178.756C273.01 179.003 272.943 179.293 272.943 179.625H271.938C271.938 179.114 272.055 178.665 272.291 178.279C272.527 177.892 272.848 177.591 273.254 177.375C273.663 177.159 274.122 177.052 274.631 177.052C275.142 177.052 275.595 177.159 275.99 177.375C276.385 177.591 276.695 177.883 276.919 178.249C277.143 178.615 277.256 179.023 277.256 179.472C277.256 179.793 277.197 180.107 277.081 180.414C276.967 180.718 276.768 181.057 276.484 181.432C276.203 181.804 275.812 182.259 275.312 182.796L273.352 184.892V184.961H277.409V185.898H271.903Z" fill="black"/>
<path d="M306.58 43.7845C305.966 43.7845 305.438 43.6396 304.994 43.3498C304.551 43.0601 304.21 42.6609 303.972 42.1524C303.733 41.6439 303.614 41.0629 303.614 40.4095C303.614 39.7447 303.736 39.1581 303.98 38.6496C304.227 38.1382 304.571 37.739 305.011 37.4521C305.455 37.1623 305.972 37.0175 306.562 37.0175C307.023 37.0175 307.438 37.1027 307.807 37.2731C308.176 37.4436 308.479 37.6822 308.714 37.989C308.95 38.2959 309.097 38.6538 309.153 39.0629H308.148C308.071 38.7646 307.901 38.5004 307.636 38.2703C307.375 38.0373 307.023 37.9209 306.58 37.9209C306.188 37.9209 305.844 38.0231 305.548 38.2277C305.256 38.4294 305.027 38.7149 304.862 39.0842C304.7 39.4507 304.619 39.8811 304.619 40.3754C304.619 40.8811 304.699 41.3214 304.858 41.6964C305.02 42.0714 305.247 42.3626 305.54 42.57C305.835 42.7774 306.182 42.8811 306.58 42.8811C306.841 42.8811 307.078 42.8356 307.291 42.7447C307.504 42.6538 307.685 42.5231 307.832 42.3527C307.98 42.1822 308.085 41.9777 308.148 41.739H309.153C309.097 42.1254 308.956 42.4734 308.732 42.7831C308.51 43.0899 308.216 43.3342 307.849 43.516C307.486 43.695 307.063 43.7845 306.58 43.7845ZM311.629 39.7106V43.6481H310.624V34.9209H311.629V38.1254H311.714C311.868 37.7873 312.098 37.5189 312.405 37.32C312.714 37.1183 313.126 37.0175 313.641 37.0175C314.087 37.0175 314.477 37.1069 314.812 37.2859C315.148 37.4621 315.408 37.7334 315.592 38.0998C315.78 38.4635 315.874 38.9265 315.874 39.489V43.6481H314.868V39.5572C314.868 39.0373 314.733 38.6353 314.463 38.3513C314.196 38.0643 313.825 37.9209 313.351 37.9209C313.021 37.9209 312.726 37.9905 312.464 38.1297C312.206 38.2689 312.001 38.472 311.851 38.739C311.703 39.0061 311.629 39.33 311.629 39.7106ZM317.713 43.6481V37.1027H318.685V38.0913H318.753C318.873 37.7675 319.088 37.5047 319.401 37.303C319.713 37.1013 320.066 37.0004 320.458 37.0004C320.532 37.0004 320.624 37.0018 320.735 37.0047C320.846 37.0075 320.929 37.0118 320.986 37.0175V38.0402C320.952 38.0317 320.874 38.0189 320.752 38.0018C320.632 37.9819 320.506 37.972 320.373 37.972C320.054 37.972 319.77 38.0388 319.52 38.1723C319.273 38.303 319.077 38.4848 318.932 38.7177C318.79 38.9478 318.719 39.2106 318.719 39.5061V43.6481H317.713ZM324.638 43.7845C324.047 43.7845 323.529 43.6439 323.083 43.3626C322.64 43.0814 322.293 42.6879 322.043 42.1822C321.796 41.6765 321.672 41.0856 321.672 40.4095C321.672 39.7277 321.796 39.1325 322.043 38.624C322.293 38.1155 322.64 37.7206 323.083 37.4393C323.529 37.1581 324.047 37.0175 324.638 37.0175C325.229 37.0175 325.746 37.1581 326.189 37.4393C326.635 37.7206 326.982 38.1155 327.229 38.624C327.479 39.1325 327.604 39.7277 327.604 40.4095C327.604 41.0856 327.479 41.6765 327.229 42.1822C326.982 42.6879 326.635 43.0814 326.189 43.3626C325.746 43.6439 325.229 43.7845 324.638 43.7845ZM324.638 42.8811C325.087 42.8811 325.456 42.766 325.746 42.5359C326.036 42.3058 326.25 42.0032 326.39 41.6282C326.529 41.2532 326.598 40.847 326.598 40.4095C326.598 39.972 326.529 39.5643 326.39 39.1865C326.25 38.8086 326.036 38.5032 325.746 38.2703C325.456 38.0373 325.087 37.9209 324.638 37.9209C324.189 37.9209 323.82 38.0373 323.53 38.2703C323.24 38.5032 323.026 38.8086 322.887 39.1865C322.748 39.5643 322.678 39.972 322.678 40.4095C322.678 40.847 322.748 41.2532 322.887 41.6282C323.026 42.0032 323.24 42.3058 323.53 42.5359C323.82 42.766 324.189 42.8811 324.638 42.8811ZM329.139 43.6481V37.1027H330.111V38.1254H330.196C330.332 37.776 330.553 37.5047 330.857 37.3115C331.161 37.1155 331.526 37.0175 331.952 37.0175C332.384 37.0175 332.743 37.1155 333.03 37.3115C333.32 37.5047 333.545 37.776 333.707 38.1254H333.776C333.943 37.7873 334.195 37.5189 334.53 37.32C334.865 37.1183 335.267 37.0175 335.736 37.0175C336.321 37.0175 336.8 37.2007 337.172 37.5672C337.544 37.9308 337.73 38.4976 337.73 39.2675V43.6481H336.724V39.2675C336.724 38.7845 336.592 38.4393 336.328 38.2319C336.064 38.0246 335.753 37.9209 335.395 37.9209C334.935 37.9209 334.578 38.0601 334.325 38.3385C334.072 38.614 333.946 38.9635 333.946 39.3868V43.6481H332.923V39.1652C332.923 38.793 332.803 38.4933 332.561 38.266C332.32 38.0359 332.009 37.9209 331.628 37.9209C331.366 37.9209 331.122 37.9905 330.895 38.1297C330.67 38.2689 330.489 38.4621 330.349 38.7092C330.213 38.9535 330.145 39.2362 330.145 39.5572V43.6481H329.139ZM344.478 37.1027C344.427 36.6709 344.219 36.3356 343.856 36.097C343.492 35.8584 343.046 35.739 342.518 35.739C342.131 35.739 341.793 35.8015 341.504 35.9265C341.217 36.0515 340.992 36.2234 340.83 36.4422C340.671 36.6609 340.592 36.9095 340.592 37.1879C340.592 37.4209 340.647 37.6211 340.758 37.7888C340.871 37.9535 341.016 38.0913 341.192 38.2021C341.369 38.3101 341.553 38.3996 341.746 38.4706C341.94 38.5388 342.117 38.5942 342.279 38.6368L343.165 38.8754C343.393 38.9351 343.646 39.0175 343.924 39.1226C344.205 39.2277 344.474 39.3711 344.729 39.553C344.988 39.7319 345.201 39.9621 345.369 40.2433C345.536 40.5246 345.62 40.8697 345.62 41.2788C345.62 41.7504 345.496 42.1765 345.249 42.5572C345.005 42.9379 344.647 43.2405 344.175 43.4649C343.707 43.6893 343.137 43.8015 342.467 43.8015C341.842 43.8015 341.3 43.7007 340.843 43.499C340.388 43.2973 340.031 43.016 339.769 42.6552C339.511 42.2944 339.364 41.8754 339.33 41.3981H340.421C340.45 41.7277 340.56 42.0004 340.754 42.2163C340.95 42.4294 341.197 42.5885 341.495 42.6936C341.796 42.7959 342.12 42.847 342.467 42.847C342.87 42.847 343.232 42.7817 343.553 42.651C343.874 42.5175 344.129 42.3328 344.316 42.097C344.504 41.8584 344.597 41.58 344.597 41.2618C344.597 40.972 344.516 40.7362 344.354 40.5544C344.192 40.3726 343.979 40.2248 343.715 40.1112C343.451 39.9976 343.165 39.8981 342.859 39.8129L341.785 39.5061C341.103 39.3101 340.563 39.0302 340.165 38.6666C339.768 38.303 339.569 37.8271 339.569 37.239C339.569 36.7504 339.701 36.3243 339.965 35.9606C340.232 35.5942 340.59 35.3101 341.039 35.1084C341.491 34.9038 341.995 34.8015 342.552 34.8015C343.114 34.8015 343.614 34.9024 344.052 35.1041C344.489 35.303 344.836 35.5757 345.092 35.9223C345.35 36.2689 345.487 36.6623 345.501 37.1027H344.478ZM350.068 37.1027V37.955H346.676V37.1027H350.068ZM347.664 35.5345H348.67V41.7731C348.67 42.0572 348.711 42.2703 348.794 42.4123C348.879 42.5515 348.987 42.6453 349.118 42.6936C349.251 42.739 349.392 42.7618 349.539 42.7618C349.65 42.7618 349.741 42.7561 349.812 42.7447C349.883 42.7305 349.94 42.7192 349.983 42.7106L350.187 43.614C350.119 43.6396 350.024 43.6652 349.902 43.6907C349.779 43.7192 349.625 43.7334 349.437 43.7334C349.153 43.7334 348.875 43.6723 348.602 43.5501C348.332 43.428 348.108 43.2419 347.929 42.9919C347.752 42.7419 347.664 42.4265 347.664 42.0459V35.5345ZM353.507 43.8015C353.092 43.8015 352.716 43.7234 352.377 43.5672C352.039 43.4081 351.771 43.1794 351.572 42.8811C351.373 42.58 351.274 42.2163 351.274 41.7902C351.274 41.4152 351.348 41.1112 351.495 40.8782C351.643 40.6425 351.841 40.4578 352.088 40.3243C352.335 40.1907 352.608 40.0913 352.906 40.026C353.207 39.9578 353.51 39.9038 353.814 39.864C354.211 39.8129 354.534 39.7746 354.781 39.749C355.031 39.7206 355.213 39.6737 355.326 39.6084C355.443 39.543 355.501 39.4294 355.501 39.2675V39.2334C355.501 38.8129 355.386 38.4862 355.156 38.2532C354.929 38.0203 354.583 37.9038 354.12 37.9038C353.64 37.9038 353.264 38.0089 352.991 38.2192C352.718 38.4294 352.527 38.6538 352.416 38.8925L351.461 38.5515C351.632 38.1538 351.859 37.8442 352.143 37.6226C352.43 37.3981 352.743 37.2419 353.081 37.1538C353.422 37.0629 353.757 37.0175 354.086 37.0175C354.297 37.0175 354.538 37.043 354.811 37.0942C355.086 37.1425 355.352 37.2433 355.608 37.3967C355.866 37.5501 356.081 37.7817 356.251 38.0913C356.422 38.401 356.507 38.8157 356.507 39.3356V43.6481H355.501V42.7618H355.45C355.382 42.9038 355.268 43.0558 355.109 43.2177C354.95 43.3797 354.738 43.5175 354.474 43.6311C354.21 43.7447 353.887 43.8015 353.507 43.8015ZM353.66 42.8981C354.058 42.8981 354.393 42.82 354.666 42.6638C354.941 42.5075 355.149 42.3058 355.288 42.0586C355.43 41.8115 355.501 41.5515 355.501 41.2788V40.3584C355.458 40.4095 355.365 40.4564 355.22 40.499C355.078 40.5388 354.913 40.5743 354.725 40.6055C354.541 40.6339 354.36 40.6595 354.184 40.6822C354.011 40.7021 353.87 40.7192 353.762 40.7334C353.501 40.7675 353.257 40.8228 353.029 40.8996C352.805 40.9734 352.623 41.0856 352.484 41.2362C352.348 41.3839 352.279 41.5856 352.279 41.8413C352.279 42.1907 352.409 42.455 352.667 42.6339C352.929 42.8101 353.26 42.8981 353.66 42.8981ZM358.342 43.6481V37.1027H359.314V38.0913H359.382C359.501 37.7675 359.717 37.5047 360.03 37.303C360.342 37.1013 360.695 37.0004 361.087 37.0004C361.161 37.0004 361.253 37.0018 361.364 37.0047C361.474 37.0075 361.558 37.0118 361.615 37.0175V38.0402C361.581 38.0317 361.503 38.0189 361.381 38.0018C361.261 37.9819 361.135 37.972 361.001 37.972C360.683 37.972 360.399 38.0388 360.149 38.1723C359.902 38.303 359.706 38.4848 359.561 38.7177C359.419 38.9478 359.348 39.2106 359.348 39.5061V43.6481H358.342ZM366.064 37.1027V37.955H362.672V37.1027H366.064ZM363.661 35.5345H364.666V41.7731C364.666 42.0572 364.707 42.2703 364.79 42.4123C364.875 42.5515 364.983 42.6453 365.114 42.6936C365.247 42.739 365.388 42.7618 365.536 42.7618C365.646 42.7618 365.737 42.7561 365.808 42.7447C365.879 42.7305 365.936 42.7192 365.979 42.7106L366.183 43.614C366.115 43.6396 366.02 43.6652 365.898 43.6907C365.776 43.7192 365.621 43.7334 365.433 43.7334C365.149 43.7334 364.871 43.6723 364.598 43.5501C364.328 43.428 364.104 43.2419 363.925 42.9919C363.749 42.7419 363.661 42.4265 363.661 42.0459V35.5345Z" fill="black"/>
<path d="M334.631 70.5175C334.131 70.5175 333.68 70.418 333.28 70.2192C332.879 70.0203 332.558 69.7476 332.317 69.401C332.075 69.0544 331.943 68.6595 331.92 68.2163H332.943C332.983 68.6112 333.162 68.9379 333.48 69.1964C333.801 69.4521 334.185 69.58 334.631 69.58C334.989 69.58 335.307 69.4961 335.585 69.3285C335.866 69.1609 336.087 68.9308 336.246 68.6382C336.408 68.3427 336.489 68.0089 336.489 67.6368C336.489 67.2561 336.405 66.9166 336.237 66.6183C336.072 66.3172 335.845 66.08 335.555 65.9067C335.266 65.7334 334.935 65.6453 334.562 65.6425C334.295 65.6396 334.021 65.6808 333.74 65.766C333.459 65.8484 333.227 65.955 333.045 66.0856L332.057 65.9663L332.585 61.6709H337.119V62.6084H333.472L333.165 65.1822H333.216C333.395 65.0402 333.619 64.9223 333.889 64.8285C334.159 64.7348 334.44 64.6879 334.733 64.6879C335.267 64.6879 335.743 64.8157 336.161 65.0714C336.581 65.3243 336.911 65.6709 337.149 66.1112C337.391 66.5515 337.511 67.0544 337.511 67.6197C337.511 68.1765 337.386 68.6737 337.136 69.1112C336.889 69.5459 336.548 69.8896 336.114 70.1425C335.679 70.3925 335.185 70.5175 334.631 70.5175Z" fill="black"/>
<path d="M331.972 100.171V108.898H330.915V101.279H330.864L328.733 102.694V101.62L330.915 100.171H331.972ZM337.43 109.017C336.868 109.017 336.366 108.921 335.926 108.728C335.489 108.534 335.141 108.266 334.882 107.922C334.626 107.576 334.487 107.174 334.464 106.716H335.538C335.561 106.998 335.658 107.24 335.828 107.445C335.999 107.647 336.222 107.803 336.497 107.914C336.773 108.025 337.078 108.08 337.413 108.08C337.788 108.08 338.121 108.015 338.411 107.884C338.7 107.753 338.928 107.571 339.092 107.338C339.257 107.106 339.339 106.836 339.339 106.529C339.339 106.208 339.26 105.925 339.101 105.681C338.942 105.434 338.709 105.24 338.402 105.101C338.095 104.962 337.72 104.892 337.277 104.892H336.578V103.955H337.277C337.624 103.955 337.928 103.892 338.189 103.767C338.453 103.642 338.659 103.466 338.807 103.239C338.957 103.012 339.033 102.745 339.033 102.438C339.033 102.142 338.967 101.885 338.837 101.667C338.706 101.448 338.521 101.277 338.283 101.155C338.047 101.033 337.768 100.972 337.447 100.972C337.146 100.972 336.862 101.027 336.595 101.138C336.331 101.246 336.115 101.404 335.947 101.611C335.78 101.816 335.689 102.063 335.675 102.353H334.652C334.669 101.895 334.807 101.495 335.065 101.151C335.324 100.804 335.662 100.534 336.08 100.341C336.5 100.148 336.962 100.052 337.464 100.052C338.004 100.052 338.467 100.161 338.854 100.38C339.24 100.596 339.537 100.881 339.744 101.236C339.952 101.591 340.055 101.975 340.055 102.387C340.055 102.878 339.926 103.297 339.668 103.644C339.412 103.99 339.064 104.231 338.624 104.364V104.432C339.175 104.523 339.605 104.758 339.915 105.135C340.224 105.51 340.379 105.975 340.379 106.529C340.379 107.003 340.25 107.429 339.991 107.807C339.736 108.182 339.386 108.478 338.943 108.694C338.5 108.909 337.996 109.017 337.43 109.017Z" fill="black"/>
<path d="M334.699 147.517C334.114 147.517 333.597 147.414 333.148 147.206C332.702 146.996 332.354 146.708 332.104 146.341C331.854 145.972 331.73 145.552 331.733 145.08C331.73 144.711 331.803 144.37 331.95 144.057C332.098 143.742 332.3 143.479 332.555 143.269C332.814 143.056 333.102 142.921 333.42 142.864V142.813C333.003 142.705 332.67 142.471 332.423 142.11C332.176 141.746 332.054 141.333 332.057 140.87C332.054 140.427 332.166 140.03 332.393 139.681C332.621 139.331 332.933 139.056 333.331 138.854C333.732 138.652 334.188 138.552 334.699 138.552C335.205 138.552 335.656 138.652 336.054 138.854C336.452 139.056 336.764 139.331 336.991 139.681C337.222 140.03 337.338 140.427 337.341 140.87C337.338 141.333 337.212 141.746 336.962 142.11C336.714 142.471 336.386 142.705 335.977 142.813V142.864C336.293 142.921 336.577 143.056 336.83 143.269C337.082 143.479 337.284 143.742 337.435 144.057C337.585 144.37 337.662 144.711 337.665 145.08C337.662 145.552 337.534 145.972 337.281 146.341C337.031 146.708 336.683 146.996 336.237 147.206C335.794 147.414 335.281 147.517 334.699 147.517ZM334.699 146.58C335.094 146.58 335.435 146.516 335.722 146.388C336.009 146.26 336.23 146.08 336.386 145.847C336.543 145.614 336.622 145.341 336.625 145.029C336.622 144.699 336.537 144.408 336.369 144.155C336.202 143.902 335.973 143.704 335.683 143.559C335.396 143.414 335.068 143.341 334.699 143.341C334.327 143.341 333.994 143.414 333.702 143.559C333.412 143.704 333.183 143.902 333.016 144.155C332.851 144.408 332.77 144.699 332.773 145.029C332.77 145.341 332.845 145.614 332.999 145.847C333.155 146.08 333.378 146.26 333.668 146.388C333.957 146.516 334.301 146.58 334.699 146.58ZM334.699 142.438C335.011 142.438 335.288 142.375 335.53 142.25C335.774 142.125 335.966 141.951 336.105 141.726C336.244 141.502 336.315 141.239 336.318 140.938C336.315 140.642 336.246 140.385 336.109 140.167C335.973 139.945 335.784 139.775 335.543 139.655C335.301 139.533 335.02 139.472 334.699 139.472C334.372 139.472 334.087 139.533 333.842 139.655C333.598 139.775 333.409 139.945 333.276 140.167C333.142 140.385 333.077 140.642 333.08 140.938C333.077 141.239 333.143 141.502 333.28 141.726C333.419 141.951 333.611 142.125 333.855 142.25C334.099 142.375 334.381 142.438 334.699 142.438Z" fill="black"/>
<path d="M331.903 185.898V185.131L334.784 181.978C335.122 181.608 335.401 181.287 335.619 181.015C335.838 180.739 336 180.481 336.105 180.239C336.213 179.995 336.267 179.739 336.267 179.472C336.267 179.165 336.193 178.9 336.045 178.675C335.901 178.451 335.702 178.277 335.449 178.155C335.196 178.033 334.912 177.972 334.597 177.972C334.261 177.972 333.969 178.042 333.719 178.181C333.472 178.317 333.28 178.509 333.143 178.756C333.01 179.003 332.943 179.293 332.943 179.625H331.938C331.938 179.114 332.055 178.665 332.291 178.279C332.527 177.892 332.848 177.591 333.254 177.375C333.663 177.159 334.122 177.052 334.631 177.052C335.142 177.052 335.595 177.159 335.99 177.375C336.385 177.591 336.695 177.883 336.919 178.249C337.143 178.615 337.256 179.023 337.256 179.472C337.256 179.793 337.197 180.107 337.081 180.414C336.967 180.718 336.768 181.057 336.484 181.432C336.203 181.804 335.812 182.259 335.312 182.796L333.352 184.892V184.961H337.409V185.898H331.903Z" fill="black"/>
<path d="M380.58 43.7845C379.966 43.7845 379.438 43.6396 378.994 43.3498C378.551 43.0601 378.21 42.6609 377.972 42.1524C377.733 41.6439 377.614 41.0629 377.614 40.4095C377.614 39.7447 377.736 39.1581 377.98 38.6496C378.227 38.1382 378.571 37.739 379.011 37.4521C379.455 37.1623 379.972 37.0175 380.562 37.0175C381.023 37.0175 381.438 37.1027 381.807 37.2731C382.176 37.4436 382.479 37.6822 382.714 37.989C382.95 38.2959 383.097 38.6538 383.153 39.0629H382.148C382.071 38.7646 381.901 38.5004 381.636 38.2703C381.375 38.0373 381.023 37.9209 380.58 37.9209C380.188 37.9209 379.844 38.0231 379.548 38.2277C379.256 38.4294 379.027 38.7149 378.862 39.0842C378.7 39.4507 378.619 39.8811 378.619 40.3754C378.619 40.8811 378.699 41.3214 378.858 41.6964C379.02 42.0714 379.247 42.3626 379.54 42.57C379.835 42.7774 380.182 42.8811 380.58 42.8811C380.841 42.8811 381.078 42.8356 381.291 42.7447C381.504 42.6538 381.685 42.5231 381.832 42.3527C381.98 42.1822 382.085 41.9777 382.148 41.739H383.153C383.097 42.1254 382.956 42.4734 382.732 42.7831C382.51 43.0899 382.216 43.3342 381.849 43.516C381.486 43.695 381.063 43.7845 380.58 43.7845ZM385.629 39.7106V43.6481H384.624V34.9209H385.629V38.1254H385.714C385.868 37.7873 386.098 37.5189 386.405 37.32C386.714 37.1183 387.126 37.0175 387.641 37.0175C388.087 37.0175 388.477 37.1069 388.812 37.2859C389.148 37.4621 389.408 37.7334 389.592 38.0998C389.78 38.4635 389.874 38.9265 389.874 39.489V43.6481H388.868V39.5572C388.868 39.0373 388.733 38.6353 388.463 38.3513C388.196 38.0643 387.825 37.9209 387.351 37.9209C387.021 37.9209 386.726 37.9905 386.464 38.1297C386.206 38.2689 386.001 38.472 385.851 38.739C385.703 39.0061 385.629 39.33 385.629 39.7106ZM391.713 43.6481V37.1027H392.685V38.0913H392.753C392.873 37.7675 393.088 37.5047 393.401 37.303C393.713 37.1013 394.066 37.0004 394.458 37.0004C394.532 37.0004 394.624 37.0018 394.735 37.0047C394.846 37.0075 394.929 37.0118 394.986 37.0175V38.0402C394.952 38.0317 394.874 38.0189 394.752 38.0018C394.632 37.9819 394.506 37.972 394.373 37.972C394.054 37.972 393.77 38.0388 393.52 38.1723C393.273 38.303 393.077 38.4848 392.932 38.7177C392.79 38.9478 392.719 39.2106 392.719 39.5061V43.6481H391.713ZM398.638 43.7845C398.047 43.7845 397.529 43.6439 397.083 43.3626C396.64 43.0814 396.293 42.6879 396.043 42.1822C395.796 41.6765 395.672 41.0856 395.672 40.4095C395.672 39.7277 395.796 39.1325 396.043 38.624C396.293 38.1155 396.64 37.7206 397.083 37.4393C397.529 37.1581 398.047 37.0175 398.638 37.0175C399.229 37.0175 399.746 37.1581 400.189 37.4393C400.635 37.7206 400.982 38.1155 401.229 38.624C401.479 39.1325 401.604 39.7277 401.604 40.4095C401.604 41.0856 401.479 41.6765 401.229 42.1822C400.982 42.6879 400.635 43.0814 400.189 43.3626C399.746 43.6439 399.229 43.7845 398.638 43.7845ZM398.638 42.8811C399.087 42.8811 399.456 42.766 399.746 42.5359C400.036 42.3058 400.25 42.0032 400.39 41.6282C400.529 41.2532 400.598 40.847 400.598 40.4095C400.598 39.972 400.529 39.5643 400.39 39.1865C400.25 38.8086 400.036 38.5032 399.746 38.2703C399.456 38.0373 399.087 37.9209 398.638 37.9209C398.189 37.9209 397.82 38.0373 397.53 38.2703C397.24 38.5032 397.026 38.8086 396.887 39.1865C396.748 39.5643 396.678 39.972 396.678 40.4095C396.678 40.847 396.748 41.2532 396.887 41.6282C397.026 42.0032 397.24 42.3058 397.53 42.5359C397.82 42.766 398.189 42.8811 398.638 42.8811ZM403.139 43.6481V37.1027H404.111V38.1254H404.196C404.332 37.776 404.553 37.5047 404.857 37.3115C405.161 37.1155 405.526 37.0175 405.952 37.0175C406.384 37.0175 406.743 37.1155 407.03 37.3115C407.32 37.5047 407.545 37.776 407.707 38.1254H407.776C407.943 37.7873 408.195 37.5189 408.53 37.32C408.865 37.1183 409.267 37.0175 409.736 37.0175C410.321 37.0175 410.8 37.2007 411.172 37.5672C411.544 37.9308 411.73 38.4976 411.73 39.2675V43.6481H410.724V39.2675C410.724 38.7845 410.592 38.4393 410.328 38.2319C410.064 38.0246 409.753 37.9209 409.395 37.9209C408.935 37.9209 408.578 38.0601 408.325 38.3385C408.072 38.614 407.946 38.9635 407.946 39.3868V43.6481H406.923V39.1652C406.923 38.793 406.803 38.4933 406.561 38.266C406.32 38.0359 406.009 37.9209 405.628 37.9209C405.366 37.9209 405.122 37.9905 404.895 38.1297C404.67 38.2689 404.489 38.4621 404.349 38.7092C404.213 38.9535 404.145 39.2362 404.145 39.5572V43.6481H403.139ZM413.705 43.6481V34.9209H418.972V35.8584H414.762V38.8072H418.7V39.7447H414.762V42.7106H419.04V43.6481H413.705ZM421.746 39.7106V43.6481H420.741V37.1027H421.712V38.1254H421.798C421.951 37.793 422.184 37.526 422.496 37.3243C422.809 37.1197 423.212 37.0175 423.707 37.0175C424.15 37.0175 424.538 37.1084 424.87 37.2902C425.202 37.4692 425.461 37.7419 425.646 38.1084C425.83 38.472 425.923 38.9322 425.923 39.489V43.6481H424.917V39.5572C424.917 39.043 424.783 38.6425 424.516 38.3555C424.249 38.0657 423.883 37.9209 423.417 37.9209C423.096 37.9209 422.809 37.9905 422.556 38.1297C422.306 38.2689 422.109 38.472 421.964 38.739C421.819 39.0061 421.746 39.33 421.746 39.7106ZM430.232 43.7845C429.686 43.7845 429.205 43.6467 428.787 43.3711C428.37 43.0927 428.043 42.7007 427.807 42.195C427.571 41.6865 427.453 41.0856 427.453 40.3925C427.453 39.705 427.571 39.1084 427.807 38.6027C428.043 38.097 428.371 37.7064 428.792 37.4308C429.212 37.1552 429.698 37.0175 430.249 37.0175C430.675 37.0175 431.012 37.0885 431.259 37.2305C431.509 37.3697 431.699 37.5288 431.83 37.7078C431.963 37.8839 432.067 38.0288 432.141 38.1425H432.226V34.9209H433.232V43.6481H432.26V42.6425H432.141C432.067 42.7618 431.962 42.9123 431.826 43.0942C431.689 43.2731 431.495 43.4336 431.242 43.5757C430.989 43.7149 430.652 43.7845 430.232 43.7845ZM430.368 42.8811C430.772 42.8811 431.113 42.776 431.391 42.5657C431.669 42.3527 431.881 42.0586 432.026 41.6836C432.171 41.3058 432.243 40.8697 432.243 40.3754C432.243 39.8868 432.172 39.4592 432.03 39.0927C431.888 38.7234 431.678 38.4365 431.4 38.2319C431.121 38.0246 430.777 37.9209 430.368 37.9209C429.942 37.9209 429.587 38.0302 429.303 38.249C429.022 38.4649 428.81 38.7589 428.668 39.1311C428.529 39.5004 428.459 39.9152 428.459 40.3754C428.459 40.8413 428.53 41.2646 428.672 41.6453C428.817 42.0231 429.03 42.3243 429.311 42.5487C429.596 42.7703 429.948 42.8811 430.368 42.8811Z" fill="black"/>
<path d="M405.699 70.5175C405.114 70.5175 404.597 70.4138 404.148 70.2064C403.702 69.9961 403.354 69.7078 403.104 69.3413C402.854 68.972 402.73 68.5515 402.733 68.08C402.73 67.7106 402.803 67.3697 402.95 67.0572C403.098 66.7419 403.3 66.4791 403.555 66.2689C403.814 66.0558 404.102 65.9209 404.42 65.864V65.8129C404.003 65.705 403.67 65.4706 403.423 65.1098C403.176 64.7461 403.054 64.3328 403.057 63.8697C403.054 63.4265 403.166 63.0302 403.393 62.6808C403.621 62.3314 403.933 62.0558 404.331 61.8541C404.732 61.6524 405.188 61.5515 405.699 61.5515C406.205 61.5515 406.656 61.6524 407.054 61.8541C407.452 62.0558 407.764 62.3314 407.991 62.6808C408.222 63.0302 408.338 63.4265 408.341 63.8697C408.338 64.3328 408.212 64.7461 407.962 65.1098C407.714 65.4706 407.386 65.705 406.977 65.8129V65.864C407.293 65.9209 407.577 66.0558 407.83 66.2689C408.082 66.4791 408.284 66.7419 408.435 67.0572C408.585 67.3697 408.662 67.7106 408.665 68.08C408.662 68.5515 408.534 68.972 408.281 69.3413C408.031 69.7078 407.683 69.9961 407.237 70.2064C406.794 70.4138 406.281 70.5175 405.699 70.5175ZM405.699 69.58C406.094 69.58 406.435 69.516 406.722 69.3882C407.009 69.2603 407.23 69.08 407.386 68.847C407.543 68.614 407.622 68.3413 407.625 68.0288C407.622 67.6993 407.537 67.4081 407.369 67.1552C407.202 66.9024 406.973 66.7035 406.683 66.5586C406.396 66.4138 406.068 66.3413 405.699 66.3413C405.327 66.3413 404.994 66.4138 404.702 66.5586C404.412 66.7035 404.183 66.9024 404.016 67.1552C403.851 67.4081 403.77 67.6993 403.773 68.0288C403.77 68.3413 403.845 68.614 403.999 68.847C404.155 69.08 404.378 69.2603 404.668 69.3882C404.957 69.516 405.301 69.58 405.699 69.58ZM405.699 65.4379C406.011 65.4379 406.288 65.3754 406.53 65.2504C406.774 65.1254 406.966 64.9507 407.105 64.7263C407.244 64.5018 407.315 64.239 407.318 63.9379C407.315 63.6425 407.246 63.3853 407.109 63.1666C406.973 62.945 406.784 62.7746 406.543 62.6552C406.301 62.5331 406.02 62.472 405.699 62.472C405.372 62.472 405.087 62.5331 404.842 62.6552C404.598 62.7746 404.409 62.945 404.276 63.1666C404.142 63.3853 404.077 63.6425 404.08 63.9379C404.077 64.239 404.143 64.5018 404.28 64.7263C404.419 64.9507 404.611 65.1254 404.855 65.2504C405.099 65.3754 405.381 65.4379 405.699 65.4379Z" fill="black"/>
<path d="M403.472 100.171V108.898H402.415V101.279H402.364L400.233 102.694V101.62L402.415 100.171H403.472ZM406.254 108.898L410.158 101.177V101.108H405.658V100.171H411.249V101.159L407.362 108.898H406.254Z" fill="black"/>
<path d="M405.682 138.552C406.04 138.554 406.398 138.623 406.756 138.756C407.114 138.89 407.44 139.111 407.736 139.421C408.031 139.728 408.268 140.147 408.447 140.678C408.626 141.209 408.716 141.875 408.716 142.677C408.716 143.452 408.642 144.141 408.494 144.743C408.349 145.343 408.139 145.848 407.864 146.26C407.591 146.672 407.259 146.985 406.866 147.198C406.477 147.411 406.037 147.517 405.545 147.517C405.057 147.517 404.621 147.421 404.237 147.228C403.857 147.032 403.544 146.76 403.3 146.414C403.058 146.064 402.903 145.659 402.835 145.199H403.875C403.969 145.6 404.155 145.931 404.433 146.192C404.714 146.451 405.085 146.58 405.545 146.58C406.219 146.58 406.75 146.286 407.139 145.698C407.531 145.11 407.727 144.279 407.727 143.205H407.659C407.5 143.444 407.311 143.65 407.092 143.823C406.874 143.996 406.631 144.13 406.364 144.223C406.097 144.317 405.813 144.364 405.511 144.364C405.011 144.364 404.553 144.24 404.135 143.993C403.72 143.743 403.388 143.401 403.138 142.966C402.891 142.529 402.767 142.029 402.767 141.466C402.767 140.932 402.886 140.444 403.125 140C403.366 139.554 403.705 139.199 404.139 138.935C404.577 138.671 405.091 138.543 405.682 138.552ZM405.682 139.489C405.324 139.489 405.001 139.579 404.714 139.758C404.43 139.934 404.205 140.172 404.037 140.473C403.872 140.772 403.79 141.103 403.79 141.466C403.79 141.83 403.869 142.161 404.028 142.459C404.19 142.755 404.411 142.99 404.689 143.167C404.97 143.34 405.29 143.427 405.648 143.427C405.918 143.427 406.169 143.374 406.402 143.269C406.635 143.161 406.838 143.015 407.011 142.83C407.188 142.642 407.325 142.431 407.425 142.195C407.524 141.956 407.574 141.708 407.574 141.449C407.574 141.108 407.491 140.789 407.327 140.49C407.165 140.192 406.94 139.951 406.653 139.766C406.369 139.581 406.045 139.489 405.682 139.489Z" fill="black"/>
<path d="M402.699 184.108V183.239L406.534 177.171H407.165V178.517H406.739L403.841 183.103V183.171H409.006V184.108H402.699ZM406.807 185.898V183.844V183.439V177.171H407.812V185.898H406.807Z" fill="black"/>
</svg>
